<svg width="184" height="196" viewBox="0 0 184 196" fill="none" xmlns="http://www.w3.org/2000/svg">
<path d="M163.265 108.53L169.177 108.406L172.091 108.357C173.061 108.335 174.022 108.357 174.992 108.33L174.792 108.53L174.77 103.574L174.992 103.795L169.128 103.764C167.171 103.764 165.218 103.716 163.265 103.694L163.384 103.574C163.384 104.384 163.345 105.199 163.327 106.023L163.265 108.53ZM163.265 108.53L163.198 106.076C163.198 105.248 163.15 104.415 163.141 103.574V103.437H163.265C165.218 103.437 167.171 103.37 169.128 103.366L174.992 103.339H175.213V103.561L175.186 108.516V108.751H174.992C174 108.751 173.012 108.751 172.024 108.729L169.075 108.68L163.265 108.53Z" fill="#EBEBEB"/>
<path d="M169.806 114.778L175.718 114.654L178.632 114.606C179.602 114.583 180.567 114.606 181.533 114.579L181.333 114.778V109.823L181.555 110.044L175.691 110.013C173.734 110.013 171.781 109.964 169.828 109.942L169.948 109.823C169.948 110.633 169.908 111.448 169.89 112.272L169.806 114.778ZM169.806 114.778L169.744 112.325C169.722 111.497 169.691 110.664 169.682 109.823V109.703H169.806C171.759 109.681 173.712 109.637 175.669 109.632L181.533 109.606H181.754V109.827L181.727 114.783V114.982H181.533C180.545 114.982 179.553 114.982 178.565 114.96L175.616 114.911L169.806 114.778Z" fill="#EBEBEB"/>
<path d="M156.697 114.774H168.424V109.818H156.697V114.774Z" fill="#EBEBEB"/>
<path d="M2.47895 148.984L8.39544 148.86L11.3094 148.811C12.2748 148.811 13.2402 148.811 14.2056 148.785L14.0108 148.984L13.9842 144.029L14.2056 144.25L8.3423 144.219C6.38932 144.219 4.43635 144.17 2.47895 144.148L2.59852 144.029C2.59852 144.839 2.56309 145.654 2.54094 146.477L2.47895 148.984ZM2.47895 148.984L2.41695 146.531C2.3948 145.702 2.36823 144.87 2.35938 144.029V143.909H2.47895C4.43635 143.887 6.38932 143.843 8.3423 143.838L14.2056 143.812H14.4271V144.033V148.988V149.188H14.2278C13.2402 149.188 12.2482 149.188 11.2651 149.166L8.30687 149.108L2.47895 148.984Z" fill="#EBEBEB"/>
<path d="M9.02428 155.228H20.751V150.273H9.02428V155.228Z" fill="#EBEBEB"/>
<path d="M32.863 56.4325L38.7795 56.3085L41.6934 56.2598C42.6588 56.2377 43.6243 56.2598 44.5897 56.2377L44.3948 56.4325L44.3682 51.477L44.5897 51.6985L38.7263 51.6719C36.7734 51.6719 34.816 51.6232 32.863 51.5966L32.9825 51.477C32.9825 52.2875 32.9471 53.1067 32.925 53.9304L32.863 56.4325ZM32.863 56.4325L32.801 53.9836C32.801 53.1554 32.7523 52.3185 32.7434 51.477V51.3575H32.863C34.816 51.3353 36.7734 51.2866 38.7263 51.2866L44.5897 51.2556H44.8111V51.477L44.789 56.4325V56.6318H44.5941C43.6065 56.6318 42.6146 56.6318 41.6314 56.6053L38.682 56.5565L32.863 56.4325Z" fill="#EBEBEB"/>
<path d="M8.96227 13.6L20.689 13.6V8.64447L8.96227 8.64447V13.6Z" fill="#EBEBEB"/>
<path d="M2.42576 19.8487L8.33782 19.738L11.2518 19.6893C12.2216 19.6893 13.1826 19.6893 14.1525 19.6893L13.9532 19.8841V14.9286L14.1746 15.15L8.30682 15.088C6.34942 15.088 4.39644 15.0393 2.44347 15.0127L2.56304 14.8932C2.56304 15.7036 2.52318 16.5184 2.50547 17.3466L2.42576 19.8487ZM2.42576 19.8487L2.35933 17.3997C2.35933 16.5716 2.31061 15.7346 2.30176 14.8932V14.7736H2.42576C4.37873 14.7736 6.3317 14.7028 8.28911 14.6983L14.1525 14.6718H14.3739V14.8932L14.3473 19.8487V20.048H14.1525C13.1605 20.048 12.1729 20.048 11.1854 20.0214L8.23596 19.9727L2.42576 19.8487Z" fill="#EBEBEB"/>
<path d="M163.265 13.6L169.177 13.476L172.091 13.4273C173.061 13.4273 174.022 13.4273 174.992 13.4273L174.792 13.6222L174.77 8.66666L174.992 8.88809L169.128 8.86152C167.171 8.86152 165.218 8.8128 163.265 8.78623L163.384 8.66666C163.384 9.47708 163.345 10.2919 163.327 11.1201L163.265 13.6ZM163.265 13.6L163.198 11.1511C163.198 10.3229 163.15 9.48594 163.141 8.64452V8.52495H163.265C165.218 8.52495 167.171 8.45409 169.128 8.44967L174.992 8.4231H175.213V8.66666L175.186 13.6222V13.8214H174.992C174 13.8214 173.012 13.8215 172.024 13.7949L169.062 13.724L163.265 13.6Z" fill="#EBEBEB"/>
<path d="M144.727 75.5681H156.454V70.6126H144.727V75.5681Z" fill="#EBEBEB"/>
<path d="M19.9228 39.4005C20.1427 39.2658 20.3956 39.1946 20.6535 39.1946C20.9114 39.1946 21.1643 39.2658 21.3842 39.4005L21.7606 39.6175C21.8891 39.6839 22.0175 39.7503 22.1503 39.8123C22.3842 39.9195 22.5839 40.089 22.7277 40.3023C22.8714 40.5156 22.9536 40.7644 22.9652 41.0213L23.0183 42.8193L28.8817 42.6377L28.8241 40.8397C28.8182 40.5814 28.8837 40.3265 29.0134 40.103C29.1432 39.8795 29.332 39.6962 29.5592 39.5732C29.8151 39.4392 30.0634 39.2913 30.3032 39.1303C30.5138 38.9818 30.7614 38.8944 31.0186 38.878C31.2758 38.8616 31.5325 38.9167 31.7602 39.0373L33.3412 39.8832L36.1134 34.7151L34.5325 33.8648C34.3058 33.7427 34.1174 33.5601 33.9884 33.3372C33.8594 33.1144 33.7948 32.8601 33.8018 32.6027C33.8112 32.3072 33.8023 32.0114 33.7752 31.717C33.7467 31.4571 33.7923 31.1945 33.9067 30.9594C34.0211 30.7243 34.1997 30.5264 34.4218 30.3885L35.9496 29.4806L32.8496 24.4985L31.3351 25.433C31.116 25.5677 30.8638 25.639 30.6066 25.639C30.3494 25.639 30.0972 25.5677 29.8781 25.433C29.7585 25.3577 29.6301 25.2868 29.5061 25.2204C29.3821 25.154 29.2493 25.0831 29.1164 25.0255C28.8819 24.918 28.6818 24.7478 28.538 24.5337C28.3942 24.3195 28.3124 24.0698 28.3016 23.8121L28.2351 22.0009L22.3718 22.1824L22.4293 23.9538C22.4373 24.2125 22.3726 24.4683 22.2427 24.6921C22.1128 24.916 21.9228 25.0989 21.6942 25.2204C21.4384 25.3545 21.19 25.5023 20.9502 25.6632C20.7401 25.8127 20.4924 25.9007 20.235 25.9171C19.9776 25.9335 19.7207 25.8778 19.4932 25.7562L17.9123 24.9104L15.14 30.1183L16.721 30.9686C16.9476 31.0905 17.1356 31.2732 17.2639 31.4962C17.3922 31.7192 17.4557 31.9736 17.4473 32.2307C17.4416 32.5263 17.452 32.822 17.4783 33.1164C17.5062 33.3762 17.4604 33.6387 17.346 33.8737C17.2317 34.1086 17.0534 34.3066 16.8317 34.445L15.3039 35.3927L18.4038 40.3747L19.9228 39.4005ZM21.3886 30.1449C21.8362 29.3065 22.5223 28.6197 23.3602 28.1712C24.1982 27.7228 25.1503 27.5329 26.0961 27.6256C27.0419 27.7183 27.939 28.0894 28.674 28.692C29.4089 29.2946 29.9486 30.1015 30.2249 31.0109C30.5011 31.9202 30.5015 32.891 30.226 33.8006C29.9505 34.7102 29.4115 35.5176 28.677 36.1208C27.9426 36.7239 27.0458 37.0958 26.1001 37.1893C25.1543 37.2828 24.2021 37.0937 23.3638 36.6459C22.2407 36.0448 21.402 35.0227 21.0317 33.8039C20.6615 32.5851 20.7898 31.2692 21.3886 30.1449Z" fill="#EBEBEB"/>
<path d="M173.49 99.6903C173.582 99.534 173.716 99.4065 173.876 99.322C174.037 99.2375 174.217 99.1994 174.398 99.212H175.005C175.182 99.2027 175.358 99.2418 175.514 99.3254C175.67 99.4089 175.8 99.5336 175.891 99.6859L176.519 100.78L180.062 98.7249L179.433 97.6355C179.343 97.4786 179.299 97.2997 179.305 97.1189C179.311 96.9382 179.368 96.7628 179.469 96.6125C179.581 96.4383 179.683 96.2612 179.774 96.0811C179.857 95.9171 179.983 95.7795 180.14 95.6839C180.296 95.5884 180.477 95.5388 180.66 95.5408H181.918V91.4312H180.66C180.477 91.4341 180.297 91.3854 180.14 91.2906C179.984 91.1958 179.857 91.0588 179.774 90.8953C179.683 90.7123 179.581 90.5348 179.469 90.3639C179.368 90.2136 179.311 90.0382 179.305 89.8574C179.299 89.6767 179.343 89.4977 179.433 89.3409L180.062 88.2471L176.519 86.1967L175.886 87.2905C175.796 87.4436 175.666 87.5692 175.51 87.6535C175.354 87.7379 175.178 87.7777 175 87.7688C174.899 87.7688 174.797 87.7688 174.695 87.7688C174.593 87.7688 174.496 87.7688 174.394 87.7688C174.213 87.7799 174.033 87.7411 173.873 87.6568C173.713 87.5725 173.579 87.4457 173.486 87.2905L172.857 86.1967L169.314 88.2471L169.943 89.3365C170.033 89.4933 170.078 89.6722 170.071 89.853C170.065 90.0338 170.008 90.2092 169.908 90.3595C169.798 90.5336 169.697 90.7108 169.602 90.8909C169.52 91.0552 169.394 91.1931 169.237 91.2887C169.08 91.3843 168.9 91.4337 168.716 91.4312H167.459V95.5408H168.716C168.9 95.5388 169.08 95.5884 169.237 95.6839C169.393 95.7795 169.52 95.9171 169.602 96.0811C169.693 96.2641 169.795 96.4416 169.908 96.6125C170.008 96.7628 170.065 96.9382 170.071 97.1189C170.078 97.2997 170.033 97.4786 169.943 97.6355L169.314 98.7249L172.857 100.78L173.49 99.6903ZM171.334 93.4904C171.333 92.8246 171.529 92.1734 171.899 91.6193C172.268 91.0653 172.793 90.6332 173.408 90.3778C174.023 90.1224 174.7 90.0551 175.353 90.1844C176.006 90.3138 176.607 90.634 177.078 91.1045C177.549 91.575 177.87 92.1747 178 92.8277C178.13 93.4807 178.064 94.1577 177.809 94.7729C177.555 95.3882 177.123 95.9141 176.57 96.2841C176.016 96.6541 175.365 96.8517 174.699 96.8517C173.809 96.8493 172.955 96.4944 172.325 95.8646C171.695 95.2347 171.34 94.3811 171.338 93.4904H171.334Z" fill="#EBEBEB"/>
<path d="M3.16095 47.4914C3.31759 47.5829 3.44544 47.7165 3.52999 47.8769C3.61453 48.0374 3.65238 48.2184 3.63923 48.3993C3.63923 48.4967 3.63923 48.5986 3.63923 48.7004C3.63923 48.8023 3.63923 48.9041 3.63923 49.006C3.64862 49.1828 3.60943 49.3588 3.5259 49.515C3.44237 49.6711 3.31769 49.8014 3.16538 49.8917L2.07153 50.5205L4.12636 54.0634L5.20692 53.4655C5.36409 53.3764 5.54286 53.3326 5.72341 53.3388C5.90397 53.3451 6.07928 53.4012 6.22991 53.5009C6.40262 53.6116 6.57976 53.7179 6.76133 53.8109C6.92261 53.8906 7.05856 54.0136 7.15397 54.1661C7.24938 54.3186 7.3005 54.4946 7.30161 54.6745V55.9322H11.4068V54.6745C11.407 54.495 11.4573 54.319 11.5519 54.1665C11.6466 54.0139 11.7819 53.8908 11.9427 53.8109C12.1258 53.7182 12.3032 53.6146 12.4741 53.5009C12.6247 53.4012 12.8 53.3451 12.9806 53.3388C13.1612 53.3326 13.3399 53.3764 13.4971 53.4655L14.5909 54.0944L16.6413 50.5515L15.5475 49.9183C15.3954 49.8274 15.2706 49.6972 15.1864 49.5413C15.1022 49.3854 15.0617 49.2096 15.0692 49.0326C15.0692 48.9307 15.0692 48.8333 15.0692 48.7314C15.0692 48.6296 15.0692 48.5277 15.0692 48.4303C15.0576 48.2496 15.0961 48.0692 15.1805 47.909C15.2649 47.7488 15.3919 47.6151 15.5475 47.5224L16.6413 46.8936L14.5909 43.3508L13.5015 43.9796C13.3447 44.0697 13.1657 44.1141 12.985 44.1079C12.8042 44.1016 12.6288 44.0449 12.4785 43.9442C12.3073 43.835 12.1302 43.7331 11.9471 43.6386C11.7828 43.5569 11.6449 43.4304 11.5493 43.2737C11.4537 43.117 11.4043 42.9365 11.4068 42.7529V41.4952H7.31046V42.7529C7.31246 42.9364 7.26287 43.1167 7.16734 43.2733C7.07181 43.4299 6.93419 43.5565 6.77018 43.6386C6.58717 43.7299 6.40972 43.832 6.23876 43.9442C6.08765 44.0448 5.91152 44.1014 5.73008 44.1077C5.54864 44.1139 5.36904 44.0696 5.21135 43.9796L4.12636 43.3508L2.07153 46.8936L3.16095 47.4914ZM9.36086 45.3348C10.0267 45.3339 10.6779 45.5305 11.2319 45.8998C11.786 46.2691 12.2181 46.7945 12.4735 47.4094C12.7289 48.0243 12.7962 48.7011 12.6668 49.3543C12.5375 50.0075 12.2173 50.6076 11.7467 51.0787C11.2762 51.5499 10.6765 51.8709 10.0235 52.0011C9.37053 52.1313 8.69359 52.0649 8.07833 51.8103C7.46308 51.5557 6.93717 51.1243 6.56715 50.5708C6.19713 50.0172 5.99962 49.3663 5.99962 48.7004C6.00079 47.8089 6.35516 46.9542 6.98513 46.3234C7.61511 45.6926 8.46936 45.3371 9.36086 45.3348Z" fill="#EBEBEB"/>
<path d="M39.7316 195.979C57.4881 195.979 71.8826 193.919 71.8826 191.378C71.8826 188.837 57.4881 186.777 39.7316 186.777C21.9751 186.777 7.58057 188.837 7.58057 191.378C7.58057 193.919 21.9751 195.979 39.7316 195.979Z" fill="#EBEBEB"/>
<path d="M156.733 142.067C153.456 135.331 147.721 131.881 141.233 133.781C134.745 135.681 133.767 144.706 138.576 146.982C143.385 149.259 148.226 142.616 150.776 141.247C153.327 139.879 156.733 142.067 156.733 142.067Z" fill="#F83758"/>
<path d="M159.908 160.002C159.908 159.192 159.859 158.377 159.828 157.566C159.771 155.946 159.718 154.325 159.66 152.695C159.549 149.732 159.217 146.818 157.999 144.086C156.914 141.608 155.101 139.518 152.8 138.094C151.948 137.578 151.028 137.18 150.068 136.912C149.199 136.023 148.089 135.407 146.875 135.14C145.379 134.836 143.841 134.798 142.331 135.025C142.274 135.025 142.278 135.118 142.331 135.109C143.772 134.927 145.235 135.031 146.636 135.415C147.234 135.583 147.814 135.81 148.367 136.093C148.716 136.28 149.05 136.491 149.368 136.726C148.064 136.456 146.717 136.47 145.418 136.766C144.95 136.875 144.493 137.023 144.05 137.209C143.695 137.132 143.332 137.1 142.969 137.116C142.497 137.133 142.028 137.2 141.57 137.315C140.634 137.578 139.74 137.97 138.913 138.48C138.864 138.506 138.912 138.577 138.957 138.55C139.772 138.106 140.646 137.776 141.552 137.572C141.989 137.474 142.433 137.408 142.88 137.377C143.128 137.364 143.377 137.364 143.624 137.377C141.782 138.228 140.301 139.704 139.444 141.544C139.422 141.593 139.497 141.637 139.519 141.584C140.029 140.52 140.771 139.583 141.69 138.844C142.61 138.106 143.684 137.583 144.833 137.315C144.975 137.279 145.121 137.262 145.276 137.231C145.228 137.439 145.236 137.674 145.21 137.882C145.166 138.209 145.112 138.537 145.046 138.86C144.91 139.529 144.734 140.188 144.519 140.835C144.3 141.488 144.038 142.126 143.735 142.744C143.446 143.402 143.079 144.022 142.641 144.591C142.636 144.595 142.632 144.601 142.63 144.607C142.627 144.613 142.626 144.62 142.627 144.627C142.627 144.633 142.629 144.64 142.632 144.646C142.635 144.652 142.64 144.657 142.646 144.66C142.651 144.664 142.657 144.667 142.664 144.668C142.671 144.669 142.678 144.668 142.684 144.666C142.69 144.664 142.696 144.661 142.701 144.656C142.706 144.652 142.71 144.646 142.712 144.64C143.097 144.033 143.549 143.47 143.903 142.842C144.248 142.239 144.544 141.609 144.789 140.959C145.038 140.304 145.231 139.628 145.365 138.94C145.44 138.577 145.493 138.209 145.538 137.842C145.58 137.622 145.593 137.397 145.577 137.173C146.337 137.059 147.108 137.044 147.871 137.129C147.588 138.736 147.278 140.41 146.379 141.805C146.348 141.854 146.428 141.898 146.454 141.845C146.875 141.105 147.245 140.337 147.561 139.547C147.859 138.78 148.047 137.975 148.119 137.155C149.454 137.334 150.742 137.766 151.915 138.426C154.122 139.712 155.884 141.64 156.968 143.953C158.108 146.446 158.745 149.14 158.841 151.88C159.053 155.321 159.098 158.789 159.443 162.221C159.465 162.447 159.819 162.522 159.886 162.265C159.962 161.513 159.969 160.756 159.908 160.002Z" fill="#263238"/>
<path d="M152.331 137.558C152.115 137.296 151.865 137.064 151.587 136.868C151.317 136.646 151.042 136.425 150.754 136.239C150.187 135.844 149.559 135.544 148.894 135.353C148.841 135.353 148.819 135.428 148.894 135.437C149.561 135.603 150.187 135.904 150.732 136.323C151.007 136.527 151.268 136.739 151.525 136.965C151.753 137.204 152.005 137.417 152.278 137.603C152.304 137.665 152.366 137.607 152.331 137.558Z" fill="#263238"/>
<path d="M141.871 139.999C141.329 140.63 140.826 141.294 140.365 141.987C139.919 142.685 139.545 143.427 139.249 144.201C139.249 144.223 139.276 144.237 139.289 144.201C140.044 142.734 140.933 141.341 141.946 140.038C141.968 140.016 141.906 139.959 141.871 139.999Z" fill="#263238"/>
<path d="M148.921 139.334C148.852 139.755 148.729 140.164 148.553 140.552C148.372 140.927 148.163 141.288 147.929 141.633C147.929 141.655 147.929 141.677 147.964 141.659C148.531 141.01 148.893 140.207 149.005 139.352C149.014 139.308 148.93 139.277 148.921 139.334Z" fill="#263238"/>
<path d="M159.452 142.235C159.452 142.235 164.093 136.398 173.047 138.466C181.563 140.433 185.492 156.047 176.891 157.912C168.291 159.776 169.806 145.335 166.666 142.882C164.368 141.079 161.059 141.469 159.452 142.235Z" fill="#F83758"/>
<path d="M179.969 146.996C179.385 146.484 178.768 146.01 178.123 145.578C177.514 145.164 176.853 144.833 176.156 144.595C175.806 144.065 175.415 143.564 174.987 143.094C174.196 142.246 173.284 141.519 172.281 140.937H172.547C173.021 140.913 173.495 140.913 173.969 140.937C174.925 140.998 175.863 141.23 176.736 141.624C176.785 141.624 176.821 141.566 176.772 141.549C175.887 141.166 174.961 140.887 174.013 140.716C173.551 140.634 173.083 140.594 172.613 140.596C172.362 140.598 172.111 140.613 171.861 140.641H171.714C170.893 140.227 170.027 139.909 169.133 139.693L169.385 139.622C169.824 139.527 170.267 139.455 170.714 139.405C171.606 139.303 172.508 139.317 173.397 139.445C173.406 139.442 173.414 139.436 173.419 139.429C173.425 139.421 173.428 139.412 173.428 139.403C173.428 139.394 173.425 139.384 173.419 139.377C173.414 139.369 173.406 139.364 173.397 139.361C172.498 139.255 171.592 139.219 170.687 139.255C169.928 139.275 169.172 139.373 168.433 139.547C167.895 139.447 167.35 139.385 166.803 139.361C163.677 139.228 160.271 140.393 158.349 142.961C156.427 145.53 156.051 148.957 155.692 152.057C155.167 156.378 155.053 160.739 155.351 165.082C155.351 165.334 155.732 165.29 155.736 165.046C155.856 161.366 155.984 157.682 156.339 154.015C156.503 152.314 156.68 150.609 156.963 148.926C157.171 147.478 157.587 146.067 158.199 144.737C158.863 143.378 159.916 142.247 161.223 141.487C162.534 140.731 163.997 140.277 165.506 140.158C166.856 140.045 168.216 140.172 169.522 140.534C169.475 140.796 169.468 141.063 169.5 141.327C169.531 141.66 169.598 141.988 169.699 142.306C169.795 142.612 169.919 142.909 170.071 143.191C170.24 143.497 170.448 143.772 170.634 144.077C170.66 144.121 170.736 144.077 170.7 144.028C170.333 143.501 170.094 142.894 170.005 142.257C169.952 141.955 169.916 141.651 169.899 141.345C169.899 141.115 169.899 140.88 169.899 140.65C171.32 141.087 172.646 141.787 173.809 142.713C174.026 142.89 174.252 143.072 174.442 143.262C174.147 143.538 173.891 143.852 173.681 144.197C173.374 144.645 173.107 145.119 172.884 145.614C172.473 146.606 172.194 147.649 172.055 148.714C172.055 148.767 172.135 148.785 172.14 148.714C172.307 147.679 172.653 146.681 173.163 145.764C173.398 145.305 173.663 144.861 173.955 144.436C174.106 144.223 174.261 143.993 174.425 143.803C174.513 143.692 174.611 143.577 174.69 143.457C175.744 144.489 176.605 145.701 177.232 147.035C176.805 147.501 176.453 148.032 176.192 148.608C175.871 149.177 175.591 149.769 175.355 150.379C174.922 151.572 174.564 152.791 174.283 154.028C174.283 154.081 174.358 154.099 174.367 154.028C174.641 152.78 175.068 151.571 175.638 150.428C175.908 149.87 176.192 149.316 176.488 148.771C176.797 148.265 177.078 147.741 177.33 147.204C177.926 148.511 178.273 149.918 178.353 151.353C178.353 151.406 178.441 151.402 178.437 151.353C178.272 149.103 177.584 146.922 176.426 144.985C176.976 145.22 177.525 145.428 178.052 145.729C178.725 146.092 179.35 146.538 179.912 147.058C179.951 147.097 180.009 147.031 179.969 146.996Z" fill="#263238"/>
<path d="M173.397 147.323C173.132 148.209 172.791 149.068 172.547 149.98C172.306 150.831 172.176 151.709 172.162 152.593C172.162 152.62 172.202 152.62 172.206 152.593C172.449 150.805 172.88 149.048 173.49 147.35C173.492 147.344 173.493 147.337 173.492 147.331C173.491 147.325 173.489 147.319 173.486 147.313C173.483 147.308 173.479 147.303 173.474 147.299C173.469 147.295 173.463 147.292 173.457 147.29C173.451 147.288 173.445 147.288 173.438 147.289C173.432 147.289 173.426 147.291 173.42 147.294C173.415 147.297 173.41 147.302 173.406 147.306C173.402 147.311 173.399 147.317 173.397 147.323Z" fill="#263238"/>
<path d="M179.075 145.131C178.723 144.792 178.323 144.507 177.888 144.285C177.445 144.084 176.986 143.921 176.515 143.798C176.462 143.798 176.444 143.869 176.515 143.882C176.981 144.001 177.428 144.184 177.844 144.427C178.267 144.647 178.674 144.897 179.061 145.175C179.066 145.174 179.07 145.172 179.074 145.169C179.077 145.166 179.08 145.162 179.081 145.157C179.082 145.153 179.082 145.148 179.081 145.143C179.08 145.139 179.078 145.135 179.075 145.131Z" fill="#263238"/>
<path d="M163.863 134.436C163.863 134.436 164.717 123.958 172.507 120.562C179.013 117.728 182.737 125.035 178.14 129.512C174.42 133.134 168.455 131.5 163.863 134.436Z" fill="#F83758"/>
<path d="M176.701 122.594C175.514 123.075 174.357 123.623 173.233 124.237C172.302 124.772 171.404 125.363 170.545 126.009C170.674 125.743 170.784 125.469 170.917 125.207C171.121 124.804 171.338 124.406 171.577 124.025C172.056 123.231 172.634 122.5 173.295 121.85C173.335 121.815 173.269 121.753 173.233 121.793C172.574 122.443 171.969 123.146 171.427 123.896C171.158 124.277 170.911 124.671 170.687 125.079C170.457 125.456 170.28 125.863 170.16 126.288L170.076 126.35C168.715 127.434 167.469 128.653 166.356 129.99C166.378 129.888 166.396 129.786 166.427 129.689C166.573 129.18 166.728 128.67 166.896 128.166C167.233 127.091 167.707 126.064 168.305 125.11C168.336 125.066 168.26 125.021 168.229 125.07C167.618 126.025 167.073 127.021 166.6 128.05C166.382 128.553 166.201 129.071 166.059 129.6C165.947 129.944 165.862 130.297 165.807 130.654C165.466 131.097 165.134 131.518 164.819 131.983C161.476 136.744 159.797 142.501 159.394 148.267C159.276 149.984 159.247 151.706 159.306 153.426C159.314 155.162 159.462 156.895 159.749 158.607C159.771 158.718 159.939 158.682 159.939 158.576C159.899 157.062 159.744 155.556 159.713 154.041C159.684 152.522 159.733 151.003 159.859 149.489C160.104 146.465 160.674 143.476 161.56 140.574C162.465 137.601 163.798 134.775 165.519 132.187C165.847 132.12 166.174 132.032 166.498 131.948C166.821 131.863 167.277 131.748 167.662 131.642C168.41 131.449 169.137 131.182 169.832 130.845C169.837 130.842 169.841 130.838 169.844 130.834C169.847 130.829 169.85 130.824 169.851 130.819C169.852 130.813 169.852 130.808 169.851 130.802C169.851 130.797 169.849 130.792 169.846 130.787C169.843 130.783 169.839 130.779 169.834 130.775C169.83 130.772 169.825 130.77 169.82 130.769C169.814 130.767 169.809 130.767 169.803 130.768C169.798 130.769 169.793 130.771 169.788 130.774C169.098 131.149 168.349 131.404 167.574 131.531C166.963 131.655 166.329 131.73 165.718 131.872C166.285 131.049 166.887 130.251 167.53 129.49C169.014 129.624 170.51 129.513 171.958 129.162C172.728 128.975 173.486 128.739 174.225 128.453C175.009 128.152 175.744 127.767 176.515 127.444C176.525 127.439 176.533 127.431 176.536 127.42C176.54 127.41 176.54 127.398 176.535 127.388C176.53 127.378 176.522 127.371 176.511 127.367C176.501 127.363 176.49 127.364 176.48 127.368C175.085 128.129 173.563 128.627 171.989 128.839C170.599 129.062 169.194 129.177 167.786 129.184C168.34 128.551 168.911 127.931 169.522 127.351C171.568 125.402 174 123.613 176.692 122.679C176.776 122.661 176.75 122.577 176.701 122.594Z" fill="#263238"/>
<path d="M170.359 122.63C170.007 123.071 169.687 123.537 169.403 124.025C169.113 124.539 168.882 125.084 168.716 125.65C168.716 125.65 168.716 125.681 168.747 125.65C169.009 125.136 169.226 124.601 169.491 124.091C169.749 123.586 170.06 123.111 170.421 122.674C170.457 122.643 170.39 122.586 170.359 122.63Z" fill="#263238"/>
<path d="M177.604 126.115C177.098 126.397 176.562 126.621 176.006 126.784C175.473 126.962 174.93 127.11 174.38 127.227C174.354 127.227 174.358 127.275 174.38 127.271C174.955 127.211 175.521 127.088 176.068 126.903C176.607 126.698 177.133 126.462 177.644 126.195C177.697 126.164 177.653 126.089 177.604 126.115Z" fill="#263238"/>
<path d="M157.805 132.559C157.756 133.001 156.627 128.75 150.037 124.973C144.058 121.54 136.915 112.613 142.783 106.971C147.517 102.418 159.992 112.342 157.805 132.559Z" fill="#F83758"/>
<path d="M162.339 156.964C162.243 152.538 161.894 148.122 161.294 143.736C160.773 139.7 159.84 135.727 158.509 131.881C158.022 130.495 157.459 129.135 156.852 127.793C156.886 127.271 156.877 126.747 156.826 126.226C156.795 125.553 156.733 124.897 156.671 124.215C156.609 123.533 156.542 122.887 156.463 122.209C156.383 121.532 156.241 120.881 156.215 120.212C156.217 120.205 156.217 120.198 156.216 120.191C156.215 120.184 156.213 120.178 156.208 120.172C156.204 120.166 156.199 120.162 156.193 120.159C156.186 120.155 156.18 120.154 156.173 120.154C156.166 120.154 156.159 120.155 156.152 120.159C156.146 120.162 156.141 120.166 156.137 120.172C156.133 120.178 156.13 120.184 156.129 120.191C156.128 120.198 156.128 120.205 156.131 120.212C156.262 120.912 156.34 121.621 156.365 122.333C156.418 122.98 156.454 123.626 156.472 124.273C156.494 124.924 156.472 125.57 156.472 126.221C156.472 126.452 156.472 126.7 156.449 126.952C155.834 125.624 155.17 124.353 154.448 123.099C154.891 120.367 154.315 117.51 153.757 114.84C153.757 114.787 153.664 114.814 153.677 114.867C153.953 116.261 154.101 117.679 154.12 119.1C154.147 120.221 154.093 121.341 154.089 122.462C153.93 122.196 153.775 121.926 153.611 121.66C152.756 120.265 151.839 118.897 150.874 117.573C150.953 116.925 150.932 116.269 150.812 115.628C150.704 114.908 150.544 114.196 150.334 113.498C150.121 112.803 149.891 112.117 149.603 111.443C149.315 110.77 148.939 110.093 148.664 109.402C148.637 109.34 148.553 109.402 148.584 109.433C148.936 110.089 149.213 110.783 149.408 111.501C149.628 112.173 149.808 112.858 149.948 113.551C150.09 114.242 150.201 114.938 150.298 115.642C150.365 116.085 150.404 116.585 150.484 117.05C149.074 115.156 147.534 113.362 145.874 111.683C145.834 111.643 145.777 111.705 145.812 111.745C148.324 114.568 150.567 117.619 152.512 120.858L152.721 121.222C152.357 120.996 151.941 120.814 151.6 120.624L149.683 119.57L147.814 118.551C147.495 118.374 147.181 118.188 146.853 118.02C146.464 117.846 146.091 117.64 145.737 117.404C145.728 117.398 145.717 117.395 145.706 117.397C145.695 117.398 145.686 117.404 145.679 117.413C145.673 117.422 145.67 117.433 145.672 117.444C145.673 117.454 145.679 117.464 145.688 117.471C146.321 117.82 146.884 118.356 147.495 118.728C148.106 119.1 148.735 119.499 149.377 119.858C150.546 120.509 151.817 120.978 152.973 121.656C153.77 123.055 154.508 124.488 155.187 125.956C154.488 125.513 153.775 125.07 153.048 124.671C152.583 124.41 152.114 124.153 151.64 123.905C151.169 123.687 150.724 123.419 150.311 123.104C150.303 123.1 150.293 123.098 150.284 123.1C150.275 123.102 150.266 123.107 150.26 123.113C150.253 123.12 150.249 123.129 150.248 123.139C150.247 123.148 150.249 123.158 150.254 123.166C151.021 123.86 151.872 124.455 152.787 124.937C153.633 125.433 154.488 125.911 155.369 126.341C156.071 127.888 156.706 129.46 157.273 131.057C160.045 138.909 161.064 147.244 161.551 155.52C161.697 157.987 161.772 160.454 161.803 162.925C161.834 165.396 161.702 167.858 161.706 170.325C161.706 170.396 161.826 170.413 161.839 170.325C162.136 168.137 162.184 165.896 162.282 163.709C162.379 161.521 162.388 159.209 162.339 156.964Z" fill="#263238"/>
<path d="M150.369 121.421C149.167 120.891 147.998 120.288 146.87 119.614C145.726 118.967 144.616 118.262 143.545 117.502C143.545 117.502 143.509 117.502 143.523 117.533C144.535 118.343 145.602 119.083 146.715 119.747C147.883 120.399 149.09 120.977 150.329 121.479C150.382 121.518 150.422 121.443 150.369 121.421Z" fill="#263238"/>
<path d="M152.278 112.546C152.18 112.165 152.061 111.789 151.932 111.417C151.936 111.41 151.938 111.403 151.938 111.395C151.938 111.387 151.936 111.379 151.932 111.373C151.848 111.16 151.76 110.93 151.675 110.739L151.644 110.66C151.644 110.62 151.609 110.58 151.596 110.54C151.582 110.5 151.569 110.54 151.574 110.54C151.578 110.54 151.613 110.686 151.636 110.757C151.645 110.797 151.657 110.837 151.671 110.877C152.108 112.341 152.435 113.836 152.65 115.349C152.65 115.398 152.729 115.398 152.725 115.349C152.664 114.403 152.514 113.465 152.278 112.546Z" fill="#263238"/>
<path d="M169.301 158.558L168.831 164.13L167.392 181.122H151.977L150.537 164.13L150.068 158.558H169.301Z" fill="#37474F"/>
<path d="M169.301 158.558L168.831 164.13H150.537L150.068 158.558H169.301Z" fill="#263238"/>
<path d="M170.811 156.322H148.553V161.667H170.811V156.322Z" fill="#37474F"/>
<path d="M2.30176 181.122L24.7277 181.015L47.1537 180.976L92.0057 180.9L136.858 180.971L159.284 181.011L181.71 181.122L159.284 181.228L136.858 181.268L92.0057 181.343L47.1537 181.268L24.7277 181.228L2.30176 181.122Z" fill="#263238"/>
<path d="M129.431 11.5762H54.5892C53.5831 11.5825 52.5883 11.7874 51.6616 12.1791C50.7349 12.5708 49.8947 13.1416 49.1891 13.8587C48.4835 14.5758 47.9264 15.4252 47.5497 16.3581C47.1731 17.291 46.9843 18.2891 46.9943 19.2951V173.407C46.9766 175.435 47.7648 177.387 49.1857 178.833C50.6066 180.28 52.5438 181.103 54.5715 181.122H129.413C130.419 181.115 131.414 180.91 132.34 180.518C133.267 180.127 134.107 179.556 134.814 178.84C135.52 178.124 136.078 177.275 136.456 176.343C136.834 175.411 137.025 174.413 137.017 173.407V19.2951C137.026 18.2901 136.837 17.2933 136.46 16.3615C136.084 15.4297 135.527 14.5812 134.823 13.8644C134.118 13.1476 133.28 12.5766 132.354 12.184C131.429 11.7914 130.436 11.5849 129.431 11.5762ZM132.279 168.642C132.279 172.699 129.241 175.98 125.494 175.98H58.5217C54.7663 175.98 51.7283 172.699 51.7283 168.642V25.1318C51.7283 16.8682 54.7663 16.4652 58.5217 16.4652H71.9356C72.7151 16.4652 73.3528 17.3509 73.3528 18.4492V18.9231C73.3528 21.5093 74.761 21.5093 76.5059 21.5093H107.505C109.246 21.5093 110.645 21.5093 110.645 18.9275V18.4492C110.645 17.3509 111.27 16.4652 112.062 16.4652H125.481C129.227 16.4652 132.265 17.5635 132.265 25.1318L132.279 168.642Z" fill="#263238"/>
<path d="M96.2348 18.2898H87.772C87.7033 18.2898 87.6354 18.2762 87.572 18.25C87.5086 18.2237 87.451 18.1852 87.4025 18.1367C87.3539 18.0882 87.3154 18.0306 87.2892 17.9672C87.2629 17.9038 87.2494 17.8358 87.2494 17.7672C87.2494 17.6286 87.3045 17.4957 87.4025 17.3977C87.5005 17.2997 87.6334 17.2446 87.772 17.2446H96.2348C96.3734 17.2446 96.5064 17.2997 96.6044 17.3977C96.7024 17.4957 96.7574 17.6286 96.7574 17.7672C96.7574 17.8358 96.7439 17.9038 96.7176 17.9672C96.6914 18.0306 96.6529 18.0882 96.6044 18.1367C96.5558 18.1852 96.4982 18.2237 96.4348 18.25C96.3714 18.2762 96.3035 18.2898 96.2348 18.2898Z" fill="white"/>
<path d="M132.305 25.1318V168.642C132.305 172.699 129.267 175.98 125.521 175.98H58.5217C54.7664 175.98 51.7284 172.699 51.7284 168.642V25.1318C51.7284 16.8682 54.7664 16.4652 58.5217 16.4652H71.9357C72.7151 16.4652 73.3528 17.3509 73.3528 18.4492V18.923C73.3528 21.5093 74.7611 21.5093 76.5059 21.5093H107.505C109.25 21.5093 110.645 21.5093 110.645 18.9275V18.4492C110.645 17.3509 111.274 16.4652 112.067 16.4652H125.485C129.245 16.4652 132.305 17.5635 132.305 25.1318Z" fill="white"/>
<path d="M59.8812 30.6099L57.4987 28.3824L59.8812 26.1504L60.2488 26.5445L58.2914 28.3824L60.2488 30.2202L59.8812 30.6099Z" fill="#C7C7C7"/>
<path d="M126.043 26.9918C126.043 27.0846 126.016 27.1754 125.964 27.2526C125.913 27.3298 125.839 27.3899 125.753 27.4255C125.668 27.461 125.573 27.4703 125.482 27.4522C125.391 27.4341 125.308 27.3894 125.242 27.3237C125.176 27.2581 125.132 27.1744 125.113 27.0834C125.095 26.9923 125.105 26.8979 125.14 26.8121C125.176 26.7264 125.236 26.6531 125.313 26.6015C125.39 26.5499 125.481 26.5224 125.574 26.5224C125.636 26.5218 125.697 26.5335 125.754 26.5569C125.811 26.5803 125.863 26.6148 125.907 26.6585C125.951 26.7022 125.985 26.7542 126.009 26.8114C126.032 26.8687 126.044 26.93 126.043 26.9918Z" fill="#C7C7C7"/>
<path d="M126.043 28.6569C126.043 28.7498 126.016 28.8405 125.964 28.9177C125.913 28.9949 125.839 29.0551 125.753 29.0906C125.668 29.1262 125.573 29.1355 125.482 29.1173C125.391 29.0992 125.308 29.0545 125.242 28.9889C125.176 28.9232 125.132 28.8396 125.113 28.7485C125.095 28.6575 125.105 28.5631 125.14 28.4773C125.176 28.3915 125.236 28.3182 125.313 28.2666C125.39 28.2151 125.481 28.1875 125.574 28.1875C125.636 28.1869 125.697 28.1987 125.754 28.222C125.811 28.2454 125.863 28.28 125.907 28.3237C125.951 28.3674 125.985 28.4194 126.009 28.4766C126.032 28.5338 126.044 28.5951 126.043 28.6569Z" fill="#C7C7C7"/>
<path d="M126.043 30.3221C126.043 30.4149 126.016 30.5057 125.964 30.5829C125.913 30.6601 125.839 30.7203 125.753 30.7558C125.668 30.7913 125.573 30.8006 125.482 30.7825C125.391 30.7644 125.308 30.7197 125.242 30.654C125.176 30.5884 125.132 30.5047 125.113 30.4137C125.095 30.3226 125.105 30.2282 125.14 30.1425C125.176 30.0567 125.236 29.9834 125.313 29.9318C125.39 29.8802 125.481 29.8527 125.574 29.8527C125.636 29.8521 125.697 29.8638 125.754 29.8872C125.811 29.9106 125.863 29.9451 125.907 29.9889C125.951 30.0326 125.985 30.0845 126.009 30.1418C126.032 30.199 126.044 30.2603 126.043 30.3221Z" fill="#C7C7C7"/>
<path d="M69.6195 19.6892L69.4911 19.8177L69.4158 19.8885C69.0839 19.5586 68.635 19.3734 68.167 19.3734C67.699 19.3734 67.2501 19.5586 66.9182 19.8885L66.8473 19.8132L66.7189 19.6848L66.8827 19.5387C67.0015 19.4466 67.1291 19.3665 67.2636 19.2995C67.4228 19.2192 67.5929 19.1625 67.7684 19.1313C67.8504 19.1148 67.9332 19.1029 68.0164 19.0958H68.2379H68.4061C68.5649 19.1148 68.7209 19.152 68.8711 19.2065C68.9781 19.2471 69.0818 19.2959 69.1811 19.3527C69.2862 19.4129 69.3855 19.4825 69.4778 19.5608L69.6151 19.6848L69.6195 19.6892Z" fill="#C7C7C7"/>
<path d="M67.33 20.296L67.1218 20.0923C67.3997 19.8164 67.7754 19.6616 68.167 19.6616C68.5585 19.6616 68.9342 19.8164 69.2121 20.0923L69.0039 20.296C68.7816 20.0748 68.4806 19.9506 68.167 19.9506C67.8533 19.9506 67.5524 20.0748 67.33 20.296Z" fill="#C7C7C7"/>
<path d="M68.8003 20.5041L68.5966 20.7034C68.5382 20.6461 68.4689 20.601 68.3929 20.5705C68.3169 20.5401 68.2356 20.5251 68.1538 20.5263C68.0715 20.5247 67.9897 20.5399 67.9135 20.5712C67.8374 20.6024 67.7684 20.6489 67.7109 20.7078C67.6445 20.637 67.5736 20.5706 67.5072 20.5041C67.5901 20.4156 67.6902 20.3451 67.8014 20.2969C67.9126 20.2486 68.0325 20.2238 68.1538 20.2238C68.275 20.2238 68.3949 20.2486 68.5061 20.2969C68.6174 20.3451 68.7175 20.4156 68.8003 20.5041Z" fill="#C7C7C7"/>
<path d="M68.353 20.8894C68.353 20.9387 68.3334 20.986 68.2985 21.0209C68.2636 21.0558 68.2163 21.0754 68.167 21.0754C68.1428 21.0754 68.1188 21.0706 68.0965 21.0612C68.0741 21.0518 68.0539 21.038 68.037 21.0206C68.0201 21.0033 68.0068 20.9828 67.9979 20.9602C67.9891 20.9377 67.9848 20.9136 67.9854 20.8894C67.9854 20.8412 68.0045 20.795 68.0386 20.761C68.0726 20.7269 68.1188 20.7078 68.167 20.7078C68.1912 20.7072 68.2153 20.7115 68.2378 20.7203C68.2604 20.7292 68.2809 20.7425 68.2982 20.7594C68.3156 20.7763 68.3293 20.7965 68.3387 20.8189C68.3481 20.8412 68.353 20.8652 68.353 20.8894Z" fill="#C7C7C7"/>
<path d="M56.9806 20.0789C56.9806 19.9728 57.0122 19.869 57.0712 19.7808C57.1303 19.6926 57.2143 19.6239 57.3124 19.5835C57.4106 19.543 57.5186 19.5327 57.6226 19.5537C57.7267 19.5748 57.8222 19.6262 57.8969 19.7016C57.9717 19.777 58.0224 19.8729 58.0425 19.9771C58.0627 20.0814 58.0515 20.1892 58.0102 20.2871C57.969 20.3849 57.8996 20.4683 57.8109 20.5266C57.7222 20.585 57.6182 20.6157 57.512 20.6148C57.4419 20.6148 57.3724 20.6009 57.3076 20.5739C57.2429 20.5469 57.1841 20.5074 57.1347 20.4576C57.0853 20.4077 57.0462 20.3486 57.0198 20.2836C56.9933 20.2187 56.98 20.1491 56.9806 20.0789Z" fill="#C7C7C7"/>
<path d="M58.659 20.0789C58.6608 19.9733 58.6937 19.8706 58.7536 19.7836C58.8135 19.6967 58.8978 19.6294 58.9959 19.5902C59.0939 19.551 59.2014 19.5416 59.3047 19.5633C59.4081 19.5849 59.5027 19.6367 59.5768 19.7119C59.6508 19.7872 59.701 19.8827 59.721 19.9864C59.7409 20.0901 59.7298 20.1974 59.689 20.2948C59.6482 20.3922 59.5795 20.4754 59.4916 20.5339C59.4037 20.5924 59.3005 20.6236 59.1949 20.6236C59.1237 20.6236 59.0533 20.6094 58.9877 20.582C58.9221 20.5545 58.8627 20.5142 58.8128 20.4635C58.7629 20.4128 58.7236 20.3527 58.6972 20.2867C58.6708 20.2206 58.6578 20.15 58.659 20.0789Z" fill="#C7C7C7"/>
<path d="M60.3417 20.0789C60.3435 19.9733 60.3764 19.8706 60.4363 19.7836C60.4963 19.6967 60.5805 19.6294 60.6786 19.5902C60.7767 19.551 60.8841 19.5416 60.9875 19.5633C61.0908 19.5849 61.1855 19.6367 61.2595 19.7119C61.3336 19.7872 61.3837 19.8827 61.4037 19.9864C61.4237 20.0901 61.4126 20.1974 61.3718 20.2948C61.3309 20.3922 61.2623 20.4754 61.1744 20.5339C61.0864 20.5924 60.9832 20.6236 60.8776 20.6236C60.8065 20.6236 60.7361 20.6094 60.6705 20.582C60.6049 20.5545 60.5454 20.5142 60.4955 20.4635C60.4456 20.4128 60.4064 20.3527 60.38 20.2867C60.3536 20.2206 60.3406 20.15 60.3417 20.0789Z" fill="#C7C7C7"/>
<path d="M62.0246 20.0789C62.0263 19.9731 62.0594 19.8702 62.1195 19.7832C62.1796 19.6961 62.2642 19.6288 62.3625 19.5898C62.4608 19.5507 62.5685 19.5416 62.6719 19.5636C62.7754 19.5857 62.87 19.6378 62.9439 19.7135C63.0178 19.7893 63.0676 19.8851 63.0871 19.9891C63.1065 20.0931 63.0948 20.2005 63.0533 20.2978C63.0118 20.3952 62.9424 20.478 62.854 20.536C62.7655 20.5939 62.6618 20.6244 62.556 20.6236C62.4851 20.6236 62.4149 20.6094 62.3495 20.5819C62.2842 20.5543 62.225 20.514 62.1755 20.4632C62.1259 20.4125 62.0871 20.3523 62.0612 20.2863C62.0352 20.2203 62.0228 20.1498 62.0246 20.0789Z" fill="#C7C7C7"/>
<path d="M63.7074 20.0789C63.7092 19.9731 63.7422 19.8702 63.8023 19.7832C63.8625 19.6961 63.947 19.6288 64.0453 19.5898C64.1436 19.5507 64.2513 19.5416 64.3548 19.5636C64.4583 19.5857 64.5529 19.6378 64.6268 19.7135C64.7006 19.7893 64.7505 19.8851 64.7699 19.9891C64.7894 20.0931 64.7776 20.2005 64.7362 20.2978C64.6947 20.3952 64.6253 20.478 64.5368 20.536C64.4483 20.5939 64.3446 20.6244 64.2389 20.6236C64.1679 20.6236 64.0977 20.6094 64.0324 20.5819C63.967 20.5543 63.9078 20.514 63.8583 20.4632C63.8088 20.4125 63.7699 20.3523 63.744 20.2863C63.7181 20.2203 63.7057 20.1498 63.7074 20.0789Z" fill="#C7C7C7"/>
<path d="M126.243 21.248H121.889V19.2286H126.243V21.248ZM122.12 21.0222H126.017V19.4545H122.12V21.0222Z" fill="#C7C7C7"/>
<path d="M125.056 19.5741H122.252V20.9026H125.056V19.5741Z" fill="#C7C7C7"/>
<path d="M126.628 19.6981H126.242V20.7742H126.628V19.6981Z" fill="#C7C7C7"/>
<path d="M63.9688 167.207H63.3532V170.019H62.2107V168.585H60.1824V170.019H59.0398V167.207H58.4287L61.1965 164.342L63.9688 167.207Z" fill="#EBEBEB"/>
<path d="M125.587 164.342H118.909V165.294H125.587V164.342Z" fill="#EBEBEB"/>
<path d="M125.587 166.703H118.909V167.655H125.587V166.703Z" fill="#EBEBEB"/>
<path d="M125.587 169.063H118.909V170.015H125.587V169.063Z" fill="#EBEBEB"/>
<path d="M93.9055 166.8L92.0057 168.828L90.1058 166.8L90.4424 166.49L92.0057 168.155L93.5689 166.49L93.9055 166.8Z" fill="#EBEBEB"/>
<path d="M92.0057 170.923C91.3234 170.923 90.6564 170.72 90.0891 170.341C89.5218 169.962 89.0796 169.424 88.8185 168.793C88.5574 168.163 88.4891 167.469 88.6222 166.8C88.7553 166.131 89.0839 165.516 89.5663 165.034C90.0488 164.551 90.6635 164.223 91.3327 164.089C92.0019 163.956 92.6955 164.025 93.3259 164.286C93.9563 164.547 94.4951 164.989 94.8741 165.556C95.2532 166.124 95.4555 166.791 95.4555 167.473C95.4532 168.387 95.089 169.263 94.4425 169.91C93.7961 170.556 92.9199 170.92 92.0057 170.923ZM92.0057 164.479C91.4136 164.479 90.8348 164.655 90.3425 164.984C89.8502 165.313 89.4665 165.78 89.2399 166.327C89.0133 166.874 88.9541 167.476 89.0696 168.057C89.1851 168.638 89.4702 169.171 89.8889 169.59C90.3075 170.009 90.841 170.294 91.4217 170.409C92.0024 170.525 92.6043 170.465 93.1514 170.239C93.6984 170.012 94.1659 169.629 94.4949 169.136C94.8238 168.644 94.9994 168.065 94.9994 167.473C94.9994 166.679 94.684 165.918 94.1226 165.356C93.5611 164.795 92.7997 164.479 92.0057 164.479Z" fill="#EBEBEB"/>
<path d="M86.8553 155.078C86.8553 155.305 86.7878 155.528 86.6613 155.717C86.5348 155.907 86.3549 156.054 86.1445 156.141C85.9341 156.229 85.7026 156.251 85.4793 156.207C85.2559 156.163 85.0508 156.053 84.8897 155.892C84.7287 155.731 84.619 155.526 84.5746 155.302C84.5302 155.079 84.553 154.847 84.6401 154.637C84.7273 154.427 84.8749 154.247 85.0642 154.12C85.2536 153.994 85.4762 153.926 85.7039 153.926C85.8553 153.926 86.0053 153.955 86.1452 154.013C86.2852 154.07 86.4123 154.155 86.5194 154.262C86.6264 154.369 86.7112 154.496 86.7689 154.636C86.8265 154.776 86.8559 154.926 86.8553 155.078Z" fill="#DBDBDB"/>
<path d="M93.8744 155.078C93.8744 155.423 93.7721 155.76 93.5804 156.047C93.3886 156.334 93.1161 156.558 92.7973 156.69C92.4785 156.822 92.1277 156.856 91.7892 156.789C91.4507 156.722 91.1398 156.555 90.8958 156.311C90.6518 156.067 90.4856 155.756 90.4183 155.418C90.351 155.08 90.3855 154.729 90.5176 154.41C90.6496 154.091 90.8733 153.819 91.1602 153.627C91.4472 153.435 91.7845 153.333 92.1296 153.333C92.5924 153.333 93.0362 153.517 93.3634 153.844C93.6906 154.171 93.8744 154.615 93.8744 155.078Z" fill="#F83758"/>
<path d="M99.7069 155.078C99.7069 155.305 99.6393 155.528 99.5128 155.717C99.3863 155.907 99.2065 156.054 98.9961 156.141C98.7857 156.229 98.5542 156.251 98.3308 156.207C98.1075 156.163 97.9023 156.053 97.7413 155.892C97.5803 155.731 97.4706 155.526 97.4262 155.302C97.3818 155.079 97.4045 154.847 97.4917 154.637C97.5788 154.427 97.7264 154.247 97.9158 154.12C98.1051 153.994 98.3277 153.926 98.5555 153.926C98.7068 153.926 98.8568 153.955 98.9968 154.013C99.1367 154.07 99.2639 154.155 99.3709 154.262C99.478 154.369 99.5628 154.496 99.6204 154.636C99.6781 154.776 99.7075 154.926 99.7069 155.078Z" fill="#DBDBDB"/>
<path d="M107.297 122.998H76.218V132.882H107.297V122.998Z" fill="#F83758"/>
<path d="M99.5341 46.4817V49.7189H97.2446V46.4817C97.2446 43.3817 94.9019 40.8973 92.0234 40.8973C89.1448 40.8973 86.8021 43.3994 86.8021 46.4817V54.5859H84.4772V46.4817C84.4772 42.0532 87.8473 38.4794 92.0056 38.4794C96.164 38.4794 99.5341 42.0709 99.5341 46.4817Z" fill="#C7C7C7"/>
<path d="M84.4949 49.7278L86.7844 49.8208V54.5859H84.4949V49.7278Z" fill="#A6A6A6"/>
<path d="M102.453 51.8712H81.5588V70.8252H102.453V51.8712Z" fill="#F83758"/>
<path opacity="0.1" d="M102.452 51.8712H92.0056V70.8252H102.452V51.8712Z" fill="black"/>
<path d="M92.8913 62.0435L93.777 66.1886H90.0659L90.9516 62.0435C90.6081 61.8303 90.3434 61.5109 90.1976 61.1337C90.0518 60.7565 90.033 60.3421 90.1439 59.9532C90.2547 59.5644 90.4893 59.2222 90.8121 58.9786C91.1348 58.735 91.5282 58.6033 91.9325 58.6033C92.3369 58.6033 92.7303 58.735 93.053 58.9786C93.3758 59.2222 93.6103 59.5644 93.7212 59.9532C93.8321 60.3421 93.8132 60.7565 93.6675 61.1337C93.5217 61.5109 93.257 61.8303 92.9135 62.0435H92.8913Z" fill="#263238"/>
<path d="M118.913 91.7411H65.1024V100.952H118.913V91.7411Z" fill="white"/>
<path d="M119.13 101.174H64.881V91.5197H119.13V101.174ZM65.3238 100.731H118.687V91.9625H65.3238V100.731Z" fill="#EBEBEB"/>
<path d="M70.6867 94.2831H70.2439V98.22H70.6867V94.2831Z" fill="#37474F"/>
<path d="M72.4361 96.0278H68.4991V96.4707H72.4361V96.0278Z" fill="#37474F"/>
<path d="M71.7034 94.6987L68.9186 97.4816L69.2316 97.7948L72.0164 95.012L71.7034 94.6987Z" fill="#37474F"/>
<path d="M69.2284 94.701L68.9153 95.0142L71.6991 97.798L72.0123 97.4849L69.2284 94.701Z" fill="#37474F"/>
<path d="M77.365 94.2831H76.9221V98.22H77.365V94.2831Z" fill="#37474F"/>
<path d="M79.1143 96.0278H75.1774V96.4707H79.1143V96.0278Z" fill="#37474F"/>
<path d="M78.3803 94.7033L75.5955 97.4862L75.9085 97.7995L78.6933 95.0166L78.3803 94.7033Z" fill="#37474F"/>
<path d="M75.908 94.6996L75.5948 95.0127L78.3787 97.7965L78.6918 97.4834L75.908 94.6996Z" fill="#37474F"/>
<path d="M84.0432 94.2831H83.6003V98.22H84.0432V94.2831Z" fill="#37474F"/>
<path d="M85.7924 96.0278H81.8555V96.4707H85.7924V96.0278Z" fill="#37474F"/>
<path d="M85.0572 94.7036L82.2723 97.4865L82.5854 97.7997L85.3702 95.0168L85.0572 94.7036Z" fill="#37474F"/>
<path d="M82.5877 94.6982L82.2745 95.0114L85.0584 97.7952L85.3715 97.4821L82.5877 94.6982Z" fill="#37474F"/>
<path d="M90.7258 94.2831H90.283V98.22H90.7258V94.2831Z" fill="#37474F"/>
<path d="M92.4706 96.0278H88.5337V96.4707H92.4706V96.0278Z" fill="#37474F"/>
<path d="M91.7383 94.7038L88.9535 97.4867L89.2665 97.7999L92.0513 95.0171L91.7383 94.7038Z" fill="#37474F"/>
<path d="M89.2704 94.7025L88.9573 95.0156L91.7411 97.7995L92.0543 97.4863L89.2704 94.7025Z" fill="#37474F"/>
<path d="M97.404 94.2831H96.9612V98.22H97.404V94.2831Z" fill="#37474F"/>
<path d="M99.1489 96.0278H95.2119V96.4707H99.1489V96.0278Z" fill="#37474F"/>
<path d="M98.4152 94.7041L95.6304 97.4869L95.9434 97.8002L98.7282 95.0173L98.4152 94.7041Z" fill="#37474F"/>
<path d="M95.9456 94.6966L95.6324 95.0098L98.4163 97.7936L98.7294 97.4805L95.9456 94.6966Z" fill="#37474F"/>
<path d="M104.082 94.2831H103.639V98.22H104.082V94.2831Z" fill="#37474F"/>
<path d="M105.831 96.0278H101.895V96.4707H105.831V96.0278Z" fill="#37474F"/>
<path d="M105.095 94.7011L102.31 97.484L102.623 97.7973L105.408 95.0144L105.095 94.7011Z" fill="#37474F"/>
<path d="M102.625 94.6953L102.312 95.0084L105.096 97.7923L105.409 97.4791L102.625 94.6953Z" fill="#37474F"/>
<path d="M114.317 97.7683C113.836 97.7395 113.368 97.6056 112.944 97.376C112.521 97.1465 112.154 96.8269 111.868 96.4398L111.77 96.3069L111.868 96.1785C112.136 95.7784 112.498 95.4505 112.923 95.2238C113.348 94.997 113.822 94.8784 114.303 94.8784C114.785 94.8784 115.259 94.997 115.684 95.2238C116.109 95.4505 116.471 95.7784 116.739 96.1785L116.832 96.3069L116.739 96.4398C116.456 96.8238 116.092 97.1416 115.674 97.371C115.256 97.6004 114.793 97.736 114.317 97.7683ZM112.333 96.3246C112.561 96.6393 112.861 96.8954 113.207 97.072C113.553 97.2487 113.937 97.3407 114.325 97.3407C114.714 97.3407 115.097 97.2487 115.444 97.072C115.79 96.8954 116.09 96.6393 116.318 96.3246C116.09 96.0099 115.79 95.7538 115.444 95.5772C115.097 95.4006 114.714 95.3085 114.325 95.3085C113.937 95.3085 113.553 95.4006 113.207 95.5772C112.861 95.7538 112.561 96.0099 112.333 96.3246Z" fill="#EBEBEB"/>
<path d="M114.312 97.321C114.862 97.321 115.309 96.8748 115.309 96.3245C115.309 95.7742 114.862 95.3281 114.312 95.3281C113.762 95.3281 113.316 95.7742 113.316 96.3245C113.316 96.8748 113.762 97.321 114.312 97.321Z" fill="#EBEBEB"/>
<path d="M115.953 94.3265L112.414 97.865L112.727 98.1781L116.266 94.6396L115.953 94.3265Z" fill="#EBEBEB"/>
<path d="M173.517 30.9332C173.517 30.9332 170.138 57.9737 164.585 64.0585C157.942 71.3566 153.07 70.2894 150.413 74.0536C147.721 70.2849 142.885 71.3566 136.242 64.054C130.689 57.9693 127.319 30.9288 127.319 30.9288C141.933 23.8431 150.435 15.8718 150.435 15.8718C150.657 16.1243 159.115 23.945 173.517 30.9332Z" fill="#37474F"/>
<path d="M150.396 15.8807V74.0536C147.703 70.2849 142.867 71.3566 136.224 64.054C130.671 57.9693 127.301 30.9288 127.301 30.9288C141.915 23.8431 150.418 15.8718 150.418 15.8718L150.396 15.8807Z" fill="#455A64"/>
<path d="M169.947 33.112C169.947 33.112 167.096 55.9543 162.419 61.0958C156.781 67.2691 152.676 66.3613 150.422 69.541C148.15 66.3613 144.063 67.2691 138.425 61.0958C133.74 55.9543 130.897 33.112 130.897 33.112C143.252 27.1114 150.427 20.3889 150.427 20.3889C150.427 20.3889 157.57 27.1114 169.947 33.112Z" fill="#455A64"/>
<path d="M130.866 33.112C130.866 33.112 133.718 55.9498 138.394 61.0957C144.023 67.2647 148.106 66.3657 150.382 69.5365V20.38C150.179 20.6236 143.031 27.2043 130.866 33.112Z" fill="#37474F"/>
<path d="M156.802 51.3701C160.339 47.8334 160.339 42.0992 156.802 38.5625C153.265 35.0258 147.531 35.0258 143.994 38.5625C140.458 42.0992 140.458 47.8334 143.994 51.3701C147.531 54.9068 153.265 54.9068 156.802 51.3701Z" fill="#F83758"/>
<path d="M149.364 50.8482L145.329 46.6544L146.826 45.2152L149.049 47.5269L153.841 40.1755L155.581 41.3092L149.364 50.8482Z" fill="white"/>
<path d="M16.8849 95.9437H47.9553V89.5091H16.8849V95.9437Z" fill="#C7C7C7"/>
<path d="M39.6165 95.8905L40.4844 104.114L51.228 181.099H54.297L45.8208 104.114L45.1344 95.8905H39.6165Z" fill="#C7C7C7"/>
<path d="M10.5344 181.099H13.6078L24.3514 104.114L25.2194 95.8905H19.7014L19.015 104.114L10.5344 181.099Z" fill="#C7C7C7"/>
<path d="M15.7202 155.95H49.9924V154.019H15.7202V155.95Z" fill="#C7C7C7"/>
<path d="M45.8208 103.826H40.4844L39.6165 95.8905H45.1344L45.8208 103.826Z" fill="#A6A6A6"/>
<path d="M19.015 103.826H24.3514L25.2194 95.8905H19.7014L19.015 103.826Z" fill="#A6A6A6"/>
<path d="M21.03 58.5848C22.3585 59.2668 22.5888 61.6183 26.725 61.4899C27.314 61.4899 27.7967 61.2375 28.337 61.4367C29.1297 61.7246 29.7541 62.3579 30.4583 62.8184C31.0246 63.1991 31.6694 63.4474 32.3448 63.5447C33.6407 63.6979 34.9495 63.3958 36.047 62.69C36.7246 62.2737 37.2915 61.698 37.9469 61.2463C38.6023 60.7946 42.557 59.838 43.2257 57.6149C43.6685 56.2022 43.5844 54.5947 41.8971 52.531C41.5085 52.163 41.2438 51.6832 41.1398 51.1582C41.1409 50.698 41.2454 50.244 41.4454 49.8296C41.6774 49.3593 41.7623 48.8299 41.689 48.3106C41.5007 47.8141 41.1971 47.3693 40.8033 47.0131C40.1833 46.2647 40.2984 45.1841 40.8033 43.8556C41.0035 43.2918 41.0716 42.6896 41.0025 42.0954C40.9334 41.5011 40.7289 40.9307 40.4047 40.4279C39.9982 39.8519 39.5189 39.3309 38.9787 38.8779C38.2214 38.1605 38.093 37.4962 37.752 36.4821C37.1099 34.5335 36.1046 33.6611 34.9222 33.0588C33.8549 32.523 33.8904 32.7267 32.7478 32.8994C31.5902 32.193 30.2275 31.8995 28.8817 32.0669C27.6329 32.2263 26.601 33.0633 25.6578 33.8648C24.8163 34.5822 24.0458 35.3528 24.0015 36.5618C23.9749 37.2571 24.1432 37.9479 24.1122 38.6432C24.0679 39.5289 23.5764 40.0913 22.9874 40.6493C22.1091 41.3962 21.5033 42.4132 21.2647 43.5411C21.1097 44.4844 22.0397 45.9502 20.9502 47.3452C19.9937 48.5763 18.2931 50.0023 17.8503 51.5434C16.4996 56.3572 19.7767 57.9294 21.03 58.5848Z" fill="#263238"/>
<path d="M37.0479 61.1798C38.9477 60.892 41.8661 61.2507 42.8758 59.1339C43.2754 58.8082 43.5918 58.3923 43.7989 57.9202C44.0061 57.4482 44.098 56.9337 44.0671 56.4192C43.9367 55.3202 43.4278 54.3009 42.6278 53.5362C42.1637 53.0993 41.7587 52.6035 41.4233 52.0615C41.3161 51.6392 41.2377 51.2102 41.1886 50.7773C41.2669 50.2233 41.4157 49.6815 41.6314 49.1653C41.2151 50.051 40.8298 51.0075 41.2151 51.9818C41.2717 52.1208 41.3383 52.2555 41.4144 52.3848C41.5528 52.8972 41.7427 53.3942 41.9813 53.8684C42.6057 55.1083 43.177 56.2288 43.0928 57.6769C43.0781 58.1606 42.962 58.6359 42.7518 59.0719C41.93 59.7927 40.9034 60.2386 39.8157 60.3473C39.7891 60.3473 39.7891 60.396 39.8157 60.3916C40.7994 60.2921 41.7429 59.9497 42.5614 59.3951C41.4587 60.9761 38.8946 60.7591 37.039 61.1267C36.9903 61.1267 37.008 61.1843 37.0479 61.1798ZM43.022 58.7752V58.7353C43.3508 57.5619 43.2664 56.3111 42.7828 55.1925C42.4817 54.4529 42.03 53.7887 41.7333 53.0447C41.6845 52.9162 41.6358 52.7878 41.5915 52.655C42.0344 53.2351 42.5924 53.7178 43.0087 54.2846C43.8944 55.5158 44.1778 56.9816 43.332 58.3146C43.2404 58.4757 43.1368 58.6297 43.022 58.7752Z" fill="#263238"/>
<path d="M38.7308 38.5901C39.4398 39.2061 40.1153 39.8595 40.7546 40.5475C41.2007 40.999 41.4681 41.5968 41.5075 42.2303C41.524 42.8686 41.3225 43.4934 40.9362 44.0017C40.7945 44.2143 40.6484 44.4446 40.5199 44.6527C40.4896 45.065 40.5548 45.4787 40.7103 45.8617C41.0203 46.5924 41.7068 47.0441 42.0389 47.7837C42.5526 48.9794 41.9813 49.9625 41.4765 51.0298C41.844 50.1441 42.3622 49.2894 42.0699 48.2974C41.8396 47.487 41.2462 47.0485 40.7989 46.3887C40.5267 45.9696 40.3736 45.4843 40.3561 44.9849C39.9575 45.7908 39.8202 46.6411 40.5244 47.487C40.5554 47.5268 40.5244 47.58 40.4712 47.5445C39.5855 46.6588 39.8158 45.5473 40.3605 44.5952C40.394 44.0327 40.5182 43.4794 40.7281 42.9566C40.7281 42.9035 40.8299 42.9566 40.8211 42.9965C40.7413 43.4127 40.6351 43.829 40.5775 44.2409L40.6705 44.1036C41.3791 43.0895 41.6581 41.8893 40.8432 40.8265C40.2321 40.0161 39.3995 39.3784 38.7175 38.6122C38.6865 38.6034 38.7131 38.5724 38.7308 38.5901Z" fill="#263238"/>
<path d="M44.0583 122.209C44.0583 122.209 36.1268 139.826 36.118 139.839C34.5857 143.2 33.297 146.172 32.7789 147.775C32.7754 147.784 32.7754 147.793 32.7789 147.802C32.6151 148.163 32.5378 148.557 32.553 148.953C32.553 148.953 32.553 148.975 32.553 148.98C33.2439 150.118 59.7441 163.151 60.8246 163.306C61.9052 163.461 62.3968 160.392 61.7723 159.063C61.1479 157.735 53.2297 148.205 53.2297 148.205L61.0062 130.517L44.0583 122.209Z" fill="#EB9481"/>
<path d="M37.7476 136.208C37.7476 136.208 36.1268 139.813 36.1179 139.826C34.5857 143.187 33.297 146.159 32.7788 147.762C32.7754 147.77 32.7754 147.78 32.7788 147.788C32.6571 148.162 32.5812 148.548 32.553 148.94C32.553 148.94 32.553 148.962 32.553 148.966C33.2438 150.104 59.744 163.138 60.8246 163.293C61.9052 163.448 62.3967 160.379 61.7723 159.05C61.1479 157.721 53.2297 148.191 53.2297 148.191L54.9347 144.542L37.7476 136.208Z" fill="#EBEBEB"/>
<path d="M60.8157 163.27C59.7352 163.129 33.2261 150.109 32.5308 148.971C32.2607 148.528 33.9302 144.569 36.0736 139.826L36.14 139.675L53.3404 147.886L53.1898 148.174C53.1898 148.174 61.1124 157.699 61.7413 159.028C62.3701 160.356 61.8918 163.417 60.8157 163.27Z" fill="#263238"/>
<path d="M61.6881 162.517C62.0734 162.934 61.1877 164.479 60.8024 164.439C60.4171 164.4 31.5742 150.073 31.1314 149.719C30.6885 149.365 31.7381 147.695 32.3536 147.886C32.9692 148.076 61.6881 162.517 61.6881 162.517Z" fill="#F83758"/>
<path d="M54.6202 148.931C53.0215 147.74 50.7408 146.951 48.779 147.545C48.7037 147.545 48.7391 147.678 48.8056 147.686C50.7526 147.969 52.6635 148.46 54.5051 149.152C54.533 149.159 54.5625 149.156 54.5887 149.145C54.6149 149.133 54.6364 149.112 54.6496 149.087C54.6629 149.061 54.6672 149.032 54.6619 149.004C54.6566 148.975 54.6419 148.95 54.6202 148.931Z" fill="white"/>
<path d="M55.5149 150.321C53.9162 149.126 51.6355 148.342 49.6737 148.935C49.5984 148.957 49.6338 149.064 49.7002 149.077C51.6471 149.358 53.558 149.848 55.3997 150.538C55.4278 150.549 55.4587 150.548 55.4867 150.538C55.5146 150.527 55.5378 150.506 55.5518 150.48C55.5658 150.454 55.5698 150.423 55.563 150.394C55.5562 150.365 55.5391 150.339 55.5149 150.321Z" fill="white"/>
<path d="M56.4094 151.708C54.8107 150.516 52.5256 149.728 50.5682 150.321C50.4929 150.348 50.5239 150.454 50.5682 150.463C52.5167 150.745 54.4291 151.236 56.2721 151.929C56.3014 151.947 56.3368 151.953 56.3705 151.945C56.4041 151.937 56.4332 151.916 56.4514 151.887C56.4696 151.858 56.4754 151.822 56.4675 151.789C56.4597 151.755 56.4387 151.726 56.4094 151.708Z" fill="white"/>
<path d="M39.0806 144.795C37.6281 142.89 34.6521 145.14 36.1179 147.049C37.5838 148.957 40.5332 146.703 39.0806 144.795Z" fill="white"/>
<path d="M48.7348 106.895C48.5577 112.019 38.6821 134.148 38.6821 134.148L56.002 142.12C56.002 142.12 69.9828 117.511 68.6852 106.174C67.5781 96.5548 43.3763 78.7655 39.4925 73.7524C38.9168 73.0084 39.1116 70.0148 39.1116 70.0148H23.3993V73.7657C29.3999 86.5021 47.3487 101.78 48.6772 106.267C48.7297 106.472 48.7491 106.684 48.7348 106.895Z" fill="#37474F"/>
<path d="M55.9045 138.422C53.0525 137.054 53.8895 137.403 51.0331 136.07C49.6293 135.419 42.588 132.12 41.1708 131.753C41.1632 131.749 41.1545 131.749 41.1466 131.752C41.1387 131.755 41.1323 131.761 41.1288 131.768C41.1253 131.776 41.1249 131.785 41.1278 131.792C41.1307 131.8 41.1366 131.807 41.1443 131.81C42.3577 132.634 49.4743 135.765 50.887 136.389C53.7788 137.665 52.964 137.275 55.8691 138.506C55.9178 138.533 55.9576 138.444 55.9045 138.422Z" fill="#263238"/>
<path d="M27.3495 76.445C32.0922 83.6735 37.3946 90.5188 43.208 96.918C44.634 98.4724 46.0998 99.9825 47.5657 101.497C48.8057 102.777 50.0722 104.198 50.3778 106.019C50.7232 108.047 49.9349 110.066 49.3017 111.957C48.6064 114.039 47.9067 116.116 47.1671 118.184C46.37 120.398 43.1106 128.453 42.5748 129.538C42.3046 130.079 46.8881 118.467 47.6321 116.324C48.3761 114.18 49.129 112.05 49.7622 109.88C50.1291 108.775 50.2794 107.61 50.2051 106.448C50.0612 105.328 49.6141 104.268 48.912 103.384C47.6365 101.683 45.9803 100.239 44.5322 98.6894C41.5296 95.4743 38.6673 92.1352 35.9453 88.6721C32.8475 84.7603 29.9561 80.6894 27.2831 76.476C27.2811 76.4716 27.2799 76.4669 27.2797 76.4621C27.2795 76.4573 27.2802 76.4525 27.2819 76.448C27.2835 76.4434 27.286 76.4393 27.2893 76.4357C27.2925 76.4322 27.2965 76.4293 27.3008 76.4273C27.3052 76.4252 27.3099 76.4241 27.3147 76.4239C27.3195 76.4237 27.3243 76.4244 27.3288 76.426C27.3334 76.4277 27.3375 76.4302 27.3411 76.4334C27.3446 76.4367 27.3475 76.4406 27.3495 76.445Z" fill="#263238"/>
<path d="M18.0496 160.618C18.0496 160.618 17.2791 179.93 17.2747 179.944C17.3632 183.637 17.5049 186.874 17.7175 188.539C17.7157 188.55 17.7157 188.56 17.7175 188.57C17.738 188.969 17.8517 189.357 18.0496 189.704V189.726C19.1656 190.444 48.7038 190.612 49.7356 190.271C50.7675 189.93 49.8774 186.958 48.7392 186.037C47.6011 185.116 36.3084 179.997 36.3084 179.997L36.8974 160.697L18.0496 160.618Z" fill="#EB9481"/>
<path d="M17.4163 176.122C17.4163 176.122 17.2658 179.93 17.2614 179.944C17.3499 183.637 17.4916 186.874 17.7042 188.539C17.7024 188.55 17.7024 188.56 17.7042 188.57C17.775 188.96 17.8909 189.341 18.0496 189.704V189.726C19.1656 190.444 48.7038 190.612 49.7356 190.271C50.7675 189.93 49.8773 186.958 48.7392 186.037C47.6011 185.116 36.3084 179.997 36.3084 179.997L36.428 176.091L17.4163 176.122Z" fill="#EBEBEB"/>
<path d="M49.7134 190.236C48.6816 190.577 19.1567 190.439 18.023 189.722C17.5802 189.456 17.3632 185.152 17.2347 179.939V179.775L36.2773 179.651V179.975C36.2773 179.975 47.5612 185.085 48.7126 186.006C49.864 186.927 50.7497 189.899 49.7134 190.236Z" fill="#263238"/>
<path d="M50.1696 189.182C50.6966 189.39 50.577 191.166 50.1917 191.303C49.8064 191.44 17.6067 191.152 17.0576 191.028C16.5085 190.904 16.721 188.938 17.3587 188.841C17.9965 188.743 50.1696 189.182 50.1696 189.182Z" fill="#F83758"/>
<path d="M37.8805 180.05C35.9231 179.674 33.5229 179.966 32.0216 181.352C31.964 181.405 32.0216 181.489 32.1013 181.467C33.9732 180.873 35.9032 180.481 37.8584 180.298C37.8913 180.301 37.924 180.291 37.9493 180.269C37.9746 180.248 37.9905 180.218 37.9935 180.185C37.9964 180.152 37.9861 180.119 37.965 180.094C37.9438 180.069 37.9134 180.053 37.8805 180.05Z" fill="white"/>
<path d="M39.3065 180.905C37.3491 180.528 34.9532 180.821 33.4475 182.207C33.39 182.26 33.4475 182.344 33.5317 182.322C35.4034 181.727 37.3334 181.335 39.2887 181.153C39.3216 181.155 39.3541 181.144 39.379 181.123C39.4039 181.101 39.4193 181.07 39.4216 181.038C39.4239 181.005 39.4131 180.972 39.3915 180.947C39.37 180.922 39.3393 180.907 39.3065 180.905Z" fill="white"/>
<path d="M40.7014 181.764C38.744 181.387 36.3438 181.675 34.8425 183.066C34.7805 183.119 34.8425 183.203 34.9222 183.181C36.7939 182.587 38.724 182.195 40.6793 182.012C40.7122 182.015 40.7449 182.005 40.7702 181.983C40.7955 181.962 40.8114 181.932 40.8144 181.899C40.8173 181.866 40.8071 181.833 40.7859 181.808C40.7647 181.783 40.7343 181.767 40.7014 181.764Z" fill="white"/>
<path d="M22.0928 183.11C19.9538 182.03 18.271 185.351 20.41 186.431C22.5489 187.512 24.2495 184.195 22.0928 183.11Z" fill="white"/>
<path d="M36.8265 173.788L17.5182 173.947C17.5182 173.947 20.7332 95.089 18.581 92.5116C13.4616 86.3869 14.2765 78.2208 17.7263 70.0192H35.3208C35.3208 70.0192 34.4749 82.4721 34.5591 82.8353C39.9707 106.439 36.8265 173.788 36.8265 173.788Z" fill="#37474F"/>
<path d="M35.7637 169.833C31.5521 169.506 20.4587 169.864 19.0593 170.077C19.0528 170.08 19.0474 170.085 19.0435 170.092C19.0397 170.098 19.0377 170.105 19.0377 170.112C19.0377 170.12 19.0397 170.127 19.0435 170.133C19.0474 170.139 19.0528 170.144 19.0593 170.148C20.4454 170.427 33.1641 170.028 35.7592 169.926C35.7693 169.924 35.7783 169.918 35.7849 169.91C35.7915 169.902 35.7953 169.892 35.7958 169.882C35.7963 169.871 35.7934 169.861 35.7876 169.852C35.7819 169.844 35.7735 169.837 35.7637 169.833Z" fill="#263238"/>
<path d="M35.7371 74.8595C35.56 77.0738 35.6486 80.8911 34.3599 80.9487C33.0712 81.0063 33.297 76.3563 33.2616 75.2846C33.2262 74.3148 32.894 74.4477 32.8586 75.5902C32.7612 78.6902 32.8586 81.4314 34.4883 81.303C36.118 81.1746 36.1224 76.3696 36.0826 75.2714C36.0604 74.7045 35.7903 74.1554 35.7371 74.8595Z" fill="#263238"/>
<path d="M34.4351 81.0949C34.3549 81.8778 34.3713 82.6675 34.4838 83.4464C34.506 83.5084 34.754 83.4464 34.7805 83.4066C34.9311 83.0833 34.8115 81.5599 34.8514 81.148C34.8584 81.0928 34.8433 81.0371 34.8092 80.9931C34.7924 80.9713 34.7714 80.953 34.7475 80.9393C34.7235 80.9256 34.6972 80.9168 34.6698 80.9133C34.6146 80.9063 34.5589 80.9214 34.5149 80.9555C34.4708 80.9895 34.4422 81.0397 34.4351 81.0949Z" fill="#263238"/>
<path d="M34.9887 83.8406C35.5378 85.7891 36.1003 89.5179 35.9674 90.4834C35.9674 90.5719 35.8257 90.6029 35.808 90.5099C35.6308 89.4648 34.8514 84.4384 34.7717 83.9115C34.692 83.3845 34.8337 83.2959 34.9887 83.8406Z" fill="#263238"/>
<path d="M31.6008 85.3773C31.8578 85.1255 32.1332 84.8931 32.4245 84.682C32.7124 84.4562 33.0002 84.2392 33.3102 84.0222C33.9214 83.5793 34.5502 83.1985 35.1924 82.8176C35.8345 82.4368 36.4633 82.1046 37.1188 81.7725C37.7742 81.4404 38.527 81.1658 39.209 80.8248C39.2489 80.8027 39.2843 80.8602 39.2445 80.8824C38.5979 81.2411 37.9956 81.6884 37.3668 82.0825C36.7379 82.4766 36.1091 82.8841 35.4758 83.2782C34.8425 83.6723 34.2447 84.0576 33.6247 84.4385C33.3029 84.6392 32.9752 84.8341 32.6415 85.023C32.343 85.2155 32.0323 85.3885 31.7116 85.5412C31.6053 85.581 31.5433 85.4437 31.6008 85.3773Z" fill="#263238"/>
<path d="M20.4277 132.758C20.7067 126.438 21.1496 119.379 21.2559 113.069C21.3061 109.907 21.3297 106.743 21.3267 103.578C21.3267 100.439 21.3267 96.2449 21.185 93.1095C21.1009 91.5152 18.2932 90.2841 17.7219 85.643C17.3261 82.9998 17.5366 80.3013 18.3375 77.7514C18.5367 77.1316 18.7718 76.5238 19.0416 75.9313C19.0416 75.8914 19.1169 75.9313 19.0992 75.9667C17.9754 78.5728 17.5086 81.415 17.7396 84.2436C17.8213 85.6696 18.12 87.0749 18.6253 88.4108C19.3782 90.2841 21.2337 91.8031 21.3312 92.7995C21.4773 94.283 21.4994 95.5673 21.5172 97.0597C21.5349 98.5521 21.5526 100.16 21.5614 101.71C21.5792 104.875 21.5703 108.038 21.5349 111.2C21.464 117.497 21.2987 123.792 21.0389 130.083C20.7732 136.376 19.1435 167.885 19.0372 168.611C19.0372 168.691 18.8955 168.673 18.8999 168.611C19.0948 165.436 20.1443 139.077 20.4277 132.758Z" fill="#263238"/>
<path d="M30.8569 55.4848C35.0462 64.1292 40.3649 73.4911 45.3425 74.9702C50.081 76.3652 59.2658 64.7315 62.1709 61.6847C63.2072 60.5776 54.7886 54.2448 53.4821 55.2058C51.0199 57.0171 46.5958 61.9504 45.8518 61.7777C45.1078 61.605 38.8946 55.6974 33.297 50.7374C29.9047 47.7305 27.9562 49.493 30.8569 55.4848Z" fill="#EB9481"/>
<path d="M69.4558 56.1978C70.6072 55.7151 79.4731 55.4316 79.4731 53.5097C79.4731 51.5877 68.1848 52.128 68.1848 52.128L69.4558 56.1978Z" fill="#EB9481"/>
<path d="M52.4503 56.4236C54.0003 54.4972 55.3643 52.438 56.7106 52.0394C57.645 51.7737 67.68 52.2077 69.2521 52.1147C70.8242 52.0217 76.413 52.1634 76.5459 53.5362C76.7274 55.4803 70.1024 55.4626 69.3982 56.459C66.9581 59.8867 57.6804 64.9618 57.6804 64.9618L52.4503 56.4236Z" fill="#EB9481"/>
<path d="M76.6919 53.5673C76.5949 53.2028 76.3661 52.8872 76.0498 52.6816C75.3634 52.2033 74.46 52.159 73.654 52.0971C72.4318 51.9828 71.2022 51.9724 69.9783 52.066C69.9724 52.066 69.9668 52.0684 69.9627 52.0725C69.9585 52.0767 69.9562 52.0823 69.9562 52.0882C69.9562 52.0941 69.9585 52.0997 69.9627 52.1038C69.9668 52.108 69.9724 52.1103 69.9783 52.1103C70.895 52.1103 71.8117 52.1325 72.7284 52.2078C73.568 52.243 74.4012 52.3707 75.2128 52.5886C75.5797 52.6861 75.9114 52.8858 76.1694 53.1643C76.2608 53.2616 76.3262 53.3804 76.3595 53.5097C76.3928 53.6389 76.3929 53.7745 76.3598 53.9039C76.0897 54.7497 74.4201 55.0022 73.6496 55.1749C72.6443 55.4007 71.5992 55.6177 70.585 55.8037C70.5407 55.8037 70.585 55.8834 70.6072 55.8746C71.6567 55.6664 72.7683 55.5823 73.8223 55.3919C74.677 55.2369 75.5937 55.0641 76.2845 54.5062C76.4332 54.4032 76.5502 54.2608 76.6221 54.0949C76.6941 53.929 76.7183 53.7462 76.6919 53.5673Z" fill="#263238"/>
<path d="M61.0863 49.3811L61.3783 47.8859L78.8248 51.293C78.9827 51.3238 79.1219 51.4161 79.2118 51.5496C79.3016 51.6831 79.3348 51.8468 79.3039 52.0047L79.2445 52.309C79.2137 52.4669 79.1214 52.6061 78.9879 52.696C78.8544 52.7858 78.6907 52.819 78.5328 52.7882L61.0863 49.3811Z" fill="#F83758"/>
<path opacity="0.1" d="M61.3762 47.8889L61.0842 49.384L63.1879 49.7949L63.4799 48.2997L61.3762 47.8889Z" fill="black"/>
<path d="M54.7045 45.9857L54.1907 48.6428C54.0146 49.5413 54.2025 50.473 54.7133 51.2329C55.2241 51.9928 56.0158 52.5187 56.9143 52.6948C57.8128 52.871 58.7445 52.6831 59.5044 52.1723C60.2643 51.6615 60.7902 50.8698 60.9664 49.9713L61.4845 47.3142C61.5717 46.869 61.5704 46.411 61.4807 45.9663C61.3909 45.5217 61.2144 45.099 60.9613 44.7225C60.7082 44.3461 60.3834 44.0231 60.0055 43.7722C59.6276 43.5212 59.2039 43.3471 58.7588 43.2599C58.3136 43.1727 57.8556 43.174 57.4109 43.2637C56.9662 43.3535 56.5436 43.53 56.1671 43.7831C55.4068 44.2943 54.8806 45.0866 54.7045 45.9857ZM60.3995 46.6455C60.3066 47.0387 60.0939 47.3934 59.7909 47.6607C59.488 47.928 59.1095 48.0947 58.7078 48.1379C59.0619 48.3315 59.3483 48.6286 59.5288 48.9895C59.7093 49.3505 59.7751 49.7579 59.7175 50.1573C59.5094 51.2113 58.3491 51.8756 57.1224 51.6364C55.8957 51.3973 55.0676 50.3433 55.2713 49.2938C55.3663 48.9008 55.5801 48.5467 55.8836 48.2796C56.1871 48.0126 56.5656 47.8456 56.9674 47.8013C56.6116 47.6097 56.3237 47.3129 56.143 46.9514C55.9622 46.59 55.8975 46.1815 55.9577 45.7819C56.1659 44.7235 57.3261 44.0681 58.5528 44.3072C59.7795 44.5464 60.6077 45.5915 60.3995 46.6455Z" fill="#F83758"/>
<path d="M61.5081 47.2123L60.9522 50.0592C60.9226 50.2104 61.0213 50.3569 61.1725 50.3865L61.3116 50.4136C61.4628 50.4432 61.6094 50.3445 61.6389 50.1933L62.1948 47.3464C62.2244 47.1952 62.1257 47.0486 61.9745 47.0191L61.8354 46.9919C61.6842 46.9624 61.5376 47.0611 61.5081 47.2123Z" fill="#F83758"/>
<path d="M62.1952 47.3479L61.6393 50.1948C61.6098 50.346 61.7084 50.4926 61.8596 50.5221L61.9987 50.5493C62.15 50.5788 62.2965 50.4801 62.326 50.3289L62.882 47.482C62.9115 47.3308 62.8129 47.1843 62.6616 47.1547L62.5225 47.1276C62.3713 47.098 62.2248 47.1967 62.1952 47.3479Z" fill="#F83758"/>
<path d="M74.646 49.8385L75.1641 49.9403L75.4564 48.4302L75.9037 48.5188L75.7487 49.307L76.2668 49.4089L76.4218 48.6206L76.8115 48.6959L76.5724 49.9403L77.0905 50.0422L77.3341 48.7978L77.8921 48.9085L77.5688 50.5692L78.0869 50.671L78.4102 49.0103L78.9372 49.1122L78.5254 51.2334L73.8843 50.33L74.2961 48.2043L74.9383 48.3328L74.646 49.8385Z" fill="#F83758"/>
<path d="M15.1976 72.6852L39.9176 73.0926L37.9779 65.6882C38.6228 64.7589 39.0565 63.6998 39.2485 62.5851C39.4406 61.4705 39.3863 60.3273 39.0895 59.2358C38.496 57.057 35.6839 53.7932 33.9568 51.7074C29.7586 46.6589 26.1095 48.9395 24.9448 50.2371C20.503 55.2103 15.1976 72.6852 15.1976 72.6852Z" fill="#F83758"/>
<path d="M27.3716 53.1155V51.7073L28.306 52.7524L29.3157 52.438L28.8242 53.3237L29.298 53.8197L28.5629 53.895V54.8515L27.7569 54.1784L27.1015 54.7231L27.1767 53.9171L26.2202 53.4742L27.3716 53.1155ZM37.9026 68.9386L37.1232 69.6516L36.4058 69.2708L36.6582 70.09L35.7282 70.5727L36.6139 70.9536L36.3969 71.6621L37.0435 71.4141L37.6812 72.2201L37.7786 71.1662L39.1072 70.7233L37.814 70.1609L37.9026 68.9386ZM28.864 63.682L29.6213 65.1877L30.3697 63.7484L31.7957 63.9964L31.0384 62.4818L32.0968 61.4721L30.5956 61.5253L30.2944 60.055L29.5061 61.5784L27.5045 61.4234L28.6824 62.6413L27.593 63.4783L28.864 63.682ZM34.7584 54.9799L35.1215 54.3688L34.4395 54.4308L34.2048 53.8684L33.8372 54.4795L33.2394 54.3334L33.5981 54.8559L33.1552 55.2988L33.8771 55.2324L34.2757 55.9764L34.4395 55.2855L34.9798 55.4804L34.7584 54.9799ZM23.1645 71.1086L23.5277 70.5019L22.8501 70.5594L22.611 69.997L22.2478 70.6126L21.65 70.462L22.0087 70.9846L21.5658 71.4274L22.2877 71.3654L22.6862 72.1094L22.8501 71.4141L23.3948 71.6134L23.1645 71.1086ZM27.2299 60.1303L27.593 59.5236L26.911 59.5812L26.6763 59.0187L26.3132 59.6343L25.7109 59.4837L26.0696 60.0063L25.6268 60.4492L26.3486 60.3872L26.7472 61.1267L26.911 60.4359L27.4557 60.6307L27.2299 60.1303ZM22.828 61.7777L22.704 61.3791L22.4648 61.7024L22.1238 61.5829L22.2478 61.9858L21.9511 62.1896L22.3187 62.2383V62.6103L22.5711 62.2648L23.0538 62.3844L22.8147 62.039L23.1158 61.8751L22.828 61.7777ZM34.3022 71.2769L34.1782 70.8783L33.9347 71.2016L33.5981 71.0864L33.7221 71.485L33.4209 71.6931L33.7929 71.7374V72.1094L34.0454 71.7684L34.5281 71.8836L34.2889 71.5381L34.5901 71.3787L34.3022 71.2769ZM37.7343 59.7007L38.0487 59.4217L37.6546 59.3376L37.6192 58.9789L37.3048 59.2579L36.9948 59.0719L37.1055 59.4262L36.7733 59.5945L37.1896 59.683L37.2826 60.1746L37.4996 59.8115L37.7697 60.0196L37.7343 59.7007ZM31.5344 67.1805L31.8444 66.9015L31.4503 66.8174L31.4148 66.4586L31.1048 66.7376L30.7904 66.5516L30.9011 66.9059L30.569 67.0742L30.9853 67.1628L31.0783 67.6543L31.2953 67.2912L31.5654 67.4993L31.5344 67.1805ZM18.7714 69.5276L19.0814 69.2486L18.6873 69.16L18.6563 68.8013L18.3419 69.0847L18.0496 68.8943L18.1559 69.253L17.8237 69.4169L18.24 69.5099L18.3374 69.997L18.55 69.6383L18.8201 69.8465L18.7714 69.5276Z" fill="white"/>
<path d="M31.3661 65.2541C32.4232 65.1567 33.4861 65.1389 34.5458 65.201C35.0728 65.2364 35.5954 65.2984 36.1179 65.3737C36.3748 65.4091 36.6361 65.4357 36.8974 65.4622C37.1709 65.4954 37.4475 65.4954 37.7211 65.4622C37.7211 65.4622 37.7521 65.4932 37.7211 65.5021C37.4684 65.5588 37.2126 65.6002 36.9549 65.6261C36.7027 65.6416 36.4498 65.6416 36.1977 65.6261C35.6662 65.5907 35.1304 65.5331 34.599 65.4977C33.5228 65.4179 32.4467 65.3427 31.3661 65.3427C31.3351 65.3515 31.3351 65.2585 31.3661 65.2541Z" fill="#263238"/>
<path d="M28.9659 66.6402C29.8061 66.3955 30.6591 66.1974 31.5211 66.0468C31.964 65.976 32.4069 65.9273 32.8231 65.8918L33.4475 65.8475C33.6778 65.8475 33.8904 65.8475 34.1384 65.8475C34.165 65.8475 34.1694 65.883 34.1384 65.8874C33.9214 65.9095 33.6955 65.9671 33.4918 65.9981L32.8453 66.1L31.5521 66.3037C30.6901 66.4277 29.828 66.5664 28.9659 66.72C28.9305 66.72 28.9216 66.6535 28.9659 66.6402Z" fill="#263238"/>
<path d="M27.3495 49.958C27.4557 50.4009 29.5637 53.2573 31.5787 53.1598C32.2341 53.1244 32.2164 49.5373 32.2164 49.5373L32.274 49.2716L33.1065 45.5561L28.7489 42.7661L28.12 42.3986C28.12 42.3986 27.9606 43.4304 27.7746 44.7147C27.7746 44.7767 27.7746 44.8342 27.7746 44.8962C27.7746 44.9582 27.748 45.038 27.7392 45.1088C27.7082 45.2992 27.6772 45.4941 27.655 45.6889C27.6329 45.8838 27.6152 45.9857 27.5975 46.1318L27.5443 46.6012C27.4042 47.7145 27.3391 48.836 27.3495 49.958Z" fill="#EB9481"/>
<path d="M27.7924 44.7102C28.1703 45.7522 28.7699 46.6996 29.5498 47.4872C30.3297 48.2747 31.2712 48.8835 32.3094 49.2716L33.1066 45.5561L28.7489 42.7661L28.1201 42.3986C28.1201 42.3986 27.9606 43.426 27.7924 44.7102Z" fill="#263238"/>
<path d="M38.3455 39.4934C39.643 46.0476 35.8611 47.5622 34.4484 47.8412C33.1685 48.0936 28.7666 48.7844 26.8003 42.4029C24.8341 36.0215 27.4735 33.3466 30.3786 32.6159C33.2837 31.8852 37.0523 32.9436 38.3455 39.4934Z" fill="#EB9481"/>
<path d="M36.4323 38.4926C36.2862 38.5258 36.1383 38.5509 35.9895 38.5679C35.8341 38.6189 35.6665 38.6189 35.5112 38.5679C35.4663 38.5407 35.4316 38.4996 35.4124 38.4508C35.3932 38.402 35.3905 38.3482 35.4049 38.2977C35.4489 38.2022 35.5177 38.1201 35.6042 38.0602C35.6906 38.0002 35.7915 37.9645 35.8965 37.9567C36.1055 37.9079 36.3252 37.9395 36.512 38.0453C36.5504 38.0731 36.5802 38.1112 36.5979 38.1552C36.6156 38.1992 36.6206 38.2472 36.6123 38.2939C36.604 38.3406 36.5827 38.384 36.5509 38.4191C36.519 38.4543 36.4779 38.4797 36.4323 38.4926Z" fill="#263238"/>
<path d="M31.778 39.8345C31.9273 39.8117 32.0751 39.7806 32.2209 39.7415C32.3846 39.732 32.5405 39.6681 32.6637 39.5599C32.6972 39.5194 32.7155 39.4685 32.7155 39.416C32.7155 39.3634 32.6972 39.3125 32.6637 39.272C32.5893 39.1976 32.4958 39.1451 32.3935 39.1201C32.2912 39.0951 32.184 39.0986 32.0836 39.1303C31.8704 39.1578 31.6756 39.2655 31.5389 39.4315C31.5082 39.4715 31.4902 39.5198 31.4873 39.5701C31.4843 39.6204 31.4964 39.6705 31.5222 39.7139C31.5479 39.7572 31.586 39.7919 31.6316 39.8134C31.6772 39.8349 31.7282 39.8422 31.778 39.8345Z" fill="#263238"/>
<path d="M32.7612 40.6759C32.7612 40.6759 32.7302 40.6759 32.7346 40.7202C32.8143 41.163 32.832 41.6945 32.4512 41.9026C32.4512 41.9026 32.4512 41.9336 32.4512 41.9292C32.9427 41.783 32.9117 41.0833 32.7612 40.6759Z" fill="#263238"/>
<path d="M32.2918 40.2641C31.561 40.3172 31.7205 41.7786 32.398 41.7255C33.0756 41.6723 32.9029 40.2198 32.2918 40.2641Z" fill="#263238"/>
<path d="M32.0128 40.3747C31.8932 40.4677 31.7869 40.6272 31.6319 40.6626C31.4769 40.698 31.3086 40.5607 31.1891 40.4279C31.2156 40.7069 31.3529 40.9814 31.6585 40.9903C31.964 40.9992 32.1013 40.729 32.1412 40.4412C32.1146 40.4057 32.0615 40.3349 32.0128 40.3747Z" fill="#263238"/>
<path d="M35.5378 40.2507C35.5378 40.2507 35.5732 40.2507 35.5732 40.2862C35.6086 40.729 35.7193 41.256 36.1445 41.3623V41.3889C35.6352 41.3711 35.4935 40.6847 35.5378 40.2507Z" fill="#263238"/>
<path d="M35.8921 39.737C36.6139 39.6086 36.8177 41.0656 36.149 41.1807C35.4802 41.2958 35.2854 39.8477 35.8921 39.737Z" fill="#263238"/>
<path d="M36.2065 39.7902C36.3349 39.8522 36.4678 39.9762 36.6051 39.9629C36.7424 39.9496 36.8619 39.7769 36.9416 39.613C36.9416 39.613 36.9416 39.613 36.9682 39.613C37.0125 39.8876 36.9682 40.1932 36.7025 40.2817C36.4368 40.3703 36.2597 40.1533 36.1489 39.8832C36.1312 39.8477 36.1578 39.7636 36.2065 39.7902Z" fill="#263238"/>
<path d="M33.5849 44.4932C33.7 44.5951 33.8196 44.7323 33.9834 44.7368C34.1526 44.7214 34.3169 44.6717 34.4661 44.5906C34.4661 44.5906 34.4927 44.5906 34.4661 44.5906C34.4073 44.6838 34.3244 44.7593 34.2262 44.8092C34.128 44.8591 34.0181 44.8815 33.9081 44.8741C33.8235 44.8557 33.7454 44.8147 33.6822 44.7554C33.619 44.6961 33.5731 44.6208 33.5494 44.5375C33.5494 44.5375 33.5494 44.4799 33.5849 44.4932Z" fill="#263238"/>
<path d="M35.2721 42.6332C35.2721 42.6332 35.4492 43.2931 35.489 43.6119C35.489 43.6429 35.4182 43.6651 35.3075 43.6872C35.0399 43.77 34.7548 43.7778 34.4831 43.7099C34.2114 43.642 33.9635 43.5009 33.7664 43.3019C33.7664 43.2754 33.7664 43.2355 33.8106 43.2532C34.2505 43.4813 34.7524 43.5605 35.2411 43.4791C35.2411 43.3905 34.9001 42.3542 34.9488 42.3454C35.199 42.3372 35.4492 42.3626 35.6928 42.4207C35.3695 41.0301 34.8071 39.7016 34.5192 38.311C34.5192 38.2623 34.5812 38.2357 34.5989 38.28C35.2287 39.6845 35.7154 41.1489 36.0515 42.6509C36.0913 42.8281 35.4093 42.6687 35.2721 42.6332Z" fill="#263238"/>
<path d="M35.2632 43.5722C35.1186 43.854 34.9035 44.0935 34.6388 44.2675C34.4918 44.3589 34.32 44.4022 34.1472 44.3915C33.7752 44.3605 33.7043 44.0327 33.7043 43.7405C33.7159 43.5902 33.7441 43.4416 33.7885 43.2976C34.2377 43.5455 34.7549 43.6418 35.2632 43.5722Z" fill="#263238"/>
<path d="M34.6388 44.2674C34.4918 44.3588 34.32 44.4021 34.1472 44.3914C33.7752 44.3604 33.7043 44.0326 33.7043 43.7404C33.8969 43.7083 34.0945 43.7431 34.2645 43.839C34.4345 43.9349 34.5666 44.086 34.6388 44.2674Z" fill="#FF9ABB"/>
<path d="M27.5311 42.9787C28.7843 42.9787 28.7002 40.1002 28.7002 40.1002C28.7002 40.1002 33.8195 38.466 33.6601 34.1394C34.5675 35.7813 36.0726 37.0105 37.8628 37.5715C37.8628 37.5715 37.0169 32.9215 33.1774 32.5363C33.1774 32.5363 28.337 31.5133 26.2645 35.5344C24.192 39.5554 26.6896 42.992 27.5311 42.9787Z" fill="#263238"/>
<path d="M33.6336 33.8206C33.7864 34.4702 33.8 35.1448 33.6734 35.8001C33.5584 36.4667 33.305 37.1019 32.9294 37.6645C32.8365 37.8054 32.7344 37.94 32.6239 38.0675L32.4689 38.2668C32.4113 38.3288 32.3493 38.3863 32.2873 38.4439C32.2253 38.5015 32.0482 38.6786 31.9242 38.7893L31.5167 39.0905C31.4503 39.1392 31.3839 39.1879 31.313 39.2322L31.096 39.3562L30.6532 39.5998C30.352 39.7326 30.0421 39.8478 29.7321 39.9585C30.0155 39.7858 30.3078 39.644 30.5823 39.4713L30.9898 39.1968L31.189 39.0595C31.2555 39.0108 31.313 38.9576 31.375 38.9045L31.7426 38.5945C31.8622 38.4838 31.9685 38.3642 32.0792 38.2491L32.2475 38.0764L32.3936 37.8859C32.4944 37.7634 32.5876 37.6347 32.6726 37.5006C33.0319 36.9597 33.2941 36.3603 33.4476 35.7292C33.5269 35.4166 33.5817 35.0983 33.6114 34.7771C33.6442 34.4594 33.6516 34.1395 33.6336 33.8206Z" fill="#263238"/>
<path d="M25.5781 39.0417L25.2681 39.6706L27.3406 41.1851L28.0049 39.7725L25.5781 39.0417ZM27.1945 40.5386L25.7641 39.6086L25.8305 39.4625L27.438 40.0426L27.1945 40.5386Z" fill="#F83758"/>
<path d="M25.6666 37.9302L25.6179 38.6299L28.1112 39.2543L28.1953 37.691L25.6666 37.9302ZM27.7303 38.7052L26.0519 38.3863V38.2225L27.7613 38.156L27.7303 38.7052Z" fill="#F83758"/>
<path d="M28.492 42.4163C28.492 42.4163 26.8136 40.4988 25.9323 41.1188C25.051 41.7388 26.4637 44.6262 27.6107 44.914C27.7554 44.9622 27.9084 44.9805 28.0604 44.9677C28.2123 44.9549 28.3601 44.9114 28.4947 44.8397C28.6293 44.7681 28.748 44.6698 28.8434 44.5509C28.9389 44.4319 29.0092 44.2948 29.05 44.1479L28.492 42.4163Z" fill="#EB9481"/>
<path d="M26.3575 41.938C26.3575 41.938 26.3575 41.9602 26.3575 41.9646C26.7314 42.1031 27.072 42.3185 27.3573 42.597C27.6426 42.8754 27.8663 43.2107 28.0138 43.581C27.9606 43.5085 27.8922 43.4484 27.8134 43.405C27.7346 43.3615 27.6473 43.3357 27.5575 43.3294C27.4678 43.3231 27.3777 43.3364 27.2936 43.3684C27.2095 43.4003 27.1334 43.4502 27.0705 43.5146C27.0705 43.5146 27.0705 43.5589 27.0971 43.5545C27.2277 43.4959 27.3733 43.4794 27.5137 43.5071C27.6541 43.5349 27.7825 43.6056 27.8809 43.7095C28.0485 43.8852 28.1969 44.0782 28.3238 44.2852C28.3637 44.3516 28.4877 44.2852 28.4522 44.2232C28.3459 43.209 27.4292 41.9203 26.3575 41.938Z" fill="#263238"/>
<path d="M23.4745 51.7117C17.8415 61.4279 9.42287 83.7299 7.89946 86.9184C6.86761 89.084 18.1869 94.7923 18.6696 93.2158C19.2807 91.2008 27.1369 65.2231 27.6506 53.6337C27.8898 48.2664 25.2769 48.6029 23.4745 51.7117Z" fill="#EB9481"/>
<path d="M14.0639 98.1756C14.6618 97.653 14.9496 97.963 14.6795 99.3447C14.4094 100.726 12.2217 105.987 14.1171 106.585C16.0125 107.183 18.9884 99.7477 19.263 97.4139C19.5376 95.0801 19.1124 91.214 19.1124 91.214C18.24 92.5514 15.8353 95.5805 14.0639 98.1756Z" fill="#EB9481"/>
<path d="M17.3853 106.298L3.21409 103.747C2.77124 103.711 2.5011 103.419 2.57638 103.091L3.87394 97.2989C3.94493 97.1276 4.07104 96.985 4.23228 96.8935C4.39352 96.8021 4.58067 96.7671 4.76407 96.794L18.9353 99.3315C19.3782 99.3714 19.6483 99.6637 19.573 99.987L18.2755 105.779C18.2087 105.955 18.084 106.102 17.922 106.196C17.76 106.29 17.5706 106.326 17.3853 106.298Z" fill="#A6A6A6"/>
<path d="M17.5492 105.616L3.35136 103.065C2.90851 103.025 2.6428 102.733 2.71365 102.409L4.01564 96.6169C4.08151 96.4421 4.20544 96.2952 4.36668 96.2009C4.52792 96.1065 4.71668 96.0705 4.90134 96.0987L19.0991 98.6496C19.542 98.685 19.8077 98.9773 19.7368 99.3005L18.4482 105.097C18.3804 105.274 18.2542 105.422 18.0905 105.516C17.9268 105.61 17.7357 105.645 17.5492 105.616Z" fill="#C7C7C7"/>
<path d="M17.2835 103.778C16.9558 103.654 16.6458 103.778 16.5926 104.052C16.5855 104.21 16.6308 104.365 16.7213 104.494C16.8119 104.623 16.9426 104.718 17.0931 104.765C17.4208 104.889 17.7308 104.765 17.7839 104.495C17.792 104.337 17.7473 104.181 17.6566 104.051C17.566 103.921 17.4347 103.825 17.2835 103.778Z" fill="#263238"/>
<path d="M8.65675 85.8998C5.76493 89.7969 3.20525 94.3848 3.14325 99.4555C3.12449 100.019 3.29438 100.572 3.62596 101.028C3.55953 103.295 4.60909 104.012 4.60909 104.012C5.19365 106.142 6.38049 106.727 6.38049 106.727C6.38049 106.727 6.54877 108.556 7.83747 108.529C9.12617 108.503 9.83473 105.505 10.9374 103.317C13.5193 98.2952 18.2135 92.5913 19.0992 91.2184L8.65675 85.8998Z" fill="#EB9481"/>
<path d="M9.57789 96.8649C8.80759 98.3264 8.13735 99.8385 7.57177 101.391C7.05691 103.131 6.67205 104.908 6.42036 106.705C6.42036 106.717 6.41569 106.728 6.40739 106.736C6.39908 106.745 6.38782 106.749 6.37607 106.749C6.36433 106.749 6.35306 106.745 6.34476 106.736C6.33645 106.728 6.33179 106.717 6.33179 106.705C6.47276 103.193 7.57239 99.7872 9.51146 96.856C9.55574 96.763 9.63546 96.794 9.57789 96.8649Z" fill="#263238"/>
<path d="M6.77457 94.8676C6.14573 96.36 5.05631 98.9861 4.66217 104.017C4.66217 104.017 4.6356 104.017 4.63117 104.017C4.45888 100.824 5.17637 97.6459 6.70372 94.8366C6.75243 94.748 6.81886 94.7658 6.77457 94.8676Z" fill="#263238"/>
<path d="M5.25125 93.8224C4.27698 96.3998 3.9847 98.149 3.63928 101.014H3.60828C3.66142 97.7151 4.05113 96.5194 5.16711 93.7737C5.20697 93.694 5.28668 93.7205 5.25125 93.8224Z" fill="#263238"/>
</svg>
