<svg width="350" height="350" viewBox="0 0 350 350" fill="none" xmlns="http://www.w3.org/2000/svg">
<path d="M350 267.679H0V267.854H350V267.679Z" fill="#EBEBEB"/>
<path d="M233.684 273.748H210.499V273.923H233.684V273.748Z" fill="#EBEBEB"/>
<path d="M282.722 279.406H276.637V279.581H282.722V279.406Z" fill="#EBEBEB"/>
<path d="M248.346 276.781H234.912V276.956H248.346V276.781Z" fill="#EBEBEB"/>
<path d="M66.9563 273.622H36.7212V273.797H66.9563V273.622Z" fill="#EBEBEB"/>
<path d="M175.7 273.622H171.267V273.797H175.7V273.622Z" fill="#EBEBEB"/>
<path d="M130.899 276.665H99.1851V276.84H130.899V276.665Z" fill="#EBEBEB"/>
<path d="M165.91 236.46H30.7407C28.5378 236.46 26.7451 234.667 26.7451 232.464V42.462C26.7451 40.2591 28.5378 38.4664 30.7407 38.4664H165.91C168.112 38.4664 169.905 40.2591 169.905 42.462V232.464C169.905 234.667 168.112 236.46 165.91 236.46ZM30.7407 38.6421C28.6337 38.6421 26.9201 40.3557 26.9201 42.4627V232.465C26.9201 234.572 28.6337 236.286 30.7407 236.286H165.91C168.016 236.286 169.73 234.572 169.73 232.465V42.462C169.73 40.3557 168.016 38.6414 165.91 38.6414L30.7407 38.6421Z" fill="#EBEBEB"/>
<path d="M317.317 236.46H182.148C179.945 236.46 178.153 234.667 178.153 232.464V42.462C178.153 40.2591 179.946 38.4664 182.148 38.4664H317.317C319.52 38.4664 321.312 40.2591 321.312 42.462V232.464C321.313 234.667 319.52 236.46 317.317 236.46ZM182.148 38.6421C180.042 38.6421 178.328 40.3557 178.328 42.4627V232.465C178.328 234.572 180.042 236.286 182.148 236.286H317.317C319.424 236.286 321.137 234.572 321.137 232.465V42.462C321.137 40.3557 319.424 38.6414 317.317 38.6414L182.148 38.6421Z" fill="#EBEBEB"/>
<path d="M69.952 100.946C83.6279 100.946 94.7144 89.8597 94.7144 76.1838C94.7144 62.5078 83.6279 51.4213 69.952 51.4213C56.276 51.4213 45.1895 62.5078 45.1895 76.1838C45.1895 89.8597 56.276 100.946 69.952 100.946Z" fill="#E6E6E6"/>
<path d="M84.8452 74.5108H84.6429C85.7496 74.5108 86.6848 73.6883 86.8255 72.5907C86.9942 71.2754 85.9694 70.1106 84.6429 70.1106H83.5208L76.105 69.4239C75.2398 69.3441 74.6168 68.5629 74.7246 67.7005C74.8422 66.7548 74.9507 65.6439 74.9822 64.5862C75.0599 61.9857 73.3407 58.779 70.9453 59.9284C69.9751 60.3939 70.5575 63.6209 70.0913 64.8991C69.6258 66.1766 65.1724 69.9461 63.9187 72.6166C63.1592 72.9358 62.665 73.6792 62.665 74.5031V84.1148C62.665 84.6573 62.8806 85.1781 63.2642 85.5617L64.3009 86.5984C65.0142 87.3117 65.9823 87.7128 66.991 87.7128H76.7497H80.8804H82.2139C83.3206 87.7128 84.2551 86.8903 84.3965 85.7927C84.5652 84.4774 83.5404 83.3126 82.2139 83.3126H83.8393C84.946 83.3126 85.8812 82.4901 86.0219 81.3925C86.1906 80.0772 85.1658 78.9124 83.8393 78.9124H84.8438C85.9505 78.9124 86.8857 78.0899 87.0264 76.9923C87.1958 75.6756 86.171 74.5108 84.8452 74.5108Z" fill="#FAFAFA"/>
<path d="M59.9448 87.8962H54.1593C53.4411 87.8962 52.8594 87.3138 52.8594 86.5963V72.716C52.8594 71.9978 53.4418 71.4161 54.1593 71.4161H59.9455C60.6637 71.4161 61.2454 71.9985 61.2454 72.716V86.5963C61.2454 87.3138 60.663 87.8962 59.9448 87.8962Z" fill="#F0F0F0"/>
<path d="M243.191 67.6508C243.144 62.0578 238.598 57.5379 232.994 57.5379C231.643 57.5379 230.355 57.8025 229.176 58.2792C227.173 54.1821 222.966 51.359 218.098 51.359C212.211 51.359 207.291 55.4876 206.068 61.0064C200.531 61.3627 196.15 65.9631 196.15 71.5897C196.15 77.4487 200.899 82.1975 206.758 82.1975H240.513C244.666 82.1975 248.033 78.8305 248.033 74.6781C248.033 71.4686 246.022 68.7302 243.191 67.6508Z" fill="#F0F0F0"/>
<path d="M263.67 217.663C263.641 214.243 260.861 211.48 257.435 211.48C256.61 211.48 255.823 211.642 255.102 211.933C253.877 209.429 251.305 207.703 248.329 207.703C244.73 207.703 241.722 210.226 240.975 213.6C237.59 213.818 234.912 216.63 234.912 220.07C234.912 223.652 237.816 226.556 241.397 226.556H262.033C264.572 226.556 266.63 224.498 266.63 221.959C266.629 219.997 265.4 218.322 263.67 217.663Z" fill="#F5F5F5"/>
<path d="M294.274 215.112C304.845 215.112 313.414 206.542 313.414 195.971C313.414 185.4 304.845 176.831 294.274 176.831C283.702 176.831 275.133 185.4 275.133 195.971C275.133 206.542 283.702 215.112 294.274 215.112Z" fill="#E6E6E6"/>
<path d="M303.587 189.187C301.015 186.615 296.846 186.615 294.274 189.187C291.702 186.615 287.533 186.615 284.961 189.187C282.389 191.759 282.389 195.928 284.961 198.5L294.274 207.813L303.587 198.5C306.158 195.928 306.158 191.759 303.587 189.187Z" fill="#FAFAFA"/>
<path d="M120.491 37.2862C120.52 33.8583 123.306 31.0877 126.741 31.0877C127.569 31.0877 128.358 31.2501 129.081 31.542C130.309 29.0304 132.888 27.3 135.872 27.3C139.481 27.3 142.496 29.8305 143.246 33.2129C146.639 33.4313 149.325 36.2509 149.325 39.6998C149.325 43.2908 146.413 46.2021 142.822 46.2021H122.132C119.587 46.2021 117.523 44.1385 117.523 41.5926C117.524 39.6256 118.756 37.9477 120.491 37.2862Z" fill="#F5F5F5"/>
<path d="M32.4438 245.64V230.492C32.4438 228.55 34.0328 226.961 35.9746 226.961H67.7042C69.646 226.961 71.235 228.55 71.235 230.492V245.64C71.235 247.582 69.646 249.171 67.7042 249.171H35.9746C34.0328 249.17 32.4438 247.582 32.4438 245.64Z" fill="#F5F5F5"/>
<path d="M51.8394 241.407C51.7085 241.407 51.5776 241.37 51.4628 241.298L35.1661 230.982C34.8371 230.773 34.7398 230.338 34.9477 230.009C35.1556 229.68 35.5903 229.584 35.9193 229.79L51.8394 239.868L67.7595 229.79C68.0885 229.583 68.5232 229.68 68.7311 230.009C68.939 230.338 68.8417 230.773 68.5127 230.982L52.216 241.298C52.1012 241.37 51.9703 241.407 51.8394 241.407Z" fill="white"/>
<path d="M28.5901 109.399H53.4891C56.3472 109.399 58.6852 111.737 58.6852 114.595V129.506V134.342L53.8496 129.506H28.5901C25.732 129.506 23.394 127.168 23.394 124.31V114.596C23.3933 111.738 25.732 109.399 28.5901 109.399Z" fill="#F0F0F0"/>
<path d="M29.4562 116.52H52.9839C53.4599 116.52 53.8498 116.13 53.8498 115.654C53.8498 115.178 53.4599 114.788 52.9839 114.788H29.4562C28.9802 114.788 28.5903 115.178 28.5903 115.654C28.5903 116.13 28.9795 116.52 29.4562 116.52Z" fill="white"/>
<path d="M29.4562 120.509H52.9839C53.4599 120.509 53.8498 120.119 53.8498 119.643C53.8498 119.167 53.4599 118.777 52.9839 118.777H29.4562C28.9802 118.777 28.5903 119.167 28.5903 119.643C28.5903 120.119 28.9795 120.509 29.4562 120.509Z" fill="white"/>
<path d="M37.467 124.499H52.9839C53.4599 124.499 53.8498 124.109 53.8498 123.633C53.8498 123.156 53.4599 122.767 52.9839 122.767H37.467C36.9903 122.767 36.6011 123.157 36.6011 123.633C36.6011 124.109 36.9903 124.499 37.467 124.499Z" fill="white"/>
<path d="M304.278 51.359H275.833C272.568 51.359 269.896 54.0302 269.896 57.2957V69.7823V75.3067L275.421 69.7823H304.278C307.543 69.7823 310.215 67.1111 310.215 63.8456V57.2957C310.215 54.0309 307.544 51.359 304.278 51.359Z" fill="#F5F5F5"/>
<path d="M303.289 59.4944H276.41C275.866 59.4944 275.421 59.0492 275.421 58.5053C275.421 57.9614 275.866 57.5162 276.41 57.5162H303.289C303.833 57.5162 304.278 57.9614 304.278 58.5053C304.278 59.0492 303.833 59.4944 303.289 59.4944Z" fill="#E6E6E6"/>
<path d="M294.137 64.0612H276.41C275.866 64.0612 275.421 63.616 275.421 63.0721C275.421 62.5282 275.866 62.083 276.41 62.083H294.137C294.681 62.083 295.126 62.5282 295.126 63.0721C295.127 63.616 294.681 64.0612 294.137 64.0612Z" fill="#E6E6E6"/>
<path d="M175 299.293C249.957 299.293 310.722 295.744 310.722 291.367C310.722 286.989 249.957 283.44 175 283.44C100.043 283.44 39.2778 286.989 39.2778 291.367C39.2778 295.744 100.043 299.293 175 299.293Z" fill="#F5F5F5"/>
<path d="M140.035 187.208C140.035 208.25 127.33 226.331 109.165 234.185C105.504 235.767 101.619 236.936 97.5727 237.629C94.7447 238.112 91.8397 238.364 88.8787 238.364C87.8777 238.364 86.8837 238.336 85.8967 238.273C82.4037 238.077 79.0087 237.531 75.7467 236.663C53.8577 230.867 37.7227 210.917 37.7227 187.208C37.7227 158.956 60.6267 136.052 88.8787 136.052C117.131 136.052 140.035 158.956 140.035 187.208Z" fill="white"/>
<path d="M103.691 160.881H103.712C97.9019 158.788 105.021 148.393 94.5629 143.647C83.8599 138.782 73.0309 145.313 75.0609 150.808C71.5399 151.809 70.6159 160.307 74.9069 164.276C73.5279 166.061 72.7019 168.287 72.7019 170.709C72.7019 176.113 76.7689 180.558 81.9979 181.16C82.0049 181.16 82.0049 181.16 82.0119 181.16C82.0469 181.174 82.0819 181.174 82.1099 181.174H82.1169C82.4809 181.216 82.8449 181.237 83.2229 181.237C83.8249 181.237 84.4129 181.188 84.9869 181.083H84.9939C85.5539 180.992 86.1069 180.852 86.6319 180.663H86.6389C88.6199 179.984 90.3279 178.724 91.5739 177.1C92.7849 178.675 94.4369 179.9 96.3409 180.593C96.3409 180.593 96.3409 180.593 96.3479 180.6C96.4809 180.642 96.6069 180.691 96.7469 180.726C97.2089 180.88 97.6919 180.999 98.1819 181.076C98.7489 181.174 99.3229 181.223 99.9179 181.223C100.758 181.223 101.577 181.125 102.361 180.936C106.995 179.837 110.446 175.672 110.446 170.695C110.446 166.215 107.639 162.4 103.691 160.881Z" fill="#263238"/>
<path d="M79.8491 190.813C79.8281 190.344 79.8071 189.952 79.7581 189.371C79.5761 187.334 77.8121 185.78 75.7541 185.885C73.8431 185.983 72.3311 187.46 72.1351 189.294C72.1281 189.301 72.1281 189.308 72.1351 189.315C72.1071 189.511 72.1071 189.707 72.1141 189.903L72.1211 190.064C72.1351 190.288 72.1491 190.701 72.1491 191.037L72.1561 192.129C72.1561 192.857 72.1281 193.606 72.0861 194.348C72.0231 195.524 71.9251 196.714 71.7851 197.89C71.7501 198.198 71.7151 198.513 71.6731 198.821C71.2811 201.803 70.6791 204.757 69.8251 207.641C69.6221 208.362 69.3631 209.069 69.1461 209.79C68.9151 210.504 68.6281 211.197 68.3691 211.904L68.0751 212.709C68.0051 212.884 67.9351 213.01 67.9351 213.052C67.8231 213.024 67.6971 212.975 67.5641 212.905C67.0741 212.688 66.5141 212.324 65.9611 211.911C64.8551 211.092 63.6931 210.014 62.6641 208.992L62.5731 208.908C62.5311 208.873 62.5031 208.845 62.4611 208.803H62.4541C61.9081 208.355 61.1451 208.215 60.4521 208.516C59.4861 208.943 59.0381 210.077 59.4651 211.05C59.7941 211.792 60.1371 212.436 60.5221 213.101C60.5781 213.206 60.6411 213.311 60.7041 213.416C61.1451 214.179 61.6631 214.914 62.2371 215.642C62.8251 216.363 63.4831 217.077 64.3371 217.756C65.1911 218.4 66.2481 219.107 67.9001 219.359C68.7261 219.464 69.6991 219.387 70.5811 219.051C71.4631 218.729 72.1911 218.204 72.7441 217.672C73.3041 217.14 73.6961 216.594 74.0251 216.069C74.1861 215.81 74.3331 215.551 74.4591 215.299C74.5291 215.166 74.5781 215.054 74.6201 214.956C74.6271 214.949 74.6201 214.949 74.6201 214.949C74.6621 214.858 74.7041 214.781 74.7461 214.683C75.4881 213.122 76.1601 211.533 76.7341 209.909C76.8601 209.559 76.9791 209.209 77.0981 208.852C77.1611 208.67 77.2241 208.481 77.2801 208.292C78.1411 205.653 78.7851 202.951 79.2191 200.214C79.2331 200.109 79.2541 200.011 79.2681 199.906C79.3031 199.668 79.3381 199.43 79.3731 199.192V199.143C79.3941 199.031 79.4151 198.905 79.4291 198.786V198.765C79.6111 197.435 79.7371 196.098 79.8001 194.754C79.8141 194.509 79.8281 194.257 79.8351 194.012C79.8631 193.389 79.8771 192.766 79.8771 192.143C79.8841 191.702 79.8701 191.261 79.8491 190.813Z" fill="#FF8B7B"/>
<path d="M75.7184 182.413C81.3534 179.806 85.0676 191.015 84.0505 200.2C76.046 201.326 69.3554 196.469 69.3554 196.469C69.3554 196.469 69.1335 185.459 75.7184 182.413Z" fill="#F83758"/>
<path d="M72.1386 188.051C72.0616 193.626 72.8736 204.947 76.6088 227.916H107.064C106.6 216.663 106.545 209.326 110.972 189.034C111.777 185.345 109.246 181.761 105.501 181.28C103.658 181.044 101.603 180.837 99.5296 180.737C94.4049 180.489 90.2056 180.326 85.7004 180.737C82.8773 180.995 79.8743 181.441 77.5006 181.839C74.45 182.351 72.1813 184.958 72.1386 188.051Z" fill="#F83758"/>
<path opacity="0.2" d="M104.83 192.392L109.953 193.856C109.25 197.32 108.694 200.376 108.262 203.122C104.483 201.906 100.985 195.183 104.83 192.392Z" fill="black"/>
<path d="M60.3049 204.078L57.584 200.947C56.8539 200.107 55.4931 200.342 55.0878 201.378L53.5086 205.413C53.3175 205.902 53.3987 206.455 53.7228 206.867L56.4668 210.362C56.4668 210.362 58.7075 213.126 61.8169 213.347L63.0146 210.029L60.3049 204.078Z" fill="#FF8B7B"/>
<path d="M83.081 192.599L83.8055 193.716L84.9577 193.048C91.0694 189.505 95.2435 185.611 97.1874 183.606C97.963 182.806 98.2906 181.716 98.1499 180.673C93.6398 180.466 89.7933 180.364 85.7011 180.738C84.5272 180.845 83.3246 180.986 82.1465 181.141C82.0751 181.225 82.0002 181.306 81.9372 181.397C80.9901 182.774 79.2044 186.624 83.081 192.599Z" fill="white"/>
<path d="M95.7201 165.723C95.0334 169.691 94.4133 176.579 96.5097 180.102C96.9934 180.914 96.8401 181.952 96.1814 182.631C94.269 184.603 90.2083 188.385 84.2548 191.836C80.8864 186.645 82.2227 183.452 83.0907 182.19C83.3392 181.828 83.7025 181.554 84.1204 181.42C88.5297 180.011 88.3022 176.473 87.3943 173.158L95.7201 165.723Z" fill="#FF8B7B"/>
<path opacity="0.2" d="M93.6084 169.276L87.3979 173.154C87.6233 173.968 87.8033 174.794 87.8789 175.599C89.3216 175.566 92.7964 174.096 93.7645 171.675C94.1341 170.752 93.7799 169.734 93.6084 169.276Z" fill="black"/>
<path d="M96.3698 153.558C98.2227 160.766 99.1606 163.778 96.7645 168.56C93.1609 175.754 83.9027 176.453 79.9337 169.944C76.3616 164.085 73.9319 153.282 79.94 148.231C85.8592 143.255 94.5176 146.35 96.3698 153.558Z" fill="#FF8B7B"/>
<path d="M91.1748 150.727C92.3998 155.802 97.6183 158.577 97.6183 158.577C97.6183 158.577 99.8744 154.636 98.3246 150.727C96.7748 146.818 91.1748 150.727 91.1748 150.727Z" fill="#263238"/>
<path d="M94.8536 154.201C93.2219 155.907 93.441 158.57 93.441 158.57C93.441 158.57 95.492 158.465 96.6001 156.921C97.7089 155.377 94.8536 154.201 94.8536 154.201Z" fill="#263238"/>
<path d="M94.9429 152.94C92.9535 154.21 92.5342 156.849 92.5342 156.849C92.5342 156.849 94.5509 157.234 95.9943 155.997C97.437 154.76 94.9429 152.94 94.9429 152.94Z" fill="#263238"/>
<path d="M76.7877 150.843C75.317 155.568 98.9105 153.993 96.793 150.143C94.6755 146.293 89.1924 144.31 85.663 144.66C82.1329 145.01 77.9168 147.518 76.7877 150.843Z" fill="#263238"/>
<path d="M77.6642 149.601C75.8372 149.986 74.692 156.951 75.8708 156.601C77.0489 156.252 84.0055 148.265 77.6642 149.601Z" fill="#263238"/>
<path d="M98.9101 227.913C98.9101 227.913 98.8401 228.396 98.7141 229.285C98.4971 230.881 98.0911 233.793 97.5731 237.629C94.7451 238.112 91.8401 238.364 88.8791 238.364C87.8781 238.364 86.8841 238.336 85.8971 238.273C82.4041 238.077 79.0091 237.531 75.7471 236.663C76.0691 233.31 76.3211 230.741 76.4681 229.285C76.5591 228.396 76.6081 227.913 76.6081 227.913H98.9101Z" fill="#263238"/>
<path opacity="0.1" d="M98.9101 227.913C98.9101 227.913 98.8401 228.396 98.7141 229.285C98.4971 230.881 98.0911 233.793 97.5731 237.629C94.7451 238.112 91.8401 238.364 88.8791 238.364C87.8781 238.364 86.8841 238.336 85.8971 238.273C82.4041 238.077 79.0091 237.531 75.7471 236.663C76.0691 233.31 76.3211 230.741 76.4681 229.285C76.5591 228.396 76.6081 227.913 76.6081 227.913H98.9101Z" fill="white"/>
<path d="M107.66 229.285C108.269 230.783 108.759 232.421 109.165 234.185C105.504 235.767 101.619 236.936 97.5729 237.629C94.7449 238.112 91.8399 238.364 88.8789 238.364C87.8779 238.364 86.8839 238.336 85.8969 238.273C85.3859 234.136 85.0079 230.972 84.8119 229.285C84.7069 228.396 84.6509 227.913 84.6509 227.913H107.065C107.275 228.354 107.478 228.816 107.66 229.285Z" fill="#263238"/>
<path opacity="0.1" d="M107.66 229.285C108.269 230.783 108.759 232.421 109.165 234.185C105.504 235.767 101.619 236.936 97.5729 237.629C94.7449 238.112 91.8399 238.364 88.8789 238.364C87.8779 238.364 86.8839 238.336 85.8969 238.273C85.3859 234.136 85.0079 230.972 84.8119 229.285C84.7069 228.396 84.6509 227.913 84.6509 227.913H107.065C107.275 228.354 107.478 228.816 107.66 229.285Z" fill="white"/>
<path d="M85.6449 159.419C85.8311 159.995 85.6771 160.56 85.3012 160.682C84.9253 160.803 84.4689 160.435 84.2827 159.86C84.0965 159.284 84.2505 158.719 84.6264 158.598C85.003 158.476 85.4587 158.844 85.6449 159.419Z" fill="#263238"/>
<path d="M79.1405 161.524C79.3267 162.1 79.1727 162.665 78.7968 162.786C78.4209 162.908 77.9645 162.54 77.7783 161.965C77.5921 161.389 77.7461 160.824 78.122 160.703C78.4986 160.581 78.9543 160.949 79.1405 161.524Z" fill="#263238"/>
<path d="M78.2984 160.681L76.7871 160.73C76.7871 160.73 77.8462 161.58 78.2984 160.681Z" fill="#263238"/>
<path d="M81.4217 161.753C81.4217 161.753 81.2467 164.546 80.5586 166.089C81.5477 166.552 82.7342 165.81 82.7342 165.81L81.4217 161.753Z" fill="#FF5652"/>
<path d="M86.8334 166.813C86.552 166.962 86.2405 167.096 85.8954 167.208C85.8023 167.238 85.7022 167.187 85.6714 167.094C85.6413 167 85.6903 166.902 85.7862 166.87C88.3104 166.055 88.9201 163.907 88.9264 163.885C88.9516 163.79 89.0496 163.734 89.1441 163.76C89.2386 163.785 89.2953 163.883 89.2694 163.978C89.2463 164.062 88.7563 165.792 86.8334 166.813Z" fill="#263238"/>
<path d="M99.2006 158.231C99.3567 159.766 98.7897 161.23 97.9728 162.199C96.7443 163.658 95.0601 162.817 94.5057 161.097C94.0066 159.549 94.0444 156.925 95.709 156.093C97.3484 155.274 99.0221 156.476 99.2006 158.231Z" fill="#FF8B7B"/>
<path d="M87.2545 155.947C87.1614 155.961 87.0634 155.938 86.9829 155.877C85.7306 154.907 84.4909 155.32 84.4769 155.325C84.2935 155.387 84.0898 155.291 84.0247 155.105C83.9603 154.92 84.0583 154.718 84.2438 154.653C84.3089 154.631 85.8636 154.11 87.4176 155.315C87.5723 155.434 87.601 155.658 87.4806 155.813C87.4232 155.889 87.3413 155.933 87.2545 155.947Z" fill="#263238"/>
<path d="M76.1172 160.275C76.0374 160.312 75.9436 160.32 75.8533 160.29C75.6678 160.227 75.5677 160.025 75.6307 159.839C76.26 157.979 77.8434 157.552 77.9113 157.535C78.1017 157.487 78.2949 157.601 78.3439 157.79C78.3929 157.98 78.2788 158.173 78.0891 158.223C78.0268 158.239 76.8039 158.588 76.3034 160.068C76.2712 160.163 76.2019 160.236 76.1172 160.275Z" fill="#263238"/>
<path d="M113.771 198.898C113.463 197.232 113.113 195.573 112.728 193.935C112.595 193.361 112.455 192.794 112.315 192.227C111.93 190.736 111.552 189.28 111.118 187.803V187.796C110.908 187.082 110.684 186.368 110.439 185.633C109.802 183.694 107.73 182.581 105.749 183.148C103.712 183.729 102.529 185.85 103.117 187.887L103.131 187.943C103.565 189.483 104.027 191.086 104.454 192.696C104.58 193.172 104.706 193.655 104.825 194.131C105.147 195.391 105.455 196.658 105.756 197.918C105.952 198.744 106.141 199.57 106.323 200.396C106.463 201.04 106.596 201.677 106.722 202.321C107.016 203.77 107.282 205.212 107.513 206.654C107.555 206.948 107.597 207.249 107.639 207.543C107.786 208.628 107.919 209.706 108.017 210.77C107.779 210.742 107.534 210.7 107.289 210.651C107.184 210.63 107.079 210.609 106.974 210.588C105.245 210.196 103.369 209.58 101.528 208.887C99.6801 208.201 97.8181 207.431 95.9631 206.64C94.1851 205.898 92.4071 205.086 90.6641 204.302C90.5801 204.267 90.4961 204.225 90.4121 204.19L90.3771 204.176C89.5791 203.819 88.6131 204.043 88.0671 204.778C87.4371 205.618 87.6121 206.815 88.4591 207.445C88.6831 207.613 88.9071 207.781 89.1381 207.935C89.1451 207.935 89.1451 207.935 89.1451 207.935C90.6291 209.02 92.1411 210.007 93.6741 210.994C95.4591 212.107 97.2791 213.164 99.1831 214.158C101.094 215.124 103.04 216.062 105.273 216.776C105.798 216.937 106.323 217.091 106.89 217.217C107.555 217.371 108.283 217.49 109.123 217.532C109.914 217.546 110.831 217.553 112.063 217.035C112.665 216.769 113.344 216.349 113.89 215.705C114.436 215.082 114.786 214.333 114.975 213.661C115.031 213.43 115.073 213.178 115.08 212.933V212.8C115.185 207.97 114.59 203.392 113.771 198.898Z" fill="#FF8B7B"/>
<path d="M104.066 181.108C110.236 181.796 111.927 183.691 115.093 192.373C108.42 196.934 101.952 199.76 101.952 199.76C101.952 199.76 96.8556 180.305 104.066 181.108Z" fill="#F83758"/>
<path d="M107.519 226.129L108.298 228.855C108.405 229.066 108.154 229.282 107.802 229.282H76.4579C76.1835 229.282 75.956 229.147 75.9385 228.974L75.6641 226.248C75.6452 226.059 75.8832 225.9 76.1835 225.9H107.023C107.25 225.901 107.45 225.993 107.519 226.129Z" fill="#263238"/>
<path d="M103.377 229.577H104.203C104.368 229.577 104.493 229.492 104.482 229.389L104.095 225.847C104.083 225.743 103.939 225.658 103.775 225.658H102.949C102.784 225.658 102.659 225.743 102.67 225.847L103.057 229.389C103.069 229.492 103.213 229.577 103.377 229.577Z" fill="#263238"/>
<path opacity="0.1" d="M103.377 229.577H104.203C104.368 229.577 104.493 229.492 104.482 229.389L104.095 225.847C104.083 225.743 103.939 225.658 103.775 225.658H102.949C102.784 225.658 102.659 225.743 102.67 225.847L103.057 229.389C103.069 229.492 103.213 229.577 103.377 229.577Z" fill="white"/>
<path d="M78.7795 229.577H79.6055C79.77 229.577 79.8953 229.492 79.8841 229.389L79.497 225.847C79.4858 225.743 79.3416 225.658 79.1771 225.658H78.3511C78.1866 225.658 78.0613 225.743 78.0725 225.847L78.4596 229.389C78.4715 229.492 78.615 229.577 78.7795 229.577Z" fill="#263238"/>
<path opacity="0.1" d="M78.7795 229.577H79.6055C79.77 229.577 79.8953 229.492 79.8841 229.389L79.497 225.847C79.4858 225.743 79.3416 225.658 79.1771 225.658H78.3511C78.1866 225.658 78.0613 225.743 78.0725 225.847L78.4596 229.389C78.4715 229.492 78.615 229.577 78.7795 229.577Z" fill="white"/>
<path d="M91.0783 229.577H91.9043C92.0688 229.577 92.1941 229.492 92.1829 229.389L91.7958 225.847C91.7846 225.743 91.6404 225.658 91.4759 225.658H90.6499C90.4854 225.658 90.3601 225.743 90.3713 225.847L90.7584 229.389C90.7703 229.492 90.9138 229.577 91.0783 229.577Z" fill="#263238"/>
<path opacity="0.1" d="M91.0783 229.577H91.9043C92.0688 229.577 92.1941 229.492 92.1829 229.389L91.7958 225.847C91.7846 225.743 91.6404 225.658 91.4759 225.658H90.6499C90.4854 225.658 90.3601 225.743 90.3713 225.847L90.7584 229.389C90.7703 229.492 90.9138 229.577 91.0783 229.577Z" fill="white"/>
<path d="M84.5313 209.016H78.4392C77.8414 209.016 77.322 208.606 77.1827 208.025L74.123 195.255C73.9676 194.605 74.4296 194.01 75.0883 194.01H81.1692C81.7733 194.01 82.299 194.424 82.4397 195.012L85.4966 207.772C85.652 208.42 85.1907 209.016 84.5313 209.016Z" fill="black"/>
<path d="M83.8101 209.016H77.7292C77.1251 209.016 76.5994 208.601 76.4587 208.013L73.4018 195.255C73.2464 194.605 73.7084 194.01 74.3671 194.01H80.448C81.0521 194.01 81.5778 194.424 81.7185 195.012L84.7754 207.772C84.9308 208.42 84.4688 209.016 83.8101 209.016Z" fill="#263238"/>
<path d="M91.0427 207.613L90.8621 204.523L86.4997 199.56C85.8606 198.834 84.9968 198.342 84.0455 198.163L81.2406 197.637C80.2529 197.451 79.3464 198.227 79.3772 199.231L79.4976 203.202C79.5165 203.821 79.8966 204.371 80.4692 204.608L85.4035 206.648V206.647C86.7335 207.421 89.1149 208.489 91.0427 207.613Z" fill="#FF8B7B"/>
<path d="M84.8033 158.576L83.292 158.625C83.292 158.625 84.3504 159.475 84.8033 158.576Z" fill="#263238"/>
<path d="M88.8774 238.711C60.477 238.711 37.3721 215.606 37.3721 187.207C37.3721 158.807 60.477 135.701 88.8774 135.701C117.277 135.701 140.382 158.807 140.382 187.207C140.382 215.606 117.277 238.711 88.8774 238.711ZM88.8774 136.401C60.8634 136.401 38.0721 159.192 38.0721 187.206C38.0721 215.22 60.8634 238.011 88.8774 238.011C116.891 238.011 139.682 215.219 139.682 187.206C139.682 159.192 116.891 136.401 88.8774 136.401Z" fill="#F83758"/>
<path d="M312.277 137.438C312.277 161.637 295.47 181.916 272.888 187.229C269.115 188.125 265.174 188.594 261.121 188.594C252.525 188.594 244.426 186.473 237.314 182.728C221.053 174.16 209.965 157.094 209.965 137.438C209.965 109.186 232.869 86.282 261.121 86.282C289.373 86.282 312.277 109.186 312.277 137.438Z" fill="white"/>
<path d="M259.291 100.743C253.011 97.4575 249.316 105.624 250.833 111.341C252.35 117.057 256.316 120.693 256.316 120.693C256.316 120.693 262.307 112.048 262.331 107.988C262.361 102.959 261.634 101.969 259.291 100.743Z" fill="#263238"/>
<path d="M255.662 118.38C255.465 117.133 251.811 117.931 252.71 119.279C253.609 120.628 255.754 118.964 255.662 118.38Z" fill="#263238"/>
<path d="M255.357 118.559C254.2 118.056 252.913 121.568 254.533 121.533C256.153 121.498 255.899 118.794 255.357 118.559Z" fill="#263238"/>
<path d="M257.552 102.163C254.626 99.2663 261.433 96.7771 268.062 97.9433C274.691 99.1102 276.843 104.924 274.507 107.773C272.648 110.04 261.145 105.721 257.552 102.163Z" fill="#263238"/>
<path d="M257.28 100.423C258.325 99.7157 256.051 96.7463 255.212 98.1323C254.373 99.519 256.791 100.755 257.28 100.423Z" fill="#263238"/>
<path d="M276.78 156.198C276.759 156.849 276.738 157.521 276.71 158.207C276.689 158.578 276.675 158.963 276.654 159.348C276.598 160.349 276.535 161.378 276.458 162.435C276.43 162.883 276.395 163.331 276.353 163.786C276.353 163.849 276.346 163.912 276.339 163.975C276.304 164.437 276.269 164.906 276.22 165.382C276.066 167.097 275.877 168.882 275.653 170.73C275.044 175.742 274.148 181.244 272.888 187.229C269.115 188.125 265.174 188.594 261.121 188.594C252.525 188.594 244.426 186.473 237.314 182.728C237.713 179.389 238.238 175.042 238.672 170.016C238.91 167.286 239.127 164.346 239.281 161.266C239.288 161.035 239.302 160.797 239.309 160.566C239.344 159.817 239.379 159.061 239.407 158.298C239.421 157.829 239.435 157.36 239.449 156.884C239.47 156.247 239.484 155.603 239.498 154.952L239.519 153.356V152.684C239.526 152.327 239.526 151.963 239.526 151.599C239.526 150.374 239.512 149.142 239.484 147.896V147.833C239.414 144.613 239.246 141.33 238.952 138.019C238.938 137.823 238.924 137.62 238.903 137.424C238.749 135.758 239.288 134.183 240.275 132.986C241.311 131.719 242.858 130.872 244.622 130.76C244.657 130.76 244.699 130.76 244.734 130.753C245.539 130.704 246.4 130.669 247.268 130.641C248.059 130.62 248.864 130.606 249.669 130.613H250.124C250.551 130.62 251.006 130.627 251.468 130.641C251.958 130.655 252.469 130.669 252.987 130.683C253.421 130.69 253.855 130.704 254.296 130.718C256.788 130.809 259.441 130.949 261.772 131.159C261.926 131.173 262.08 131.187 262.227 131.201C263.123 131.285 263.956 131.383 264.712 131.488C264.859 131.509 265.006 131.53 265.146 131.551C265.755 131.642 266.357 131.747 266.945 131.866C267.043 131.88 267.141 131.901 267.232 131.922C268.198 132.111 269.122 132.321 269.983 132.524C273 133.259 275.191 134.008 275.191 134.008C275.191 134.008 275.198 134.022 275.205 134.05C275.282 134.372 275.807 136.521 276.241 140.42C276.535 143.087 276.794 146.58 276.836 150.857C276.836 150.857 276.836 150.857 276.836 150.864C276.857 152.523 276.843 154.301 276.78 156.198Z" fill="#263238"/>
<path d="M287.833 170.301C287.77 169.37 287.644 168.757 287.506 168.166C287.212 166.935 286.96 166.254 286.699 165.361L285.148 160.227L282.048 149.914C281.01 146.478 279.939 143.032 278.833 139.633L269.234 142.547C270.236 146.059 271.318 149.509 272.468 152.958C273.612 156.406 274.806 159.839 276.068 163.259C276.14 163.455 276.214 163.65 276.286 163.846L273.04 166.739C273.995 168.444 275.044 169.98 276.262 171.528C276.889 172.285 277.52 173.06 278.331 173.818C278.738 174.202 279.176 174.593 279.776 175.014C280.091 175.225 280.436 175.452 280.972 175.683C281.106 175.74 281.243 175.796 281.43 175.855L281.692 175.935L282.026 176.013C282.456 176.1 283.118 176.191 284.007 176.014C284.245 175.963 284.479 175.896 284.709 175.812C284.967 175.711 285.222 175.587 285.462 175.444C285.924 175.172 286.413 174.735 286.697 174.366C287.366 173.51 287.532 172.882 287.684 172.322C287.905 171.296 287.847 170.794 287.833 170.301Z" fill="#FFC3BD"/>
<path d="M268.44 137.753C265.847 143.525 274.034 160.068 274.034 160.068L285.153 157.006C285.153 157.006 285.561 147.155 281.429 140.089C277.186 132.834 271.286 131.419 268.44 137.753Z" fill="#263238"/>
<path d="M268.994 133.378C268.705 132.621 268.029 132.077 267.234 131.921C267.139 131.902 267.043 131.884 266.946 131.865C266.356 131.748 265.754 131.646 265.143 131.549C261.062 130.921 254.204 130.666 249.671 130.611C249.67 130.614 249.67 130.613 249.669 130.617L251.099 132.33C253.015 134.611 256.581 138.858 263.245 139.695C263.749 139.758 264.228 139.79 264.671 139.79C264.67 139.79 264.671 139.79 264.671 139.79C267.262 139.79 268.432 138.688 268.956 137.764C269.713 136.428 269.532 134.786 268.994 133.378Z" fill="#F83758"/>
<path opacity="0.2" d="M245.641 145.31L239.485 147.7C239.487 147.769 239.49 147.826 239.481 147.893C239.56 151.467 239.525 154.958 239.396 158.298C245.816 155.635 245.924 147.648 245.641 145.31Z" fill="black"/>
<path d="M255.59 121.516C255.832 124.989 255.216 128.683 252.589 131.074C252.365 131.277 252.328 131.615 252.524 131.845C254.87 134.586 257.989 137.624 263.421 138.306C268.981 139.005 268.512 135.199 267.259 132.955C267.195 132.84 267.085 132.756 266.961 132.712C262.457 131.106 262.963 127.999 263.491 124.585C263.602 123.863 263.239 123.151 262.589 122.817L257.552 120.229C256.619 119.748 255.517 120.469 255.59 121.516Z" fill="#FFC3BD"/>
<path opacity="0.2" d="M263.461 124.781L257.995 124.585C258.079 124.839 258.184 125.096 258.292 125.343C259.036 127.135 261.117 128.577 263.345 129.346C262.974 127.994 263.212 126.421 263.461 124.781Z" fill="black"/>
<path d="M256.906 108.322C255.042 114.619 253.63 118.21 255.591 122.505C258.539 128.965 267.17 128.912 270.878 123.298C274.217 118.245 276.704 108.795 271.567 104.149C266.506 99.5701 258.77 102.024 256.906 108.322Z" fill="#FFC3BD"/>
<path d="M255.397 114.375C259.853 116.75 265.879 101.083 259.447 101.081C253.015 101.08 253.311 113.263 255.397 114.375Z" fill="#263238"/>
<path d="M252.176 111.665C252.115 113.435 252.878 115.068 253.889 116.115C255.408 117.691 256.71 116.503 257.212 114.491C257.664 112.679 257.98 109.772 256.01 108.948C254.068 108.136 252.245 109.642 252.176 111.665Z" fill="#FFC3BD"/>
<path d="M265.308 113.157C265.126 113.658 265.243 114.162 265.571 114.281C265.899 114.401 266.313 114.091 266.495 113.589C266.678 113.087 266.561 112.584 266.232 112.465C265.905 112.345 265.49 112.655 265.308 113.157Z" fill="#263238"/>
<path d="M271.491 115.577C271.309 116.078 271.426 116.582 271.755 116.701C272.082 116.821 272.497 116.511 272.679 116.009C272.861 115.507 272.744 115.004 272.415 114.885C272.088 114.766 271.673 115.076 271.491 115.577Z" fill="#263238"/>
<path d="M269.399 115.102C269.399 115.102 269.486 118.411 270.234 120.264C269.045 120.77 267.674 119.841 267.674 119.841L269.399 115.102Z" fill="#ED847E"/>
<path d="M266.313 121.249C264.416 120.475 263.858 118.874 263.833 118.799C263.805 118.717 263.85 118.628 263.932 118.601C264.013 118.574 264.102 118.617 264.13 118.699C264.137 118.718 264.792 120.578 267.053 121.164C267.137 121.187 267.187 121.272 267.165 121.356C267.144 121.44 267.058 121.49 266.974 121.468C266.737 121.407 266.517 121.333 266.313 121.249Z" fill="#263238"/>
<path d="M265.054 110.732C265.008 110.707 264.967 110.671 264.936 110.625C264.843 110.479 264.884 110.285 265.03 110.191C266.486 109.25 267.815 109.824 267.87 109.848C268.028 109.919 268.099 110.104 268.029 110.262C267.959 110.419 267.774 110.491 267.617 110.422C267.573 110.403 266.532 109.966 265.37 110.718C265.272 110.781 265.151 110.782 265.054 110.732Z" fill="#263238"/>
<path d="M275.208 114.539C275.118 114.492 275.052 114.402 275.041 114.293C274.899 112.917 273.906 112.379 273.864 112.357C273.712 112.277 273.652 112.088 273.731 111.935C273.81 111.782 273.999 111.721 274.152 111.801C274.207 111.831 275.486 112.505 275.665 114.23C275.682 114.402 275.558 114.556 275.385 114.574C275.322 114.58 275.26 114.567 275.208 114.539Z" fill="#263238"/>
<path d="M260.817 153.217C258.579 154.179 256.308 155.208 254.031 156.124C251.765 157.077 249.493 157.989 247.234 158.832C244.974 159.659 242.713 160.452 240.551 160.975C240.069 161.096 239.588 161.202 239.126 161.29C239.317 160.559 239.529 159.826 239.766 159.089C240.443 156.975 241.347 154.871 242.32 152.778C243.32 150.693 244.413 148.621 245.593 146.589C246.172 145.567 246.777 144.556 247.4 143.562L248.346 142.087C248.647 141.613 248.996 141.082 249.255 140.7L241.137 134.807C240.67 135.442 240.319 135.945 239.93 136.511C239.557 137.066 239.199 137.624 238.846 138.184C238.139 139.305 237.459 140.438 236.804 141.587C235.513 143.897 234.326 146.278 233.285 148.752C232.236 151.226 231.345 153.797 230.655 156.49C230.301 157.832 230.035 159.216 229.835 160.633C229.782 160.985 229.735 161.34 229.701 161.702L229.644 162.241L229.616 162.511L229.584 162.986C229.543 163.604 229.581 164.404 229.788 165.267C230.01 166.165 230.499 167.192 231.251 168.013C232.009 168.855 232.898 169.352 233.67 169.661C234.466 169.973 235.101 170.064 235.712 170.139C236.886 170.246 237.79 170.146 238.63 170.023C240.29 169.76 241.648 169.327 242.976 168.872C245.587 167.911 247.957 166.805 250.259 165.598C254.863 163.196 259.136 160.493 263.321 157.508L260.817 153.217Z" fill="#FFC3BD"/>
<path d="M243.51 131.054C237.237 131.88 232.166 150.282 232.166 150.282L244.824 154.41C244.824 154.41 246.736 150.481 250.627 143.289C254.866 135.455 251.109 130.054 243.51 131.054Z" fill="#263238"/>
<path d="M268.282 149.846L265.106 149.656C264.542 149.622 263.988 149.81 263.56 150.178L258.976 154.132L260.777 157.721C263.46 159.612 267.921 155.369 267.921 155.369L269.554 154.983C270.835 154.679 271.42 153.189 270.686 152.095L269.735 150.678C269.407 150.189 268.87 149.881 268.282 149.846Z" fill="#FFC3BD"/>
<path d="M272.237 165.343L266.865 164.522C266.309 164.437 265.981 163.852 266.199 163.333L271.496 150.712C271.65 150.347 272.032 150.133 272.423 150.193L277.796 151.014C278.352 151.099 278.679 151.684 278.462 152.202L273.165 164.823C273.011 165.189 272.628 165.403 272.237 165.343Z" fill="white"/>
<path d="M272.961 165.442L267.589 164.621C267.033 164.536 266.706 163.951 266.923 163.433L272.22 150.812C272.373 150.446 272.756 150.232 273.147 150.292L278.519 151.113C279.075 151.198 279.403 151.783 279.186 152.302L273.888 164.923C273.735 165.288 273.353 165.502 272.961 165.442Z" fill="#F83758"/>
<path d="M277.811 164.063L272.26 157.342L269.171 164.212C269.171 164.212 271.004 166.787 274.034 167.185L277.811 164.063Z" fill="#FFC3BD"/>
<path d="M265.945 158.288L266.272 160.558C266.374 161.264 266.714 161.914 267.235 162.401L269.172 164.212L272.261 157.342L267.964 156.407C266.819 156.159 265.777 157.129 265.945 158.288Z" fill="#FFC3BD"/>
<path d="M266.816 105.027C264.977 109.047 277.188 113.793 277.174 108.117C277.161 102.44 267.677 103.145 266.816 105.027Z" fill="#263238"/>
<path d="M259.251 102.68C257.666 107.474 279.846 110.057 278.757 103.718C277.668 97.3791 259.993 100.436 259.251 102.68Z" fill="#263238"/>
<path d="M265.861 104.054C267.701 108.073 279.275 101.933 274.97 98.2331C270.665 94.5336 264.999 102.173 265.861 104.054Z" fill="#263238"/>
<path d="M261.123 188.941C232.723 188.941 209.618 165.835 209.618 137.435C209.618 109.035 232.723 85.9306 261.123 85.9306C289.523 85.9306 312.628 109.035 312.628 137.435C312.628 165.835 289.523 188.941 261.123 188.941ZM261.123 86.6306C233.108 86.6306 210.318 109.422 210.318 137.435C210.318 165.449 233.109 188.241 261.123 188.241C289.137 188.241 311.928 165.449 311.928 137.435C311.928 109.421 289.136 86.6306 261.123 86.6306Z" fill="#F83758"/>
<path d="M126.176 93.4304H125.44V84.4382C125.44 78.2054 130.511 73.1339 136.744 73.1339V73.871C130.917 73.871 126.176 78.6121 126.176 84.4389V93.4304Z" fill="#F83758"/>
<path d="M126.177 98.9849H125.44V104.818H126.177V98.9849Z" fill="#F83758"/>
<path d="M213.257 246.501H136.744C131.884 246.501 127.908 242.525 127.908 237.665V84.4382C127.908 79.5788 131.884 75.6028 136.744 75.6028H213.256C218.115 75.6028 222.091 79.5788 222.091 84.4382V237.665C222.092 242.525 218.116 246.501 213.257 246.501Z" fill="white"/>
<path d="M213.256 246.869H136.744C131.669 246.869 127.54 242.74 127.54 237.665V84.4382C127.54 79.3632 131.669 75.2346 136.744 75.2346H213.256C218.331 75.2346 222.46 79.3632 222.46 84.4382V237.665C222.46 242.74 218.331 246.869 213.256 246.869ZM136.744 75.971C132.075 75.971 128.276 79.7692 128.276 84.4382V237.665C128.276 242.334 132.075 246.133 136.744 246.133H213.256C217.925 246.133 221.724 242.334 221.724 237.665V84.4382C221.724 79.7692 217.925 75.971 213.256 75.971H136.744Z" fill="#F83758"/>
<path d="M213.256 75.6028H136.744C131.884 75.6028 127.908 79.5788 127.908 84.4382H222.092C222.092 79.5788 218.116 75.6028 213.256 75.6028Z" fill="#F83758"/>
<path d="M142.351 80.0205C142.351 81.501 141.151 82.7015 139.67 82.7015C138.19 82.7015 136.989 81.501 136.989 80.0205C136.989 78.54 138.19 77.3395 139.67 77.3395C141.151 77.3395 142.351 78.54 142.351 80.0205Z" fill="white"/>
<path d="M211.627 80.0205C211.627 80.3551 211.356 80.626 211.021 80.626C210.686 80.626 210.416 80.3551 210.416 80.0205C210.416 79.6859 210.686 79.415 211.021 79.415C211.356 79.415 211.627 79.6859 211.627 80.0205Z" fill="white"/>
<path d="M211.627 82.1975C211.627 82.5321 211.356 82.803 211.021 82.803C210.686 82.803 210.416 82.5321 210.416 82.1975C210.416 81.8629 210.686 81.592 211.021 81.592C211.356 81.5927 211.627 81.8636 211.627 82.1975Z" fill="white"/>
<path d="M211.021 78.4483C211.355 78.4483 211.627 78.1772 211.627 77.8428C211.627 77.5084 211.355 77.2373 211.021 77.2373C210.687 77.2373 210.416 77.5084 210.416 77.8428C210.416 78.1772 210.687 78.4483 211.021 78.4483Z" fill="white"/>
<path opacity="0.2" d="M163.984 81.2847H146.102C145.407 81.2847 144.837 80.7156 144.837 80.0205C144.837 79.3254 145.407 78.7563 146.102 78.7563H163.984C164.679 78.7563 165.248 79.3254 165.248 80.0205C165.248 80.7156 164.679 81.2847 163.984 81.2847Z" fill="white"/>
<path d="M213.388 117.394H165.344C163.584 117.394 162.156 115.967 162.156 114.206V96.6168C162.156 94.8563 163.584 93.429 165.344 93.429H213.388C215.148 93.429 216.576 94.8563 216.576 96.6168V114.206C216.576 115.968 215.148 117.394 213.388 117.394Z" fill="#F83758"/>
<path d="M184.656 135.224H136.612C134.852 135.224 133.424 133.797 133.424 132.036V125.852C133.424 124.091 134.852 122.664 136.612 122.664H184.656C186.416 122.664 187.844 124.091 187.844 125.852V132.036C187.844 133.797 186.416 135.224 184.656 135.224Z" fill="#E0E0E0"/>
<path d="M184.656 199.831H136.612C134.852 199.831 133.424 198.404 133.424 196.643V161.51C133.424 159.75 134.852 158.323 136.612 158.323H184.656C186.416 158.323 187.844 159.75 187.844 161.51V196.643C187.844 198.404 186.416 199.831 184.656 199.831Z" fill="#E0E0E0"/>
<path d="M213.388 217.13H194.171C192.41 217.13 190.983 215.702 190.983 213.942V207.757C190.983 205.997 192.41 204.569 194.171 204.569H213.388C215.148 204.569 216.576 205.997 216.576 207.757V213.942C216.576 215.702 215.148 217.13 213.388 217.13Z" fill="#F83758"/>
<path d="M205.394 210.033C205.394 210.925 204.671 211.648 203.779 211.648C202.887 211.648 202.164 210.925 202.164 210.033C202.164 209.141 202.887 208.418 203.779 208.418C204.671 208.418 205.394 209.141 205.394 210.033Z" fill="white"/>
<path d="M200.036 210.849C200.036 211.741 199.313 212.464 198.421 212.464C197.529 212.464 196.806 211.741 196.806 210.849C196.806 209.957 197.529 209.234 198.421 209.234C199.313 209.235 200.036 209.958 200.036 210.849Z" fill="white"/>
<path d="M210.752 211.666C210.752 212.558 210.029 213.281 209.137 213.281C208.246 213.281 207.522 212.558 207.522 211.666C207.522 210.774 208.246 210.051 209.137 210.051C210.029 210.051 210.752 210.774 210.752 211.666Z" fill="white"/>
<path d="M213.388 153.053H165.344C163.584 153.053 162.156 151.626 162.156 149.865V143.681C162.156 141.92 163.584 140.493 165.344 140.493H213.388C215.148 140.493 216.576 141.92 216.576 143.681V149.865C216.576 151.626 215.148 153.053 213.388 153.053Z" fill="#F83758"/>
<path d="M136.343 240.985C137.955 240.985 139.262 239.678 139.262 238.066C139.262 236.454 137.955 235.147 136.343 235.147C134.731 235.147 133.424 236.454 133.424 238.066C133.424 239.678 134.731 240.985 136.343 240.985Z" fill="#F83758"/>
<path d="M145.169 240.985C146.781 240.985 148.088 239.678 148.088 238.066C148.088 236.454 146.781 235.147 145.169 235.147C143.556 235.147 142.25 236.454 142.25 238.066C142.25 239.678 143.556 240.985 145.169 240.985Z" fill="#E0E0E0"/>
<path d="M153.994 240.985C155.606 240.985 156.913 239.678 156.913 238.066C156.913 236.454 155.606 235.147 153.994 235.147C152.382 235.147 151.075 236.454 151.075 238.066C151.075 239.678 152.382 240.985 153.994 240.985Z" fill="#EBEBEB"/>
<path d="M213.657 240.985H189.786C188.181 240.985 186.867 239.672 186.867 238.066C186.867 236.461 188.18 235.147 189.786 235.147H213.657C215.262 235.147 216.576 236.46 216.576 238.066C216.576 239.671 215.263 240.985 213.657 240.985Z" fill="#EBEBEB"/>
<path d="M222.092 225.753H127.908V226.49H222.092V225.753Z" fill="#F83758"/>
</svg>
