<svg width="375" height="500" viewBox="0 0 375 500" fill="none" xmlns="http://www.w3.org/2000/svg">
<path d="M438 382.398H-62V382.648H438V382.398Z" fill="#EBEBEB"/>
<path d="M387.901 398.494H354.779V398.744H387.901V398.494Z" fill="#EBEBEB"/>
<path d="M269.22 401.208H260.527V401.458H269.22V401.208Z" fill="#EBEBEB"/>
<path d="M353.778 389.208H334.586V389.458H353.778V389.208Z" fill="#EBEBEB"/>
<path d="M33.652 390.888H-9.54102V391.138H33.652V390.888Z" fill="#EBEBEB"/>
<path d="M48.8892 390.888H42.5562V391.138H48.8892V390.888Z" fill="#EBEBEB"/>
<path d="M163.147 395.111H69.4712V395.361H163.147V395.111Z" fill="#EBEBEB"/>
<path d="M175.014 337.8H-18.085C-21.232 337.8 -23.793 335.239 -23.793 332.092V60.66C-23.793 57.513 -21.232 54.952 -18.085 54.952H175.014C178.16 54.952 180.721 57.513 180.721 60.66V332.092C180.721 335.239 178.16 337.8 175.014 337.8ZM-18.085 55.203C-21.095 55.203 -23.543 57.651 -23.543 60.661V332.093C-23.543 335.103 -21.095 337.551 -18.085 337.551H175.014C178.023 337.551 180.471 335.103 180.471 332.093V60.66C180.471 57.651 178.023 55.202 175.014 55.202L-18.085 55.203Z" fill="#EBEBEB"/>
<path d="M391.31 337.8H198.212C195.065 337.8 192.505 335.239 192.505 332.092V60.66C192.505 57.513 195.066 54.952 198.212 54.952H391.31C394.458 54.952 397.018 57.513 397.018 60.66V332.092C397.019 335.239 394.458 337.8 391.31 337.8ZM198.212 55.203C195.203 55.203 192.755 57.651 192.755 60.661V332.093C192.755 335.103 195.203 337.551 198.212 337.551H391.31C394.32 337.551 396.768 335.103 396.768 332.093V60.66C396.768 57.651 394.32 55.202 391.31 55.202L198.212 55.203Z" fill="#EBEBEB"/>
<path d="M347.527 123.787L265.197 229.061L204.776 241.186L142.114 286.837L103.985 258.695L23.5981 382.235H45.0721L108.659 284.516L142.044 309.157L212.186 258.057L275.272 245.398L361.706 134.876L347.527 123.787Z" fill="#E0E0E0"/>
<path d="M365.507 110.462L330.439 119.655L363.664 146.668L365.507 110.462Z" fill="#E0E0E0"/>
<path d="M75.5479 168.014C98.0651 168.014 116.319 149.76 116.319 127.243C116.319 104.726 98.0651 86.472 75.5479 86.472C53.0307 86.472 34.7769 104.726 34.7769 127.243C34.7769 149.76 53.0307 168.014 75.5479 168.014Z" fill="#E0E0E0"/>
<path d="M75.5479 127.243L112.131 109.244C114.886 114.844 116.319 121.002 116.319 127.243C116.319 149.609 97.9139 168.014 75.5479 168.014C53.1819 168.014 34.7769 149.609 34.7769 127.243C34.7769 115.896 39.5139 105.049 47.8369 97.337L75.5479 127.243Z" fill="#EBEBEB"/>
<path d="M75.5479 127.243L67.0959 167.129C48.3239 163.151 34.7759 146.433 34.7759 127.243C34.7759 115.896 39.5129 105.049 47.8359 97.337L75.5479 127.243Z" fill="#F5F5F5"/>
<path d="M75.5477 149.278C87.7173 149.278 97.5827 139.413 97.5827 127.243C97.5827 115.073 87.7173 105.208 75.5477 105.208C63.3781 105.208 53.5127 115.073 53.5127 127.243C53.5127 139.413 63.3781 149.278 75.5477 149.278Z" fill="white"/>
<path d="M39.4711 238.031H7.01709V259.301H39.4711V238.031Z" fill="#F5F5F5"/>
<path d="M39.4711 238.031H7.01709V242.515H39.4711V238.031Z" fill="#E0E0E0"/>
<path d="M374.362 328.942H341.908V350.212H374.362V328.942Z" fill="#F5F5F5"/>
<path d="M374.362 328.942H341.908V333.426H374.362V328.942Z" fill="#E0E0E0"/>
<path d="M277.207 80.916H244.753V102.186H277.207V80.916Z" fill="#F5F5F5"/>
<path d="M277.207 80.916H244.753V85.4H277.207V80.916Z" fill="#E0E0E0"/>
<path d="M212.144 338.087H179.69V359.357H212.144V338.087Z" fill="#F5F5F5"/>
<path d="M212.144 338.087H179.69V342.571H212.144V338.087Z" fill="#E0E0E0"/>
<path d="M188 427.561C295.082 427.561 381.889 422.492 381.889 416.238C381.889 409.985 295.082 404.915 188 404.915C80.9179 404.915 -5.88916 409.985 -5.88916 416.238C-5.88916 422.492 80.9179 427.561 188 427.561Z" fill="#F5F5F5"/>
<path d="M269.163 313.997H32.942C30.223 313.997 28.02 311.793 28.02 309.075V126.655C28.02 123.936 30.224 121.733 32.942 121.733H269.163C271.882 121.733 274.085 123.937 274.085 126.655V309.074C274.086 311.793 271.882 313.997 269.163 313.997Z" fill="#F83758"/>
<path opacity="0.8" d="M274.081 135.491V309.071C274.081 311.791 271.881 314.001 269.161 314.001H32.941C30.221 314.001 28.021 311.791 28.021 309.071V135.491H274.081Z" fill="white"/>
<path d="M48.9844 166.423H87.5564" stroke="#263238" stroke-miterlimit="10"/>
<path d="M48.9844 170.182H87.5564" stroke="#263238" stroke-miterlimit="10"/>
<path d="M48.9844 173.94H87.5564" stroke="#263238" stroke-miterlimit="10"/>
<path d="M48.9844 177.698H87.5564" stroke="#263238" stroke-miterlimit="10"/>
<path d="M48.9844 181.456H87.5564" stroke="#263238" stroke-miterlimit="10"/>
<path d="M48.9844 185.215H75.5484" stroke="#263238" stroke-miterlimit="10"/>
<path opacity="0.6" d="M92.7972 161.38H43.7422V190.259H92.7972V161.38Z" fill="white"/>
<path d="M109.162 147.652H137.727" stroke="#263238" stroke-miterlimit="10"/>
<path d="M109.162 151.41H137.727" stroke="#263238" stroke-miterlimit="10"/>
<path d="M109.162 155.169H137.727" stroke="#263238" stroke-miterlimit="10"/>
<path d="M109.162 158.927H129.722" stroke="#263238" stroke-miterlimit="10"/>
<path opacity="0.6" d="M142.969 143.203H103.92V163.376H142.969V143.203Z" fill="white"/>
<path d="M226.753 243.385H255.318" stroke="#263238" stroke-miterlimit="10"/>
<path d="M226.753 247.144H255.318" stroke="#263238" stroke-miterlimit="10"/>
<path d="M226.753 250.902H255.318" stroke="#263238" stroke-miterlimit="10"/>
<path d="M226.753 254.66H247.313" stroke="#263238" stroke-miterlimit="10"/>
<path opacity="0.6" d="M260.56 238.936H221.511V259.109H260.56V238.936Z" fill="white"/>
<path d="M230.355 300.255C235.665 298.056 238.186 291.969 235.987 286.659C233.788 281.349 227.7 278.828 222.39 281.027C217.081 283.227 214.559 289.314 216.759 294.624C218.958 299.933 225.045 302.455 230.355 300.255Z" fill="#F83758"/>
<path opacity="0.3" d="M229.772 298.847C234.305 296.97 236.457 291.774 234.579 287.242C232.702 282.71 227.506 280.558 222.974 282.435C218.442 284.312 216.29 289.508 218.167 294.04C220.045 298.572 225.24 300.724 229.772 298.847Z" fill="white"/>
<path d="M226.998 295.43V296.929H225.9V295.444C224.589 295.363 223.317 294.935 222.621 294.333L223.223 292.981C223.879 293.516 224.883 293.904 225.9 293.998V291.322C224.415 290.961 222.822 290.479 222.822 288.618C222.822 287.253 223.812 286.062 225.9 285.862V284.35H226.997V285.835C227.987 285.889 228.991 286.183 229.714 286.651L229.165 288.003C228.456 287.588 227.707 287.36 226.997 287.28V289.983C228.482 290.344 230.101 290.813 230.101 292.673C230.102 294.039 229.099 295.216 226.998 295.43ZM225.9 289.703V287.321C224.95 287.469 224.548 287.95 224.548 288.539C224.549 289.181 225.124 289.475 225.9 289.703ZM228.389 292.794C228.389 292.138 227.8 291.831 226.997 291.603V293.971C227.975 293.824 228.389 293.37 228.389 292.794Z" fill="#F83758"/>
<path d="M243.127 222.337L237.084 218.315L231.042 222.337V205.726H243.127V222.337Z" fill="#F83758"/>
<path d="M237.084 196.286L238.03 195.546L238.829 196.443L239.892 195.884L240.518 196.909L241.664 196.549L242.096 197.669L243.288 197.52L243.514 198.699L244.713 198.765L244.725 199.965L245.892 200.244L245.69 201.427L246.789 201.91L246.378 203.038L247.374 203.71L246.768 204.747L247.628 205.585L246.847 206.497L247.543 207.475L246.612 208.233L247.122 209.32L246.07 209.899L246.378 211.06L245.24 211.442L245.336 212.639L244.148 212.812L244.028 214.006L242.828 213.964L242.497 215.118L241.324 214.863L240.793 215.939L239.684 215.479L238.969 216.443L237.96 215.791L237.084 216.612L236.208 215.791L235.2 216.443L234.484 215.479L233.376 215.939L232.844 214.863L231.671 215.118L231.34 213.964L230.14 214.006L230.021 212.812L228.833 212.639L228.928 211.442L227.79 211.06L228.098 209.899L227.047 209.32L227.557 208.233L226.626 207.475L227.322 206.497L226.541 205.585L227.4 204.747L226.795 203.71L227.79 203.038L227.379 201.91L228.479 201.427L228.276 200.244L229.444 199.965L229.456 198.765L230.655 198.699L230.881 197.52L232.072 197.669L232.505 196.549L233.651 196.909L234.276 195.884L235.339 196.443L236.138 195.546L237.084 196.286Z" fill="#F83758"/>
<path opacity="0.3" d="M237.084 196.286L238.03 195.546L238.829 196.443L239.892 195.884L240.518 196.909L241.664 196.549L242.096 197.669L243.288 197.52L243.514 198.699L244.713 198.765L244.725 199.965L245.892 200.244L245.69 201.427L246.789 201.91L246.378 203.038L247.374 203.71L246.768 204.747L247.628 205.585L246.847 206.497L247.543 207.475L246.612 208.233L247.122 209.32L246.07 209.899L246.378 211.06L245.24 211.442L245.336 212.639L244.148 212.812L244.028 214.006L242.828 213.964L242.497 215.118L241.324 214.863L240.793 215.939L239.684 215.479L238.969 216.443L237.96 215.791L237.084 216.612L236.208 215.791L235.2 216.443L234.484 215.479L233.376 215.939L232.844 214.863L231.671 215.118L231.34 213.964L230.14 214.006L230.021 212.812L228.833 212.639L228.928 211.442L227.79 211.06L228.098 209.899L227.047 209.32L227.557 208.233L226.626 207.475L227.322 206.497L226.541 205.585L227.4 204.747L226.795 203.71L227.79 203.038L227.379 201.91L228.479 201.427L228.276 200.244L229.444 199.965L229.456 198.765L230.655 198.699L230.881 197.52L232.072 197.669L232.505 196.549L233.651 196.909L234.276 195.884L235.339 196.443L236.138 195.546L237.084 196.286Z" fill="white"/>
<path d="M237.084 214.247C241.595 214.247 245.252 210.59 245.252 206.079C245.252 201.568 241.595 197.911 237.084 197.911C232.573 197.911 228.916 201.568 228.916 206.079C228.916 210.59 232.573 214.247 237.084 214.247Z" fill="#F83758"/>
<path opacity="0.3" d="M233.124 205.761L236.806 208.985L241.036 203.279" stroke="white" stroke-width="2" stroke-miterlimit="10"/>
<path d="M192.143 152.668C190.093 150.628 187.413 149.598 184.733 149.598C182.053 149.598 179.373 150.628 177.323 152.668C173.223 156.768 173.223 163.398 177.323 167.498L184.733 174.908L192.143 167.498C196.243 163.398 196.243 156.768 192.143 152.668ZM188.163 163.508C187.213 164.448 185.973 164.928 184.733 164.928C183.493 164.928 182.253 164.448 181.303 163.508C179.413 161.618 179.413 158.548 181.303 156.658C182.253 155.708 183.493 155.228 184.733 155.228C185.973 155.228 187.213 155.708 188.163 156.658C190.053 158.548 190.053 161.618 188.163 163.508Z" fill="#F83758"/>
<path opacity="0.3" d="M181.303 156.658C179.413 158.548 179.413 161.618 181.303 163.508C182.253 164.448 183.493 164.928 184.733 164.928V174.908L177.323 167.498C173.223 163.398 173.223 156.768 177.323 152.668C179.373 150.628 182.053 149.598 184.733 149.598V155.228C183.493 155.228 182.253 155.708 181.303 156.658Z" fill="white"/>
<path d="M68.7302 228.181C61.1802 226.011 53.6002 213.421 59.3202 209.081C64.9002 204.831 68.5602 210.741 68.7202 211.021C68.7302 211.031 68.7302 211.031 68.7302 211.031C68.7302 211.031 72.4302 204.731 78.1502 209.081C83.8702 213.421 76.2902 226.011 68.7302 228.181Z" fill="#F83758"/>
<path opacity="0.3" d="M68.7302 211.031V228.181C61.1802 226.011 53.6002 213.421 59.3202 209.081C64.9002 204.831 68.5602 210.741 68.7202 211.021C68.7302 211.031 68.7302 211.031 68.7302 211.031Z" fill="white"/>
<path d="M145.32 270.374C166.658 270.374 183.955 253.077 183.955 231.739C183.955 210.402 166.658 193.104 145.32 193.104C123.983 193.104 106.685 210.402 106.685 231.739C106.685 253.077 123.983 270.374 145.32 270.374Z" stroke="#F83758" stroke-linecap="round" stroke-linejoin="round" stroke-dasharray="11.65 9.71 24.27 2.91"/>
<path d="M184.733 181.375C195.294 181.375 203.855 172.814 203.855 162.253C203.855 151.692 195.294 143.131 184.733 143.131C174.172 143.131 165.611 151.692 165.611 162.253C165.611 172.814 174.172 181.375 184.733 181.375Z" stroke="#F83758" stroke-linecap="round" stroke-linejoin="round" stroke-dasharray="14.41 12.01 30.03 3.6"/>
<path d="M255.396 214.449C252.355 224.562 241.69 230.295 231.577 227.254C221.464 224.212 215.731 213.548 218.772 203.435C221.814 193.322 232.478 187.589 242.591 190.63C252.705 193.672 258.438 204.336 255.396 214.449Z" stroke="#F83758" stroke-linecap="round" stroke-linejoin="round" stroke-dasharray="14.41 12.01 30.03 3.6"/>
<path d="M230.618 309.282C220.322 311.632 210.07 305.191 207.72 294.895C205.369 284.599 211.811 274.347 222.107 271.997C232.403 269.647 242.655 276.088 245.005 286.384C247.355 296.68 240.914 306.932 230.618 309.282Z" stroke="#F83758" stroke-linecap="round" stroke-linejoin="round" stroke-dasharray="14.41 12.01 30.03 3.6"/>
<path d="M87.3781 213.609C89.7281 223.905 83.287 234.157 72.991 236.507C62.695 238.857 52.4431 232.416 50.0921 222.12C47.7421 211.824 54.183 201.572 64.479 199.222C74.775 196.872 85.0271 203.313 87.3781 213.609Z" stroke="#F83758" stroke-linecap="round" stroke-linejoin="round" stroke-dasharray="14.41 12.01 30.03 3.6"/>
<path d="M164.381 198.133L175.298 178.886" stroke="#F83758" stroke-miterlimit="10" stroke-linecap="round" stroke-linejoin="round"/>
<path d="M87.5552 221.274L107.301 224.852" stroke="#F83758" stroke-miterlimit="10" stroke-linecap="round" stroke-linejoin="round"/>
<path d="M176.571 254.452L210.895 279.398" stroke="#F83758" stroke-miterlimit="10" stroke-linecap="round" stroke-linejoin="round"/>
<path d="M218.526 213.553L182.822 222.422" stroke="#F83758" stroke-miterlimit="10" stroke-linecap="round" stroke-linejoin="round"/>
<path d="M171.057 230.06C175.101 226.852 178.957 230.852 181.813 235.686" stroke="#263238" stroke-width="0.7602" stroke-miterlimit="10" stroke-linecap="round" stroke-linejoin="round"/>
<path d="M188.805 239.807C188.805 239.807 181.84 227.602 171.883 230.343" stroke="#263238" stroke-width="0.7602" stroke-miterlimit="10" stroke-linecap="round" stroke-linejoin="round"/>
<path d="M183.45 247.193C183.377 247.279 183.268 247.332 183.147 247.327C182.937 247.321 182.773 247.145 182.779 246.935C182.783 246.798 183.109 233.15 173.591 230.389C172.162 229.974 171.048 230.152 170.183 230.932C166.454 234.31 168.775 247.398 168.799 247.531C168.836 247.737 168.7 247.935 168.493 247.973C168.286 248.01 168.088 247.873 168.051 247.667C167.95 247.112 165.612 234.015 169.675 230.368C170.736 229.411 172.125 229.172 173.804 229.659C183.89 232.586 183.545 246.817 183.54 246.96C183.537 247.049 183.503 247.13 183.45 247.193Z" fill="#F83758"/>
<path d="M178.133 251.569C178.043 251.676 177.897 251.729 177.753 251.694C177.549 251.644 177.424 251.439 177.473 251.235C177.51 251.08 181.161 235.71 176.981 231.007C176.044 229.952 174.803 229.534 173.189 229.728C163.348 230.91 164.062 251.057 164.07 251.261C164.078 251.47 163.915 251.648 163.706 251.656C163.496 251.665 163.319 251.502 163.311 251.292C163.275 250.433 162.562 230.239 173.098 228.973C174.952 228.75 176.45 229.265 177.551 230.502C181.994 235.5 178.37 250.766 178.213 251.414C178.198 251.473 178.17 251.526 178.133 251.569Z" fill="#F83758"/>
<path d="M162.718 213.585C163.649 216.763 164.545 219.99 165.436 223.185C166.358 226.344 167.249 229.629 168.258 232.502L168.416 232.946C168.384 232.903 168.327 232.816 168.235 232.728C168.057 232.535 167.749 232.416 167.68 232.426C167.517 232.463 168.042 232.537 168.6 232.412C169.776 232.179 171.245 231.62 172.642 230.955C174.071 230.311 175.504 229.554 176.917 228.744C178.339 227.957 179.773 227.096 181.156 226.266L181.21 226.234C182.061 225.723 183.165 225.999 183.676 226.851C184.108 227.57 183.976 228.471 183.411 229.041C180.937 231.536 178.312 233.72 175.316 235.731C173.782 236.692 172.218 237.645 170.148 238.3C169.093 238.589 167.899 238.943 166.091 238.577C165.208 238.388 164.136 237.836 163.402 237.013C163.034 236.609 162.745 236.167 162.537 235.743L162.203 235.028C161.43 233.327 160.831 231.729 160.243 230.102C159.654 228.488 159.121 226.869 158.604 225.249C157.56 222.011 156.6 218.781 155.754 215.481C155.259 213.55 156.423 211.584 158.354 211.088C160.243 210.604 162.166 211.707 162.712 213.563L162.718 213.585Z" fill="#EBC0BC"/>
<path d="M180.847 227.212L183.355 221.52L187.917 224.479C187.917 224.479 186.723 228.704 183.118 229.051L180.847 227.212Z" fill="#EEC1BB"/>
<path d="M186.833 218.78L189.706 221.8L187.918 224.479L183.355 221.519L186.833 218.78Z" fill="#EEC1BB"/>
<path d="M171.883 230.344C162.912 232.815 176.593 248.077 176.593 248.077" stroke="#263238" stroke-width="0.7602" stroke-miterlimit="10" stroke-linecap="round" stroke-linejoin="round"/>
<path d="M192.214 235.857L219.202 260.674L218.581 269.938L193.768 286.246L168.184 254.917L170.969 248.705L192.214 235.857Z" fill="#F83758"/>
<path opacity="0.1" d="M192.214 235.857L219.202 260.674L218.581 269.938L193.768 286.246L168.184 254.917L189.719 243.117L192.214 235.857Z" fill="white"/>
<path opacity="0.1" d="M189.719 243.117L218.581 269.938L193.768 286.246L168.184 254.917L189.719 243.117Z" fill="white"/>
<path opacity="0.2" d="M170.969 248.705L168.184 254.917L189.719 243.117L192.214 235.857L170.969 248.705Z" fill="black"/>
<path d="M181.813 235.686C184.702 240.576 186.567 246.32 186.567 246.32" stroke="#263238" stroke-width="0.7602" stroke-miterlimit="10" stroke-linecap="round" stroke-linejoin="round"/>
<path d="M174.485 253.691C174.485 253.691 162.923 236.513 171.057 230.061" stroke="#263238" stroke-width="0.7602" stroke-miterlimit="10" stroke-linecap="round" stroke-linejoin="round"/>
<path d="M173.4 230.342C173.518 230.217 173.63 230.087 173.768 229.984C173.878 229.901 174.004 229.84 174.12 229.765C174.013 229.731 173.912 229.691 173.803 229.659C172.124 229.172 170.735 229.411 169.674 230.368C165.611 234.015 167.95 247.112 168.05 247.667C168.087 247.873 168.285 248.011 168.492 247.973C168.699 247.935 168.836 247.737 168.798 247.531C168.774 247.399 166.453 234.31 170.182 230.932C171.008 230.188 172.064 229.999 173.4 230.342Z" fill="#F83758"/>
<path d="M179.953 234.078C179.769 234.252 179.578 234.421 179.384 234.586C182.951 239.593 182.782 246.835 182.779 246.935C182.772 247.145 182.937 247.321 183.147 247.327C183.268 247.331 183.377 247.279 183.45 247.193C183.503 247.13 183.537 247.049 183.54 246.96C183.543 246.856 183.722 239.317 179.953 234.078Z" fill="#F83758"/>
<path d="M188.132 245.367L198.129 280.642L192.751 288.208L163.071 289.11L157.679 249.023L163.305 245.189L188.132 245.367Z" fill="#263238"/>
<path opacity="0.2" d="M188.132 245.367L198.129 280.642L192.751 288.208L163.071 289.11L157.679 249.023L163.305 245.189L188.132 245.367Z" fill="white"/>
<path opacity="0.2" d="M188.132 245.367L198.129 280.642L192.751 288.208L163.071 289.11L157.679 249.023L182.204 250.245L188.132 245.367Z" fill="white"/>
<path opacity="0.2" d="M182.204 250.245L192.751 288.208L163.071 289.11L157.679 249.023L182.204 250.245Z" fill="white"/>
<path d="M174.232 229.695C174.597 229.473 174.981 229.28 175.386 229.129C174.697 228.93 173.936 228.871 173.097 228.972C162.561 230.238 163.275 250.432 163.31 251.291C163.318 251.501 163.495 251.664 163.705 251.655C163.914 251.647 164.077 251.469 164.069 251.26C164.061 251.057 163.347 230.909 173.188 229.727C173.556 229.684 173.902 229.676 174.232 229.695Z" fill="#F83758"/>
<path d="M179.241 234.714C179.061 234.862 178.87 234.986 178.673 235.101C179.794 241.453 177.502 251.112 177.473 251.234C177.424 251.438 177.549 251.643 177.753 251.693C177.898 251.728 178.043 251.675 178.133 251.568C178.17 251.525 178.197 251.472 178.212 251.413C178.337 250.897 180.659 241.104 179.351 234.615C179.314 234.648 179.279 234.683 179.241 234.714Z" fill="#F83758"/>
<path d="M157.125 186.143C157.125 186.143 160.456 198.209 155.853 206.32C151.249 214.431 135.914 226.047 124.065 220.905C112.216 215.763 117.87 205.598 124.736 203.545C131.602 201.492 132.188 200.395 131.46 193.572C130.732 186.748 136.08 177.926 145.941 179.106C155.802 180.286 157.125 186.143 157.125 186.143Z" fill="#263238"/>
<path d="M161.884 284.631V284.641L160.414 288.681L158.324 294.401L156.854 298.451L154.704 305.901L152.374 314.001H139.214C139.434 311.751 139.714 309.231 140.064 306.581C140.484 303.451 140.994 300.151 141.624 296.901C141.774 296.111 141.934 295.321 142.104 294.541V294.531C142.144 294.361 142.174 294.201 142.214 294.031C142.364 293.371 142.514 292.701 142.664 292.041C143.144 289.981 143.674 287.901 144.244 285.841V285.831L148.384 285.551L161.884 284.631Z" fill="#EEC1BB"/>
<path opacity="0.1" d="M161.884 284.641L160.414 288.681L158.324 294.401L156.854 298.451L154.704 305.901L152.374 314.001H139.174C139.394 311.711 139.674 309.161 140.024 306.501C140.444 303.361 140.964 300.071 141.604 296.901C141.764 296.121 141.934 295.331 142.104 294.541V294.531C142.144 294.361 142.174 294.201 142.214 294.031C142.364 293.371 142.514 292.701 142.664 292.041C143.144 289.981 143.674 287.901 144.244 285.841L148.384 285.561L161.884 284.641Z" fill="black"/>
<path opacity="0.2" d="M161.882 284.638L158.325 294.404C154.358 295.009 147.654 296.021 141.603 296.904C141.797 295.953 141.999 294.995 142.215 294.028C142.809 291.328 143.482 288.57 144.241 285.836L161.882 284.638Z" fill="black"/>
<path d="M157.034 314.001H143.744C142.564 311.641 141.324 309.121 140.064 306.581C140.054 306.551 140.044 306.531 140.024 306.501C139.234 304.881 138.434 303.251 137.654 301.651C136.904 300.111 136.164 298.541 135.444 296.931C134.954 295.851 134.484 294.761 134.024 293.671C132.934 291.081 131.934 288.461 131.074 285.871C129.514 281.201 128.424 276.611 128.104 272.461L144.664 274.371L147.894 284.081L148.384 285.551V285.561L150.384 291.561L151.664 295.411L151.864 296.011L154.704 305.901L157.034 314.001Z" fill="#EEC1BB"/>
<path opacity="0.2" d="M150.383 291.561L135.441 296.935C133.807 293.305 132.296 289.56 131.07 285.872L147.894 284.08L150.383 291.561Z" fill="black"/>
<path d="M99.642 269.644C99.642 269.644 107.751 258.166 101.052 250.306C95.016 243.224 86.98 262.081 86.98 262.081" stroke="#263238" stroke-width="0.7602" stroke-miterlimit="10" stroke-linecap="round" stroke-linejoin="round"/>
<path d="M104.664 271.06L93.6049 306.016L84.9499 309.376L59.6709 293.8L77.2229 257.358L84.0309 257.252L104.664 271.06Z" fill="#F83758"/>
<path opacity="0.1" d="M104.664 271.06L93.6049 306.016L84.9499 309.376L59.6709 293.8L77.2229 257.358L97.0299 271.873L104.664 271.06Z" fill="white"/>
<path opacity="0.1" d="M97.0299 271.873L84.9499 309.376L59.6709 293.8L77.2229 257.358L97.0299 271.873Z" fill="white"/>
<path opacity="0.2" d="M77.2231 257.358L97.0301 271.873L104.664 271.06L84.0311 257.252L77.2231 257.358Z" fill="black"/>
<path d="M81.002 262.548C81.002 262.548 91.67 244.801 100.959 249.439C110.249 254.076 92.794 270.374 92.794 270.374" stroke="#263238" stroke-width="0.7602" stroke-miterlimit="10" stroke-linecap="round" stroke-linejoin="round"/>
<path d="M161.247 216.314C161.268 216.731 161.283 217.18 161.302 217.674C161.467 222.791 158.538 224.65 156.915 240.35L137.643 240.982C137.602 238.699 134.737 231.64 132.888 226.737C132.228 224.984 131.693 223.504 131.458 222.621C131.271 221.887 131.067 221.131 130.854 220.353C130.589 219.365 130.306 218.341 130.005 217.272C129.61 215.836 129.171 214.304 128.688 212.691C129.975 212.345 131.28 212.035 132.579 211.756C134.689 211.308 136.814 210.958 138.961 210.705C142.624 210.228 146.319 210.007 150.01 210.046C152.432 210.14 155.039 210.39 157.005 210.614L157.006 210.622C158.91 210.828 160.225 211.02 160.225 211.02C160.225 211.02 160.993 211.242 161.247 216.314Z" fill="#EEC1BB"/>
<path d="M162.526 268.427C162.698 270.624 162.812 272.979 162.87 275.504C162.871 275.755 162.881 276.006 162.884 276.265C162.904 277.453 162.911 278.687 162.898 279.953C162.894 280.455 162.884 280.975 162.873 281.493C162.863 282.134 162.846 282.783 162.823 283.447C162.799 284.203 162.775 284.982 162.729 285.77C162.701 286.587 162.65 287.414 162.602 288.263L131.181 294.215C130.773 293.252 130.389 292.31 130.037 291.389C129.743 290.647 129.473 289.927 129.226 289.212C128.955 288.476 128.708 287.754 128.477 287.045C128.314 286.546 128.159 286.061 128.011 285.576C127.56 284.098 127.175 282.684 126.86 281.311C126.798 281.064 126.743 280.816 126.688 280.568C125.977 277.386 125.605 274.493 125.493 271.842C125.484 271.713 125.484 271.591 125.475 271.462C124.9 254.815 135.943 239.135 135.943 239.135L133.834 230.087C133.834 230.087 134.707 227.252 134.771 225.054C134.964 218.481 132.482 211.784 132.482 211.784C132.512 211.775 132.549 211.764 132.579 211.755C144.863 207.636 157.005 210.613 157.005 210.613V210.62C160.468 217.287 162.445 222.187 158.38 239.488C158.38 239.488 161.336 252.94 162.5 268.047C162.508 268.177 162.524 268.298 162.526 268.427Z" fill="#F83758"/>
<path opacity="0.5" d="M162.526 268.427C162.698 270.624 162.812 272.979 162.87 275.504C162.871 275.755 162.881 276.006 162.884 276.265C162.904 277.453 162.911 278.687 162.898 279.953C162.894 280.455 162.884 280.975 162.873 281.493C162.863 282.134 162.846 282.783 162.823 283.447C162.799 284.203 162.775 284.982 162.729 285.77C162.701 286.587 162.65 287.414 162.602 288.263L131.181 294.215C130.773 293.252 130.389 292.31 130.037 291.389C129.743 290.647 129.473 289.927 129.226 289.212C128.955 288.476 128.708 287.754 128.477 287.045C128.314 286.546 128.159 286.061 128.011 285.576C127.56 284.098 127.175 282.684 126.86 281.311C126.798 281.064 126.743 280.816 126.688 280.568C125.977 277.386 125.605 274.493 125.493 271.842C125.484 271.713 125.484 271.591 125.475 271.462C124.9 254.815 135.943 239.135 135.943 239.135L133.834 230.087C133.834 230.087 134.707 227.252 134.771 225.054C134.964 218.481 132.482 211.784 132.482 211.784C132.512 211.775 132.549 211.764 132.579 211.755C144.863 207.636 157.005 210.613 157.005 210.613V210.62C160.468 217.287 162.445 222.187 158.38 239.488C158.38 239.488 161.336 252.94 162.5 268.047C162.508 268.177 162.524 268.298 162.526 268.427Z" fill="white"/>
<path d="M90.6841 267.919C90.5761 267.89 90.4811 267.813 90.4341 267.702C90.3511 267.509 90.4401 267.286 90.6331 267.203C90.7591 267.149 103.261 261.666 101.734 251.874C101.505 250.404 100.872 249.469 99.7991 249.016C95.1601 247.068 84.2851 254.711 84.1751 254.789C84.0041 254.91 83.7671 254.87 83.6451 254.699C83.5241 254.528 83.5641 254.29 83.7351 254.169C84.1951 253.843 95.0711 246.18 100.095 248.317C101.411 248.873 102.216 250.031 102.486 251.758C104.104 262.135 91.0651 267.846 90.9331 267.903C90.8511 267.937 90.7641 267.941 90.6841 267.919Z" fill="#F83758"/>
<path d="M94.3201 271.388L66.594 295.378L57.4621 293.709L44.0811 267.201L78.1161 245.346L83.971 248.82L94.3201 271.388Z" fill="#263238"/>
<path opacity="0.2" d="M94.3201 271.388L66.594 295.378L57.4621 293.709L44.0811 267.201L78.1161 245.346L83.971 248.82L94.3201 271.388Z" fill="white"/>
<path opacity="0.2" d="M94.3201 271.388L66.594 295.378L57.4621 293.709L44.0811 267.201L78.1161 245.346L87.3911 268.083L94.3201 271.388Z" fill="white"/>
<path opacity="0.2" d="M87.3911 268.083L57.4621 293.709L44.0811 267.201L78.1161 245.346L87.3911 268.083Z" fill="white"/>
<path d="M84.4682 264.955C84.3332 264.919 84.2242 264.809 84.1942 264.663C84.1532 264.457 84.2852 264.257 84.4912 264.215C84.6472 264.183 100.117 260.984 102.608 255.206C103.167 253.91 103.021 252.609 102.161 251.229C96.9242 242.814 78.9732 251.99 78.7932 252.083C78.6072 252.179 78.3772 252.107 78.2812 251.921C78.1842 251.735 78.2572 251.505 78.4432 251.409C79.2062 251.013 97.1992 241.817 102.807 250.827C103.794 252.413 103.962 253.988 103.307 255.508C100.66 261.649 85.2952 264.828 84.6422 264.961C84.5832 264.973 84.5232 264.97 84.4682 264.955Z" fill="#F83758"/>
<path opacity="0.2" d="M134.021 223.346C134.133 224.436 133.912 225.662 132.888 226.737C132.228 224.984 131.693 223.504 131.458 222.621C131.271 221.887 131.067 221.131 130.854 220.353C131.498 220.302 132.175 220.278 132.884 220.291C132.884 220.291 133.853 221.658 134.021 223.346Z" fill="black"/>
<path d="M133.507 216.589C132.959 220.325 132.277 224.006 131.516 227.705C131.152 229.556 130.735 231.399 130.288 233.258C130.067 234.19 129.833 235.115 129.562 236.068C129.437 236.535 129.289 237.025 129.136 237.519L129.019 237.9C128.946 238.113 128.871 238.344 128.783 238.533C128.613 238.937 128.42 239.278 128.223 239.596C127.423 240.847 126.551 241.637 125.698 242.359C124.841 243.071 123.981 243.665 123.119 244.217C121.386 245.299 119.646 246.204 117.879 247.012C114.337 248.619 110.794 249.946 107.079 250.999C106.125 251.269 105.133 250.715 104.863 249.762C104.628 248.934 105.015 248.077 105.745 247.689L105.792 247.664C107.392 246.812 109.046 245.954 110.634 245.045C112.243 244.168 113.825 243.253 115.351 242.292C116.875 241.334 118.371 240.358 119.71 239.311C120.38 238.795 121.014 238.261 121.549 237.726C122.08 237.201 122.529 236.636 122.697 236.284C122.737 236.201 122.766 236.128 122.767 236.097C122.778 236.073 122.761 236.077 122.766 236.07L122.831 235.775C122.923 235.367 123.015 234.954 123.098 234.51L123.593 231.85L124.525 226.405C125.129 222.757 125.718 219.074 126.382 215.435L126.385 215.419C126.743 213.458 128.622 212.158 130.583 212.516C132.501 212.864 133.785 214.676 133.507 216.589Z" fill="#EBC0BB"/>
<path d="M107.235 247.813L101.07 246.987L101.218 252.423C101.218 252.423 105.446 253.606 107.621 250.71L107.235 247.813Z" fill="#EEC1BB"/>
<path d="M96.9189 248.528L97.9989 252.553L101.217 252.423L101.07 246.987L96.9189 248.528Z" fill="#EEC1BB"/>
<path d="M143.572 209.402C138.99 209.813 137.75 211.979 142.218 217.92C146.686 223.861 150.828 226.223 150.828 226.223C150.828 226.223 157.02 208.197 143.572 209.402Z" stroke="#263238" stroke-width="0.5" stroke-miterlimit="10"/>
<path d="M147.742 215.369C141.741 214.317 140.045 211.651 140.045 211.651C142.62 209.441 142.33 205.988 141.798 203.817C141.511 202.617 141.145 201.809 141.145 201.809L148.35 203.503C148.105 204.694 147.975 205.7 147.928 206.55C147.869 207.483 147.919 208.224 148.029 208.807C148.423 211.002 149.659 211.089 149.659 211.089C150.825 213.532 147.742 215.369 147.742 215.369Z" fill="#EEC1BB"/>
<path opacity="0.2" d="M147.928 206.55C147.869 207.483 147.919 208.224 148.029 208.807C145.161 208.295 143.08 205.886 141.798 203.817C141.511 202.617 141.145 201.809 141.145 201.809L148.35 203.503C148.105 204.693 147.974 205.7 147.928 206.55Z" fill="black"/>
<path d="M147.795 183.314C154.103 183.839 155.853 187.386 155.774 193.925C155.675 202.098 153.393 207.72 145.65 205.328C135.133 202.079 137.318 182.441 147.795 183.314Z" fill="#EEC1BB"/>
<path d="M151.725 193.233C151.725 193.233 152.462 194.953 153.343 196.002C153.343 196.002 152.732 196.815 151.621 196.577L151.725 193.233Z" fill="#D4827D"/>
<path d="M147.907 192.395C147.876 192.914 147.57 193.318 147.224 193.298C146.878 193.277 146.622 192.84 146.653 192.32C146.684 191.801 146.99 191.397 147.336 191.417C147.682 191.438 147.938 191.876 147.907 192.395Z" fill="#263238"/>
<path d="M147.19 191.434L148.346 191.059C148.346 191.059 147.727 191.975 147.19 191.434Z" fill="#263238"/>
<path d="M154.368 192.673C154.337 193.192 154.031 193.596 153.684 193.576C153.338 193.555 153.083 193.117 153.114 192.598C153.145 192.079 153.451 191.674 153.797 191.695C154.143 191.716 154.399 192.154 154.368 192.673Z" fill="#263238"/>
<path d="M153.651 191.712L154.807 191.336C154.807 191.336 154.188 192.253 153.651 191.712Z" fill="#263238"/>
<path d="M148.206 188.033C148.206 188.033 146.453 187.655 145.391 188.759" stroke="#263238" stroke-width="0.5382" stroke-miterlimit="10" stroke-linecap="round" stroke-linejoin="round"/>
<path d="M152.814 188.149C152.814 188.149 153.963 187.829 155.285 188.877" stroke="#263238" stroke-width="0.5382" stroke-miterlimit="10" stroke-linecap="round" stroke-linejoin="round"/>
<path d="M140.015 193.372C140.015 193.372 143.396 188.435 143.283 184.396C143.283 184.396 156.21 180.33 155.77 193.07C155.77 193.07 157.93 181.904 147.105 180.751C136.299 179.599 135.007 195.466 140.214 200.66C140.214 200.66 137.921 196.462 140.015 193.372Z" fill="#263238"/>
<path d="M140.935 194.789C140.977 193.77 140.072 191.964 138.166 192.012C136.193 192.063 134.927 195.998 139.71 197.368C140.396 197.565 140.846 196.916 140.935 194.789Z" fill="#EEC1BB"/>
<path d="M144.438 178.974C147.899 178.182 157.017 178.475 158.735 188.003L157.44 188.578C157.44 188.578 154.478 186.793 150.699 186.238C150.699 186.238 150.003 184.811 149.044 183.625C149.044 183.625 149.1 185.149 148.933 186.03C148.933 186.03 142.949 186.627 140.176 188.924C135.825 192.529 135.461 194.922 135.461 194.922C135.461 194.922 133.173 181.551 144.438 178.974Z" fill="#263238"/>
<path d="M150.254 199.364C150.557 199.427 150.882 199.467 151.23 199.476C151.324 199.479 151.397 199.402 151.393 199.305C151.389 199.209 151.312 199.129 151.215 199.125C148.671 199.059 147.403 197.198 147.391 197.18C147.336 197.097 147.23 197.071 147.153 197.122C147.076 197.173 147.058 197.281 147.113 197.363C147.162 197.436 148.182 198.935 150.254 199.364Z" fill="#263238"/>
<path d="M150.743 225.7C150.743 225.7 153.28 228.749 151.158 228.893C149.037 229.038 150.743 225.7 150.743 225.7Z" fill="#F83758"/>
<path opacity="0.5" d="M265.796 131.62C267.367 131.62 268.641 130.346 268.641 128.775C268.641 127.204 267.367 125.93 265.796 125.93C264.225 125.93 262.951 127.204 262.951 128.775C262.951 130.346 264.225 131.62 265.796 131.62Z" fill="white"/>
<path opacity="0.5" d="M257.321 131.62C258.892 131.62 260.166 130.346 260.166 128.775C260.166 127.204 258.892 125.93 257.321 125.93C255.75 125.93 254.476 127.204 254.476 128.775C254.476 130.346 255.75 131.62 257.321 131.62Z" fill="white"/>
<path opacity="0.5" d="M248.847 131.62C250.418 131.62 251.692 130.346 251.692 128.775C251.692 127.204 250.418 125.93 248.847 125.93C247.276 125.93 246.002 127.204 246.002 128.775C246.002 130.346 247.276 131.62 248.847 131.62Z" fill="white"/>
<path d="M92.2222 283.339H130.793" stroke="#263238" stroke-miterlimit="10"/>
<path d="M92.2222 287.097H130.793" stroke="#263238" stroke-miterlimit="10"/>
<path d="M92.2222 290.855H130.793" stroke="#263238" stroke-miterlimit="10"/>
<path d="M92.2222 294.613H130.793" stroke="#263238" stroke-miterlimit="10"/>
<path d="M92.2222 298.372H130.793" stroke="#263238" stroke-miterlimit="10"/>
<path d="M92.2222 302.13H118.786" stroke="#263238" stroke-miterlimit="10"/>
<path opacity="0.6" d="M136.035 278.295H86.98V307.174H136.035V278.295Z" fill="white"/>
<path d="M35.3066 348.722C35.3066 348.722 41.6536 343.43 47.0966 348.722C52.5396 354.014 53.5896 386.798 53.5896 386.798" stroke="#F83758" stroke-miterlimit="10"/>
<path d="M54.0393 393.128C54.0393 393.128 50.2973 354.654 64.3853 338.486" stroke="#F83758" stroke-miterlimit="10"/>
<path d="M52.6996 389.073C52.6996 389.073 55.5816 345.274 45.0156 335.556" stroke="#F83758" stroke-miterlimit="10"/>
<path d="M54.0396 389.073C54.0396 389.073 54.2856 360.131 62.1366 355.631C69.9876 351.132 73.9906 365.806 73.9906 365.806" stroke="#F83758" stroke-miterlimit="10"/>
<path d="M50.9384 389.073C50.9384 389.073 52.2194 366.854 46.1354 358.913C40.0514 350.972 33.6494 362.315 33.6494 362.315" stroke="#F83758" stroke-miterlimit="10"/>
<path d="M53.0584 392.05C53.0584 392.05 49.1244 340.087 55.6344 331.282" stroke="#F83758" stroke-miterlimit="10"/>
<path d="M68.8603 359.848C68.8603 359.848 64.9453 361.291 66.1093 364.698C67.2733 368.105 79.6533 373.713 79.6533 373.713C79.6533 373.713 84.8383 368.961 80.0763 361.232C75.3143 353.505 68.9663 357.41 68.8603 359.848Z" fill="#F83758"/>
<path opacity="0.5" d="M68.8603 359.848C68.8603 359.848 64.9453 361.291 66.1093 364.698C67.2733 368.105 79.6533 373.713 79.6533 373.713C79.6533 373.713 84.8383 368.961 80.0763 361.232C75.3143 353.505 68.9663 357.41 68.8603 359.848Z" fill="white"/>
<path d="M51.8413 353.362C51.8413 353.362 56.0103 353.188 56.2473 356.78C56.4843 360.373 47.2163 370.313 47.2163 370.313C47.2163 370.313 40.6023 367.922 42.0233 358.956C43.4423 349.991 50.8053 351.152 51.8413 353.362Z" fill="#F83758"/>
<path opacity="0.5" d="M51.8413 353.362C51.8413 353.362 56.0103 353.188 56.2473 356.78C56.4843 360.373 47.2163 370.313 47.2163 370.313C47.2163 370.313 40.6023 367.922 42.0233 358.956C43.4423 349.991 50.8053 351.152 51.8413 353.362Z" fill="white"/>
<path d="M48.3113 336.164C48.3113 336.164 51.0903 335.866 50.8673 334.173C50.6433 332.48 40.0623 328.123 33.8203 335.169C33.8203 335.169 37.8173 342.035 43.5963 342.125C49.3733 342.214 48.3113 336.164 48.3113 336.164Z" fill="#F83758"/>
<path opacity="0.5" d="M48.3113 336.164C48.3113 336.164 51.0903 335.866 50.8673 334.173C50.6433 332.48 40.0623 328.123 33.8203 335.169C33.8203 335.169 37.8173 342.035 43.5963 342.125C49.3733 342.214 48.3113 336.164 48.3113 336.164Z" fill="white"/>
<path d="M53.491 332.052C53.491 332.052 50.974 333.269 50.269 331.714C49.563 330.159 56.239 320.865 65.263 323.543C65.263 323.543 65.502 331.485 60.646 334.617C55.789 337.749 53.491 332.052 53.491 332.052Z" fill="#F83758"/>
<path opacity="0.5" d="M53.491 332.052C53.491 332.052 50.974 333.269 50.269 331.714C49.563 330.159 56.239 320.865 65.263 323.543C65.263 323.543 65.502 331.485 60.646 334.617C55.789 337.749 53.491 332.052 53.491 332.052Z" fill="white"/>
<path d="M40.3312 358.479C40.3312 358.479 42.2492 356.93 40.1792 356.174C38.1092 355.418 27.9512 355.633 27.8452 365.695C27.8452 365.695 39.6752 367.661 41.1402 363.828C42.6052 359.995 40.3312 358.479 40.3312 358.479Z" fill="#F83758"/>
<path opacity="0.5" d="M40.3312 358.479C40.3312 358.479 42.2492 356.93 40.1792 356.174C38.1092 355.418 27.9512 355.633 27.8452 365.695C27.8452 365.695 39.6752 367.661 41.1402 363.828C42.6052 359.995 40.3312 358.479 40.3312 358.479Z" fill="white"/>
<path d="M64.4553 335.911C64.4553 335.911 62.5373 334.362 64.6073 333.606C66.6773 332.85 76.8353 333.065 76.9413 343.127C76.9413 343.127 65.1113 345.093 63.6463 341.26C62.1823 337.428 64.4553 335.911 64.4553 335.911Z" fill="#F83758"/>
<path opacity="0.5" d="M64.4553 335.911C64.4553 335.911 62.5373 334.362 64.6073 333.606C66.6773 332.85 76.8353 333.065 76.9413 343.127C76.9413 343.127 65.1113 345.093 63.6463 341.26C62.1823 337.428 64.4553 335.911 64.4553 335.911Z" fill="white"/>
<path d="M58.2013 344.017C58.2013 344.017 58.0323 342.134 59.5523 342.872C61.0723 343.61 66.3673 349.323 60.8783 354.744C60.8783 354.744 53.4893 349.272 54.8213 346.422C56.1543 343.572 58.2013 344.017 58.2013 344.017Z" fill="#F83758"/>
<path opacity="0.5" d="M58.2013 344.017C58.2013 344.017 58.0323 342.134 59.5523 342.872C61.0723 343.61 66.3673 349.323 60.8783 354.744C60.8783 354.744 53.4893 349.272 54.8213 346.422C56.1543 343.572 58.2013 344.017 58.2013 344.017Z" fill="white"/>
<path d="M38.6163 346.7C38.6163 346.7 39.7633 345.197 38.0833 345.011C36.4043 344.825 28.8783 346.834 30.6303 354.347C30.6303 354.347 39.7993 353.658 40.1923 350.537C40.5863 347.415 38.6163 346.7 38.6163 346.7Z" fill="#F83758"/>
<path opacity="0.5" d="M38.6163 346.7C38.6163 346.7 39.7633 345.197 38.0833 345.011C36.4043 344.825 28.8783 346.834 30.6303 354.347C30.6303 354.347 39.7993 353.658 40.1923 350.537C40.5863 347.415 38.6163 346.7 38.6163 346.7Z" fill="white"/>
<path d="M69.5923 416.965H38.1333L34.7393 382.522H72.9863L69.5923 416.965Z" fill="#263238"/>
<path opacity="0.2" d="M69.5923 416.965H38.1333L34.7393 382.522H72.9863L69.5923 416.965Z" fill="white"/>
<path d="M74.6651 378.721H33.0591V386.321H74.6651V378.721Z" fill="#263238"/>
<path opacity="0.4" d="M74.6651 378.721H33.0591V386.321H74.6651V378.721Z" fill="white"/>
<path d="M284.973 193.453C277.873 194.944 270.308 223.463 270.308 223.463L276.653 230.307L287.988 209.498L284.973 193.453Z" fill="#F83758"/>
<path opacity="0.7" d="M287.99 209.498L287.75 209.938L278.27 227.328L276.65 230.308L270.31 223.458C270.31 223.458 277.87 194.948 284.97 193.448L287.99 209.498Z" fill="white"/>
<path opacity="0.1" d="M287.75 209.938L278.27 227.328C278.27 227.038 278.28 226.718 278.3 226.378C279.15 213.158 286.53 206.178 286.53 206.178C287.129 207.358 287.53 208.628 287.75 209.938Z" fill="black"/>
<path d="M337.809 266.216C337.809 266.216 316.044 260.435 289.668 268.913C289.668 268.913 285.422 213.649 285.928 206.058C286.434 198.467 326.651 200.689 326.651 200.689C326.651 200.689 327.689 222.807 330.276 236.152C332.864 249.499 339.135 263.65 337.809 266.216Z" fill="#F83758"/>
<path opacity="0.5" d="M337.809 266.216C337.809 266.216 316.044 260.435 289.668 268.913C289.668 268.913 285.422 213.649 285.928 206.058C286.434 198.467 326.651 200.689 326.651 200.689C326.651 200.689 327.689 222.807 330.276 236.152C332.864 249.499 339.135 263.65 337.809 266.216Z" fill="white"/>
<path d="M276.943 409.863L284.043 411.873L285.733 400.823L286.643 394.913L279.543 392.903L278.333 400.823L276.943 409.863Z" fill="#FFB573"/>
<path d="M317.763 410.443L325.083 411.413L325.153 400.823L325.203 394.243L317.873 393.283L317.823 400.823L317.763 410.443Z" fill="#FFB573"/>
<path opacity="0.2" d="M317.873 393.283L317.823 400.823H325.153L325.203 394.243L317.873 393.283Z" fill="black"/>
<path opacity="0.2" d="M278.333 400.823H285.733L286.643 394.913L279.543 392.903L278.333 400.823Z" fill="black"/>
<path d="M277.03 408.755L285.093 408.538C285.395 408.53 285.664 408.732 285.74 409.023L287.434 415.516C287.61 416.189 287.116 416.845 286.419 416.852C283.509 416.881 279.3 416.825 275.644 416.923C271.369 417.038 268.651 416.828 263.639 416.963C260.608 417.045 259.657 414.017 260.916 413.707C266.647 412.294 270.393 412.573 275.274 409.375C275.802 409.028 276.392 408.772 277.03 408.755Z" fill="#263238"/>
<path d="M276.339 409.79C276.332 409.793 276.324 409.795 276.316 409.797C275.136 410.065 273.03 410.411 272.194 409.72C271.942 409.511 271.822 409.23 271.836 408.882C271.845 408.675 271.939 408.512 272.108 408.411C272.99 407.881 276.009 409.308 276.35 409.471C276.417 409.503 276.457 409.574 276.449 409.647C276.443 409.712 276.4 409.767 276.339 409.79ZM272.353 408.68C272.33 408.689 272.309 408.698 272.29 408.709C272.221 408.75 272.19 408.806 272.186 408.898C272.177 409.134 272.252 409.315 272.417 409.452C272.886 409.84 274.103 409.878 275.724 409.564C274.533 409.041 272.902 408.474 272.353 408.68Z" fill="#F83758"/>
<path d="M276.339 409.79C276.298 409.806 276.252 409.806 276.21 409.788C275.305 409.414 273.482 407.872 273.587 407.038C273.612 406.841 273.742 406.597 274.221 406.534C274.577 406.488 274.906 406.58 275.202 406.806C276.169 407.548 276.439 409.522 276.45 409.606C276.458 409.667 276.433 409.728 276.383 409.766C276.37 409.776 276.355 409.784 276.339 409.79ZM274.092 406.919C273.949 406.973 273.939 407.052 273.935 407.083C273.872 407.584 275.117 408.8 276.046 409.32C275.93 408.744 275.625 407.567 274.99 407.08C274.769 406.91 274.533 406.844 274.269 406.878C274.194 406.888 274.137 406.903 274.092 406.919Z" fill="#F83758"/>
<path d="M318.056 408.755L326.119 408.538C326.421 408.53 326.69 408.732 326.766 409.023L328.46 415.516C328.636 416.189 328.142 416.845 327.445 416.852C324.535 416.881 320.326 416.825 316.67 416.923C312.395 417.038 309.678 416.828 304.665 416.963C301.634 417.045 300.683 414.017 301.942 413.707C307.673 412.294 311.419 412.573 316.3 409.375C316.828 409.028 317.418 408.772 318.056 408.755Z" fill="#263238"/>
<path d="M317.365 409.79C317.358 409.793 317.35 409.795 317.342 409.797C316.161 410.065 314.056 410.411 313.22 409.72C312.968 409.511 312.848 409.23 312.862 408.882C312.871 408.675 312.965 408.512 313.134 408.411C314.016 407.881 317.035 409.308 317.376 409.471C317.443 409.503 317.483 409.574 317.475 409.647C317.469 409.712 317.426 409.767 317.365 409.79ZM313.379 408.68C313.356 408.689 313.335 408.698 313.316 408.709C313.247 408.75 313.216 408.806 313.213 408.898C313.204 409.134 313.279 409.315 313.444 409.452C313.913 409.84 315.13 409.878 316.751 409.564C315.559 409.041 313.928 408.474 313.379 408.68Z" fill="#F83758"/>
<path d="M317.365 409.79C317.324 409.806 317.278 409.806 317.236 409.788C316.331 409.414 314.508 407.872 314.613 407.038C314.638 406.841 314.768 406.597 315.247 406.534C315.603 406.488 315.933 406.58 316.228 406.806C317.195 407.548 317.465 409.522 317.476 409.606C317.484 409.667 317.459 409.728 317.409 409.766C317.396 409.776 317.381 409.784 317.365 409.79ZM315.118 406.919C314.975 406.973 314.965 407.052 314.961 407.083C314.898 407.584 316.143 408.8 317.072 409.32C316.956 408.744 316.651 407.567 316.016 407.08C315.795 406.91 315.559 406.844 315.296 406.878C315.22 406.888 315.163 406.903 315.118 406.919Z" fill="#F83758"/>
<path d="M332.864 249.499C336.742 266.315 330.087 398.564 330.087 398.564H317.225L311.726 288.349L291.471 398.564L277.725 397.563C286.711 312.186 294.655 261.213 294.655 261.213L294.636 254.772L332.864 249.499Z" fill="#263238"/>
<path d="M325.936 187.232C325.471 195.468 325.824 203.683 326.548 211.333C327.081 216.929 327.826 222.22 328.616 226.994C330.465 238.185 332.565 246.572 332.864 249.499C327.262 250.274 306.149 253.188 294.636 254.772C280.696 215.794 285.946 195.108 285.946 195.108L294.703 190.113C294.703 190.113 295.987 189.774 296.643 189.623C300.888 188.639 307.98 187.821 312.896 187.38C313.93 187.288 314.981 187.222 316.007 187.174C321.229 186.936 325.936 187.232 325.936 187.232Z" fill="#F83758"/>
<path d="M311.55 187.198C311.55 187.198 302.78 194.118 300.14 194.088C298.29 194.068 295.61 191.038 295.61 191.038C296.96 190.348 297.9 189.568 298.5 188.728C300.33 186.218 299.27 183.168 297.78 180.378L305.47 169.688C305.58 171.828 305.87 174.658 306.46 177.438C306.46 177.448 306.46 177.448 306.46 177.448C307.329 181.608 308.889 185.668 311.55 187.198Z" fill="#FFB573"/>
<path opacity="0.2" d="M306.46 177.438C306.46 177.448 306.46 177.448 306.46 177.448C305.66 182.118 303.62 187.508 298.5 188.728C300.33 186.218 299.27 183.168 297.78 180.378L305.47 169.688C305.579 171.828 305.87 174.658 306.46 177.438Z" fill="black"/>
<path d="M283.535 165.434C283.223 168.327 284.811 173.823 288.25 171.245C291.688 168.667 284.071 160.462 283.535 165.434Z" fill="#263238"/>
<path d="M303.88 165.187C305.698 172.098 307.115 176.053 304.823 180.629C301.376 187.512 291.947 187.089 288.09 180.842C284.619 175.219 282.229 164.862 288.005 160.039C293.695 155.288 302.062 158.277 303.88 165.187Z" fill="#FFB573"/>
<path d="M298.215 162.366L296.651 154.552C296.651 154.552 304.845 152.27 305.327 156.6C310.391 157.963 310.664 168.531 305.18 173.284C301.246 171.249 299.309 161.668 299.309 161.668C298.975 161.904 298.603 162.136 298.215 162.366Z" fill="#263238"/>
<path d="M308.357 169.971C308.391 171.894 307.527 173.646 306.404 174.756C304.714 176.427 302.696 175.193 302.184 172.996C301.723 171.018 302.047 167.766 304.216 166.923C306.352 166.092 308.318 167.773 308.357 169.971Z" fill="#FFB573"/>
<path d="M294.176 170.376C294.358 170.928 294.212 171.469 293.849 171.584C293.487 171.7 293.045 171.346 292.863 170.794C292.681 170.242 292.827 169.701 293.19 169.586C293.553 169.471 293.994 169.824 294.176 170.376Z" fill="#263238"/>
<path d="M287.909 172.375C288.091 172.927 287.945 173.468 287.582 173.583C287.219 173.699 286.778 173.345 286.596 172.793C286.414 172.241 286.56 171.7 286.923 171.585C287.286 171.47 287.727 171.823 287.909 172.375Z" fill="#263238"/>
<path d="M289.992 172.014C289.992 172.014 289.711 175.491 288.801 177.426C290.053 177.979 291.583 177.03 291.583 177.03L289.992 172.014Z" fill="#ED893E"/>
<path d="M295.25 178.193C295.033 178.296 294.798 178.39 294.544 178.47C294.454 178.499 294.357 178.45 294.328 178.36C294.298 178.27 294.35 178.174 294.437 178.146C296.872 177.366 297.449 175.315 297.454 175.295C297.478 175.204 297.573 175.151 297.663 175.176C297.755 175.201 297.809 175.295 297.785 175.385C297.763 175.468 297.266 177.237 295.25 178.193Z" fill="#263238"/>
<path d="M295.444 167.745C295.336 167.796 295.205 167.789 295.099 167.716C293.842 166.843 292.668 167.295 292.656 167.299C292.481 167.369 292.281 167.284 292.209 167.11C292.138 166.936 292.223 166.738 292.397 166.668C292.459 166.643 293.931 166.077 295.489 167.16C295.645 167.268 295.683 167.48 295.576 167.634C295.541 167.684 295.495 167.721 295.444 167.745Z" fill="#263238"/>
<path d="M284.501 171.091C284.442 171.119 284.375 171.13 284.306 171.12C284.118 171.093 283.987 170.921 284.012 170.735C284.267 168.868 285.69 168.202 285.75 168.164C285.921 168.085 286.125 168.159 286.206 168.329C286.287 168.499 286.215 168.7 286.046 168.78C285.986 168.805 284.896 169.333 284.691 170.831C284.675 170.949 284.601 171.044 284.501 171.091Z" fill="#263238"/>
<path d="M299.309 161.668C299.309 161.668 286.444 168.833 280.807 165.47C275.17 162.107 280.807 159.239 280.807 159.239C280.807 159.239 279.027 161.217 280.708 162.206C280.708 162.206 281.076 156.668 285.886 154.887C285.886 154.887 284.595 156.469 285.124 158.25C285.124 158.25 288.322 155.484 293.91 153.949C299.499 152.416 314.382 153.458 299.309 161.668Z" fill="#263238"/>
<path d="M300.137 194.09C300.137 194.09 302.272 196.033 304.718 197.913C307.653 195.958 314.461 190.853 313.632 186.993C313.064 185.908 310.005 185.546 310.005 185.546C310.005 185.546 307.27 190.139 300.137 194.09Z" fill="#F83758"/>
<path d="M300.137 194.09C300.137 194.09 297.922 196.279 296.625 198.879C294.145 197.666 294.437 190.261 295.185 189.356C296.874 188.043 299.02 187.845 299.02 187.845C299.02 187.845 297.781 191.347 300.137 194.09Z" fill="#F83758"/>
<g opacity="0.2">
<path d="M300.137 194.09C300.137 194.09 302.272 196.033 304.718 197.913C307.653 195.958 314.461 190.853 313.632 186.993C313.064 185.908 310.005 185.546 310.005 185.546C310.005 185.546 307.27 190.139 300.137 194.09Z" fill="white"/>
<path d="M300.137 194.09C300.137 194.09 297.922 196.279 296.625 198.879C294.145 197.666 294.437 190.261 295.185 189.356C296.874 188.043 299.02 187.845 299.02 187.845C299.02 187.845 297.781 191.347 300.137 194.09Z" fill="white"/>
</g>
<path d="M313.633 186.993C313.633 186.993 313.963 200.013 317.373 215.243C317.383 215.273 317.383 215.283 317.383 215.283C320.203 227.883 325.143 241.993 333.773 251.463C333.773 251.463 337.793 260.693 336.483 268.783C336.483 268.783 339.113 267.703 339.643 266.213C340.173 264.733 332.523 246.393 330.673 232.483C328.833 218.583 327.773 186.993 327.773 186.993C327.773 186.993 324.263 186.343 318.233 186.623C316.833 186.693 315.293 186.803 313.633 186.993Z" fill="#F83758"/>
<path opacity="0.7" d="M339.639 266.208C339.109 267.698 336.479 268.778 336.479 268.778C337.789 260.688 333.769 251.458 333.769 251.458C333.219 250.858 332.689 250.238 332.159 249.598C327.319 243.638 323.739 236.188 321.099 228.518C319.559 224.088 318.349 219.598 317.379 215.278C317.379 215.278 317.379 215.268 317.369 215.238C317.259 214.748 317.159 214.268 317.049 213.788C314.239 200.608 313.719 189.378 313.639 187.318C313.629 187.098 313.629 186.988 313.629 186.988C315.289 186.798 316.829 186.688 318.229 186.618C324.259 186.338 327.769 186.988 327.769 186.988C327.769 186.988 328.019 194.328 328.469 203.478C328.479 203.618 328.479 203.748 328.489 203.888C328.629 206.518 328.779 209.278 328.939 212.058L328.949 212.068C329.259 217.258 329.629 222.488 330.059 226.938C330.249 228.968 330.459 230.848 330.669 232.478C332.52 246.388 340.17 264.728 339.639 266.208Z" fill="white"/>
<path opacity="0.4" d="M313.633 186.993C313.633 186.993 313.963 200.013 317.373 215.243C317.383 215.273 317.383 215.283 317.383 215.283L322.433 195.123L317.093 194.613L322.433 191.473L318.233 186.623C316.833 186.693 315.293 186.803 313.633 186.993Z" fill="white"/>
<path d="M289.413 270.863L290.783 271.853C290.783 271.853 288.803 250.693 289.603 222.493C289.643 221.133 289.693 219.823 289.743 218.573C290.763 194.713 294.463 190.373 294.703 190.113L291.243 191.293L284.973 193.453C283.123 213.813 289.413 270.863 289.413 270.863Z" fill="#F83758"/>
<path opacity="0.7" d="M289.413 270.863L290.783 271.853C290.783 271.853 288.803 250.693 289.603 222.493C289.643 221.133 289.693 219.823 289.743 218.573C290.763 194.713 294.463 190.373 294.703 190.113L291.243 191.293L284.973 193.453C283.123 213.813 289.413 270.863 289.413 270.863Z" fill="white"/>
<path opacity="0.4" d="M290.983 198.473L287.023 200.953C287.023 200.953 288.053 212.623 289.743 218.573C290.763 194.713 294.463 190.373 294.703 190.113L291.243 191.293C289.863 192.623 287.743 194.903 286.533 197.413L290.983 198.473Z" fill="white"/>
<path opacity="0.2" d="M326.653 204.233C326.653 204.233 326.953 208.653 328.943 212.063C328.783 209.283 328.633 206.523 328.493 203.893C327.923 203.863 327.303 203.973 326.653 204.233Z" fill="black"/>
<path opacity="0.2" d="M307.413 311.803L311.723 288.353L310.893 275.943C310.893 275.943 304.983 297.463 307.413 311.803Z" fill="black"/>
<path d="M273.683 200.492C276.123 200.33 276.254 203.333 275.128 204.434C274.002 205.534 270.257 204.748 270.309 203.072C270.361 201.396 271.505 200.636 273.683 200.492Z" fill="#F83758"/>
<path opacity="0.5" d="M273.683 200.492C276.123 200.33 276.254 203.333 275.128 204.434C274.002 205.534 270.257 204.748 270.309 203.072C270.361 201.396 271.505 200.636 273.683 200.492Z" fill="white"/>
<path d="M276.175 202.836C276.175 202.836 288.632 228.974 295.106 234.422H273.609L257.708 206.165L276.175 202.836Z" fill="white"/>
<path d="M253.105 202.964L273.163 201.204C274.471 201.089 275.714 201.796 276.285 202.979L293.068 237.772C293.322 238.3 292.963 238.917 292.379 238.957L272.421 240.304C271.143 240.39 269.94 239.697 269.374 238.547L252.436 204.154C252.179 203.632 252.526 203.015 253.105 202.964Z" fill="#263238"/>
<path opacity="0.2" d="M253.105 202.964L273.163 201.204C274.471 201.089 275.714 201.796 276.285 202.979L293.068 237.772C293.322 238.3 292.963 238.917 292.379 238.957L272.421 240.304C271.143 240.39 269.94 239.697 269.374 238.547L252.436 204.154C252.179 203.632 252.526 203.015 253.105 202.964Z" fill="white"/>
<path d="M257.777 223.222L259.724 227.459C263.104 231.565 266.395 228.428 266.395 228.428L268.957 227.87C269.826 227.681 270.071 226.677 269.538 225.497L268.198 222.534C267.587 221.183 266.185 220.095 265.09 220.12L262.629 220.178C261.913 220.195 261.293 220.401 260.823 220.777L257.777 223.222Z" fill="#FFB573"/>
<path d="M273.778 223.031C273.731 223.269 273.675 223.508 273.611 223.738L252.971 225.311C252.971 225.311 253.964 215.142 252.605 208C251.636 202.939 253.86 202.518 253.86 202.518L273.714 200.476C273.706 200.476 273.69 200.484 273.682 200.492C271.538 201.311 275.613 214.403 273.778 223.031Z" fill="white"/>
<path d="M292.436 399.657H276.341L276.943 395.492H293.038L292.436 399.657Z" fill="#F83758"/>
<path d="M331.543 395.492H316.043V399.657H331.543V395.492Z" fill="#F83758"/>
<path opacity="0.1" d="M330.06 226.938C329.61 227.118 329.15 227.268 328.69 227.408C326.16 228.168 323.47 228.468 321.1 228.518C318.99 228.568 317.13 228.418 315.85 228.228C297.21 225.388 296.65 221.568 296.65 221.568C296.65 221.568 308.33 220.788 313.87 217.448C315.05 216.738 316.11 215.418 317.05 213.788C320.56 207.748 322.43 197.378 322.43 197.378C322.43 197.378 323.87 198.648 325.84 200.668C326.65 201.488 327.55 202.438 328.47 203.478C328.48 203.618 328.48 203.748 328.49 203.888C328.63 206.518 328.78 209.278 328.94 212.058L328.95 212.068C329.26 217.258 329.629 222.488 330.06 226.938Z" fill="black"/>
<path d="M289.299 209.865L280.232 223.458" stroke="#263238" stroke-width="1.1217" stroke-miterlimit="10" stroke-linecap="round" stroke-linejoin="round"/>
<path d="M295.536 215.452L295.743 220.181C294.186 224.904 288.459 221.852 288.459 221.852L285.113 221.496C283.979 221.375 283.097 220.322 283.03 219.006L282.86 215.701C282.783 214.195 283.791 212.894 285.095 212.818L288.026 212.647C288.879 212.597 289.731 212.76 290.506 213.119L295.536 215.452Z" fill="#FFB573"/>
<path d="M327.773 186.993C338.928 190.113 329.698 224.395 325.609 225.539C317.865 227.704 294.703 223.463 294.703 223.463L294.655 214.422C294.655 214.422 316.953 216.61 318.83 215.77C321.263 214.681 322.444 201.74 322.971 195.628C323.499 189.515 327.773 186.993 327.773 186.993Z" fill="#F83758"/>
<path opacity="0.7" d="M327.773 186.993C338.928 190.113 329.698 224.395 325.609 225.539C317.865 227.704 294.703 223.463 294.703 223.463L294.655 214.422C294.655 214.422 316.953 216.61 318.83 215.77C321.263 214.681 322.444 201.74 322.971 195.628C323.499 189.515 327.773 186.993 327.773 186.993Z" fill="white"/>
</svg>
