<?xml version="1.0" encoding="utf-8"?>
<!-- Generator: Adobe Illustrator 27.5.0, SVG Export Plug-In . SVG Version: 6.00 Build 0)  -->
<svg version="1.1" xmlns="http://www.w3.org/2000/svg" xmlns:xlink="http://www.w3.org/1999/xlink" x="0px" y="0px"
	 viewBox="0 0 3710 3710" style="enable-background:new 0 0 3710 3710;" xml:space="preserve">
<g id="Background">
	<g>
		<g>
			<rect style="fill:#FFFFFF;" width="3710" height="3710"/>
		</g>
	</g>
</g>
<g id="Illustration">
	<g>
		<linearGradient id="SVGID_1_" gradientUnits="userSpaceOnUse" x1="3549.4121" y1="4028.6619" x2="1106.4392" y2="994.6428">
			<stop  offset="0" style="stop-color:#DAE3FE"/>
			<stop  offset="1" style="stop-color:#E9EFFD"/>
		</linearGradient>
		<path style="fill:url(#SVGID_1_);" d="M2868.194,2838.445c-55.613,59.417-108.233,97.734-149.808,128.007
			c-488.699,355.857-1066.96,252.126-1189.857,226.794c-181.48-37.407-532.276-109.714-785.896-412.397
			c-383.705-457.934-323.957-1179.395-26.329-1655.642c54.441-87.114,342.013-570.615,926.502-648.153
			c353.726-46.925,766.058,47.718,1064.657,301.601C3334.249,1311.58,3289.628,2388.181,2868.194,2838.445z"/>
		<g>
			<g>
				<path style="fill:#BDD0FB;" d="M472.589,1060.425c-1.564-14.842,13.634-25.737,27.228-19.575
					c208.068,94.322,1396.488,692.67,1035.324,1908.721C1535.141,2949.571,651.357,2757.061,472.589,1060.425z"/>
				<path style="opacity:0.6;fill:#FFFFFF;" d="M606.473,1241.291c1.364-1.243,3.477-1.149,4.726,0.207
					c49.476,53.721,97.781,108.397,145.633,163.508c47.82,55.129,95.005,110.81,141.535,167.038
					c93.061,112.451,183.631,227.004,270.618,344.286c86.887,117.333,170.439,237.286,247.29,361.622
					c38.617,62.038,75.011,125.51,108.946,190.326c33.832,64.854,65.18,131.172,91.157,199.835c1.547,4.09-0.514,8.66-4.604,10.208
					c-4.09,1.547-8.66-0.514-10.207-4.604l-0.014-0.039l-0.012-0.033c-25.313-67.979-56.072-133.968-89.362-198.599
					c-33.395-64.601-69.293-127.983-107.454-190.002c-75.931-124.295-158.68-244.437-244.811-362.024
					c-86.234-117.541-176.102-232.435-268.486-345.261c-46.192-56.416-93.046-112.294-140.538-167.625
					c-47.511-55.301-95.531-110.226-144.615-164.082l-0.021-0.023C605.005,1244.66,605.104,1242.539,606.473,1241.291z"/>
			</g>
			<g>
				<path style="fill:#91B3FA;" d="M1473.11,555.081c5.948-15.659,26.686-18.876,37.182-5.822
					c160.651,199.815,1048.063,1400.805,70.653,2435.972C1580.944,2985.231,793.195,2344.967,1473.11,555.081z"/>
				<path style="opacity:0.6;fill:#FFFFFF;" d="M1530.856,807.64c13.655,80.812,25.625,161.813,36.9,242.943
					c11.236,81.128,21.536,162.386,30.886,243.757c9.349,81.371,17.748,162.854,25.175,244.434
					c7.394,81.583,13.527,163.283,18.633,245.055c9.907,163.546,15.072,327.514,11.253,491.493
					c-1.65,81.985-6.269,163.954-14.021,245.677c-7.873,81.696-18.978,163.244-36.565,243.698c-0.967,4.422-5.335,7.223-9.758,6.257
					c-4.422-0.967-7.223-5.335-6.257-9.758l0.009-0.038l0.009-0.036c17.777-79.485,29.207-160.415,37.425-241.612
					c8.1-81.232,13.097-162.844,15.133-244.555c4.594-163.424,0.232-327.102-8.875-490.442
					c-4.705-81.672-10.437-163.296-17.431-244.822c-7.027-81.523-15.026-162.966-23.976-244.309
					c-8.95-81.343-18.852-162.586-29.689-243.703c-10.874-81.102-22.455-162.158-35.694-242.866l-0.005-0.032
					c-0.31-1.892,0.972-3.678,2.864-3.988C1528.763,804.482,1530.546,805.748,1530.856,807.64z"/>
			</g>
			<g>
				<path style="fill:#91B3FA;" d="M3065.905,1107.026c-1.45-17.555-25.523-21.506-32.438-5.307
					c-66.853,156.623-255.017,561.824-488.91,759.336c-380.831,321.594-679.976,885.512-506.702,1220.464
					C2037.855,3081.52,3223.845,3019.723,3065.905,1107.026z"/>
				<path style="opacity:0.43;fill:#FFFFFF;" d="M3004.268,1334.91c-1.119,5.433-2.425,9.626-3.641,14.291l-3.875,13.615
					l-8.041,27.107c-5.488,18.026-11.27,35.952-17.042,53.884c-11.679,35.815-23.8,71.483-36.25,107.039
					c-25.063,71.057-52.129,141.393-80.204,211.328c-27.958,69.99-57.973,139.158-89.472,207.647
					c-31.542,68.466-64.065,136.516-98.813,203.463c-69.249,133.99-146.065,264.239-231.735,388.569
					c-43.558,61.651-88.748,122.196-137.355,179.991c-49.077,57.364-100.576,112.714-155.993,163.916
					c-1.512,1.397-3.871,1.304-5.268-0.208c-1.356-1.467-1.277-3.763,0.108-5.173c105.479-106.956,198.428-225.337,281.986-349.833
					c42.014-62.113,81.615-125.85,119.703-190.469c38.098-64.635,73.422-130.86,108.554-197.167
					c69.689-132.975,132.042-269.718,190.972-407.888c29.304-69.165,57.17-138.949,83.876-209.18
					c13.426-35.089,26.53-70.306,39.195-105.68l18.584-53.198l9.039-26.671l4.366-13.368c1.358-4.38,2.9-9.157,3.902-12.891
					l0.222-0.824c0.529-1.969,2.555-3.136,4.524-2.607C3003.505,1331.108,3004.654,1333.013,3004.268,1334.91z"/>
			</g>
			<g>
				<path style="fill:#BDD0FB;" d="M2226.267,730.781c-8.4-15.118-31.537-8.912-31.167,8.38
					c3.574,167.179-0.788,605.84-130.109,877.198c-210.565,441.833-249.985,1067.404,40.586,1296.948
					C2105.576,2913.307,3141.616,2378.063,2226.267,730.781z"/>
				<path style="opacity:0.43;fill:#FFFFFF;" d="M2263.411,959.58c1.204,5.328,1.731,9.602,2.533,14.27l2.048,13.749l3.787,27.505
					c2.391,18.348,4.477,36.725,6.573,55.104c4.056,36.768,7.655,73.584,10.916,110.434c6.351,73.714,10.608,147.595,13.807,221.526
					c3.326,73.932,4.469,147.963,4.009,221.987c-0.507,74.021-2.062,148.067-6.052,222.026
					c-7.725,147.906-23.754,295.528-50.098,441.436c-14.033,72.786-29.976,145.241-50.088,216.62
					c-20.716,71.181-44.407,141.54-73.297,209.765c-0.803,1.896-2.991,2.782-4.887,1.979c-1.839-0.778-2.712-2.901-2.033-4.755
					c51.022-138.391,86.243-281.91,110.591-427.102c12.439-72.569,22.075-145.613,29.992-218.836
					c7.925-73.24,12.716-146.781,17.321-220.317c8.546-147.162,8.985-294.727,5.82-442.185
					c-1.761-73.735-5.063-147.444-9.575-221.083c-2.179-36.826-4.698-73.635-7.673-110.408l-4.886-55.115l-2.698-27.52
					l-1.499-13.727c-0.556-4.466-1.11-9.369-1.718-13.101l-0.137-0.843c-0.327-2.013,1.039-3.91,3.051-4.237
					C2261.15,956.435,2262.981,957.696,2263.411,959.58z"/>
			</g>
		</g>
		<g>
			
				<linearGradient id="SVGID_00000085935486330466232160000006085756113045741486_" gradientUnits="userSpaceOnUse" x1="2611.7083" y1="1697.0657" x2="2631.825" y2="1871.4117">
				<stop  offset="0" style="stop-color:#4F52FF"/>
				<stop  offset="1" style="stop-color:#4042E2"/>
			</linearGradient>
			<path style="fill:url(#SVGID_00000085935486330466232160000006085756113045741486_);" d="M2549.758,2074.117
				c55.817,82.456,130.967,152.295,238.552,158.045c10.89,0.582,22.882,20.815,30.839,29.603c6.875,7.593,7.93,19.416,1.701,27.645
				c-4.87,6.434-12.666,8.097-20.233,9.064c-26.554,9.821-59.226,7.29-85.435,1.844c-38.755-8.053-64.6-25.145-95.156-50.04
				c-30.976-25.238-59.963-59.337-80.367-93.575c-9.368-15.719-25.248-36.565-27.766-55.015
				C2516.294,2089.464,2546.013,2068.584,2549.758,2074.117z"/>
			<g>
				
					<linearGradient id="SVGID_00000138547952540506244210000004585074462863067836_" gradientUnits="userSpaceOnUse" x1="1224.2832" y1="1387.7786" x2="1002.9973" y2="1776.7051">
					<stop  offset="0" style="stop-color:#4F52FF"/>
					<stop  offset="1" style="stop-color:#4042E2"/>
				</linearGradient>
				<path style="fill:url(#SVGID_00000138547952540506244210000004585074462863067836_);" d="M800.239,2136.743
					c-142.067,4.185-175.57,37.459-175.57,37.459l79.679,99.156c0,0,137.991-18.325,228.477-105.877
					c-20.798-17.883-36.167-38.503-46.366-54.759C862.102,2126.222,833.377,2135.766,800.239,2136.743z"/>
				
					<linearGradient id="SVGID_00000170262957370821572580000000282638882566022817_" gradientUnits="userSpaceOnUse" x1="-6031.0562" y1="1352.5715" x2="-5892.7095" y2="1352.5715" gradientTransform="matrix(0.9937 -0.112 0.112 0.9937 6720.2886 24.4975)">
					<stop  offset="0" style="stop-color:#FEBBBA"/>
					<stop  offset="1" style="stop-color:#FF928E"/>
				</linearGradient>
				<path style="fill:url(#SVGID_00000170262957370821572580000000282638882566022817_);" d="M997.357,1905.291
					c-0.699-4.489-6.95-5.026-8.404-0.722l-13.64,40.348c-2.635,7.797-2.812,16.213-0.508,24.114l8.814,21.596
					c3.11,10.666,1.526,22.132-4.398,31.531c-14.176,22.492-45.073,64.132-92.762,90.564c10.199,16.256,25.568,36.876,46.366,54.759
					c33.201-32.124,60.015-73.557,71.259-126.84c7.879-3.427,12.466-11.726,11.179-20.22L997.357,1905.291z"/>
			</g>
			<g>
				
					<linearGradient id="SVGID_00000018929683947364219200000005173621750330569905_" gradientUnits="userSpaceOnUse" x1="3117.0005" y1="697.7589" x2="2728.0735" y2="1435.3779">
					<stop  offset="0" style="stop-color:#FF928E"/>
					<stop  offset="1" style="stop-color:#FE7062"/>
				</linearGradient>
				<polygon style="fill:url(#SVGID_00000018929683947364219200000005173621750330569905_);" points="2157.064,2525.924 
					3237.523,1920.419 1484.565,2342.515 				"/>
				
					<linearGradient id="SVGID_00000139295546713027589080000004123332616786091184_" gradientUnits="userSpaceOnUse" x1="3339.9351" y1="1738.0492" x2="2702.9006" y2="2019.6858">
					<stop  offset="0" style="stop-color:#E1473D"/>
					<stop  offset="1" style="stop-color:#E9605A"/>
				</linearGradient>
				<polygon style="fill:url(#SVGID_00000139295546713027589080000004123332616786091184_);" points="2364.429,1493.377 
					2159.761,2984.534 1779.72,2927.99 2254.107,1493.377 				"/>
				
					<linearGradient id="SVGID_00000103968931609032383110000017878902015995652754_" gradientUnits="userSpaceOnUse" x1="2847.6804" y1="-212.5018" x2="2713.5679" y2="545.2339">
					<stop  offset="0" style="stop-color:#FF928E"/>
					<stop  offset="1" style="stop-color:#FEB3B1"/>
				</linearGradient>
				<polygon style="fill:url(#SVGID_00000103968931609032383110000017878902015995652754_);" points="2957.155,1627.099 
					2397.526,1322.377 2110.688,1493.377 				"/>
				
					<linearGradient id="SVGID_00000173147685844929918950000001257495411737167788_" gradientUnits="userSpaceOnUse" x1="2845.5771" y1="489.323" x2="2731.5818" y2="1072.7119">
					<stop  offset="0" style="stop-color:#FF928E"/>
					<stop  offset="1" style="stop-color:#FE7062"/>
				</linearGradient>
				<polygon style="fill:url(#SVGID_00000173147685844929918950000001257495411737167788_);" points="2298.236,1581.635 
					2364.429,1454.764 2957.155,1627.099 				"/>
				
					<linearGradient id="SVGID_00000057868022354244359060000005328569295697662605_" gradientUnits="userSpaceOnUse" x1="2071.1765" y1="2194.0237" x2="1796.2454" y2="3119.3994">
					<stop  offset="0" style="stop-color:#FF928E"/>
					<stop  offset="1" style="stop-color:#FE7062"/>
				</linearGradient>
				<polygon style="fill:url(#SVGID_00000057868022354244359060000005328569295697662605_);" points="2025.385,3141.697 
					2364.429,1454.764 2314.997,1393.444 2110.688,1493.377 1779.72,2381.473 				"/>
				
					<linearGradient id="SVGID_00000114787195721075814270000003926551823106514074_" gradientUnits="userSpaceOnUse" x1="1611.5397" y1="3182.8037" x2="1611.5397" y2="2632.9429">
					<stop  offset="0" style="stop-color:#E1473D"/>
					<stop  offset="1" style="stop-color:#E9605A"/>
				</linearGradient>
				<polygon style="fill:url(#SVGID_00000114787195721075814270000003926551823106514074_);" points="1371.697,3004.381 
					2025.385,3141.697 1964.249,2626.761 1197.694,2403.784 				"/>
				
					<linearGradient id="SVGID_00000065047697978337953750000017608283316052433578_" gradientUnits="userSpaceOnUse" x1="737.1763" y1="522.2649" x2="1313.8607" y2="2218.7874">
					<stop  offset="0" style="stop-color:#FF928E"/>
					<stop  offset="1" style="stop-color:#FEB3B1"/>
				</linearGradient>
				<path style="fill:url(#SVGID_00000065047697978337953750000017608283316052433578_);" d="M1509.269,2260.295
					c0-16.596-727.159-1658.468-727.159-1658.468l433.6,1861.977L1509.269,2260.295z"/>
				
					<linearGradient id="SVGID_00000020388664525821915910000016351844546811519921_" gradientUnits="userSpaceOnUse" x1="2007.1537" y1="1608.2708" x2="1886.4528" y2="1869.7899">
					<stop  offset="0" style="stop-color:#E1473D"/>
					<stop  offset="1" style="stop-color:#E9605A"/>
				</linearGradient>
				<polygon style="fill:url(#SVGID_00000020388664525821915910000016351844546811519921_);" points="1889.005,2321.079 
					1413.475,2205.375 1197.695,2436.571 1425.715,2487.773 1964.249,2626.761 				"/>
				
					<linearGradient id="SVGID_00000150104767702425226650000012213557103318598846_" gradientUnits="userSpaceOnUse" x1="1530.6689" y1="1072.2562" x2="1218.8457" y2="2983.4319">
					<stop  offset="0" style="stop-color:#FF928E"/>
					<stop  offset="1" style="stop-color:#FE7062"/>
				</linearGradient>
				<polygon style="fill:url(#SVGID_00000150104767702425226650000012213557103318598846_);" points="729.41,1771.27 
					1197.695,2436.571 1964.249,2626.761 				"/>
			</g>
			<g>
				
					<linearGradient id="SVGID_00000013178107347794516510000012480584898046462655_" gradientUnits="userSpaceOnUse" x1="-6441.1904" y1="2941.8074" x2="-6348.894" y2="2941.8074" gradientTransform="matrix(0.9987 0.0507 -0.0507 0.9987 7143.3555 595.7192)">
					<stop  offset="0" style="stop-color:#09005D"/>
					<stop  offset="1" style="stop-color:#1A0F91"/>
				</linearGradient>
				<path style="fill:url(#SVGID_00000013178107347794516510000012480584898046462655_);" d="M575.866,3175.305
					c0,0-11.061,15.626-15.931,60.699c-0.454,4.2,2.7,7.957,6.919,8.171l80.109,4.063c3.224,0.164,5.684-2.88,4.807-5.986
					c-3.99-14.132-16.466-48.725-47.153-69.688L575.866,3175.305z"/>
				
					<linearGradient id="SVGID_00000176011191896725219520000016634081356009733517_" gradientUnits="userSpaceOnUse" x1="-6466.7559" y1="2437.5566" x2="-6429.3232" y2="2437.5566" gradientTransform="matrix(0.9937 -0.112 0.112 0.9937 6720.2886 24.4975)">
					<stop  offset="0" style="stop-color:#FEBBBA"/>
					<stop  offset="1" style="stop-color:#FF928E"/>
				</linearGradient>
				<path style="fill:url(#SVGID_00000176011191896725219520000016634081356009733517_);" d="M565.006,3150.799l8.77,37.294
					c0.757,3.217,3.608,5.541,6.912,5.548c4.416,0.01,10.793-0.35,16.836-2.06c5.494-1.554,8.96-6.995,8.32-12.668l-4.115-36.497
					L565.006,3150.799z"/>
				
					<linearGradient id="SVGID_00000148639083665313688070000006967710082028677800_" gradientUnits="userSpaceOnUse" x1="-6218.3149" y1="2697.3704" x2="-6073.501" y2="2697.3704" gradientTransform="matrix(0.9994 0.0349 -0.0349 0.9994 7051.2871 734.0373)">
					<stop  offset="0" style="stop-color:#09005D"/>
					<stop  offset="1" style="stop-color:#1A0F91"/>
				</linearGradient>
				<path style="fill:url(#SVGID_00000148639083665313688070000006967710082028677800_);" d="M758.812,3178.076
					c0,0-16.175,23.314-16.988,56.062c-0.192,7.713,6.049,14.081,13.76,14.35l124.503,4.342c5.829,0.203,8.457-7.206,3.804-10.722
					c-22.982-17.365-68.21-49.886-101.278-63.201L758.812,3178.076z"/>
				
					<linearGradient id="SVGID_00000009573319498431463990000000393745820633904049_" gradientUnits="userSpaceOnUse" x1="-6158.3105" y1="2924.4683" x2="-6121.0845" y2="2924.4683" gradientTransform="matrix(0.9907 0.1362 -0.1362 0.9907 7252.5708 1097.9357)">
					<stop  offset="0" style="stop-color:#FEBBBA"/>
					<stop  offset="1" style="stop-color:#FF928E"/>
				</linearGradient>
				<path style="fill:url(#SVGID_00000009573319498431463990000000393745820633904049_);" d="M755.711,3138.327l3.189,47.862
					c0.357,5.353,4.968,9.554,10.315,9.109c3.25-0.271,7.156-1.108,11.474-3.047c4.103-1.843,6.635-6.074,6.466-10.569
					l-2.166-57.751L755.711,3138.327z"/>
				
					<linearGradient id="SVGID_00000124153924385099384080000015411536147820328591_" gradientUnits="userSpaceOnUse" x1="927.7174" y1="1477.1884" x2="872.3987" y2="1738.6943">
					<stop  offset="0" style="stop-color:#09005D"/>
					<stop  offset="1" style="stop-color:#1A0F91"/>
				</linearGradient>
				<path style="fill:url(#SVGID_00000124153924385099384080000015411536147820328591_);" d="M507.847,2507.007
					c0,0-30.112,33.247-32.405,69.421c-2.294,36.173,86.816,609.869,86.816,609.869s34.061,1.793,50.118-10.594
					c0,0-21.736-376.393-15.945-464.588c0,0,125.176,378.32,155.648,445.792c0,0,32.651,0.287,42.347-7.013
					c0,0-77.98-499.911-114.87-586.192L507.847,2507.007z"/>
				
					<linearGradient id="SVGID_00000005986184726231370580000012242491991834039185_" gradientUnits="userSpaceOnUse" x1="567.0561" y1="1659.4824" x2="567.0561" y2="1946.1334">
					<stop  offset="0" style="stop-color:#4F52FF"/>
					<stop  offset="1" style="stop-color:#4042E2"/>
				</linearGradient>
				<path style="fill:url(#SVGID_00000005986184726231370580000012242491991834039185_);" d="M593.679,2700.311
					c-1.958,0-3.806-1.189-4.55-3.125l-19.663-51.097l-31.191-15.381c-2.415-1.192-3.408-4.115-2.216-6.53
					c1.192-2.412,4.116-3.407,6.53-2.215l32.9,16.225c1.098,0.542,1.953,1.477,2.393,2.622l20.346,52.876
					c0.968,2.514-0.285,5.335-2.799,6.301C594.855,2700.206,594.263,2700.311,593.679,2700.311z"/>
				
					<linearGradient id="SVGID_00000087373356068110181030000011049359366561510303_" gradientUnits="userSpaceOnUse" x1="890.09" y1="2090.5461" x2="655.3941" y2="2546.5276">
					<stop  offset="0" style="stop-color:#4F52FF"/>
					<stop  offset="1" style="stop-color:#4042E2"/>
				</linearGradient>
				<path style="fill:url(#SVGID_00000087373356068110181030000011049359366561510303_);" d="M853.548,2193.428
					c-55.569-47.804-152.668-61.285-208.429-65.033c-24.429-1.642-46.524,14.34-52.435,38.099
					c-17.137,68.876-64.626,248.392-74.256,279.411c-7.901,25.448-16.336,50.382-21.722,65.985
					c-3.219,9.321,1.658,19.49,10.965,22.749c48.472,16.976,134.023,32.72,168.663,38.72c7.619,1.32,14.341-5.047,13.475-12.731
					c-0.735-6.516,0.315-13.112,3.038-19.077l103.15-225.981c89.064,78.854,159.299,79.063,210.391,53.845
					c-12.076-26.666-21.062-53.733-27.004-81.197C899.184,2283.61,853.548,2193.428,853.548,2193.428z"/>
				
					<linearGradient id="SVGID_00000034800907559003787560000005535607528315200144_" gradientUnits="userSpaceOnUse" x1="-5717.7783" y1="1382.7317" x2="-6016.7144" y2="1754.637" gradientTransform="matrix(0.9937 -0.112 0.112 0.9937 6720.2886 24.4975)">
					<stop  offset="0" style="stop-color:#FEBBBA"/>
					<stop  offset="1" style="stop-color:#FF928E"/>
				</linearGradient>
				<path style="fill:url(#SVGID_00000034800907559003787560000005535607528315200144_);" d="M1107.771,2258.823l-16.333-17.331
					c-42.41,36.753-79.99,48.568-112.053,46.725c5.942,27.463,14.929,54.53,27.004,81.197
					C1073.698,2336.193,1107.771,2258.823,1107.771,2258.823z"/>
				
					<linearGradient id="SVGID_00000163033017849650174490000004736858514139077760_" gradientUnits="userSpaceOnUse" x1="-5661.1011" y1="1428.2792" x2="-5960.0454" y2="1800.1948" gradientTransform="matrix(0.9937 -0.112 0.112 0.9937 6720.2886 24.4975)">
					<stop  offset="0" style="stop-color:#FEBBBA"/>
					<stop  offset="1" style="stop-color:#FF928E"/>
				</linearGradient>
				<path style="fill:url(#SVGID_00000163033017849650174490000004736858514139077760_);" d="M1097.797,2260.295l80.347-5.901
					l69.014-49.441c-11.319-5.435-69.578,14.851-69.578,14.851s-63.564-2.406-80.482-0.52c-14.051,1.565-9.766,21.541-7.911,28.266
					c0.379,1.372,0.657,2.192,0.657,2.192L1097.797,2260.295z"/>
				
					<linearGradient id="SVGID_00000037659293693572091520000002404260176238692245_" gradientUnits="userSpaceOnUse" x1="-6054.0947" y1="1157.9866" x2="-6343.6113" y2="1689.9451" gradientTransform="matrix(0.9937 -0.112 0.112 0.9937 6720.2886 24.4975)">
					<stop  offset="0" style="stop-color:#FEBBBA"/>
					<stop  offset="1" style="stop-color:#FF928E"/>
				</linearGradient>
				<path style="fill:url(#SVGID_00000037659293693572091520000002404260176238692245_);" d="M709.224,2021.865l-30.594,107.754
					c0,0,52.281,28.1,90.937,20.506l10.623-94.986L709.224,2021.865z"/>
				<g>
					
						<linearGradient id="SVGID_00000088100861807402648630000005481068254460795326_" gradientUnits="userSpaceOnUse" x1="-4915.7056" y1="-183.8295" x2="-5043.6597" y2="-14.5563" gradientTransform="matrix(0.7472 -0.6646 0.6646 0.7472 4549.52 -1168.7673)">
						<stop  offset="0" style="stop-color:#FEBBBA"/>
						<stop  offset="1" style="stop-color:#FF928E"/>
					</linearGradient>
					<path style="fill:url(#SVGID_00000088100861807402648630000005481068254460795326_);" d="M772.605,1943.613
						c1.121,1.26,42.732,104.743,42.732,104.743l-59.592,22.503l-54.011-92.221C701.735,1978.638,753.836,1922.509,772.605,1943.613
						z"/>
					
						<linearGradient id="SVGID_00000132079141035082659910000003814535047438054280_" gradientUnits="userSpaceOnUse" x1="-5013.4253" y1="-142.9967" x2="-4860.5796" y2="-142.9967" gradientTransform="matrix(0.7472 -0.6646 0.6646 0.7472 4549.52 -1168.7673)">
						<stop  offset="0" style="stop-color:#09005D"/>
						<stop  offset="1" style="stop-color:#1A0F91"/>
					</linearGradient>
					<path style="fill:url(#SVGID_00000132079141035082659910000003814535047438054280_);" d="M726.5,1990.782l24.63,50.773
						c0.316,0.651,0.707,1.242,1.188,1.783c2.94,3.314,13.887,13.974,24.11,2.108c9.276-10.768,17.902-20.456,26.589-23.018
						c3.9-1.15,8.028,0.844,9.544,4.617c3.778,9.403,11.9,30.75,16.127,50.372c0.857,3.982-1.513,7.935-5.404,9.139
						c-11.726,3.626-36.67,10.583-58.048,11.479c-2.897,0.122-5.62-1.318-7.114-3.802c-7.285-12.113-29.563-48.847-37.355-58.123
						c-7.313-8.706-22.609-6.714-28.971-5.42c-2.087,0.425-4.235-0.021-5.983-1.236c-6.179-4.295-18.299-15.672-4.944-32.434
						c2.795-3.508,2.137-8.584-1.455-11.271c-7.15-5.35-15.279-15.351-6.016-29.935c9.416-14.825,24.111-14.292,33.33-12.059
						c3.727,0.902,7.462-1.051,9.039-4.547c0.897-1.99,2.671-3.62,6.054-3.709c4.56-0.121,7.931-4.318,7.339-8.84
						c-1.138-8.689,0.739-20.04,15.312-26.443c25.86-11.363,45.492,12.644,49.324,31.777c3.834,19.133-24.903,29.859-42.438,30.517
						c-13.333,0.499-21.671,14.71-24.902,21.493C725.433,1986.151,725.461,1988.641,726.5,1990.782z"/>
					
						<linearGradient id="SVGID_00000150085327279077313860000008802872765056063121_" gradientUnits="userSpaceOnUse" x1="-5103.1089" y1="-49.7799" x2="-5000.4785" y2="-155.0757" gradientTransform="matrix(0.7472 -0.6646 0.6646 0.7472 4549.52 -1168.7673)">
						<stop  offset="0" style="stop-color:#FEBBBA"/>
						<stop  offset="1" style="stop-color:#FF928E"/>
					</linearGradient>
					<path style="fill:url(#SVGID_00000150085327279077313860000008802872765056063121_);" d="M729.919,2054.508
						c0,0-8.111-33.052-22.248-33.121c-14.138-0.07-26.425,12.927-10.431,30.188
						C717.135,2073.046,729.919,2054.508,729.919,2054.508z"/>
				</g>
			</g>
			<g>
				
					<linearGradient id="SVGID_00000118360608849493921270000000742850162797505459_" gradientUnits="userSpaceOnUse" x1="-2927.7563" y1="3310.3022" x2="-2949.8306" y2="3260.1333" gradientTransform="matrix(-1 0 0 1 -221.3252 0)">
					<stop  offset="0" style="stop-color:#4F52FF"/>
					<stop  offset="1" style="stop-color:#4042E2"/>
				</linearGradient>
				<path style="fill:url(#SVGID_00000118360608849493921270000000742850162797505459_);" d="M2679.479,3252.885
					c13.235,4.684,33.295,0.291,47.05-0.848c18.049-1.494,35.998-3.898,53.812-7.168c10.933-2.007,23.696-1.592,26.313-14.219
					c3.376-16.295,3.203-34.235,4.736-50.817c0.141-1.529-0.655-2.588-1.76-3.168c-0.664-8.059-13.265-8.217-15.843-0.597
					c-5.025,14.854-37.153,30.689-50.295,34.3c-13.901,3.821-30.829,8.215-43.687,14.829
					C2689.858,3230.313,2652.689,3243.404,2679.479,3252.885z"/>
				
					<linearGradient id="SVGID_00000131340419327834990750000014587299833631555213_" gradientUnits="userSpaceOnUse" x1="-1023.3004" y1="3243.4841" x2="-1045.375" y2="3193.3147" gradientTransform="matrix(-0.4927 0.8702 0.8702 0.4927 -188.9519 2512.1777)">
					<stop  offset="0" style="stop-color:#4F52FF"/>
					<stop  offset="1" style="stop-color:#4042E2"/>
				</linearGradient>
				<path style="fill:url(#SVGID_00000131340419327834990750000014587299833631555213_);" d="M3074.465,3214.929
					c10.597-9.209,16.657-28.83,22.443-41.361c7.593-16.443,14.344-33.247,20.274-50.359c3.64-10.503,10.289-21.405,0.59-29.904
					c-12.516-10.966-28.214-19.654-41.889-29.158c-1.261-0.876-2.575-0.705-3.624-0.03c-7.34-3.393-13.686,7.495-8.325,13.493
					c10.451,11.691,8.401,47.451,5.069,60.666c-3.524,13.979-8.039,30.875-8.619,45.322
					C3059.936,3194.777,3053.015,3233.572,3074.465,3214.929z"/>
				
					<linearGradient id="SVGID_00000036239945058292083900000003549881752439972011_" gradientUnits="userSpaceOnUse" x1="2936.4651" y1="1812.152" x2="2886.1758" y2="2149.0928">
					<stop  offset="0" style="stop-color:#09005D"/>
					<stop  offset="1" style="stop-color:#1A0F91"/>
				</linearGradient>
				<path style="fill:url(#SVGID_00000036239945058292083900000003549881752439972011_);" d="M2725.556,2596.062
					c1.122-6.945,3.318-33.535,7.311-47.853c3.393-12.169,17.996-8.427,27.297-6.875c-0.071-15.266,13.084-30.406,30.077-23.772
					c26.26,10.253,41.03,39.447,50.33,64.611c10.282,27.823,13.173,57.598,11.71,87.124c-2.35,47.431-13.142,96.651-28.51,142.899
					c-5.09,26.603-13.208,53.604-15.023,80.517c-1.774,26.306,12.223,49.597,20.588,73.701
					c8.219,23.681,12.038,48.547,12.783,73.562c1.507,50.609-7.312,104.274-31.73,148.65c-1.376,2.502-16.212,2.974-18.546,2.121
					c-2.023,0.606-4.451-0.177-5.136-2.883c-11.389-44.963-14.822-89.24-23.79-134.802c-8.925-45.339-15.534-91.099-21.167-136.957
					c-5.564-45.284-9.389-90.712-12.017-136.258c-1.276-22.105-2.267-44.228-2.966-66.359
					C2726.01,2689.531,2721.722,2619.797,2725.556,2596.062z"/>
				
					<linearGradient id="SVGID_00000058591567298767940230000012043194495966410417_" gradientUnits="userSpaceOnUse" x1="3047.9648" y1="1828.7959" x2="2997.6753" y2="2165.7366">
					<stop  offset="0" style="stop-color:#09005D"/>
					<stop  offset="1" style="stop-color:#1A0F91"/>
				</linearGradient>
				<path style="fill:url(#SVGID_00000058591567298767940230000012043194495966410417_);" d="M2762.155,2628.756
					c-2.11-6.712-26.439-65.958-29.288-80.547c-2.422-12.399-17.893-61.126-8.883-63.907c-6.906-13.615,20.407,7.687,38.57,6.001
					c28.071-2.605,55.953,0.26,75.546,18.586c21.662,20.262,49.541,57.889,61.468,84.938
					c19.159,43.453,18.032,96.594,25.024,144.824c7.374,26.062,12.221,53.838,22.661,78.709
					c10.206,24.311,33.158,38.857,51.439,56.654c17.962,17.485,32.521,38.001,44.4,60.028
					c24.031,44.564,47.613,136.416,47.613,136.416c-0.109,2.853-14.436,16.567-16.905,16.85c-1.537,1.448-4.058,1.837-5.883-0.275
					c-30.335-35.088-61.32-69.083-89.759-105.792c-28.301-36.529-54.719-74.472-80.31-112.94
					c-25.272-37.986-49.053-76.881-71.818-116.417c-11.049-19.188-21.851-38.52-32.396-57.99
					C2782.22,2672.819,2769.366,2651.692,2762.155,2628.756z"/>
			</g>
			
				<linearGradient id="SVGID_00000076590330104347525200000005097492207971916728_" gradientUnits="userSpaceOnUse" x1="2927.0315" y1="2550.9424" x2="2790.6843" y2="2039.0801">
				<stop  offset="0" style="stop-color:#09005D"/>
				<stop  offset="1" style="stop-color:#1A0F91"/>
			</linearGradient>
			<path style="fill:url(#SVGID_00000076590330104347525200000005097492207971916728_);" d="M2738.196,2260.954
				c4.523,10.508,11.018,19.5,18.054,28.169c6.117,7.536,12.069,14.076,12.717,24.525c1.408,22.682-8.606,43.88-4.756,66.995
				c3.295,19.779,14.137,36.644,28.569,48.963c30.69,26.198,75.318,33.355,112.295,20.158c19.749-7.048,39.603-20.39,50.271-40.305
				c5.905-11.023,8.094-23.268,6.541-35.831c-1.37-11.079-6.268-21.356-7.416-32.384c-2.097-20.166,10.106-40.665,12.635-60.49
				c2.868-22.486-4.064-42.762-18.93-58.677c-10.891-11.659-39.009-25.686-39.631-44.42c-0.329-9.915,8.61-20.58,11.319-30.188
				c2.31-8.195,3.21-17.201,2.825-25.741c-1.756-39-38.905-77.548-73.275-88.932c-7.009-2.321-30.255-9.529-37.088-10.045
				c-25.401-5.41-64.755,54.145-62.614,57.589c-5.781,12.575-9.559,26.365-12.296,39.898c-4.958,24.52-9.19,49.889-10.076,75.006
				C2726.545,2217.727,2729.363,2240.435,2738.196,2260.954z"/>
			
				<linearGradient id="SVGID_00000018920384920959026110000014577486924941921210_" gradientUnits="userSpaceOnUse" x1="3156.8655" y1="962.6736" x2="3036.1641" y2="1385.1282">
				<stop  offset="0" style="stop-color:#4F52FF"/>
				<stop  offset="1" style="stop-color:#4042E2"/>
			</linearGradient>
			<path style="fill:url(#SVGID_00000018920384920959026110000014577486924941921210_);" d="M2830.001,2501.17
				c-22.478-95.247,11.229-161.223,32.876-191.675c8.527-11.995,5.651-28.77-6.4-37.218
				c-36.975-25.921-83.141-41.822-106.334-48.752c-9.342-2.792-19.427-0.677-26.915,5.568
				c-23.831,19.874-73.677,66.765-65.66,105.439c6.139,29.615,62.067,177.389,62.067,177.389S2771.351,2536.396,2830.001,2501.17z"
				/>
			<g>
				
					<linearGradient id="SVGID_00000036941961724773518630000003980522172509025414_" gradientUnits="userSpaceOnUse" x1="-2652.7549" y1="2250.2976" x2="-2637.8301" y2="2123.1804" gradientTransform="matrix(-1 0 0 1 -221.3252 0)">
					<stop  offset="0" style="stop-color:#FEBBBA"/>
					<stop  offset="1" style="stop-color:#FF928E"/>
				</linearGradient>
				<path style="fill:url(#SVGID_00000036941961724773518630000003980522172509025414_);" d="M2371.441,2139.355
					c26.659,11.88,28.398,18.39,50.014,12.83c0,0,0.585,0.126,0.874,0.189c-3.065-7.606-3.179-6.206-8.714-13.36
					c-7.521-9.723-3.216-20.629,5.543-12.817c14.167,12.634,31.84,21.71,36.485,40.661c6.674,6.967,30.972,28.534,36.483,61.385
					c5.51,32.851-33.812,4.126-33.812,4.126c-27.816-45.652-33.829-13.605-92.933-71.424
					C2357.359,2151.744,2344.781,2127.475,2371.441,2139.355z"/>
				
					<linearGradient id="SVGID_00000047746180081013407730000015079645662549739148_" gradientUnits="userSpaceOnUse" x1="2695.575" y1="1965.0758" x2="2568.1685" y2="2729.5168">
					<stop  offset="0" style="stop-color:#4F52FF"/>
					<stop  offset="1" style="stop-color:#4042E2"/>
				</linearGradient>
				<path style="fill:url(#SVGID_00000047746180081013407730000015079645662549739148_);" d="M2462.7,2173.162
					c82.605,55.596,249.413,147.249,351.34,112.344c10.317-3.533,21.208-8.133,31.874-2.959c9.215,4.47,14.616,15.041,11.917,25.002
					c-2.11,7.788-12.366,15.974-12.366,15.974c-20.954,19.04-55.21,28.912-81.554,33.664c-38.955,7.026-75.513,0.236-113.163-11.424
					c-38.167-11.821-136.832-61.817-168.562-85.938c-14.567-11.075-35.937-26.598-45.173-42.767
					C2428.597,2202.323,2457.157,2169.431,2462.7,2173.162z"/>
			</g>
			
				<linearGradient id="SVGID_00000083790353635320173420000009527982851100121267_" gradientUnits="userSpaceOnUse" x1="-3067.7952" y1="2019.4287" x2="-3074.9246" y2="1901.7932" gradientTransform="matrix(-1.0165 0.0776 -0.0776 1.3659 -175.4685 -217.4767)">
				<stop  offset="0" style="stop-color:#FEBBBA"/>
				<stop  offset="1" style="stop-color:#FF928E"/>
			</linearGradient>
			<path style="fill:url(#SVGID_00000083790353635320173420000009527982851100121267_);" d="M2758.357,2259.721
				c1.499,15.125,48.948,16.729,58.509,12.235c12.916-6.071,9.128-43.895,6.877-58.133c-1.307-8.268-0.852-51.374-0.693-53.328
				c0.471-5.779-2.721-9.422-6.5-10.232c-5.175-7.621-12.852-11.579-21.534-9.565
				C2770.177,2146.456,2755.581,2231.719,2758.357,2259.721z"/>
			<g>
				
					<linearGradient id="SVGID_00000060028878701135209330000017521000494754653834_" gradientUnits="userSpaceOnUse" x1="2278.8911" y1="1932.8027" x2="2448.0449" y2="1631.7659" gradientTransform="matrix(0.9947 0.1024 -0.1024 0.9947 645.8885 64.4233)">
					<stop  offset="0" style="stop-color:#FEBBBA"/>
					<stop  offset="1" style="stop-color:#FF928E"/>
				</linearGradient>
				<path style="fill:url(#SVGID_00000060028878701135209330000017521000494754653834_);" d="M2785.929,2059.262
					c0,0-31.757,9.717-56.978,51.563s-11.859,63.744,7.264,68.53c19.123,4.786,48.196,7.351,81.825-17.897
					C2851.67,2136.212,2827.06,2048.103,2785.929,2059.262z"/>
				
					<linearGradient id="SVGID_00000044147546571459970980000014795129212928872339_" gradientUnits="userSpaceOnUse" x1="2935.6123" y1="2548.6567" x2="2799.2649" y2="2036.7936">
					<stop  offset="0" style="stop-color:#09005D"/>
					<stop  offset="1" style="stop-color:#1A0F91"/>
				</linearGradient>
				<path style="fill:url(#SVGID_00000044147546571459970980000014795129212928872339_);" d="M2799.818,2135.855
					c0,0,29.586-61.976-27.38-68.611l-14.389,8c0,0-17.257-37.827,18.849-51.319c36.107-13.491,74.864,4.715,84.718,52.502
					c9.853,47.788,9.16,79.026-17.442,98.665c-26.602,19.639-34.04-6.501-34.04-6.501s15.377-19.347,11.126-30.983
					c-4.251-11.635-18.064,0.457-18.064,0.457L2799.818,2135.855z"/>
				
					<linearGradient id="SVGID_00000155107669584192507120000004632918256629917063_" gradientUnits="userSpaceOnUse" x1="2314.897" y1="1953.0364" x2="2484.0508" y2="1651.9994" gradientTransform="matrix(0.9947 0.1024 -0.1024 0.9947 645.8885 64.4233)">
					<stop  offset="0" style="stop-color:#FEBBBA"/>
					<stop  offset="1" style="stop-color:#FF928E"/>
				</linearGradient>
				<path style="fill:url(#SVGID_00000155107669584192507120000004632918256629917063_);" d="M2805.478,2143.68
					c0,0,15.022-31.948,29.15-17.154c14.127,14.794-15.74,29.32-27.311,33.829L2805.478,2143.68z"/>
			</g>
			
				<linearGradient id="SVGID_00000119813063346773462390000015817814667743664280_" gradientUnits="userSpaceOnUse" x1="2543.2966" y1="2028.1477" x2="2451.9326" y2="2149.6868">
				<stop  offset="0" style="stop-color:#FEBBBA"/>
				<stop  offset="1" style="stop-color:#FF928E"/>
			</linearGradient>
			<path style="fill:url(#SVGID_00000119813063346773462390000015817814667743664280_);" d="M2549.759,2074.116
				c-17.888-18.543-37.955-16.485-64.595-10.598c-5.739,1.268-10.989,4.264-14.99,8.569c-16.615,17.878-15.779,23.64-14.443,36.107
				c0.43,4.014,4.587,6.513,8.325,4.988l38.975-15.905l36.422-9.451L2549.759,2074.116z"/>
		</g>
	</g>
</g>
</svg>
