<svg id="svg" version="1.1" xmlns="http://www.w3.org/2000/svg" width="400" height="400"
    viewBox="0, 0, 400,400">
    <g id="svgg">
        <path id="path0"
            d="M47.699 211.341 C 47.534 211.593,47.349 243.525,47.287 282.300 L 47.175 352.800 164.787 352.800 L 282.400 352.800 282.400 316.756 L 282.400 280.712 280.900 280.950 C 277.253 281.528,266.588 281.693,262.490 281.234 C 255.860 280.492,248.191 278.941,246.305 277.961 C 245.923 277.762,245.259 277.600,244.829 277.600 C 244.399 277.600,243.936 277.420,243.800 277.200 C 243.664 276.980,243.237 276.800,242.852 276.800 C 242.466 276.800,241.405 276.440,240.494 276.000 C 239.584 275.560,238.679 275.200,238.483 275.200 C 237.619 275.200,228.308 270.158,224.356 267.550 C 216.107 262.106,201.620 247.261,200.496 243.100 C 200.392 242.715,200.178 242.400,200.021 242.400 C 199.452 242.400,192.800 228.609,192.800 227.428 C 192.800 227.109,192.620 226.736,192.400 226.600 C 192.180 226.464,192.000 225.913,192.000 225.376 C 192.000 224.839,191.820 224.400,191.600 224.400 C 191.380 224.400,191.200 223.871,191.200 223.224 C 191.200 222.577,191.020 221.936,190.800 221.800 C 190.580 221.664,190.400 220.933,190.400 220.176 C 190.400 219.419,190.220 218.800,190.000 218.800 C 189.780 218.800,189.600 217.990,189.600 217.000 C 189.600 216.010,189.420 215.200,189.200 215.200 C 188.980 215.200,188.800 214.300,188.800 213.200 C 188.800 212.100,188.665 211.182,188.500 211.161 C 185.777 210.806,47.931 210.982,47.699 211.341 M250.999 212.451 C 254.550 216.383,259.192 220.800,259.771 220.800 C 260.117 220.800,260.400 220.980,260.400 221.200 C 260.400 221.420,261.042 221.600,261.826 221.600 C 262.611 221.600,263.590 221.780,264.002 222.001 C 264.503 222.269,264.834 222.269,264.999 222.001 C 265.136 221.780,265.957 221.600,266.824 221.600 C 267.691 221.600,268.400 221.420,268.400 221.200 C 268.400 220.980,268.700 220.800,269.066 220.800 C 269.763 220.800,274.321 216.501,277.442 212.900 L 279.262 210.800 264.384 210.800 L 249.507 210.800 250.999 212.451 M168.705 234.353 C 169.087 234.548,169.925 234.953,170.566 235.253 C 172.029 235.939,175.200 239.072,175.200 239.832 C 175.200 240.144,175.380 240.400,175.600 240.400 C 175.820 240.400,176.000 240.749,176.000 241.176 C 176.000 241.603,176.180 242.064,176.400 242.200 C 176.620 242.336,176.800 244.046,176.800 246.000 C 176.800 247.954,176.620 249.664,176.400 249.800 C 176.180 249.936,176.000 250.397,176.000 250.824 C 176.000 251.251,175.820 251.600,175.600 251.600 C 175.380 251.600,175.200 251.856,175.200 252.168 C 175.200 252.908,171.708 256.400,170.968 256.400 C 170.656 256.400,170.400 256.580,170.400 256.800 C 170.400 257.020,170.051 257.200,169.624 257.200 C 169.197 257.200,168.736 257.380,168.600 257.600 C 168.439 257.860,158.937 258.000,141.400 258.000 C 123.863 258.000,114.361 257.860,114.200 257.600 C 114.064 257.380,113.603 257.200,113.176 257.200 C 112.749 257.200,112.400 257.020,112.400 256.800 C 112.400 256.580,112.144 256.400,111.832 256.400 C 111.092 256.400,107.600 252.908,107.600 252.168 C 107.600 251.856,107.420 251.600,107.200 251.600 C 106.980 251.600,106.800 251.251,106.800 250.824 C 106.800 250.397,106.620 249.936,106.400 249.800 C 106.180 249.664,106.000 247.954,106.000 246.000 C 106.000 244.046,106.180 242.336,106.400 242.200 C 106.620 242.064,106.800 241.603,106.800 241.176 C 106.800 240.749,106.980 240.400,107.200 240.400 C 107.420 240.400,107.600 240.144,107.600 239.832 C 107.600 239.092,111.092 235.600,111.832 235.600 C 112.144 235.600,112.400 235.420,112.400 235.200 C 112.400 234.980,112.749 234.800,113.176 234.800 C 113.603 234.800,114.064 234.620,114.200 234.400 C 114.513 233.893,167.711 233.848,168.705 234.353 "
            stroke="none" fill="#32cda4" fill-rule="evenodd"></path>
        <path id="path1"
            d="M148.913 47.644 C 140.928 50.714,138.892 60.989,145.079 66.998 C 146.457 68.336,147.105 68.715,150.119 69.944 C 152.247 70.811,177.784 70.556,180.285 69.642 C 190.755 65.815,191.000 51.526,180.661 47.657 C 177.253 46.382,152.223 46.372,148.913 47.644 M260.800 117.782 C 189.947 127.422,163.348 213.535,216.625 260.800 C 222.300 265.834,236.815 274.800,239.290 274.800 C 239.465 274.800,240.372 275.137,241.304 275.550 C 248.053 278.534,260.536 280.894,269.600 280.899 C 276.970 280.904,286.360 280.574,286.633 280.300 C 286.798 280.135,287.613 280.000,288.443 280.000 C 289.273 280.000,290.064 279.820,290.200 279.600 C 290.336 279.380,291.067 279.200,291.824 279.200 C 292.581 279.200,293.200 279.020,293.200 278.800 C 293.200 278.580,293.740 278.400,294.400 278.400 C 295.060 278.400,295.600 278.220,295.600 278.000 C 295.600 277.780,296.140 277.600,296.800 277.600 C 297.460 277.600,298.000 277.420,298.000 277.200 C 298.000 276.980,298.540 276.800,299.200 276.800 C 299.860 276.800,300.400 276.620,300.400 276.400 C 300.400 276.180,300.749 276.000,301.176 276.000 C 301.603 276.000,302.049 275.845,302.166 275.655 C 302.283 275.465,303.194 275.082,304.190 274.803 C 305.185 274.524,306.000 274.139,306.000 273.948 C 306.000 273.757,306.135 273.638,306.300 273.685 C 306.465 273.732,307.005 273.545,307.500 273.271 C 307.995 272.996,308.400 272.881,308.400 273.014 C 308.400 273.148,308.685 272.973,309.032 272.625 C 309.380 272.277,309.830 272.095,310.032 272.220 C 310.235 272.345,310.405 272.302,310.411 272.124 C 310.423 271.763,313.224 269.951,313.708 269.991 C 313.877 270.005,314.406 269.653,314.883 269.208 C 315.360 268.764,315.904 268.400,316.092 268.400 C 316.280 268.400,316.820 268.040,317.292 267.600 C 317.764 267.160,318.398 266.800,318.699 266.800 C 319.001 266.800,319.136 266.620,319.000 266.400 C 318.864 266.180,319.033 266.000,319.376 266.000 C 319.719 266.000,320.000 265.820,320.000 265.600 C 320.000 265.380,320.270 265.200,320.600 265.200 C 320.930 265.200,321.200 265.020,321.200 264.800 C 321.200 264.580,321.425 264.396,321.700 264.391 C 321.975 264.386,322.819 263.666,323.576 262.791 C 324.333 261.916,325.188 261.200,325.476 261.200 C 325.764 261.200,326.000 260.924,326.000 260.587 C 326.000 260.251,326.278 259.868,326.617 259.738 C 327.333 259.463,332.400 254.572,332.400 254.156 C 332.400 254.002,333.120 253.191,334.000 252.354 C 334.880 251.517,335.600 250.672,335.600 250.475 C 335.600 250.279,336.140 249.554,336.800 248.863 C 337.460 248.172,338.000 247.460,338.000 247.279 C 338.000 247.099,338.367 246.557,338.816 246.075 C 339.264 245.594,339.540 245.200,339.428 245.200 C 339.316 245.200,339.661 244.556,340.195 243.770 C 340.729 242.983,341.275 241.993,341.410 241.570 C 341.544 241.146,341.788 240.800,341.952 240.800 C 342.116 240.800,342.498 240.170,342.800 239.400 C 343.102 238.630,343.496 238.000,343.675 238.000 C 343.854 238.000,344.000 237.640,344.000 237.200 C 344.000 236.760,344.180 236.400,344.400 236.400 C 344.620 236.400,344.800 236.040,344.800 235.600 C 344.800 235.160,344.980 234.800,345.200 234.800 C 345.420 234.800,345.600 234.440,345.600 234.000 C 345.600 233.560,345.780 233.200,346.000 233.200 C 346.220 233.200,346.400 232.761,346.400 232.224 C 346.400 231.687,346.580 231.136,346.800 231.000 C 347.020 230.864,347.200 230.403,347.200 229.976 C 347.200 229.549,347.380 229.200,347.600 229.200 C 347.820 229.200,348.000 228.660,348.000 228.000 C 348.000 227.340,348.180 226.800,348.400 226.800 C 348.620 226.800,348.800 226.260,348.800 225.600 C 348.800 224.940,348.980 224.400,349.200 224.400 C 349.420 224.400,349.600 223.961,349.600 223.424 C 349.600 222.887,349.780 222.336,350.000 222.200 C 350.220 222.064,350.400 221.233,350.400 220.353 C 350.400 219.388,350.559 218.851,350.800 219.000 C 351.044 219.151,351.200 218.545,351.200 217.447 C 351.200 216.457,351.380 215.536,351.600 215.400 C 351.820 215.264,352.000 214.184,352.000 213.000 C 352.000 211.816,352.180 210.736,352.400 210.600 C 352.651 210.445,352.800 206.204,352.800 199.200 C 352.800 192.196,352.651 187.955,352.400 187.800 C 352.180 187.664,352.000 186.584,352.000 185.400 C 352.000 184.216,351.820 183.136,351.600 183.000 C 351.380 182.864,351.200 182.054,351.200 181.200 C 351.200 180.346,351.020 179.536,350.800 179.400 C 350.580 179.264,350.400 178.533,350.400 177.776 C 350.400 177.019,350.220 176.400,350.000 176.400 C 349.780 176.400,349.600 175.860,349.600 175.200 C 349.600 174.540,349.420 174.000,349.200 174.000 C 348.980 174.000,348.800 173.460,348.800 172.800 C 348.800 172.140,348.620 171.600,348.400 171.600 C 348.180 171.600,348.000 171.060,348.000 170.400 C 348.000 169.740,347.820 169.200,347.600 169.200 C 347.380 169.200,347.200 168.851,347.200 168.424 C 347.200 167.997,347.020 167.536,346.800 167.400 C 346.580 167.264,346.400 166.713,346.400 166.176 C 346.400 165.639,346.220 165.200,346.000 165.200 C 345.780 165.200,345.600 164.930,345.600 164.600 C 345.600 164.270,345.420 164.000,345.200 164.000 C 344.980 164.000,344.800 163.651,344.800 163.224 C 344.800 162.797,344.620 162.336,344.400 162.200 C 344.180 162.064,344.000 161.603,344.000 161.176 C 344.000 160.749,343.820 160.400,343.600 160.400 C 343.380 160.400,343.200 160.130,343.200 159.800 C 343.200 159.470,343.020 159.200,342.800 159.200 C 342.580 159.200,342.400 158.840,342.400 158.400 C 342.400 157.960,342.265 157.600,342.100 157.599 C 341.935 157.599,341.274 156.519,340.630 155.199 C 339.987 153.880,339.308 152.800,339.122 152.800 C 338.935 152.800,338.562 152.305,338.292 151.700 C 338.022 151.095,337.396 150.187,336.901 149.682 C 336.405 149.177,336.000 148.597,336.000 148.392 C 336.000 148.188,335.190 147.211,334.200 146.221 C 333.210 145.231,332.400 144.318,332.400 144.191 C 332.400 143.781,326.416 138.118,326.205 138.329 C 326.092 138.441,326.000 138.233,326.000 137.867 C 326.000 137.500,325.750 137.200,325.445 137.200 C 325.140 137.200,324.465 136.662,323.945 136.004 C 323.425 135.346,322.764 134.806,322.476 134.804 C 322.188 134.802,322.064 134.620,322.200 134.400 C 322.336 134.180,322.167 134.000,321.824 134.000 C 321.481 134.000,321.200 133.820,321.200 133.600 C 321.200 133.380,320.970 133.200,320.688 133.200 C 320.407 133.200,319.917 132.840,319.600 132.400 C 319.283 131.960,318.838 131.600,318.612 131.600 C 318.385 131.599,317.683 131.154,317.051 130.611 C 316.419 130.067,315.564 129.516,315.151 129.384 C 314.738 129.253,314.400 128.978,314.400 128.773 C 314.400 128.568,314.040 128.400,313.600 128.400 C 313.160 128.400,312.800 128.253,312.800 128.074 C 312.800 127.721,307.106 124.800,306.419 124.800 C 306.188 124.800,306.000 124.620,306.000 124.400 C 306.000 124.180,305.640 124.000,305.200 124.000 C 304.760 124.000,304.400 123.820,304.400 123.600 C 304.400 123.380,303.961 123.200,303.424 123.200 C 302.887 123.200,302.336 123.020,302.200 122.800 C 302.064 122.580,301.603 122.400,301.176 122.400 C 300.749 122.400,300.400 122.220,300.400 122.000 C 300.400 121.780,299.860 121.600,299.200 121.600 C 298.540 121.600,298.000 121.420,298.000 121.200 C 298.000 120.980,297.460 120.800,296.800 120.800 C 296.140 120.800,295.600 120.620,295.600 120.400 C 295.600 120.180,295.060 120.000,294.400 120.000 C 293.740 120.000,293.200 119.820,293.200 119.600 C 293.200 119.380,292.581 119.200,291.824 119.200 C 291.067 119.200,290.336 119.020,290.200 118.800 C 290.064 118.580,289.243 118.400,288.376 118.400 C 287.509 118.400,286.800 118.230,286.800 118.022 C 286.800 117.810,285.091 117.651,282.900 117.660 C 280.755 117.668,275.760 117.583,271.800 117.470 C 267.024 117.334,263.320 117.439,260.800 117.782 M113.338 141.784 C 103.472 146.270,104.525 160.345,114.963 163.494 C 117.312 164.203,165.488 164.203,167.837 163.494 C 178.126 160.390,179.397 146.580,169.815 142.007 L 167.286 140.800 141.343 140.823 L 115.400 140.846 113.338 141.784 M296.980 171.627 C 303.948 174.234,306.776 182.603,302.830 188.943 C 301.834 190.543,271.739 220.510,270.400 221.235 C 266.397 223.402,261.721 223.326,258.182 221.034 C 254.557 218.687,237.696 200.988,236.811 198.600 C 233.866 190.657,239.378 182.673,247.800 182.685 C 252.308 182.692,253.740 183.476,259.388 189.030 C 261.943 191.544,264.253 193.600,264.520 193.600 C 264.787 193.600,269.505 189.092,275.003 183.582 C 288.342 170.214,290.323 169.136,296.980 171.627 M103.200 188.081 C 102.650 188.316,101.652 188.745,100.983 189.034 C 94.436 191.858,92.836 201.842,98.081 207.140 C 99.642 208.717,100.269 209.100,103.319 210.344 C 105.509 211.237,154.168 210.962,156.685 210.042 C 167.288 206.167,167.322 192.246,156.738 188.377 C 154.247 187.467,105.272 187.196,103.200 188.081 M115.400 234.981 C 110.798 236.351,108.704 238.420,106.800 243.483 C 105.059 248.110,109.334 255.530,114.600 257.022 C 115.260 257.209,127.320 257.362,141.400 257.362 C 168.390 257.362,168.405 257.361,171.142 255.493 C 179.706 249.647,177.277 237.673,166.954 234.850 C 164.586 234.203,117.615 234.322,115.400 234.981 M47.340 362.700 C 47.508 372.226,47.776 375.414,48.442 375.826 C 48.639 375.948,48.800 376.397,48.800 376.824 C 48.800 377.251,48.980 377.600,49.200 377.600 C 49.420 377.600,49.600 378.140,49.600 378.800 C 49.600 379.460,49.735 380.001,49.900 380.003 C 50.237 380.007,51.200 381.925,51.200 382.591 C 51.200 382.829,51.560 383.283,52.000 383.600 C 52.440 383.917,52.800 384.457,52.800 384.800 C 52.800 385.143,53.160 385.683,53.600 386.000 C 54.040 386.317,54.400 386.785,54.400 387.040 C 54.400 387.839,59.188 392.400,60.027 392.400 C 60.258 392.400,60.336 392.580,60.200 392.800 C 60.064 393.020,60.233 393.200,60.576 393.200 C 60.919 393.200,61.200 393.380,61.200 393.600 C 61.200 393.820,61.481 394.000,61.824 394.000 C 62.167 394.000,62.336 394.180,62.200 394.400 C 62.064 394.620,62.257 394.800,62.629 394.800 C 63.002 394.800,63.629 395.172,64.023 395.626 C 64.417 396.081,64.849 396.428,64.982 396.398 C 65.415 396.301,67.600 397.386,67.600 397.698 C 67.600 397.864,68.140 398.000,68.800 398.000 C 69.460 398.000,70.000 398.141,70.000 398.313 C 70.000 399.856,257.386 400.841,257.900 399.300 C 257.992 399.025,258.401 398.800,258.810 398.800 C 259.218 398.800,259.664 398.620,259.800 398.400 C 259.936 398.180,260.487 398.000,261.024 398.000 C 261.561 398.000,262.000 397.820,262.000 397.600 C 262.000 397.380,262.345 397.200,262.767 397.200 C 263.188 397.200,263.593 397.033,263.667 396.830 C 263.740 396.626,264.070 396.401,264.400 396.330 C 264.730 396.258,265.291 395.885,265.647 395.500 C 266.003 395.115,266.522 394.800,266.800 394.800 C 267.078 394.800,267.609 394.451,267.978 394.025 C 268.348 393.599,268.905 393.194,269.217 393.125 C 270.006 392.951,275.200 387.708,275.200 387.085 C 275.200 386.806,275.560 386.317,276.000 386.000 C 276.440 385.683,276.800 385.143,276.800 384.800 C 276.800 384.457,277.160 383.917,277.600 383.600 C 278.040 383.283,278.400 382.703,278.400 382.312 C 278.400 381.920,278.580 381.600,278.800 381.600 C 279.020 381.600,279.200 381.240,279.200 380.800 C 279.200 380.360,279.380 380.000,279.600 380.000 C 279.820 380.000,280.000 379.460,280.000 378.800 C 280.000 378.140,280.180 377.600,280.400 377.600 C 280.620 377.600,280.800 377.251,280.800 376.824 C 280.800 376.397,280.980 375.936,281.200 375.800 C 281.420 375.664,281.600 374.933,281.600 374.176 C 281.600 373.419,281.780 372.800,282.000 372.800 C 282.256 372.800,282.400 369.267,282.400 363.000 L 282.400 353.200 164.786 353.200 L 47.172 353.200 47.340 362.700 "
            stroke="none" fill="#cdfcec" fill-rule="evenodd"></path>
        <path id="path2"
            d="M48.000 59.000 C 48.000 60.210,47.820 61.200,47.600 61.200 C 47.336 61.200,47.219 72.862,47.257 95.500 C 47.288 114.365,47.442 129.080,47.600 128.200 C 47.823 126.953,47.899 126.843,47.943 127.700 L 48.000 128.800 136.987 128.800 C 215.923 128.800,225.949 128.868,225.745 129.400 C 225.618 129.730,225.255 130.000,224.939 130.000 C 224.623 130.000,223.914 130.450,223.364 131.000 C 222.814 131.550,222.200 132.000,222.000 132.000 C 221.800 132.000,221.222 132.405,220.715 132.900 C 220.209 133.395,219.129 134.298,218.315 134.907 C 216.758 136.072,211.439 141.260,209.400 143.603 C 208.740 144.361,210.270 143.006,212.801 140.591 C 217.063 136.523,223.649 131.241,226.000 130.006 C 226.550 129.717,227.090 129.372,227.200 129.240 C 227.669 128.676,238.236 123.200,238.854 123.200 C 239.049 123.200,239.972 122.852,240.904 122.427 C 250.013 118.277,266.921 116.066,279.500 117.379 L 282.400 117.681 282.372 87.941 C 282.356 70.974,282.196 58.544,282.000 59.000 C 281.724 59.642,281.651 59.503,281.628 58.300 L 281.600 56.800 235.200 56.800 L 188.800 56.800 188.800 59.225 C 188.800 63.738,185.940 67.809,181.339 69.844 C 177.998 71.322,151.640 71.339,148.311 69.866 C 145.332 68.547,142.000 65.136,142.000 63.405 C 142.000 63.072,141.820 62.800,141.600 62.800 C 141.369 62.800,141.200 61.533,141.200 59.800 L 141.200 56.800 94.600 56.800 L 48.000 56.800 48.000 59.000 M114.000 140.800 C 114.000 141.301,114.424 141.301,115.200 140.800 C 115.685 140.486,115.628 140.411,114.900 140.406 C 114.405 140.403,114.000 140.580,114.000 140.800 M167.600 140.800 C 168.388 141.309,169.315 141.309,169.000 140.800 C 168.864 140.580,168.358 140.403,167.876 140.406 C 167.164 140.411,167.112 140.485,167.600 140.800 M110.000 143.068 C 109.144 143.940,109.120 144.026,109.833 143.665 C 110.772 143.190,111.883 141.987,111.349 142.024 C 111.157 142.037,110.550 142.507,110.000 143.068 M173.592 144.318 C 174.310 145.264,174.985 145.948,175.094 145.840 C 175.202 145.731,174.615 144.958,173.789 144.121 L 172.288 142.600 173.592 144.318 M108.060 145.042 C 107.762 145.378,107.599 145.732,107.695 145.829 C 107.792 145.926,108.198 145.644,108.598 145.202 C 108.997 144.761,109.161 144.407,108.962 144.415 C 108.763 144.424,108.357 144.705,108.060 145.042 M207.400 145.720 C 206.150 147.251,205.936 147.598,206.251 147.578 C 206.443 147.566,207.019 147.026,207.530 146.378 C 208.042 145.730,208.312 145.207,208.130 145.215 C 207.949 145.224,207.620 145.451,207.400 145.720 M204.800 149.000 C 204.506 149.550,204.115 150.000,203.932 150.000 C 203.750 150.000,203.600 150.255,203.600 150.567 C 203.600 150.878,203.458 151.193,203.286 151.267 C 202.892 151.434,201.576 153.305,200.380 155.400 C 196.933 161.437,196.744 162.202,200.042 156.768 C 201.166 154.915,202.968 152.185,204.047 150.700 C 205.126 149.215,205.857 148.000,205.672 148.000 C 205.487 148.000,205.094 148.450,204.800 149.000 M106.028 149.500 C 106.053 150.475,106.095 150.509,106.400 149.800 C 106.869 148.707,106.869 148.400,106.400 148.400 C 106.180 148.400,106.013 148.895,106.028 149.500 M176.028 148.700 C 176.138 149.873,176.746 150.526,176.772 149.500 C 176.787 148.895,176.620 148.400,176.400 148.400 C 176.180 148.400,176.013 148.535,176.028 148.700 M106.000 154.910 C 106.000 155.483,106.187 156.068,106.416 156.210 C 106.689 156.379,106.738 156.077,106.560 155.334 C 106.192 153.801,106.000 153.656,106.000 154.910 M176.454 154.467 C 176.425 154.834,176.284 155.464,176.141 155.867 C 175.941 156.433,175.995 156.496,176.375 156.146 C 176.646 155.897,176.787 155.267,176.688 154.746 C 176.590 154.226,176.484 154.100,176.454 154.467 M107.604 158.673 C 107.599 159.253,111.194 162.802,111.779 162.796 C 112.011 162.793,111.622 162.336,110.916 161.779 C 110.210 161.223,109.177 160.190,108.621 159.484 C 108.064 158.778,107.607 158.413,107.604 158.673 M172.924 160.644 C 171.782 161.830,171.003 162.800,171.192 162.800 C 171.655 162.800,175.200 159.234,175.200 158.768 C 175.200 158.267,175.261 158.217,172.924 160.644 M112.400 163.012 C 112.400 164.542,165.408 165.275,168.951 163.795 C 170.929 162.968,170.785 162.700,168.750 163.418 C 167.371 163.904,162.873 164.000,141.400 164.000 C 119.927 164.000,115.429 163.904,114.050 163.418 C 113.143 163.098,112.400 162.915,112.400 163.012 M286.600 172.759 C 285.940 173.175,283.150 175.827,280.400 178.651 L 275.400 183.787 280.800 178.574 C 283.770 175.707,286.650 173.064,287.200 172.701 C 288.593 171.783,288.069 171.833,286.600 172.759 M300.017 173.699 C 300.008 173.864,300.630 174.666,301.400 175.482 C 302.170 176.299,302.800 177.189,302.800 177.460 C 302.800 177.731,302.963 178.054,303.163 178.177 C 303.362 178.300,303.440 178.073,303.335 177.671 C 303.130 176.891,300.046 173.197,300.017 173.699 M191.467 174.667 C 191.320 174.813,191.211 175.308,191.225 175.767 C 191.249 176.533,191.282 176.523,191.634 175.642 C 192.026 174.663,191.944 174.189,191.467 174.667 M190.649 177.815 C 190.512 178.173,190.415 178.766,190.434 179.133 C 190.453 179.500,190.627 179.269,190.821 178.620 C 191.198 177.358,191.065 176.733,190.649 177.815 M303.800 182.600 C 303.800 184.716,303.917 186.032,304.060 185.524 C 304.203 185.016,304.320 183.700,304.320 182.600 C 304.320 181.500,304.203 180.184,304.060 179.676 C 303.917 179.168,303.800 180.484,303.800 182.600 M189.849 181.015 C 189.712 181.373,189.618 182.056,189.641 182.533 C 189.667 183.081,189.803 182.886,190.010 182.003 C 190.360 180.516,190.265 179.933,189.849 181.015 M244.538 183.106 C 244.284 183.268,245.752 183.400,247.800 183.400 C 249.848 183.400,251.316 183.268,251.062 183.106 C 250.808 182.944,249.340 182.812,247.800 182.812 C 246.260 182.812,244.792 182.944,244.538 183.106 M241.360 184.741 C 240.502 185.369,239.444 186.314,239.009 186.841 C 238.519 187.434,238.748 187.319,239.609 186.540 C 240.374 185.847,241.630 184.902,242.400 184.441 C 243.170 183.980,243.602 183.602,243.360 183.601 C 243.118 183.601,242.218 184.114,241.360 184.741 M253.000 184.266 C 253.660 184.615,254.515 185.175,254.900 185.512 C 255.285 185.849,255.598 185.961,255.595 185.762 C 255.589 185.300,252.975 183.595,252.306 183.616 C 252.028 183.625,252.340 183.917,253.000 184.266 M189.056 184.884 C 188.921 185.388,188.831 186.430,188.855 187.200 C 188.889 188.269,188.975 188.080,189.218 186.402 C 189.553 184.092,189.472 183.333,189.056 184.884 M256.000 186.118 C 256.000 186.285,256.782 187.181,257.738 188.111 C 264.585 194.766,264.273 194.514,265.056 194.014 C 265.768 193.560,265.767 193.550,265.024 193.787 C 264.420 193.979,263.332 193.122,260.124 189.924 C 257.856 187.664,256.000 185.951,256.000 186.118 M103.338 187.506 C 103.084 187.668,114.992 187.800,129.800 187.800 C 144.608 187.800,156.516 187.668,156.262 187.506 C 156.008 187.344,144.100 187.212,129.800 187.212 C 115.500 187.212,103.592 187.344,103.338 187.506 M301.904 189.244 C 301.301 190.100,300.887 190.800,300.983 190.800 C 301.269 190.800,303.326 187.992,303.156 187.833 C 303.070 187.754,302.507 188.388,301.904 189.244 M158.800 189.035 C 159.790 189.598,161.045 190.451,161.588 190.930 C 162.371 191.619,162.454 191.640,161.988 191.032 C 161.320 190.158,158.060 187.998,157.422 188.005 C 157.190 188.007,157.810 188.471,158.800 189.035 M97.874 190.674 C 96.843 191.704,96.002 192.739,96.004 192.974 C 96.007 193.208,96.464 192.822,97.021 192.116 C 97.577 191.410,98.610 190.377,99.316 189.821 C 100.022 189.264,100.408 188.807,100.174 188.804 C 99.939 188.802,98.904 189.643,97.874 190.674 M188.166 198.800 C 188.166 202.870,188.225 204.535,188.298 202.500 C 188.371 200.465,188.371 197.135,188.298 195.100 C 188.225 193.065,188.166 194.730,188.166 198.800 M236.213 193.300 C 236.083 194.235,236.133 195.540,236.325 196.200 C 236.598 197.141,236.668 196.775,236.653 194.500 C 236.630 191.163,236.543 190.924,236.213 193.300 M162.730 192.500 C 163.021 192.860,163.598 194.019,164.011 195.077 C 164.424 196.135,164.767 196.730,164.773 196.400 C 164.787 195.508,163.365 192.548,162.742 192.173 C 162.290 191.901,162.288 191.955,162.730 192.500 M164.920 199.200 C 164.920 200.410,164.995 200.905,165.087 200.300 C 165.178 199.695,165.178 198.705,165.087 198.100 C 164.995 197.495,164.920 197.990,164.920 199.200 M287.392 204.100 L 283.400 208.200 287.500 204.208 C 289.755 202.012,291.600 200.167,291.600 200.108 C 291.600 199.818,291.101 200.292,287.392 204.100 M94.406 201.433 C 94.409 201.855,94.595 202.470,94.818 202.800 C 95.115 203.238,95.152 203.076,94.956 202.200 C 94.627 200.729,94.398 200.410,94.406 201.433 M247.400 210.334 C 252.460 215.459,257.140 220.033,257.800 220.497 C 258.460 220.961,258.910 221.264,258.800 221.170 C 258.690 221.076,254.010 216.503,248.400 211.007 L 238.200 201.014 247.400 210.334 M96.317 205.800 C 96.545 206.240,97.332 207.140,98.066 207.799 L 99.400 208.998 98.001 207.399 C 97.232 206.520,96.445 205.620,96.252 205.400 C 96.060 205.180,96.089 205.360,96.317 205.800 M188.901 211.000 C 188.905 211.880,188.987 212.193,189.083 211.695 C 189.179 211.198,189.175 210.478,189.075 210.095 C 188.975 209.713,188.896 210.120,188.901 211.000 M116.929 211.100 C 124.150 211.161,135.850 211.161,142.929 211.100 C 150.008 211.039,144.100 210.989,129.800 210.989 C 115.500 210.989,109.708 211.039,116.929 211.100 M273.600 217.800 C 271.961 219.450,270.710 220.800,270.820 220.800 C 270.930 220.800,272.361 219.450,274.000 217.800 C 275.639 216.150,276.890 214.800,276.780 214.800 C 276.670 214.800,275.239 216.150,273.600 217.800 M190.406 219.033 C 190.409 219.455,190.595 220.070,190.818 220.400 C 191.115 220.838,191.152 220.676,190.956 219.800 C 190.627 218.329,190.398 218.010,190.406 219.033 M191.206 221.833 C 191.209 222.255,191.395 222.870,191.618 223.200 C 191.915 223.638,191.952 223.476,191.756 222.600 C 191.427 221.129,191.198 220.810,191.206 221.833 M263.905 222.683 C 264.402 222.779,265.122 222.775,265.505 222.675 C 265.887 222.575,265.480 222.496,264.600 222.501 C 263.720 222.505,263.407 222.587,263.905 222.683 M106.120 246.000 C 106.120 247.210,106.195 247.705,106.287 247.100 C 106.378 246.495,106.378 245.505,106.287 244.900 C 106.195 244.295,106.120 244.790,106.120 246.000 M176.520 246.000 C 176.520 247.210,176.595 247.705,176.687 247.100 C 176.778 246.495,176.778 245.505,176.687 244.900 C 176.595 244.295,176.520 244.790,176.520 246.000 M203.600 247.200 C 204.070 247.860,204.544 248.400,204.654 248.400 C 204.764 248.400,204.470 247.860,204.000 247.200 C 203.530 246.540,203.056 246.000,202.946 246.000 C 202.836 246.000,203.130 246.540,203.600 247.200 M212.000 257.000 C 214.081 259.090,215.874 260.800,215.984 260.800 C 216.094 260.800,214.481 259.090,212.400 257.000 C 210.319 254.910,208.526 253.200,208.416 253.200 C 208.306 253.200,209.919 254.910,212.000 257.000 M128.729 257.900 C 135.840 257.961,147.360 257.961,154.329 257.900 C 161.298 257.838,155.480 257.788,141.400 257.788 C 127.320 257.788,121.618 257.839,128.729 257.900 M255.600 280.000 C 256.968 280.438,258.019 280.438,257.000 280.000 C 256.560 279.811,255.840 279.662,255.400 279.668 C 254.757 279.677,254.796 279.743,255.600 280.000 M263.105 281.083 C 263.602 281.179,264.322 281.175,264.705 281.075 C 265.087 280.975,264.680 280.896,263.800 280.901 C 262.920 280.905,262.607 280.987,263.105 281.083 M276.100 281.076 C 276.485 281.176,277.115 281.176,277.500 281.076 C 277.885 280.975,277.570 280.893,276.800 280.893 C 276.030 280.893,275.715 280.975,276.100 281.076 "
            stroke="none" fill="#77eeaa" fill-rule="evenodd"></path>
        <path id="path3"
            d="M73.700 0.287 C 72.985 0.377,72.400 0.619,72.400 0.825 C 72.400 1.031,71.860 1.200,71.200 1.200 C 70.540 1.200,70.000 1.380,70.000 1.600 C 70.000 1.820,69.657 2.000,69.238 2.000 C 68.422 2.000,65.088 3.601,64.867 4.100 C 64.793 4.265,64.478 4.400,64.167 4.400 C 63.855 4.400,63.600 4.580,63.600 4.800 C 63.600 5.020,63.375 5.203,63.100 5.207 C 61.673 5.228,52.828 14.073,52.807 15.500 C 52.803 15.775,52.650 16.000,52.467 16.000 C 52.005 16.000,49.600 20.744,49.600 21.656 C 49.600 22.065,49.420 22.400,49.200 22.400 C 48.980 22.400,48.800 22.940,48.800 23.600 C 48.800 24.260,48.620 24.800,48.400 24.800 C 48.180 24.800,48.000 25.419,48.000 26.176 C 48.000 26.933,47.828 27.659,47.617 27.790 C 47.075 28.124,47.051 61.200,47.592 61.200 C 47.820 61.200,48.000 60.228,48.000 58.997 L 48.000 56.793 94.774 56.897 L 141.549 57.000 141.785 55.740 C 142.411 52.401,145.494 48.946,149.027 47.624 C 152.469 46.337,177.200 46.362,180.661 47.657 C 191.000 51.526,190.755 65.815,180.285 69.642 C 177.784 70.556,152.247 70.811,150.119 69.944 C 147.105 68.715,146.457 68.336,145.079 66.998 C 143.422 65.389,142.169 63.173,141.635 60.906 L 141.280 59.400 141.240 61.100 C 141.218 62.035,141.380 62.800,141.600 62.800 C 141.820 62.800,142.000 63.072,142.000 63.405 C 142.000 65.136,145.332 68.547,148.311 69.866 C 151.640 71.339,177.998 71.322,181.339 69.844 C 185.940 67.809,188.800 63.738,188.800 59.225 L 188.800 56.800 235.200 56.800 L 281.600 56.800 281.628 58.300 C 281.651 59.503,281.724 59.642,282.000 59.000 C 282.498 57.840,282.498 28.108,282.000 27.800 C 281.780 27.664,281.600 26.933,281.600 26.176 C 281.600 25.419,281.459 24.800,281.287 24.800 C 281.115 24.800,280.740 23.945,280.453 22.900 C 279.877 20.802,278.369 17.475,277.900 17.267 C 277.735 17.193,277.600 16.878,277.600 16.567 C 277.600 16.255,277.420 16.000,277.200 16.000 C 276.980 16.000,276.800 15.680,276.800 15.288 C 276.800 14.897,276.440 14.317,276.000 14.000 C 275.560 13.683,275.200 13.264,275.200 13.070 C 275.200 12.480,270.299 7.600,269.706 7.600 C 269.402 7.600,269.264 7.420,269.400 7.200 C 269.536 6.980,269.406 6.800,269.112 6.800 C 268.817 6.800,268.317 6.440,268.000 6.000 C 267.683 5.560,267.103 5.200,266.712 5.200 C 266.320 5.200,266.000 5.020,266.000 4.800 C 266.000 4.580,265.730 4.400,265.400 4.400 C 265.070 4.400,264.800 4.220,264.800 4.000 C 264.800 3.780,264.530 3.600,264.200 3.600 C 263.870 3.600,263.600 3.420,263.600 3.200 C 263.600 2.980,263.251 2.800,262.824 2.800 C 262.397 2.800,261.936 2.620,261.800 2.400 C 261.664 2.180,261.113 2.000,260.576 2.000 C 260.039 2.000,259.600 1.820,259.600 1.600 C 259.600 1.380,259.186 1.200,258.680 1.200 C 258.174 1.200,257.535 0.975,257.260 0.700 C 256.783 0.223,77.411 -0.181,73.700 0.287 M269.300 117.087 C 269.905 117.178,270.895 117.178,271.500 117.087 C 272.105 116.995,271.610 116.920,270.400 116.920 C 269.190 116.920,268.695 116.995,269.300 117.087 M259.600 117.600 C 257.975 117.853,257.936 117.882,259.200 117.905 C 259.970 117.919,261.500 117.790,262.600 117.618 C 264.492 117.324,264.513 117.307,263.000 117.314 C 262.120 117.317,260.590 117.446,259.600 117.600 M277.800 117.618 C 280.644 118.061,282.788 118.030,280.600 117.577 C 279.720 117.395,278.280 117.260,277.400 117.276 C 275.833 117.306,275.841 117.313,277.800 117.618 M254.600 118.400 L 253.400 118.705 254.600 118.725 C 255.260 118.735,256.160 118.589,256.600 118.400 L 257.400 118.056 256.600 118.075 C 256.160 118.086,255.260 118.232,254.600 118.400 M251.000 119.200 C 249.911 119.477,249.893 119.507,250.800 119.525 C 251.350 119.535,252.160 119.389,252.600 119.200 C 253.586 118.776,252.666 118.776,251.000 119.200 M248.000 120.000 C 247.176 120.264,247.141 120.326,247.800 120.354 C 248.240 120.373,248.870 120.213,249.200 120.000 C 249.901 119.547,249.414 119.547,248.000 120.000 M244.129 121.130 C 242.991 121.503,241.931 121.936,241.775 122.092 C 241.619 122.248,242.101 122.187,242.846 121.957 C 243.591 121.727,244.785 121.364,245.500 121.151 C 246.215 120.937,246.800 120.681,246.800 120.581 C 246.800 120.307,246.387 120.392,244.129 121.130 M237.293 123.780 C 236.047 124.468,235.656 124.906,236.612 124.543 C 238.103 123.975,239.399 123.205,238.800 123.242 C 238.470 123.262,237.792 123.504,237.293 123.780 M233.900 125.429 C 232.349 126.270,232.525 126.561,234.100 125.759 C 235.608 124.993,235.875 124.794,235.367 124.816 C 235.165 124.825,234.505 125.101,233.900 125.429 M229.200 128.033 L 228.200 128.848 229.500 128.214 C 230.215 127.865,230.800 127.494,230.800 127.390 C 230.800 126.992,230.163 127.248,229.200 128.033 M224.669 130.837 C 223.642 131.518,222.689 132.256,222.552 132.477 C 222.350 132.804,226.188 130.334,226.767 129.764 C 227.286 129.253,226.297 129.759,224.669 130.837 M220.385 134.029 L 219.000 135.258 220.500 134.181 C 221.826 133.230,222.257 132.800,221.885 132.800 C 221.822 132.800,221.147 133.353,220.385 134.029 M214.292 139.205 C 211.967 141.408,209.305 144.153,208.376 145.305 C 207.217 146.743,207.527 146.495,209.363 144.516 C 210.834 142.929,213.604 140.186,215.519 138.419 C 217.434 136.653,218.892 135.206,218.759 135.204 C 218.627 135.202,216.617 137.002,214.292 139.205 M128.529 140.700 C 135.750 140.761,147.450 140.761,154.529 140.700 C 161.608 140.639,155.700 140.589,141.400 140.589 C 127.100 140.589,121.308 140.639,128.529 140.700 M170.433 142.116 C 170.525 142.180,171.320 142.733,172.200 143.345 L 173.800 144.458 172.415 143.229 C 171.653 142.553,170.858 142.000,170.648 142.000 C 170.438 142.000,170.342 142.052,170.433 142.116 M106.114 152.200 C 106.117 153.300,106.195 153.703,106.287 153.095 C 106.379 152.486,106.377 151.586,106.282 151.095 C 106.187 150.603,106.111 151.100,106.114 152.200 M176.514 152.200 C 176.517 153.300,176.595 153.703,176.687 153.095 C 176.779 152.486,176.777 151.586,176.682 151.095 C 176.587 150.603,176.511 151.100,176.514 152.200 M202.487 152.900 C 201.027 155.056,200.712 155.600,200.920 155.600 C 201.012 155.600,201.744 154.610,202.547 153.400 C 203.351 152.190,203.925 151.200,203.823 151.200 C 203.722 151.200,203.120 151.965,202.487 152.900 M291.500 171.089 C 292.215 171.178,293.385 171.178,294.100 171.089 C 294.815 171.001,294.230 170.928,292.800 170.928 C 291.370 170.928,290.785 171.001,291.500 171.089 M275.197 183.500 L 265.000 193.800 275.300 183.603 C 284.871 174.127,285.780 173.200,285.497 173.200 C 285.440 173.200,280.805 177.835,275.197 183.500 M304.514 182.600 C 304.517 183.700,304.595 184.103,304.687 183.495 C 304.779 182.886,304.777 181.986,304.682 181.495 C 304.587 181.003,304.511 181.500,304.514 182.600 M239.375 186.100 L 238.200 187.400 239.500 186.225 C 240.215 185.579,240.800 184.994,240.800 184.925 C 240.800 184.616,240.470 184.888,239.375 186.100 M287.598 204.300 L 273.000 219.000 287.700 204.402 C 295.785 196.373,302.400 189.758,302.400 189.702 C 302.400 189.420,301.165 190.638,287.598 204.300 M188.493 192.400 C 188.493 193.170,188.575 193.485,188.676 193.100 C 188.776 192.715,188.776 192.085,188.676 191.700 C 188.575 191.315,188.493 191.630,188.493 192.400 M94.514 199.000 C 94.517 200.100,94.595 200.503,94.687 199.895 C 94.779 199.286,94.777 198.386,94.682 197.895 C 94.587 197.403,94.511 197.900,94.514 199.000 M240.600 204.000 C 241.906 205.320,243.065 206.400,243.175 206.400 C 243.285 206.400,242.306 205.320,241.000 204.000 C 239.694 202.680,238.535 201.600,238.425 201.600 C 238.315 201.600,239.294 202.680,240.600 204.000 M188.493 205.600 C 188.493 206.370,188.575 206.685,188.676 206.300 C 188.776 205.915,188.776 205.285,188.676 204.900 C 188.575 204.515,188.493 204.830,188.493 205.600 M249.000 212.400 C 251.192 214.600,253.075 216.400,253.185 216.400 C 253.295 216.400,251.592 214.600,249.400 212.400 C 247.208 210.200,245.325 208.400,245.215 208.400 C 245.105 208.400,246.808 210.200,249.000 212.400 M265.905 281.083 C 266.402 281.179,267.122 281.175,267.505 281.075 C 267.887 280.975,267.480 280.896,266.600 280.901 C 265.720 280.905,265.407 280.987,265.905 281.083 M273.100 281.082 C 273.595 281.178,274.405 281.178,274.900 281.082 C 275.395 280.987,274.990 280.909,274.000 280.909 C 273.010 280.909,272.605 280.987,273.100 281.082 "
            stroke="none" fill="#92faac" fill-rule="evenodd"></path>
        <path id="path4"
            d="M47.498 128.800 C 47.338 130.010,47.236 150.170,47.273 173.600 C 47.309 197.030,47.442 215.030,47.569 213.600 L 47.800 211.000 75.956 211.000 C 95.369 211.000,103.688 210.876,102.748 210.600 C 94.263 208.111,91.535 196.996,97.857 190.676 C 99.272 189.261,99.897 188.888,102.919 187.656 C 103.717 187.331,111.445 187.200,129.862 187.200 L 155.686 187.200 158.254 188.426 C 165.806 192.030,167.399 201.895,161.374 207.747 C 159.967 209.113,159.090 209.633,156.490 210.646 C 155.938 210.860,162.135 211.000,172.217 211.000 L 188.855 211.000 188.527 208.600 C 187.477 200.898,188.335 187.474,190.407 179.200 C 190.655 178.210,190.955 176.813,191.073 176.096 C 191.192 175.379,191.449 174.694,191.644 174.573 C 191.840 174.452,192.000 174.001,192.000 173.571 C 192.000 173.141,192.180 172.432,192.400 171.995 C 192.620 171.558,192.980 170.842,193.200 170.405 C 193.420 169.968,193.600 169.433,193.600 169.215 C 193.600 168.317,198.219 158.807,199.660 156.738 C 200.067 156.154,200.400 155.557,200.400 155.410 C 200.400 155.020,202.897 151.423,203.277 151.267 C 203.455 151.193,203.600 150.955,203.600 150.738 C 203.600 150.521,203.825 150.114,204.100 149.835 C 204.375 149.555,205.050 148.734,205.600 148.009 C 208.216 144.563,215.613 136.930,218.250 134.956 C 219.099 134.320,220.209 133.395,220.715 132.900 C 221.222 132.405,221.800 132.000,222.000 132.000 C 222.200 132.000,222.814 131.550,223.364 131.000 C 223.914 130.450,224.623 130.000,224.939 130.000 C 225.255 130.000,225.618 129.730,225.745 129.400 C 225.949 128.868,215.926 128.800,137.014 128.800 L 48.053 128.800 47.921 127.700 C 47.832 126.964,47.692 127.329,47.498 128.800 M170.062 141.296 C 172.819 142.718,176.000 146.199,176.000 147.795 C 176.000 148.128,176.180 148.400,176.400 148.400 C 176.638 148.400,176.800 149.925,176.800 152.176 C 176.800 154.263,176.621 156.063,176.400 156.200 C 176.180 156.336,176.000 156.797,176.000 157.224 C 176.000 157.651,175.820 158.000,175.600 158.000 C 175.380 158.000,175.200 158.248,175.200 158.552 C 175.200 159.549,172.086 162.337,169.809 163.379 L 167.576 164.400 141.400 164.400 L 115.224 164.400 113.109 163.433 C 110.867 162.407,107.600 159.523,107.600 158.569 C 107.600 158.256,107.420 158.000,107.200 158.000 C 106.980 158.000,106.800 157.651,106.800 157.224 C 106.800 156.797,106.620 156.336,106.400 156.200 C 106.179 156.063,106.000 154.263,106.000 152.176 C 106.000 149.925,106.162 148.400,106.400 148.400 C 106.620 148.400,106.800 148.128,106.800 147.795 C 106.800 145.910,111.510 141.200,113.395 141.200 C 113.728 141.200,114.000 141.020,114.000 140.800 C 114.000 140.537,123.321 140.400,141.162 140.400 L 168.324 140.400 170.062 141.296 M290.200 171.600 C 290.064 171.820,289.594 172.000,289.155 172.000 C 287.724 172.000,285.669 173.782,275.129 184.163 C 269.412 189.794,264.615 194.396,264.468 194.391 C 264.320 194.386,262.040 192.289,259.400 189.732 C 253.674 184.186,251.929 183.206,247.800 183.213 C 239.677 183.227,234.229 191.496,237.398 199.000 C 238.859 202.458,260.400 223.248,260.400 221.200 C 260.400 220.980,260.105 220.800,259.745 220.800 C 259.385 220.800,256.943 218.595,254.318 215.900 L 249.546 211.000 256.973 210.891 C 261.058 210.831,267.756 210.831,271.858 210.891 L 279.316 211.000 274.582 215.900 C 271.955 218.620,269.526 220.800,269.124 220.800 C 268.726 220.800,268.400 220.980,268.400 221.200 C 268.400 222.813,271.036 220.459,286.478 205.056 C 303.700 187.879,303.796 187.756,303.798 182.800 C 303.801 177.633,299.974 172.000,296.462 172.000 C 296.014 172.000,295.536 171.820,295.400 171.600 C 295.264 171.380,294.094 171.200,292.800 171.200 C 291.506 171.200,290.336 171.380,290.200 171.600 M188.840 213.700 C 188.818 214.525,188.980 215.200,189.200 215.200 C 189.658 215.200,189.658 214.630,189.200 213.200 C 188.914 212.308,188.875 212.361,188.840 213.700 M189.628 217.500 C 189.613 218.215,189.780 218.800,190.000 218.800 C 190.475 218.800,190.475 218.105,190.000 217.000 C 189.712 216.330,189.652 216.411,189.628 217.500 M190.406 220.676 C 190.403 221.158,190.580 221.664,190.800 221.800 C 191.309 222.115,191.309 221.188,190.800 220.400 C 190.485 219.912,190.411 219.964,190.406 220.676 M261.600 222.000 C 261.930 222.213,262.740 222.388,263.400 222.388 C 264.321 222.388,264.460 222.297,264.000 222.000 C 263.670 221.787,262.860 221.612,262.200 221.612 C 261.279 221.612,261.140 221.703,261.600 222.000 M265.000 222.000 C 264.702 222.483,266.277 222.483,267.400 222.000 C 268.045 221.723,267.913 221.651,266.724 221.628 C 265.912 221.613,265.136 221.780,265.000 222.000 M191.206 223.500 C 191.203 223.995,191.380 224.400,191.600 224.400 C 192.101 224.400,192.101 223.976,191.600 223.200 C 191.286 222.715,191.211 222.772,191.206 223.500 M194.400 231.862 C 194.400 232.239,199.598 242.144,199.926 242.392 C 200.078 242.507,200.454 243.090,200.762 243.689 C 201.071 244.288,201.841 245.368,202.474 246.089 C 203.106 246.810,202.484 245.600,201.092 243.400 C 199.699 241.200,197.692 237.645,196.632 235.500 C 194.855 231.905,194.400 231.164,194.400 231.862 M114.200 234.400 C 114.064 234.620,113.603 234.800,113.176 234.800 C 112.749 234.800,112.400 234.982,112.400 235.205 C 112.400 235.442,113.002 235.359,113.849 235.005 C 115.092 234.486,119.004 234.400,141.437 234.400 L 167.577 234.400 169.701 235.339 C 171.014 235.920,172.469 237.010,173.513 238.196 C 174.441 239.250,175.200 239.922,175.200 239.688 C 175.200 239.043,171.888 235.873,170.566 235.253 C 169.925 234.953,169.087 234.548,168.705 234.353 C 167.711 233.848,114.513 233.893,114.200 234.400 M109.432 237.432 C 108.424 238.439,107.600 239.461,107.600 239.704 C 107.600 239.946,108.243 239.393,109.029 238.474 C 109.815 237.556,110.846 236.533,111.318 236.202 C 111.791 235.871,111.972 235.600,111.721 235.600 C 111.469 235.600,110.439 236.424,109.432 237.432 M106.267 242.267 C 106.120 242.413,106.011 242.908,106.025 243.367 C 106.049 244.133,106.082 244.123,106.434 243.242 C 106.826 242.263,106.744 241.789,106.267 242.267 M176.028 242.276 C 176.118 243.315,176.744 244.196,176.772 243.324 C 176.787 242.842,176.620 242.336,176.400 242.200 C 176.180 242.064,176.013 242.098,176.028 242.276 M204.077 248.327 C 205.758 250.664,207.845 253.168,208.124 253.183 C 208.302 253.192,207.411 251.940,206.144 250.400 C 203.988 247.779,202.896 246.684,204.077 248.327 M106.028 248.676 C 106.013 249.158,106.180 249.664,106.400 249.800 C 106.873 250.092,106.873 249.701,106.400 248.600 C 106.069 247.829,106.055 247.831,106.028 248.676 M176.446 248.267 C 176.421 248.524,176.284 249.064,176.141 249.467 C 175.940 250.036,175.994 250.097,176.379 249.742 C 176.652 249.491,176.789 248.951,176.684 248.542 C 176.579 248.134,176.472 248.010,176.446 248.267 M107.613 252.256 C 107.631 252.744,108.757 254.176,108.961 253.971 C 109.055 253.877,108.787 253.375,108.366 252.856 C 107.945 252.336,107.606 252.066,107.613 252.256 M212.400 257.800 C 213.817 259.230,215.067 260.400,215.177 260.400 C 215.287 260.400,214.217 259.230,212.800 257.800 C 211.383 256.370,210.133 255.200,210.023 255.200 C 209.913 255.200,210.983 256.370,212.400 257.800 M114.200 257.600 C 114.336 257.820,114.842 257.987,115.324 257.972 C 116.169 257.945,116.171 257.931,115.400 257.600 C 114.299 257.127,113.908 257.127,114.200 257.600 M167.400 257.600 C 166.629 257.931,166.631 257.945,167.476 257.972 C 167.958 257.987,168.464 257.820,168.600 257.600 C 168.892 257.127,168.501 257.127,167.400 257.600 M215.633 260.900 C 215.725 260.955,216.340 261.450,217.000 262.000 L 218.200 263.000 217.230 261.900 C 216.697 261.295,216.082 260.800,215.864 260.800 C 215.645 260.800,215.542 260.845,215.633 260.900 M221.470 265.483 C 222.168 266.097,223.338 266.941,224.070 267.357 C 225.877 268.385,225.074 267.662,222.400 265.854 C 220.810 264.779,220.552 264.676,221.470 265.483 M248.800 278.794 C 249.130 279.011,249.835 279.191,250.367 279.194 C 251.651 279.202,251.325 278.975,249.600 278.658 C 248.615 278.477,248.378 278.518,248.800 278.794 M257.905 280.683 C 258.402 280.779,259.122 280.775,259.505 280.675 C 259.887 280.575,259.480 280.496,258.600 280.501 C 257.720 280.505,257.407 280.587,257.905 280.683 M267.100 281.498 C 268.915 281.572,271.885 281.572,273.700 281.498 C 275.515 281.423,274.030 281.363,270.400 281.363 C 266.770 281.363,265.285 281.423,267.100 281.498 M105.900 353.100 C 138.295 353.156,191.305 353.156,223.700 353.100 C 256.095 353.044,229.590 352.997,164.800 352.997 C 100.010 352.997,73.505 353.044,105.900 353.100 "
            stroke="none" fill="#57dea4" fill-rule="evenodd"></path>
    </g>
</svg>