<svg width="13" height="16" viewBox="0 0 13 16" fill="none" xmlns="http://www.w3.org/2000/svg">
<path d="M10.697 14.9472C9.87459 15.7443 8.97671 15.6185 8.1124 15.2408C7.19773 14.8548 6.35859 14.8381 5.39358 15.2408C4.18521 15.7611 3.54746 15.6101 2.8258 14.9472C-1.26921 10.7263 -0.665028 4.29844 3.98382 4.06348C5.11666 4.12222 5.90545 4.68444 6.56837 4.73479C7.55856 4.5334 8.50679 3.95439 9.56411 4.02991C10.8312 4.13061 11.7878 4.6341 12.4172 5.54037C9.79907 7.10956 10.42 10.5584 12.82 11.5235C12.3417 12.7822 11.7207 14.0325 10.6886 14.9555L10.697 14.9472V14.9472ZM6.48446 4.01313C6.35859 2.14184 7.87744 0.597823 9.62285 0.446777C9.8662 2.61176 7.65926 4.22292 6.48446 4.01313Z" fill="white"/>
</svg>
