<svg width="16" height="18" viewBox="0 0 16 18" fill="none" xmlns="http://www.w3.org/2000/svg">
<g id="Vector">
<path id="Vector_2" fill-rule="evenodd" clip-rule="evenodd" d="M1 7V13C1 15.2091 2.79086 17 5 17H11C13.2091 17 15 15.2091 15 13V7C15 4.79086 13.2091 3 11 3H5C2.79086 3 1 4.79086 1 7Z" stroke="black" stroke-linecap="round" stroke-linejoin="round"/>
<path id="Vector-2" d="M10.5 4C10.5 4.27614 10.7239 4.5 11 4.5C11.2761 4.5 11.5 4.27614 11.5 4H10.5ZM11.5 1C11.5 0.723858 11.2761 0.5 11 0.5C10.7239 0.5 10.5 0.723858 10.5 1H11.5ZM4.5 4C4.5 4.27614 4.72386 4.5 5 4.5C5.27614 4.5 5.5 4.27614 5.5 4H4.5ZM5.5 1C5.5 0.723858 5.27614 0.5 5 0.5C4.72386 0.5 4.5 0.723858 4.5 1H5.5ZM4.5 8.286C4.5 8.56214 4.72386 8.786 5 8.786C5.27614 8.786 5.5 8.56214 5.5 8.286H4.5ZM8 8.286L8.49912 8.31573C8.4997 8.30583 8.5 8.29592 8.5 8.286H8ZM7.36372 9.56742L7.68909 9.94707L7.68909 9.94707L7.36372 9.56742ZM6 10L5.95297 9.50222C5.69619 9.52648 5.5 9.74208 5.5 10C5.5 10.2579 5.69619 10.4735 5.95297 10.4978L6 10ZM7.36372 10.4326L7.68909 10.0529L7.36372 10.4326ZM8 11.714H8.5C8.5 11.7041 8.4997 11.6942 8.49912 11.6843L8 11.714ZM5.5 11.714C5.5 11.4379 5.27614 11.214 5 11.214C4.72386 11.214 4.5 11.4379 4.5 11.714H5.5ZM9.67464 7.47734C9.46496 7.65704 9.44065 7.97269 9.62035 8.18236C9.80004 8.39204 10.1157 8.41635 10.3254 8.23666L9.67464 7.47734ZM11 7H11.5C11.5 6.80474 11.3863 6.62735 11.2089 6.54575C11.0316 6.46416 10.8229 6.49329 10.6746 6.62035L11 7ZM10.5 13C10.5 13.2761 10.7239 13.5 11 13.5C11.2761 13.5 11.5 13.2761 11.5 13H10.5ZM11.5 4V1H10.5V4H11.5ZM5.5 4V1H4.5V4H5.5ZM5.5 8.286C5.5 8.02246 5.60738 7.84482 5.77174 7.71962C5.95001 7.58381 6.21263 7.5005 6.5 7.5005C6.78737 7.5005 7.04999 7.58381 7.22826 7.71962C7.39262 7.84482 7.5 8.02246 7.5 8.286H8.5C8.5 7.69254 8.23238 7.22743 7.83424 6.92414C7.45001 6.63144 6.96263 6.5005 6.5 6.5005C6.03737 6.5005 5.54999 6.63144 5.16576 6.92414C4.76762 7.22743 4.5 7.69254 4.5 8.286H5.5ZM7.50088 8.25627C7.47942 8.61664 7.31248 8.95284 7.03836 9.18776L7.68909 9.94707C8.16916 9.53565 8.46152 8.94686 8.49912 8.31573L7.50088 8.25627ZM7.03836 9.18776C6.76424 9.42268 6.40645 9.53618 6.04703 9.50222L5.95297 10.4978C6.58241 10.5573 7.20902 10.3585 7.68909 9.94707L7.03836 9.18776ZM6.04703 10.4978C6.40645 10.4638 6.76424 10.5773 7.03836 10.8122L7.68909 10.0529C7.20902 9.64151 6.58241 9.44274 5.95297 9.50222L6.04703 10.4978ZM7.03836 10.8122C7.31248 11.0472 7.47942 11.3834 7.50088 11.7437L8.49912 11.6843C8.46152 11.0531 8.16916 10.4644 7.68909 10.0529L7.03836 10.8122ZM7.5 11.714C7.5 11.9775 7.39262 12.1552 7.22826 12.2804C7.04999 12.4162 6.78737 12.4995 6.5 12.4995C6.21263 12.4995 5.95001 12.4162 5.77174 12.2804C5.60738 12.1552 5.5 11.9775 5.5 11.714H4.5C4.5 12.3075 4.76762 12.7726 5.16576 13.0759C5.54999 13.3686 6.03737 13.4995 6.5 13.4995C6.96263 13.4995 7.45001 13.3686 7.83424 13.0759C8.23238 12.7726 8.5 12.3075 8.5 11.714H7.5ZM10.3254 8.23666L11.3254 7.37965L10.6746 6.62035L9.67464 7.47734L10.3254 8.23666ZM10.5 7V13H11.5V7H10.5Z" fill="black"/>
</g>
</svg>
