<svg width="24" height="25" viewBox="0 0 24 25" fill="none" xmlns="http://www.w3.org/2000/svg">
<g id="Xnix/Line/Calendar">
<g id="Vector">
<path id="Vector_2" fill-rule="evenodd" clip-rule="evenodd" d="M5 10.5V16.5C5 18.7091 6.79086 20.5 9 20.5H15C17.2091 20.5 19 18.7091 19 16.5V10.5C19 8.29086 17.2091 6.5 15 6.5H9C6.79086 6.5 5 8.29086 5 10.5Z" stroke="white" stroke-width="1.5" stroke-linecap="round" stroke-linejoin="round"/>
<path id="Vector-2" d="M14.25 7.5C14.25 7.91421 14.5858 8.25 15 8.25C15.4142 8.25 15.75 7.91421 15.75 7.5H14.25ZM15.75 4.5C15.75 4.08579 15.4142 3.75 15 3.75C14.5858 3.75 14.25 4.08579 14.25 4.5H15.75ZM8.25 7.5C8.25 7.91421 8.58579 8.25 9 8.25C9.41421 8.25 9.75 7.91421 9.75 7.5H8.25ZM9.75 4.5C9.75 4.08579 9.41421 3.75 9 3.75C8.58579 3.75 8.25 4.08579 8.25 4.5H9.75ZM8.25 11.786C8.25 12.2002 8.58579 12.536 9 12.536C9.41421 12.536 9.75 12.2002 9.75 11.786H8.25ZM12 11.786L12.7487 11.8306C12.7496 11.8157 12.75 11.8009 12.75 11.786H12ZM11.3637 13.0674L11.8518 13.6369H11.8518L11.3637 13.0674ZM10 13.5L9.92945 12.7533C9.54428 12.7897 9.25 13.1131 9.25 13.5C9.25 13.8869 9.54428 14.2103 9.92945 14.2467L10 13.5ZM11.3637 13.9326L11.8518 13.3631L11.3637 13.9326ZM12 15.214H12.75C12.75 15.1991 12.7496 15.1843 12.7487 15.1694L12 15.214ZM9.75 15.214C9.75 14.7998 9.41421 14.464 9 14.464C8.58579 14.464 8.25 14.7998 8.25 15.214H9.75ZM13.512 10.7875C13.1974 11.0571 13.161 11.5305 13.4305 11.845C13.7001 12.1596 14.1735 12.196 14.488 11.9265L13.512 10.7875ZM15 10.5H15.75C15.75 10.2071 15.5795 9.94102 15.3134 9.81863C15.0473 9.69623 14.7343 9.73993 14.512 9.93052L15 10.5ZM14.25 16.5C14.25 16.9142 14.5858 17.25 15 17.25C15.4142 17.25 15.75 16.9142 15.75 16.5H14.25ZM15.75 7.5V4.5H14.25V7.5H15.75ZM9.75 7.5V4.5H8.25V7.5H9.75ZM9.75 11.786C9.75 11.6049 9.81731 11.4992 9.92323 11.4185C10.05 11.3219 10.2565 11.2505 10.5 11.2505C10.7435 11.2505 10.95 11.3219 11.0768 11.4185C11.1827 11.4992 11.25 11.6049 11.25 11.786H12.75C12.75 11.1101 12.4423 10.5731 11.9857 10.2253C11.55 9.89334 11.0065 9.7505 10.5 9.7505C9.99355 9.7505 9.44999 9.89334 9.01427 10.2253C8.55769 10.5731 8.25 11.1101 8.25 11.786H9.75ZM11.2513 11.7414C11.2339 12.0341 11.0983 12.3071 10.8757 12.4979L11.8518 13.6369C12.3833 13.1814 12.707 12.5294 12.7487 11.8306L11.2513 11.7414ZM10.8757 12.4979C10.653 12.6887 10.3625 12.7809 10.0706 12.7533L9.92945 14.2467C10.6264 14.3125 11.3202 14.0924 11.8518 13.6369L10.8757 12.4979ZM10.0706 14.2467C10.3625 14.2191 10.653 14.3113 10.8757 14.5021L11.8518 13.3631C11.3202 12.9076 10.6264 12.6875 9.92945 12.7533L10.0706 14.2467ZM10.8757 14.5021C11.0983 14.6929 11.2339 14.9659 11.2513 15.2586L12.7487 15.1694C12.707 14.4706 12.3833 13.8186 11.8518 13.3631L10.8757 14.5021ZM11.25 15.214C11.25 15.3951 11.1827 15.5008 11.0768 15.5815C10.95 15.6781 10.7435 15.7495 10.5 15.7495C10.2565 15.7495 10.05 15.6781 9.92323 15.5815C9.81731 15.5008 9.75 15.3951 9.75 15.214H8.25C8.25 15.8899 8.55769 16.4269 9.01427 16.7747C9.44999 17.1067 9.99355 17.2495 10.5 17.2495C11.0065 17.2495 11.55 17.1067 11.9857 16.7747C12.4423 16.4269 12.75 15.8899 12.75 15.214H11.25ZM14.488 11.9265L15.488 11.0695L14.512 9.93052L13.512 10.7875L14.488 11.9265ZM14.25 10.5V16.5H15.75V10.5H14.25Z" fill="white"/>
</g>
</g>
</svg>
