<svg width="24" height="25" viewBox="0 0 24 25" fill="none" xmlns="http://www.w3.org/2000/svg">
<g id="Xnix/Line/Camera_4">
<g id="Vector">
<path id="Vector-11" fill-rule="evenodd" clip-rule="evenodd" d="M5 10.7V15.033C5.00423 15.9569 5.3754 16.8413 6.0318 17.4915C6.68821 18.1418 7.57608 18.5045 8.5 18.5H15.5C16.4239 18.5045 17.3118 18.1418 17.9682 17.4915C18.6246 16.8413 18.9958 15.9569 19 15.033V10.7C18.9958 9.77608 18.6246 8.89169 17.9682 8.24148C17.3118 7.59126 16.4239 7.22849 15.5 7.23301C15.0147 7.16864 14.6001 6.8515 14.411 6.40001C14.1009 5.84285 13.5126 5.49815 12.875 5.50001H11.125C10.4874 5.49815 9.89908 5.84285 9.589 6.40001C9.39986 6.8515 8.98526 7.16864 8.5 7.23301C7.57608 7.22849 6.68821 7.59126 6.0318 8.24148C5.3754 8.89169 5.00423 9.77608 5 10.7Z" stroke="black" stroke-width="1.5" stroke-linecap="round" stroke-linejoin="round"/>
<path id="Vector-12" fill-rule="evenodd" clip-rule="evenodd" d="M12 15.033C10.8059 15.0214 9.84617 14.046 9.85405 12.8518C9.86193 11.6576 10.8344 10.6949 12.0286 10.6991C13.2228 10.7033 14.1885 11.6728 14.188 12.867C14.1851 13.4444 13.9529 13.9969 13.5426 14.4032C13.1323 14.8094 12.5774 15.0359 12 15.033Z" stroke="black" stroke-width="1.5" stroke-linecap="round" stroke-linejoin="round"/>
</g>
</g>
</svg>
