<svg width="16" height="16" viewBox="0 0 16 16" fill="none" xmlns="http://www.w3.org/2000/svg">
<g id="Vector">
<path id="Vector-25" d="M10.0454 5.95475C9.75251 5.66186 9.27763 5.66188 8.98475 5.95478C8.69186 6.24768 8.69188 6.72255 8.98478 7.01544L10.0454 5.95475ZM9.51509 11.0291L8.98478 10.4987L8.98476 10.4988L9.51509 11.0291ZM6.48509 14.0591L7.01542 14.5894L6.48509 14.0591ZM1.94109 9.51509L2.47142 10.0454H2.47142L1.94109 9.51509ZM3.98642 8.53042C4.27932 8.23753 4.27932 7.76266 3.98642 7.46976C3.69353 7.17687 3.21866 7.17687 2.92576 7.46976L3.98642 8.53042ZM5.95478 10.0454C6.24768 10.3383 6.72255 10.3383 7.01544 10.0454C7.30832 9.75251 7.30831 9.27763 7.01541 8.98475L5.95478 10.0454ZM6.48509 4.97109L7.01541 5.50144L7.01542 5.50142L6.48509 4.97109ZM9.51509 1.94109L10.0454 2.47142L9.51509 1.94109ZM14.0591 1.94109L13.5288 2.47142V2.47142L14.0591 1.94109ZM14.0591 6.48509L14.5894 7.01542L14.0591 6.48509ZM12.0138 7.46976C11.7209 7.76266 11.7209 8.23753 12.0138 8.53042C12.3067 8.82332 12.7815 8.82332 13.0744 8.53042L12.0138 7.46976ZM8.98478 7.01544C9.44671 7.47734 9.70623 8.10384 9.70623 8.75709H11.2062C11.2062 7.706 10.7887 6.69796 10.0454 5.95475L8.98478 7.01544ZM9.70623 8.75709C9.70623 9.41035 9.44671 10.0368 8.98478 10.4987L10.0454 11.5594C10.7887 10.8162 11.2062 9.80819 11.2062 8.75709H9.70623ZM8.98476 10.4988L5.95476 13.5288L7.01542 14.5894L10.0454 11.5594L8.98476 10.4988ZM5.95476 13.5288C4.99287 14.4907 3.43332 14.4907 2.47142 13.5288L1.41076 14.5894C2.95845 16.1371 5.46774 16.1371 7.01542 14.5894L5.95476 13.5288ZM2.47142 13.5288C1.50953 12.5669 1.50953 11.0073 2.47142 10.0454L1.41076 8.98476C-0.136921 10.5324 -0.136921 13.0417 1.41076 14.5894L2.47142 13.5288ZM2.47142 10.0454L3.98642 8.53042L2.92576 7.46976L1.41076 8.98476L2.47142 10.0454ZM7.01541 8.98475C6.55347 8.52284 6.29396 7.89635 6.29396 7.24309H4.79396C4.79396 8.29419 5.21152 9.30223 5.95478 10.0454L7.01541 8.98475ZM6.29396 7.24309C6.29396 6.58984 6.55347 5.96335 7.01541 5.50144L5.95478 4.44075C5.21152 5.18396 4.79396 6.192 4.79396 7.24309H6.29396ZM7.01542 5.50142L10.0454 2.47142L8.98476 1.41076L5.95476 4.44076L7.01542 5.50142ZM10.0454 2.47142C11.0073 1.50953 12.5669 1.50953 13.5288 2.47142L14.5894 1.41076C13.0417 -0.136921 10.5324 -0.136921 8.98476 1.41076L10.0454 2.47142ZM13.5288 2.47142C14.4907 3.43332 14.4907 4.99287 13.5288 5.95476L14.5894 7.01542C16.1371 5.46774 16.1371 2.95845 14.5894 1.41076L13.5288 2.47142ZM13.5288 5.95476L12.0138 7.46976L13.0744 8.53042L14.5894 7.01542L13.5288 5.95476Z" fill="black"/>
</g>
</svg>
