<svg width="12" height="12" viewBox="0 0 12 12" fill="none" xmlns="http://www.w3.org/2000/svg">
<g id="Vector">
<path id="Vector-47" d="M0.646447 10.6464C0.451184 10.8417 0.451184 11.1583 0.646447 11.3536C0.841709 11.5488 1.15829 11.5488 1.35355 11.3536L0.646447 10.6464ZM6.35355 6.35355C6.54882 6.15829 6.54882 5.84171 6.35355 5.64645C6.15829 5.45118 5.84171 5.45118 5.64645 5.64645L6.35355 6.35355ZM5.64645 5.64645C5.45118 5.84171 5.45118 6.15829 5.64645 6.35355C5.84171 6.54882 6.15829 6.54882 6.35355 6.35355L5.64645 5.64645ZM11.3536 1.35355C11.5488 1.15829 11.5488 0.841709 11.3536 0.646447C11.1583 0.451184 10.8417 0.451184 10.6464 0.646447L11.3536 1.35355ZM6.35355 5.64645C6.15829 5.45118 5.84171 5.45118 5.64645 5.64645C5.45118 5.84171 5.45118 6.15829 5.64645 6.35355L6.35355 5.64645ZM10.6464 11.3536C10.8417 11.5488 11.1583 11.5488 11.3536 11.3536C11.5488 11.1583 11.5488 10.8417 11.3536 10.6464L10.6464 11.3536ZM5.64645 6.35355C5.84171 6.54882 6.15829 6.54882 6.35355 6.35355C6.54882 6.15829 6.54882 5.84171 6.35355 5.64645L5.64645 6.35355ZM1.35355 0.646447C1.15829 0.451184 0.841709 0.451184 0.646447 0.646447C0.451184 0.841709 0.451184 1.15829 0.646447 1.35355L1.35355 0.646447ZM1.35355 11.3536L6.35355 6.35355L5.64645 5.64645L0.646447 10.6464L1.35355 11.3536ZM6.35355 6.35355L11.3536 1.35355L10.6464 0.646447L5.64645 5.64645L6.35355 6.35355ZM5.64645 6.35355L10.6464 11.3536L11.3536 10.6464L6.35355 5.64645L5.64645 6.35355ZM6.35355 5.64645L1.35355 0.646447L0.646447 1.35355L5.64645 6.35355L6.35355 5.64645Z" fill="#757575"/>
</g>
</svg>
