<svg width="24" height="24" viewBox="0 0 24 24" fill="none" xmlns="http://www.w3.org/2000/svg">
<g id="Xnix/Line/Coin-circle">
<g id="Vector">
<path id="Vector_2" fill-rule="evenodd" clip-rule="evenodd" d="M19 12C19 15.866 15.866 19 12 19C8.13401 19 5 15.866 5 12C5 8.13401 8.13401 5 12 5C13.8565 5 15.637 5.7375 16.9497 7.05025C18.2625 8.36301 19 10.1435 19 12Z" stroke="white" stroke-width="1.5" stroke-linecap="round" stroke-linejoin="round"/>
<path id="Vector-2" d="M11.9999 14.821C11.5857 14.821 11.2499 15.1568 11.2499 15.571C11.2499 15.9852 11.5857 16.321 11.9999 16.321V14.821ZM10.4999 11L11.0225 10.462C10.9934 10.4338 10.9622 10.408 10.929 10.3848L10.4999 11ZM9.99991 10L10.7495 10.0259C10.7498 10.0172 10.7499 10.0086 10.7499 10H9.99991ZM11.9999 9.179C12.4141 9.179 12.7499 8.84321 12.7499 8.429C12.7499 8.01479 12.4141 7.679 11.9999 7.679V9.179ZM11.9692 16.3214C12.3831 16.3383 12.7323 16.0165 12.7493 15.6027C12.7662 15.1888 12.4444 14.8396 12.0306 14.8226L11.9692 16.3214ZM10.7432 13.2874C10.7986 12.8769 10.5108 12.4992 10.1003 12.4437C9.68981 12.3883 9.3121 12.6761 9.25666 13.0866L10.7432 13.2874ZM12.7499 15.571C12.7499 15.1568 12.4141 14.821 11.9999 14.821C11.5857 14.821 11.2499 15.1568 11.2499 15.571H12.7499ZM11.2499 17C11.2499 17.4142 11.5857 17.75 11.9999 17.75C12.4141 17.75 12.7499 17.4142 12.7499 17H11.2499ZM11.9577 7.68019C11.5441 7.7035 11.2278 8.05765 11.2511 8.4712C11.2744 8.88476 11.6286 9.20112 12.0421 9.17781L11.9577 7.68019ZM13.517 9.04604L12.9641 9.55281L12.9641 9.55281L13.517 9.04604ZM13.2576 10.5039C13.1984 10.9139 13.4828 11.2942 13.8928 11.3533C14.3028 11.4125 14.6831 11.1281 14.7422 10.7181L13.2576 10.5039ZM11.2499 8.429C11.2499 8.84321 11.5857 9.179 11.9999 9.179C12.4141 9.179 12.7499 8.84321 12.7499 8.429H11.2499ZM12.7499 7C12.7499 6.58579 12.4141 6.25 11.9999 6.25C11.5857 6.25 11.2499 6.58579 11.2499 7H12.7499ZM11.9999 16.321C12.4236 16.321 13.062 16.2249 13.6226 15.9039C14.2203 15.5618 14.7499 14.9413 14.7499 13.981H13.2499C13.2499 14.2927 13.113 14.4672 12.8774 14.6021C12.6049 14.7581 12.2432 14.821 11.9999 14.821V16.321ZM14.7499 13.981C14.7499 13.3929 14.5652 12.9133 14.231 12.5272C13.9217 12.1699 13.5166 11.9325 13.1566 11.7465C12.3775 11.3441 11.6676 11.0886 11.0225 10.462L9.97735 11.538C10.8322 12.3684 11.8723 12.7714 12.4682 13.0792C12.7958 13.2484 12.9844 13.379 13.097 13.509C13.1846 13.6102 13.2499 13.7371 13.2499 13.981H14.7499ZM10.929 10.3848C10.8121 10.3034 10.7446 10.1682 10.7495 10.0259L9.25036 9.97414C9.2279 10.6249 9.53679 11.2427 10.0709 11.6152L10.929 10.3848ZM10.7499 10C10.7499 9.73857 10.8069 9.59598 10.8554 9.51794C10.9038 9.44014 10.9744 9.3774 11.0812 9.32479C11.3268 9.20383 11.6681 9.179 11.9999 9.179V7.679C11.6647 7.679 11.0061 7.68967 10.4183 7.97921C10.1085 8.13185 9.80419 8.36811 9.58182 8.72549C9.35959 9.08265 9.24991 9.51143 9.24991 10H10.7499ZM12.0306 14.8226C11.6496 14.807 11.2927 14.6316 11.0477 14.3394L9.89835 15.3032C10.4146 15.9189 11.1664 16.2885 11.9692 16.3214L12.0306 14.8226ZM11.0477 14.3394C10.8027 14.0472 10.6921 13.6653 10.7432 13.2874L9.25666 13.0866C9.14911 13.8829 9.38207 14.6876 9.89835 15.3032L11.0477 14.3394ZM11.2499 15.571V17H12.7499V15.571H11.2499ZM12.0421 9.17781C12.3901 9.1582 12.7286 9.29585 12.9641 9.55281L14.0699 8.53927C13.5303 7.9506 12.755 7.63525 11.9577 7.68019L12.0421 9.17781ZM12.9641 9.55281C13.1996 9.80978 13.3074 10.1589 13.2576 10.5039L14.7422 10.7181C14.8563 9.92774 14.6095 9.12794 14.0699 8.53927L12.9641 9.55281ZM12.7499 8.429V7H11.2499V8.429H12.7499Z" fill="white"/>
</g>
</g>
</svg>
