<svg width="24" height="24" viewBox="0 0 24 24" fill="none" xmlns="http://www.w3.org/2000/svg">
    <g id="Edit Square" transform="scale(1.5)">
        <path id="Fill 1" fill-rule="evenodd" clip-rule="evenodd" d="M11.4507 16H4.51916C1.81615 16 0 14.1029 0 11.2797V4.74882C0 1.92562 1.81615 0.0285645 4.51916 0.0285645H7.45626C7.78147 0.0285645 8.0454 0.292503 8.0454 0.617712C8.0454 0.942922 7.78147 1.20686 7.45626 1.20686H4.51916C2.48935 1.20686 1.1783 2.59725 1.1783 4.74882V11.2797C1.1783 13.4313 2.48935 14.8217 4.51916 14.8217H11.4507C13.4805 14.8217 14.7923 13.4313 14.7923 11.2797V8.1156C14.7923 7.79039 15.0563 7.52645 15.3815 7.52645C15.7067 7.52645 15.9706 7.79039 15.9706 8.1156V11.2797C15.9706 14.1029 14.1537 16 11.4507 16Z" fill="#F83758"/>
        <path id="Fill 3" fill-rule="evenodd" clip-rule="evenodd" d="M5.39453 10.5481H7.73306C8.03156 10.5481 8.31121 10.4326 8.52251 10.2213L14.4211 4.32279C14.663 4.08085 14.7965 3.75878 14.7965 3.41629C14.7965 3.07301 14.663 2.75016 14.4211 2.50821L13.4651 1.55222C12.9647 1.05341 12.1509 1.05341 11.6497 1.55222L5.77944 7.42249C5.57599 7.62595 5.46052 7.89617 5.45345 8.18289L5.39453 10.5481ZM7.7331 11.7264H4.7905C4.63182 11.7264 4.47943 11.662 4.36867 11.5481C4.25791 11.435 4.19742 11.2818 4.20135 11.1223L4.27519 8.15381C4.29012 7.56309 4.52813 7.00772 4.94603 6.58903H4.94682L10.8171 0.71876C11.777 -0.239587 13.3379 -0.239587 14.2978 0.71876L15.2538 1.67475C15.7196 2.13979 15.9757 2.758 15.9749 3.41627C15.9749 4.07455 15.7188 4.69197 15.2538 5.15622L9.35522 11.0548C8.92239 11.4876 8.34581 11.7264 7.7331 11.7264Z" fill="#F83758"/>
        <path id="Fill 5" fill-rule="evenodd" clip-rule="evenodd" d="M13.9286 6.2185C13.7778 6.2185 13.627 6.16115 13.5123 6.04568L9.92555 2.45895C9.69539 2.22879 9.69539 1.85566 9.92555 1.6255C10.1557 1.39534 10.5281 1.39534 10.7582 1.6255L14.3449 5.21302C14.5751 5.44318 14.5751 5.81552 14.3449 6.04568C14.2303 6.16115 14.0794 6.2185 13.9286 6.2185Z" fill="#F83758"/>
    </g>
</svg>