<svg width="23" height="21" viewBox="0 0 23 21" fill="none" xmlns="http://www.w3.org/2000/svg">
<path d="M11.0106 4.53965L10.6224 4.06111C9.18318 2.28714 6.66053 2.08582 4.77823 3.14839C3.84822 3.67338 3.10058 4.49677 2.73867 5.56246C2.37787 6.62485 2.38551 7.97262 3.04499 9.57362L11.0106 4.53965ZM11.0106 4.53965L11.3989 4.06116M11.0106 4.53965L11.3989 4.06116M11.3989 4.06116C12.8381 2.28765 15.3611 2.0863 17.2437 3.14879C18.1738 3.67374 18.9216 4.49704 19.2836 5.56264C19.6444 6.62495 19.6369 7.97265 18.9774 9.57366L18.9773 9.57393M11.3989 4.06116L18.9773 9.57393M18.9773 9.57393C18.0091 11.9281 15.6317 14.8126 11.0107 18.0284M18.9773 9.57393L11.0107 18.0284M11.0107 18.0284C6.39098 14.8128 4.01515 11.9282 3.04501 9.57366L11.0107 18.0284Z" fill="#F83758" stroke="#F83758"/>
<path d="M11.0112 1.68786L10.7401 1.51286C9.72717 0.859113 8.51971 0.5 7.24381 0.5C4.9576 0.5 2.78284 1.63973 1.56814 3.45382C0.301928 5.34486 0.140544 7.77399 1.19554 10.3351C2.47146 13.4315 5.45676 16.6473 10.163 19.8737C10.4186 20.0489 10.7147 20.1365 11.0112 20.1365C11.3077 20.1365 11.6037 20.0489 11.8593 19.8737C16.5656 16.6473 19.5509 13.4316 20.8269 10.335L11.0112 1.68786ZM11.0112 1.68786L11.2823 1.51286M11.0112 1.68786L11.2823 1.51286M11.2823 1.51286C12.2952 0.859115 13.5027 0.5 14.7786 0.5M11.2823 1.51286L14.7786 0.5M14.7786 0.5C17.065 0.5 19.2398 1.6397 20.4544 3.45368M14.7786 0.5L20.4544 3.45368M20.4544 3.45368C21.7206 5.34463 21.8819 7.77381 20.8269 10.3349L20.4544 3.45368ZM10.7285 19.0489L11.0112 19.2427L11.2939 19.0489C16.1784 15.7003 18.8078 12.6102 19.9023 9.95415L19.9023 9.9541C20.9383 7.43901 20.5944 5.30881 19.4771 3.80242C18.3752 2.3169 16.5654 1.5 14.7786 1.5C13.4214 1.5 12.0546 1.97211 11.0112 3.00222C9.96772 1.97194 8.60131 1.5 7.24381 1.5C5.45707 1.5 3.64734 2.31703 2.54546 3.80258C1.42811 5.309 1.08413 7.43919 2.1201 9.9541L2.12012 9.95415C3.21458 12.6102 5.84401 15.7003 10.7285 19.0489Z" fill="#F83758" stroke="#F83758"/>
</svg>
