<svg id="svg" version="1.1" xmlns="http://www.w3.org/2000/svg" xmlns:xlink="http://www.w3.org/1999/xlink" width="400" height="400" viewBox="0, 0, 400,400"><g id="svgg"><path id="path0" d="M199.604 202.300 L 199.617 238.200 248.817 238.097 L 298.017 237.994 297.841 238.897 C 297.211 242.122,296.218 246.231,296.027 246.400 C 295.902 246.510,295.736 246.870,295.658 247.200 C 295.361 248.452,295.313 248.621,295.028 249.400 C 294.867 249.840,294.405 250.920,294.001 251.800 C 293.596 252.680,293.066 254.157,292.822 255.082 C 292.578 256.007,292.101 257.042,291.761 257.382 C 291.421 257.722,291.237 258.000,291.351 258.000 C 291.877 258.000,289.475 262.524,288.030 264.257 C 287.820 264.509,287.757 264.824,287.891 264.957 C 288.024 265.091,287.923 265.200,287.667 265.200 C 287.410 265.200,287.200 265.470,287.200 265.800 C 287.200 266.130,286.885 266.727,286.500 267.126 C 286.115 267.525,285.462 268.504,285.050 269.302 C 284.637 270.100,284.052 270.848,283.750 270.964 C 283.447 271.080,283.199 271.406,283.197 271.687 C 283.195 271.969,282.205 273.276,280.997 274.592 C 279.789 275.907,278.800 277.125,278.800 277.298 C 278.800 277.776,271.929 284.599,270.889 285.154 C 270.385 285.423,270.100 285.838,270.251 286.082 C 270.403 286.328,270.343 286.412,270.115 286.271 C 269.891 286.132,269.385 286.375,268.991 286.809 C 268.598 287.244,268.125 287.600,267.941 287.600 C 267.757 287.600,267.065 288.167,266.403 288.859 C 265.742 289.552,265.195 289.957,265.188 289.759 C 265.181 289.562,264.992 289.715,264.768 290.100 C 264.544 290.485,264.127 290.800,263.842 290.800 C 263.072 290.800,261.748 292.392,262.241 292.724 C 262.466 292.876,264.047 294.080,265.753 295.400 C 267.460 296.720,269.263 298.070,269.760 298.400 C 270.257 298.730,271.729 299.851,273.032 300.892 C 274.334 301.932,276.570 303.698,278.000 304.814 C 279.430 305.931,281.050 307.197,281.600 307.627 C 282.986 308.712,286.037 311.064,287.000 311.790 C 287.440 312.122,290.168 314.240,293.062 316.497 C 295.956 318.754,299.618 321.590,301.198 322.800 C 302.779 324.010,306.891 327.198,310.336 329.885 C 313.781 332.571,317.438 335.422,318.462 336.220 C 319.486 337.017,320.696 338.016,321.150 338.439 C 321.987 339.219,326.571 335.335,329.930 331.000 C 330.441 330.340,330.721 330.070,330.551 330.400 C 330.381 330.730,330.818 330.429,331.521 329.731 C 332.225 329.033,332.800 328.319,332.800 328.145 C 332.800 327.971,333.146 327.462,333.570 327.014 C 336.263 324.165,338.476 321.600,338.240 321.600 C 338.088 321.600,338.377 321.159,338.882 320.619 C 340.128 319.289,340.353 318.990,342.368 316.000 C 343.332 314.570,344.363 313.256,344.660 313.080 C 344.957 312.904,345.200 312.527,345.200 312.242 C 345.200 311.957,345.561 311.397,346.002 310.998 C 346.444 310.598,346.725 310.191,346.627 310.093 C 346.528 309.995,346.818 309.529,347.271 309.057 C 347.724 308.586,348.332 307.646,348.624 306.968 C 348.915 306.291,349.432 305.505,349.772 305.223 C 350.113 304.940,350.293 304.550,350.172 304.355 C 350.051 304.160,350.143 304.000,350.376 304.000 C 350.609 304.000,350.800 303.775,350.800 303.500 C 350.801 303.225,351.251 302.477,351.800 301.838 C 352.350 301.199,352.800 300.458,352.800 300.192 C 352.800 299.926,353.166 299.242,353.614 298.673 C 354.062 298.103,354.628 297.044,354.871 296.319 C 355.114 295.593,355.586 294.685,355.919 294.300 C 356.252 293.915,356.393 293.600,356.233 293.600 C 356.074 293.600,356.226 293.317,356.571 292.971 C 356.917 292.626,357.200 292.069,357.200 291.735 C 357.200 291.400,357.565 290.662,358.012 290.095 C 358.458 289.527,359.019 288.284,359.259 287.331 C 359.499 286.379,359.854 285.600,360.047 285.600 C 360.241 285.600,360.372 285.465,360.338 285.300 C 360.272 284.977,361.150 282.800,362.414 280.156 C 362.846 279.252,363.200 278.257,363.200 277.945 C 363.200 277.633,363.512 276.933,363.893 276.389 C 364.274 275.845,364.567 275.310,364.544 275.200 C 364.491 274.947,364.560 274.717,365.554 271.837 C 366.002 270.537,366.275 269.322,366.161 269.137 C 366.046 268.951,366.125 268.800,366.336 268.800 C 366.548 268.800,366.942 267.855,367.212 266.700 C 367.483 265.545,367.832 264.420,367.988 264.200 C 368.144 263.980,368.596 262.360,368.992 260.600 C 369.388 258.840,369.850 257.220,370.018 257.000 C 370.186 256.780,370.423 255.970,370.544 255.200 C 371.020 252.178,371.668 249.359,372.077 248.526 C 372.314 248.046,372.410 247.280,372.291 246.826 C 372.172 246.371,372.237 246.099,372.435 246.221 C 372.633 246.344,372.786 246.029,372.775 245.522 C 372.737 243.680,373.808 237.139,374.100 237.432 C 374.265 237.598,374.423 236.893,374.450 235.867 C 374.478 234.840,374.535 233.865,374.578 233.700 C 374.621 233.535,374.795 231.780,374.965 229.800 C 375.135 227.820,375.334 225.840,375.407 225.400 C 375.481 224.960,375.554 223.284,375.570 221.676 C 375.588 219.968,375.756 218.849,375.975 218.984 C 376.567 219.351,376.469 190.769,375.875 190.034 C 375.489 189.556,375.512 189.509,376.000 189.782 C 376.488 190.055,376.507 190.017,376.100 189.579 C 375.825 189.282,375.596 188.131,375.592 187.020 C 375.584 185.152,374.602 175.094,374.203 172.800 C 374.107 172.250,373.823 170.585,373.570 169.100 L 373.112 166.400 286.352 166.400 L 199.592 166.400 199.604 202.300 " stroke="none" fill="#4484f4" fill-rule="evenodd"></path><path id="path1" d="M93.566 237.732 C 91.495 239.303,82.870 245.979,74.400 252.567 C 65.930 259.155,56.279 266.652,52.954 269.227 C 49.629 271.802,44.591 275.729,41.760 277.954 C 38.928 280.179,36.369 282.000,36.072 282.000 C 35.776 282.000,35.597 282.135,35.676 282.300 C 36.752 284.564,37.854 286.641,38.064 286.801 C 38.209 286.912,38.633 287.767,39.007 288.701 C 39.381 289.636,39.820 290.400,39.983 290.400 C 40.145 290.400,40.577 291.075,40.942 291.900 C 41.648 293.495,43.284 296.311,43.927 297.038 C 44.140 297.278,44.623 298.071,45.000 298.800 C 45.377 299.529,46.026 300.491,46.443 300.938 C 46.859 301.385,47.200 301.993,47.200 302.288 C 47.200 302.583,47.470 302.929,47.800 303.055 C 48.130 303.182,48.402 303.491,48.404 303.743 C 48.406 303.994,48.991 304.958,49.704 305.884 C 50.417 306.810,51.450 308.224,52.000 309.024 C 52.550 309.825,53.303 310.811,53.673 311.214 C 54.044 311.617,54.674 312.451,55.073 313.067 C 56.004 314.500,56.731 315.376,58.100 316.708 C 58.705 317.297,59.200 317.931,59.200 318.117 C 59.200 318.579,61.296 320.796,70.200 329.754 C 76.995 336.590,79.589 339.030,83.312 342.087 C 83.923 342.589,84.766 343.303,85.185 343.673 C 85.604 344.044,86.451 344.674,87.067 345.073 C 88.190 345.802,88.416 345.979,90.558 347.810 C 91.196 348.355,91.837 348.800,91.983 348.800 C 92.129 348.800,92.598 349.115,93.025 349.500 C 94.290 350.643,101.872 355.600,102.355 355.600 C 102.600 355.600,102.800 355.778,102.800 355.995 C 102.800 356.212,103.385 356.665,104.100 357.003 C 105.614 357.718,108.410 359.372,109.027 359.918 C 109.262 360.126,110.140 360.543,110.978 360.846 C 111.815 361.149,112.582 361.610,112.682 361.870 C 112.782 362.130,113.749 362.661,114.832 363.050 C 115.914 363.440,116.800 363.884,116.800 364.039 C 116.800 364.193,117.700 364.643,118.800 365.039 C 119.900 365.434,120.800 365.873,120.800 366.014 C 120.800 366.155,121.790 366.607,123.000 367.018 C 124.210 367.429,125.200 367.884,125.200 368.028 C 125.200 368.172,126.190 368.602,127.399 368.982 C 128.609 369.363,129.695 369.830,129.812 370.020 C 129.930 370.210,131.100 370.667,132.413 371.036 C 133.726 371.404,134.800 371.824,134.800 371.969 C 134.800 372.114,136.060 372.578,137.600 373.000 C 139.140 373.422,140.400 373.894,140.400 374.049 C 140.400 374.205,141.795 374.655,143.500 375.049 C 145.205 375.444,146.690 375.882,146.800 376.023 C 146.910 376.163,148.350 376.586,150.000 376.963 C 151.650 377.339,153.311 377.816,153.691 378.021 C 154.070 378.227,156.140 378.702,158.291 379.076 C 160.441 379.451,162.290 379.882,162.400 380.034 C 162.510 380.187,164.940 380.612,167.800 380.979 C 170.660 381.347,173.360 381.806,173.800 382.000 C 178.013 383.853,223.907 383.864,228.200 382.013 C 228.640 381.823,231.430 381.365,234.400 380.995 C 237.370 380.625,239.980 380.188,240.200 380.025 C 240.420 379.861,242.535 379.404,244.900 379.008 C 247.265 378.613,249.200 378.170,249.200 378.024 C 249.200 377.877,250.910 377.421,253.000 377.010 C 255.090 376.599,256.800 376.143,256.800 375.995 C 256.800 375.848,257.835 375.500,259.100 375.223 C 260.365 374.946,261.940 374.477,262.600 374.182 C 263.260 373.886,264.790 373.337,266.000 372.961 C 267.210 372.585,268.380 372.149,268.600 371.992 C 268.820 371.835,269.990 371.385,271.200 370.994 C 272.410 370.602,273.490 370.156,273.600 370.003 C 273.710 369.849,274.835 369.401,276.100 369.007 C 277.365 368.613,278.400 368.172,278.400 368.028 C 278.400 367.884,279.390 367.429,280.600 367.018 C 281.810 366.607,282.800 366.137,282.800 365.975 C 282.800 365.813,283.700 365.357,284.800 364.961 C 285.900 364.566,286.800 364.122,286.800 363.975 C 286.800 363.829,287.610 363.399,288.600 363.021 C 289.590 362.643,290.400 362.196,290.400 362.028 C 290.400 361.859,291.075 361.423,291.900 361.058 C 293.544 360.331,296.321 358.708,297.083 358.030 C 297.349 357.794,297.684 357.600,297.828 357.600 C 298.178 357.600,305.989 352.391,306.975 351.500 C 307.402 351.115,307.871 350.800,308.017 350.800 C 308.163 350.800,308.751 350.395,309.323 349.900 C 309.895 349.405,310.867 348.608,311.482 348.129 C 314.474 345.797,316.330 344.267,317.682 343.017 C 318.497 342.264,319.528 341.453,319.973 341.215 C 320.418 340.976,320.967 340.436,321.192 340.014 C 321.630 339.197,318.397 336.615,274.663 302.840 C 272.498 301.168,268.628 298.155,266.063 296.144 L 261.400 292.487 260.200 293.099 C 259.540 293.436,258.910 293.841,258.800 294.000 C 258.690 294.159,257.970 294.609,257.200 295.000 C 256.430 295.391,255.710 295.827,255.600 295.969 C 255.254 296.413,245.454 301.141,244.300 301.420 C 243.695 301.567,243.200 301.810,243.200 301.960 C 243.200 302.111,242.370 302.456,241.355 302.728 C 240.340 302.999,238.765 303.559,237.855 303.973 C 236.945 304.386,235.075 304.945,233.700 305.214 C 232.325 305.484,231.200 305.836,231.200 305.997 C 231.200 306.158,229.265 306.617,226.900 307.017 C 224.535 307.417,222.510 307.870,222.400 308.024 C 222.074 308.481,209.749 309.606,205.100 309.603 C 202.498 309.601,200.800 309.758,200.800 310.000 C 200.800 310.220,200.530 310.400,200.200 310.400 C 199.870 310.400,199.600 310.220,199.600 310.000 C 199.600 309.760,197.980 309.600,195.539 309.600 C 191.205 309.600,180.466 308.518,179.800 308.014 C 179.580 307.848,177.690 307.388,175.600 306.994 C 173.510 306.599,171.710 306.153,171.600 306.004 C 171.490 305.854,170.143 305.419,168.608 305.038 C 167.072 304.657,165.632 304.201,165.408 304.025 C 165.183 303.850,164.010 303.384,162.800 302.992 C 161.590 302.599,160.240 302.063,159.800 301.802 C 159.360 301.540,158.235 301.089,157.300 300.799 C 156.365 300.509,155.600 300.145,155.600 299.990 C 155.600 299.835,154.745 299.386,153.700 298.991 C 152.655 298.596,151.710 298.142,151.600 297.982 C 151.490 297.821,150.770 297.396,150.000 297.037 C 148.537 296.354,145.688 294.698,145.000 294.130 C 144.780 293.949,143.925 293.444,143.100 293.009 C 142.275 292.574,141.600 292.100,141.600 291.955 C 141.600 291.810,140.970 291.392,140.200 291.027 C 139.430 290.661,138.800 290.220,138.800 290.045 C 138.800 289.871,138.395 289.541,137.900 289.313 C 137.405 289.084,135.825 287.930,134.390 286.748 C 132.954 285.567,131.449 284.330,131.046 284.000 C 130.435 283.500,121.781 274.827,118.220 271.146 C 117.659 270.566,117.200 269.902,117.200 269.669 C 117.200 269.436,116.882 269.010,116.493 268.723 C 116.104 268.435,115.444 267.665,115.025 267.010 C 114.606 266.356,113.937 265.469,113.537 265.040 C 113.136 264.610,112.710 263.947,112.589 263.566 C 112.468 263.186,112.106 262.773,111.785 262.650 C 111.463 262.526,111.200 262.235,111.200 262.003 C 111.200 261.659,109.454 258.834,108.101 256.989 C 107.936 256.763,107.442 255.863,107.004 254.989 C 106.566 254.115,106.106 253.310,105.981 253.200 C 105.600 252.863,102.400 246.107,102.400 245.639 C 102.400 245.398,102.248 245.200,102.063 245.200 C 101.878 245.200,101.503 244.435,101.229 243.500 C 100.955 242.565,100.496 241.431,100.209 240.980 C 99.921 240.529,99.376 239.055,98.997 237.705 C 98.079 234.431,97.917 234.432,93.566 237.732 " stroke="none" fill="#34ab54" fill-rule="evenodd"></path><path id="path2" d="M35.024 119.242 C 34.636 120.319,34.187 121.200,34.025 121.200 C 33.863 121.200,33.393 122.190,32.982 123.400 C 32.571 124.610,32.113 125.600,31.964 125.600 C 31.816 125.600,31.358 126.678,30.947 127.997 C 30.536 129.315,30.078 130.395,29.928 130.397 C 29.779 130.398,29.356 131.435,28.989 132.700 C 28.621 133.965,28.195 135.090,28.041 135.200 C 27.887 135.310,27.419 136.570,27.000 138.000 C 26.581 139.430,26.124 140.690,25.983 140.800 C 25.843 140.910,25.399 142.260,24.998 143.800 C 24.596 145.340,24.137 146.780,23.978 147.000 C 23.818 147.220,23.374 148.840,22.992 150.600 C 22.610 152.360,22.157 153.980,21.985 154.200 C 21.814 154.420,21.364 156.310,20.987 158.400 C 20.609 160.490,20.160 162.380,19.989 162.600 C 19.818 162.820,19.373 165.340,19.000 168.200 C 18.627 171.060,18.167 173.760,17.978 174.200 C 16.140 178.485,16.140 221.515,17.978 225.800 C 18.167 226.240,18.627 228.940,19.000 231.800 C 19.373 234.660,19.818 237.180,19.989 237.400 C 20.160 237.620,20.609 239.510,20.987 241.600 C 21.364 243.690,21.814 245.580,21.985 245.800 C 22.157 246.020,22.610 247.640,22.992 249.400 C 23.374 251.160,23.818 252.780,23.978 253.000 C 24.137 253.220,24.596 254.660,24.998 256.200 C 25.399 257.740,25.843 259.090,25.983 259.200 C 26.124 259.310,26.581 260.570,27.000 262.000 C 27.419 263.430,27.887 264.690,28.041 264.800 C 28.195 264.910,28.621 266.035,28.989 267.300 C 29.356 268.565,29.779 269.602,29.928 269.603 C 30.078 269.605,30.536 270.685,30.947 272.003 C 31.358 273.322,31.816 274.400,31.964 274.400 C 32.113 274.400,32.571 275.390,32.982 276.600 C 33.393 277.810,33.853 278.800,34.004 278.800 C 34.155 278.800,34.561 279.520,34.907 280.400 C 35.769 282.594,35.928 282.537,41.760 277.954 C 44.591 275.729,49.629 271.802,52.954 269.227 C 56.279 266.652,65.930 259.154,74.400 252.565 C 82.870 245.976,91.555 239.257,93.700 237.635 C 95.845 236.013,97.600 234.498,97.600 234.269 C 97.600 233.575,96.296 229.028,95.974 228.600 C 95.809 228.380,95.364 226.490,94.987 224.400 C 94.609 222.310,94.161 220.420,93.992 220.200 C 91.975 217.582,91.975 184.126,93.992 179.800 C 94.197 179.360,94.657 177.382,95.013 175.404 C 95.370 173.426,95.802 171.626,95.974 171.404 C 96.847 170.275,97.730 165.558,97.165 165.040 C 96.854 164.755,89.310 158.879,80.400 151.983 C 58.057 134.691,49.239 127.850,41.964 122.161 L 35.728 117.284 35.024 119.242 " stroke="none" fill="#fbbb04" fill-rule="evenodd"></path><path id="path3" d="M187.800 16.630 C 186.920 16.711,183.500 16.984,180.200 17.237 C 176.900 17.489,174.020 17.832,173.800 17.998 C 173.580 18.165,172.320 18.420,171.000 18.565 C 166.801 19.026,162.607 19.719,162.400 19.985 C 162.290 20.127,160.441 20.549,158.291 20.924 C 156.140 21.298,154.070 21.773,153.691 21.979 C 153.311 22.184,151.650 22.661,150.000 23.037 C 148.350 23.414,146.910 23.837,146.800 23.977 C 146.690 24.118,145.205 24.556,143.500 24.951 C 141.795 25.345,140.400 25.806,140.400 25.975 C 140.400 26.143,139.185 26.607,137.700 27.005 C 136.215 27.402,134.910 27.852,134.800 28.005 C 134.690 28.157,133.610 28.602,132.400 28.994 C 131.190 29.385,130.016 29.850,129.790 30.027 C 129.565 30.204,128.485 30.651,127.390 31.021 C 126.296 31.391,125.310 31.823,125.200 31.980 C 125.090 32.137,124.055 32.602,122.900 33.012 C 121.745 33.422,120.800 33.888,120.800 34.047 C 120.800 34.206,119.900 34.635,118.800 35.000 C 117.700 35.365,116.800 35.794,116.800 35.953 C 116.800 36.112,115.914 36.560,114.832 36.950 C 113.749 37.339,112.782 37.870,112.682 38.130 C 112.582 38.390,111.803 38.853,110.950 39.158 C 110.098 39.463,109.310 39.843,109.200 40.003 C 109.090 40.162,108.220 40.722,107.266 41.246 C 106.312 41.771,104.978 42.507,104.301 42.881 C 103.624 43.256,102.964 43.706,102.835 43.881 C 102.706 44.057,101.970 44.551,101.200 44.980 C 100.430 45.409,99.620 45.907,99.400 46.087 C 98.572 46.763,96.158 48.390,95.038 49.026 C 94.398 49.388,93.509 50.026,93.062 50.443 C 92.615 50.859,92.129 51.200,91.983 51.200 C 91.837 51.200,91.196 51.645,90.558 52.190 C 88.416 54.021,88.190 54.198,87.067 54.927 C 86.451 55.326,85.604 55.956,85.185 56.327 C 84.766 56.697,83.923 57.406,83.312 57.901 C 80.410 60.253,77.311 63.185,70.447 70.069 C 62.525 78.014,60.394 80.335,56.189 85.600 C 55.398 86.590,54.504 87.703,54.202 88.074 C 53.900 88.444,53.330 89.254,52.936 89.874 C 52.541 90.493,52.063 91.111,51.873 91.246 C 51.683 91.381,51.319 91.858,51.064 92.306 C 50.809 92.754,49.295 95.025,47.700 97.353 C 46.105 99.681,44.800 101.747,44.800 101.944 C 44.800 102.141,44.527 102.529,44.193 102.806 C 43.859 103.083,43.279 103.960,42.906 104.755 C 42.532 105.550,42.079 106.380,41.900 106.600 C 41.283 107.356,38.800 111.697,38.800 112.020 C 38.800 112.198,38.569 112.581,38.286 112.871 C 38.004 113.162,37.386 114.340,36.913 115.489 L 36.053 117.579 44.727 124.321 C 49.497 128.030,58.710 135.182,65.200 140.214 C 71.690 145.247,81.587 152.928,87.193 157.285 C 92.798 161.641,97.568 165.144,97.791 165.070 C 98.013 164.996,98.538 163.779,98.956 162.367 C 99.374 160.955,99.870 159.740,100.058 159.667 C 100.246 159.593,100.400 159.345,100.400 159.115 C 100.400 158.547,103.614 151.051,103.966 150.800 C 104.119 150.690,104.490 149.970,104.789 149.200 C 105.087 148.430,105.543 147.530,105.801 147.200 C 106.060 146.870,106.934 145.394,107.744 143.920 C 108.554 142.447,109.448 141.007,109.731 140.720 C 110.013 140.434,110.595 139.570,111.022 138.800 C 111.450 138.030,112.025 137.256,112.300 137.080 C 112.575 136.904,112.800 136.563,112.800 136.321 C 112.800 136.080,113.430 135.114,114.200 134.174 C 114.970 133.234,115.600 132.342,115.600 132.190 C 115.600 132.039,116.050 131.561,116.600 131.129 C 117.150 130.696,117.600 130.186,117.600 129.995 C 117.600 129.355,126.903 119.695,130.200 116.911 C 131.300 115.983,132.830 114.666,133.600 113.987 C 134.370 113.307,135.855 112.191,136.900 111.508 C 137.945 110.824,138.800 110.137,138.800 109.981 C 138.800 109.825,139.344 109.472,140.009 109.196 C 140.675 108.921,141.350 108.484,141.509 108.226 C 141.669 107.968,142.467 107.447,143.283 107.068 C 144.099 106.689,144.871 106.208,145.000 106.000 C 145.129 105.792,145.901 105.311,146.717 104.932 C 147.533 104.552,148.290 104.118,148.400 103.966 C 148.510 103.814,149.230 103.403,150.000 103.053 C 150.770 102.703,151.670 102.237,152.000 102.017 C 153.340 101.127,159.445 98.400,160.098 98.400 C 160.484 98.400,160.800 98.233,160.800 98.028 C 160.800 97.824,161.835 97.356,163.100 96.989 C 164.365 96.621,165.490 96.186,165.600 96.021 C 165.710 95.857,167.150 95.400,168.800 95.006 C 170.450 94.613,171.980 94.158,172.200 93.996 C 172.420 93.834,174.400 93.373,176.600 92.971 C 178.800 92.569,180.692 92.110,180.804 91.952 C 182.124 90.088,215.533 90.116,219.800 91.986 C 220.240 92.178,222.310 92.646,224.400 93.024 C 226.490 93.402,228.380 93.838,228.600 93.993 C 228.820 94.148,230.170 94.585,231.600 94.965 C 233.030 95.344,234.963 96.002,235.896 96.427 C 236.828 96.852,237.823 97.200,238.107 97.200 C 238.390 97.200,238.977 97.441,239.411 97.736 C 239.845 98.031,241.145 98.607,242.300 99.015 C 243.455 99.424,244.400 99.878,244.400 100.025 C 244.400 100.171,245.255 100.610,246.300 101.000 C 247.345 101.390,248.470 101.925,248.800 102.188 C 249.130 102.451,250.050 102.963,250.845 103.326 C 251.640 103.688,252.517 104.259,252.794 104.593 C 253.071 104.927,253.548 105.200,253.853 105.200 C 254.158 105.200,254.716 105.560,255.093 106.000 C 255.470 106.440,255.970 106.800,256.204 106.800 C 256.438 106.800,257.253 107.333,258.015 107.984 C 258.777 108.635,259.585 109.175,259.811 109.184 C 260.037 109.193,260.529 109.515,260.905 109.900 C 261.280 110.285,262.085 110.996,262.694 111.480 C 265.605 113.796,267.875 115.684,268.614 116.406 C 270.221 117.973,270.296 117.906,297.101 91.099 C 322.960 65.238,324.018 64.066,322.330 63.163 C 321.852 62.907,320.637 61.919,319.630 60.967 C 316.490 57.998,314.613 56.404,314.258 56.402 C 314.069 56.401,313.561 55.950,313.129 55.400 C 312.696 54.850,312.183 54.400,311.989 54.400 C 311.795 54.400,311.158 53.970,310.573 53.445 C 308.551 51.631,308.038 51.240,306.920 50.662 C 306.303 50.343,305.456 49.703,305.037 49.241 C 304.618 48.778,304.034 48.400,303.738 48.400 C 303.442 48.400,303.200 48.228,303.200 48.019 C 303.200 47.809,302.570 47.339,301.800 46.973 C 301.030 46.608,300.400 46.190,300.400 46.045 C 300.400 45.900,299.725 45.428,298.900 44.995 C 298.075 44.562,297.256 43.981,297.080 43.704 C 296.904 43.427,296.523 43.200,296.234 43.200 C 295.945 43.200,295.265 42.852,294.724 42.426 C 294.182 42.000,292.943 41.218,291.970 40.688 C 288.071 38.565,287.416 38.181,286.914 37.724 C 286.627 37.463,285.763 37.022,284.996 36.744 C 284.228 36.466,283.600 36.114,283.600 35.960 C 283.600 35.806,282.700 35.357,281.600 34.961 C 280.500 34.566,279.600 34.110,279.600 33.948 C 279.600 33.786,279.195 33.528,278.700 33.373 C 278.205 33.219,276.720 32.589,275.400 31.973 C 274.080 31.356,272.505 30.731,271.900 30.583 C 271.295 30.434,270.800 30.181,270.800 30.020 C 270.800 29.859,269.675 29.392,268.300 28.983 C 266.925 28.573,265.693 28.085,265.563 27.898 C 265.433 27.710,264.263 27.279,262.963 26.940 C 261.663 26.601,260.510 26.188,260.400 26.022 C 260.290 25.857,258.850 25.396,257.200 24.998 C 255.550 24.600,253.840 24.053,253.400 23.782 C 252.960 23.511,251.385 23.057,249.900 22.771 C 248.415 22.486,247.200 22.131,247.200 21.982 C 247.200 21.833,245.265 21.383,242.900 20.983 C 240.535 20.583,238.510 20.130,238.400 19.977 C 238.290 19.823,235.860 19.389,233.000 19.013 C 230.140 18.637,227.440 18.173,227.000 17.983 C 224.846 17.053,194.542 16.007,187.800 16.630 " stroke="none" fill="#ec4434" fill-rule="evenodd"></path><path id="path4" d="M199.937 238.097 C 200.325 238.485,298.000 238.691,298.000 238.303 C 298.000 238.140,275.869 237.960,248.820 237.903 C 221.771 237.846,199.774 237.934,199.937 238.097 M261.867 291.867 C 261.334 292.400,261.680 292.746,266.443 296.442 C 269.106 298.509,272.571 301.204,274.143 302.432 C 275.714 303.660,283.480 309.677,291.400 315.804 C 299.320 321.931,307.780 328.492,310.200 330.383 C 319.654 337.772,321.599 339.232,321.578 338.922 C 321.565 338.745,320.440 337.738,319.078 336.684 C 317.715 335.630,313.781 332.570,310.336 329.884 C 306.891 327.198,302.779 324.010,301.198 322.800 C 299.618 321.590,295.956 318.754,293.062 316.497 C 290.168 314.240,287.440 312.122,287.000 311.790 C 286.037 311.064,282.986 308.712,281.600 307.627 C 272.536 300.535,266.201 295.652,263.661 293.800 C 262.755 293.140,262.096 292.375,262.195 292.100 C 262.394 291.546,262.273 291.460,261.867 291.867 " stroke="none" fill="#3c88e5" fill-rule="evenodd"></path></g></svg>