<svg width="14" height="17" viewBox="0 0 14 17" fill="none" xmlns="http://www.w3.org/2000/svg">
<g id="Vector">
<path id="Vector-37" d="M1.5 9.05382H0.75C0.75 9.07131 0.750611 9.08879 0.751833 9.10623L1.5 9.05382ZM2.282 9.73982V8.98982C2.26683 8.98982 2.25167 8.99028 2.23653 8.9912L2.282 9.73982ZM11.717 9.73982L11.8055 8.99507C11.7761 8.99157 11.7466 8.98982 11.717 8.98982V9.73982ZM12.3805 9.42306L13.0153 9.82251V9.82251L12.3805 9.42306ZM12.379 8.68782L13.0121 8.28578C13.0046 8.2739 12.9967 8.26223 12.9885 8.25079L12.379 8.68782ZM10.443 5.98782L11.0526 5.55075L11.0467 5.54282L10.443 5.98782ZM10.443 5.25682L11.0468 5.70187L11.0525 5.69386L10.443 5.25682ZM12.379 2.55682L12.9885 2.99386C12.9967 2.98242 13.0046 2.97075 13.0121 2.95887L12.379 2.55682ZM12.3805 1.82159L13.0153 1.42214L13.0153 1.42214L12.3805 1.82159ZM11.717 1.50482V2.25482C11.7466 2.25482 11.7761 2.25307 11.8055 2.24958L11.717 1.50482ZM2.282 1.50482L2.23653 2.25344C2.25167 2.25436 2.26683 2.25482 2.282 2.25482V1.50482ZM1.5 2.19082L0.751833 2.13841C0.750611 2.15586 0.75 2.17334 0.75 2.19082H1.5ZM2.25 9.05382C2.25 8.63961 1.91421 8.30382 1.5 8.30382C1.08579 8.30382 0.75 8.63961 0.75 9.05382H2.25ZM0.75 15.5048C0.75 15.919 1.08579 16.2548 1.5 16.2548C1.91421 16.2548 2.25 15.919 2.25 15.5048H0.75ZM0.751833 9.10623C0.808922 9.9212 1.51201 10.538 2.32747 10.4884L2.23653 8.9912C2.23632 8.99122 2.23688 8.99117 2.23797 8.99133C2.23901 8.99147 2.24008 8.99174 2.24107 8.99208C2.24295 8.99274 2.24396 8.99348 2.24445 8.99391C2.24494 8.99434 2.24581 8.99525 2.2467 8.99703C2.24718 8.99796 2.24758 8.99899 2.24786 9C2.24815 9.00106 2.24818 9.00162 2.24817 9.00141L0.751833 9.10623ZM2.282 10.4898H11.717V8.98982H2.282V10.4898ZM11.6285 10.4846C12.1798 10.5501 12.7196 10.2924 13.0153 9.82251L11.7457 9.02361C11.7585 9.00335 11.7818 8.99224 11.8055 8.99507L11.6285 10.4846ZM13.0153 9.82251C13.311 9.35261 13.3098 8.75447 13.0121 8.28578L11.7459 9.08987C11.733 9.06966 11.733 9.04387 11.7457 9.02361L13.0153 9.82251ZM12.9885 8.25079L11.0525 5.55079L9.83349 6.42486L11.7695 9.12486L12.9885 8.25079ZM11.0467 5.54282C11.0816 5.59009 11.0816 5.65455 11.0467 5.70183L9.83929 4.81182C9.48404 5.29376 9.48404 5.95088 9.83929 6.43283L11.0467 5.54282ZM11.0525 5.69386L12.9885 2.99386L11.7695 2.11979L9.83349 4.81979L11.0525 5.69386ZM13.0121 2.95887C13.3098 2.49018 13.311 1.89204 13.0153 1.42214L11.7457 2.22104C11.733 2.20078 11.733 2.17499 11.7459 2.15478L13.0121 2.95887ZM13.0153 1.42214C12.7196 0.952236 12.1798 0.694537 11.6285 0.760066L11.8055 2.24958C11.7818 2.25241 11.7585 2.2413 11.7457 2.22104L13.0153 1.42214ZM11.717 0.754824H2.282V2.25482H11.717V0.754824ZM2.32747 0.756204C1.51201 0.70667 0.808922 1.32344 0.751833 2.13841L2.24817 2.24323C2.24818 2.24303 2.24815 2.24359 2.24786 2.24465C2.24758 2.24566 2.24718 2.24669 2.2467 2.24762C2.24581 2.2494 2.24494 2.2503 2.24445 2.25073C2.24396 2.25116 2.24295 2.25191 2.24107 2.25257C2.24008 2.25291 2.23901 2.25317 2.23797 2.25332C2.23688 2.25347 2.23632 2.25343 2.23653 2.25344L2.32747 0.756204ZM0.75 2.19082V9.05382H2.25V2.19082H0.75ZM0.75 9.05382V12.7987H2.25V9.05382H0.75ZM0.75 12.7987V15.5048H2.25V12.7987H0.75Z" fill="black"/>
</g>
</svg>
