<svg width="18" height="16" viewBox="0 0 18 16" fill="none" xmlns="http://www.w3.org/2000/svg">
<path fill-rule="evenodd" clip-rule="evenodd" d="M5.147 7.85562C4.79385 7.07772 4.01628 6.58024 3.162 6.58562C1.98377 6.57005 1.01591 7.51239 1 8.69062V12.9026C1.01864 14.0789 1.98569 15.0182 3.162 15.0026C4.08991 15.0099 4.9186 14.4232 5.22 13.5456M5.147 7.85562C5.26396 8.11844 5.32427 8.40294 5.324 8.69062V12.9026C5.32552 13.1222 5.29176 13.3407 5.224 13.5496M5.147 7.85562C5.31554 7.51697 5.5574 7.22011 5.855 6.98662C6.0362 6.85407 6.16897 6.6658 6.233 6.45062L7.314 2.25062C7.57816 1.34288 8.52042 0.813723 9.433 1.06062C9.87077 1.16798 10.247 1.44684 10.477 1.83447C10.707 2.2221 10.7715 2.68593 10.656 3.12162L10.038 5.36462C9.97171 5.62085 10.029 5.89334 10.1929 6.10118C10.3568 6.30902 10.6084 6.4283 10.873 6.42362H14.405C15.0841 6.41427 15.7392 6.6752 16.2259 7.14896C16.7126 7.62272 16.991 8.27047 17 8.94962V12.3166C16.9908 12.9956 16.7122 13.6431 16.2255 14.1166C15.7388 14.5902 15.084 14.851 14.405 14.8416H7.486C6.55315 14.8463 5.68893 14.3521 5.22 13.5456" fill="#2F4858"/>
<path d="M4.69172 8.0623C4.80587 8.31375 5.10224 8.42505 5.35369 8.3109C5.60513 8.19675 5.71643 7.90037 5.60228 7.64893L4.69172 8.0623ZM3.162 6.58562L3.15539 7.08567L3.16515 7.08561L3.162 6.58562ZM1 8.69062L0.5 8.68386V8.69062H1ZM1 12.9026L0.499937 12.9026L0.500063 12.9105L1 12.9026ZM3.162 15.0026L3.16594 14.5025L3.15538 14.5027L3.162 15.0026ZM5.69289 13.708C5.78258 13.4469 5.64357 13.1624 5.3824 13.0727C5.12123 12.983 4.8368 13.122 4.74711 13.3832L5.69289 13.708ZM5.60381 7.65233C5.49153 7.40004 5.196 7.28653 4.94371 7.39881C4.69142 7.51108 4.57792 7.80662 4.69019 8.05891L5.60381 7.65233ZM5.324 8.69062L4.824 8.69015V8.69062H5.324ZM5.324 12.9026L4.82399 12.9026L4.82401 12.9061L5.324 12.9026ZM4.74839 13.3954C4.6632 13.658 4.80707 13.94 5.06974 14.0252C5.33241 14.1104 5.61442 13.9665 5.69961 13.7039L4.74839 13.3954ZM4.69937 7.63284C4.57634 7.88005 4.677 8.1802 4.92422 8.30324C5.17144 8.42628 5.47159 8.32561 5.59463 8.0784L4.69937 7.63284ZM5.855 6.98662L5.5598 6.58306C5.55526 6.58638 5.55078 6.58978 5.54636 6.59324L5.855 6.98662ZM6.233 6.45062L6.71223 6.59322C6.71401 6.58726 6.71567 6.58127 6.71722 6.57525L6.233 6.45062ZM7.314 2.25062L6.83392 2.11091C6.83246 2.11591 6.83108 2.12094 6.82978 2.12599L7.314 2.25062ZM9.433 1.06062L9.30239 1.5434L9.31391 1.54623L9.433 1.06062ZM10.477 1.83447L10.047 2.08963L10.047 2.08963L10.477 1.83447ZM10.656 3.12162L11.1381 3.25444L11.1393 3.24977L10.656 3.12162ZM10.038 5.36462L9.5559 5.23179L9.55394 5.23939L10.038 5.36462ZM10.1929 6.10118L9.80026 6.41076L9.80026 6.41076L10.1929 6.10118ZM10.873 6.42362V5.92354L10.8641 5.92369L10.873 6.42362ZM14.405 6.42362L14.405 6.92366L14.4119 6.92357L14.405 6.42362ZM16.2259 7.14896L16.5746 6.79067L16.5746 6.79067L16.2259 7.14896ZM17 8.94962L17.5 8.94962L17.5 8.94302L17 8.94962ZM17 12.3166L17.5 12.3234V12.3166H17ZM16.2255 14.1166L15.8768 13.7583L15.8768 13.7583L16.2255 14.1166ZM14.405 14.8416L14.4119 14.3416H14.405V14.8416ZM7.486 14.8416L7.486 14.3416L7.48347 14.3416L7.486 14.8416ZM5.65224 13.2943C5.51343 13.0556 5.20738 12.9746 4.96866 13.1134C4.72994 13.2522 4.64895 13.5582 4.78776 13.797L5.65224 13.2943ZM5.60228 7.64893C5.16758 6.69138 4.21043 6.079 3.15885 6.08563L3.16515 7.08561C3.82214 7.08147 4.42013 7.46406 4.69172 8.0623L5.60228 7.64893ZM3.16861 6.08566C1.71431 6.06644 0.519683 7.22958 0.500046 8.68387L1.49995 8.69737C1.51214 7.7952 2.25322 7.07365 3.15539 7.08557L3.16861 6.08566ZM0.5 8.69062V12.9026H1.5V8.69062H0.5ZM0.500063 12.9105C0.52307 14.3624 1.7167 15.5218 3.16862 15.5026L3.15538 14.5027C2.25468 14.5146 1.51421 13.7954 1.49994 12.8947L0.500063 12.9105ZM3.15806 15.5026C4.30096 15.5116 5.32166 14.789 5.69289 13.708L4.74711 13.3832C4.51554 14.0575 3.87885 14.5082 3.16594 14.5026L3.15806 15.5026ZM4.69019 8.05891C4.77861 8.25759 4.8242 8.47267 4.824 8.69015L5.824 8.69108C5.82434 8.33321 5.74931 7.97928 5.60381 7.65233L4.69019 8.05891ZM4.824 8.69062V12.9026H5.824V8.69062H4.824ZM4.82401 12.9061C4.82516 13.0722 4.79963 13.2374 4.74839 13.3954L5.69961 13.7039C5.78389 13.444 5.82588 13.1723 5.82399 12.8991L4.82401 12.9061ZM5.59463 8.0784C5.73008 7.80623 5.92446 7.56765 6.16364 7.37999L5.54636 6.59324C5.19034 6.87258 4.901 7.22771 4.69937 7.63284L5.59463 8.0784ZM6.1502 7.39017C6.41962 7.19309 6.61703 6.91316 6.71223 6.59322L5.75377 6.30802C5.72091 6.41844 5.65278 6.51505 5.5598 6.58306L6.1502 7.39017ZM6.71722 6.57525L7.79822 2.37524L6.82978 2.12599L5.74878 6.32599L6.71722 6.57525ZM7.79408 2.39033C7.98212 1.74419 8.65283 1.36752 9.30242 1.54326L9.56358 0.577968C8.38801 0.259924 7.1742 0.941581 6.83392 2.11091L7.79408 2.39033ZM9.31391 1.54623C9.62131 1.62161 9.88549 1.81744 10.047 2.08963L10.907 1.57931C10.6085 1.07625 10.1202 0.714339 9.55209 0.575007L9.31391 1.54623ZM10.047 2.08963C10.2085 2.36182 10.2538 2.68753 10.1727 2.99347L11.1393 3.24977C11.2892 2.68434 11.2055 2.08238 10.907 1.57931L10.047 2.08963ZM10.174 2.9888L9.55596 5.2318L10.52 5.49743L11.138 3.25443L10.174 2.9888ZM9.55394 5.23939C9.44852 5.64689 9.53964 6.08024 9.80026 6.41076L10.5855 5.7916C10.5184 5.70645 10.4949 5.59482 10.5221 5.48984L9.55394 5.23939ZM9.80026 6.41076C10.0609 6.74129 10.461 6.93099 10.8819 6.92354L10.8641 5.92369C10.7557 5.92561 10.6527 5.87675 10.5855 5.7916L9.80026 6.41076ZM10.873 6.92362H14.405V5.92362H10.873V6.92362ZM14.4119 6.92357C14.9584 6.91605 15.4855 7.12601 15.8771 7.50724L16.5746 6.79067C15.9929 6.22438 15.2099 5.91249 14.3981 5.92366L14.4119 6.92357ZM15.8771 7.50724C16.2687 7.88847 16.4928 8.40971 16.5 8.95621L17.5 8.94302C17.4893 8.13123 17.1564 7.35696 16.5746 6.79067L15.8771 7.50724ZM16.5 8.94962V12.3166H17.5V8.94962H16.5ZM16.5 12.3098C16.4926 12.8562 16.2684 13.3772 15.8768 13.7583L16.5742 14.475C17.1559 13.909 17.4889 13.135 17.5 12.3234L16.5 12.3098ZM15.8768 13.7583C15.4852 14.1393 14.9582 14.3492 14.4119 14.3417L14.3981 15.3416C15.2097 15.3527 15.9925 15.041 16.5742 14.475L15.8768 13.7583ZM14.405 14.3416H7.486V15.3416H14.405V14.3416ZM7.48347 14.3416C6.7296 14.3454 6.03119 13.946 5.65224 13.2943L4.78776 13.797C5.34666 14.7581 6.37669 15.3472 7.48853 15.3416L7.48347 14.3416Z" fill="#2F4858"/>
</svg>
