<svg width="24" height="25" viewBox="0 0 24 25" fill="none" xmlns="http://www.w3.org/2000/svg">
<path d="M6.69172 11.952C6.80587 12.2034 7.10224 12.3147 7.35369 12.2005C7.60513 12.0864 7.71643 11.79 7.60228 11.5386L6.69172 11.952ZM5.162 10.4753L5.15539 10.9753L5.16515 10.9753L5.162 10.4753ZM3 12.5803L2.5 12.5735V12.5803H3ZM3 16.7923H2.49994L2.50006 16.8002L3 16.7923ZM5.162 18.8923L5.16594 18.3922L5.15538 18.3923L5.162 18.8923ZM7.69289 17.5977C7.78258 17.3365 7.64357 17.0521 7.3824 16.9624C7.12123 16.8727 6.8368 17.0117 6.74711 17.2729L7.69289 17.5977ZM7.60381 11.542C7.49153 11.2897 7.196 11.1762 6.94371 11.2885C6.69142 11.4007 6.57792 11.6963 6.69019 11.9486L7.60381 11.542ZM7.324 12.5803L6.824 12.5798V12.5803H7.324ZM7.324 16.7923H6.82399L6.82401 16.7957L7.324 16.7923ZM6.74839 17.285C6.6632 17.5477 6.80707 17.8297 7.06974 17.9149C7.33241 18.0001 7.61442 17.8562 7.69961 17.5935L6.74839 17.285ZM6.69937 11.5225C6.57634 11.7697 6.677 12.0699 6.92422 12.1929C7.17144 12.3159 7.47159 12.2153 7.59463 11.968L6.69937 11.5225ZM7.855 10.8763L7.5598 10.4727C7.55526 10.476 7.55078 10.4794 7.54636 10.4829L7.855 10.8763ZM8.233 10.3403L8.71223 10.4829C8.71401 10.4769 8.71567 10.4709 8.71722 10.4649L8.233 10.3403ZM9.314 6.14026L8.83392 6.00056C8.83246 6.00556 8.83108 6.01059 8.82978 6.01564L9.314 6.14026ZM11.433 4.95026L11.3024 5.43305L11.3139 5.43587L11.433 4.95026ZM12.477 5.72412L12.047 5.97928V5.97928L12.477 5.72412ZM12.656 7.01126L13.1381 7.14408L13.1393 7.13941L12.656 7.01126ZM12.038 9.25426L11.5559 9.12144L11.5539 9.12904L12.038 9.25426ZM12.1929 9.99083L11.8003 10.3004L11.8003 10.3004L12.1929 9.99083ZM12.873 10.3133V9.81319L12.8641 9.81334L12.873 10.3133ZM16.405 10.3133V10.8133L16.4119 10.8132L16.405 10.3133ZM18.2259 11.0386L18.5746 10.6803L18.5746 10.6803L18.2259 11.0386ZM19 12.8393H19.5L19.5 12.8327L19 12.8393ZM19 16.2063L19.5 16.2131V16.2063H19ZM18.2255 18.0063L17.8768 17.6479H17.8768L18.2255 18.0063ZM16.405 18.7313L16.4119 18.2313H16.405V18.7313ZM9.486 18.7313L9.486 18.2313L9.48347 18.2313L9.486 18.7313ZM7.65224 17.1839C7.51343 16.9452 7.20738 16.8642 6.96866 17.003C6.72994 17.1418 6.64895 17.4479 6.78776 17.6866L7.65224 17.1839ZM7.60228 11.5386C7.16758 10.581 6.21043 9.96865 5.15885 9.97528L5.16515 10.9753C5.82214 10.9711 6.42013 11.3537 6.69172 11.952L7.60228 11.5386ZM5.16861 9.97531C3.71431 9.95609 2.51968 11.1192 2.50005 12.5735L3.49995 12.587C3.51214 11.6849 4.25322 10.9633 5.15539 10.9752L5.16861 9.97531ZM2.5 12.5803V16.7923H3.5V12.5803H2.5ZM2.50006 16.8002C2.52307 18.2521 3.7167 19.4115 5.16862 19.3922L5.15538 18.3923C4.25468 18.4042 3.51421 17.685 3.49994 16.7843L2.50006 16.8002ZM5.15806 19.3922C6.30096 19.4013 7.32166 18.6786 7.69289 17.5977L6.74711 17.2729C6.51554 17.9471 5.87885 18.3979 5.16594 18.3923L5.15806 19.3922ZM6.69019 11.9486C6.77861 12.1472 6.8242 12.3623 6.824 12.5798L7.824 12.5807C7.82434 12.2229 7.74931 11.8689 7.60381 11.542L6.69019 11.9486ZM6.824 12.5803V16.7923H7.824V12.5803H6.824ZM6.82401 16.7957C6.82516 16.9618 6.79963 17.127 6.74839 17.285L7.69961 17.5935C7.78389 17.3337 7.82588 17.062 7.82399 16.7888L6.82401 16.7957ZM7.59463 11.968C7.73008 11.6959 7.92446 11.4573 8.16364 11.2696L7.54636 10.4829C7.19034 10.7622 6.901 11.1174 6.69937 11.5225L7.59463 11.968ZM8.1502 11.2798C8.41962 11.0827 8.61703 10.8028 8.71223 10.4829L7.75377 10.1977C7.72091 10.3081 7.65278 10.4047 7.5598 10.4727L8.1502 11.2798ZM8.71722 10.4649L9.79822 6.26489L8.82978 6.01564L7.74878 10.2156L8.71722 10.4649ZM9.79408 6.27997C9.98212 5.63384 10.6528 5.25717 11.3024 5.43291L11.5636 4.46762C10.388 4.14957 9.1742 4.83123 8.83392 6.00056L9.79408 6.27997ZM11.3139 5.43587C11.6213 5.51126 11.8855 5.70708 12.047 5.97928L12.907 5.46896C12.6085 4.9659 12.1202 4.60399 11.5521 4.46466L11.3139 5.43587ZM12.047 5.97928C12.2085 6.25147 12.2538 6.57718 12.1727 6.88312L13.1393 7.13941C13.2892 6.57399 13.2055 5.97202 12.907 5.46896L12.047 5.97928ZM12.174 6.87845L11.556 9.12145L12.52 9.38708L13.138 7.14408L12.174 6.87845ZM11.5539 9.12904C11.4485 9.53654 11.5396 9.96988 11.8003 10.3004L12.5855 9.68125C12.5184 9.5961 12.4949 9.48447 12.5221 9.37949L11.5539 9.12904ZM11.8003 10.3004C12.0609 10.6309 12.461 10.8206 12.8819 10.8132L12.8641 9.81334C12.7557 9.81526 12.6527 9.76639 12.5855 9.68125L11.8003 10.3004ZM12.873 10.8133H16.405V9.81326H12.873V10.8133ZM16.4119 10.8132C16.9584 10.8057 17.4855 11.0157 17.8771 11.3969L18.5746 10.6803C17.9929 10.114 17.2099 9.80214 16.3981 9.81331L16.4119 10.8132ZM17.8771 11.3969C18.2687 11.7781 18.4928 12.2994 18.5 12.8459L19.5 12.8327C19.4893 12.0209 19.1564 11.2466 18.5746 10.6803L17.8771 11.3969ZM18.5 12.8393V16.2063H19.5V12.8393H18.5ZM18.5 16.1995C18.4926 16.7458 18.2684 17.2669 17.8768 17.6479L18.5742 18.3646C19.1559 17.7986 19.4889 17.0246 19.5 16.2131L18.5 16.1995ZM17.8768 17.6479C17.4852 18.029 16.9582 18.2388 16.4119 18.2313L16.3981 19.2312C17.2097 19.2424 17.9925 18.9307 18.5742 18.3646L17.8768 17.6479ZM16.405 18.2313H9.486V19.2313H16.405V18.2313ZM9.48347 18.2313C8.7296 18.2351 8.03119 17.8356 7.65224 17.1839L6.78776 17.6866C7.34666 18.6478 8.37669 19.2369 9.48853 19.2313L9.48347 18.2313Z" fill="#2F4858"/>
</svg>
