<svg width="24" height="24" viewBox="0 0 24 24" fill="none" xmlns="http://www.w3.org/2000/svg">
<g id="Xnix/Line/Line_Map-2">
<g id="Vector">
<path id="Vector-9" fill-rule="evenodd" clip-rule="evenodd" d="M16 9C16 11.2091 14.2091 13 12 13C9.79086 13 8 11.2091 8 9C8 6.79086 9.79086 5 12 5C13.0609 5 14.0783 5.42143 14.8284 6.17157C15.5786 6.92172 16 7.93913 16 9Z" stroke="black" stroke-linecap="round" stroke-linejoin="round"/>
<path id="Vector-10" d="M12.5 13C12.5 12.7238 12.2761 12.5 12 12.5C11.7239 12.5 11.5 12.7238 11.5 13H12.5ZM11.5 19C11.5 19.2761 11.7239 19.5 12 19.5C12.2761 19.5 12.5 19.2761 12.5 19H11.5ZM11.947 6.91581C11.6724 6.9451 11.4735 7.19143 11.5028 7.46602C11.5321 7.7406 11.7784 7.93946 12.053 7.91017L11.947 6.91581ZM13.5107 8.76735C13.6186 9.02154 13.9122 9.14014 14.1664 9.03225C14.4205 8.92435 14.5391 8.63083 14.4313 8.37663L13.5107 8.76735ZM11.5 13V19H12.5V13H11.5ZM12.053 7.91017C12.6746 7.84387 13.2665 8.1919 13.5107 8.76735L14.4313 8.37663C14.015 7.39594 13.0063 6.80283 11.947 6.91581L12.053 7.91017Z" fill="black"/>
</g>
</g>
</svg>
