<svg width="24" height="25" viewBox="0 0 24 25" fill="none" xmlns="http://www.w3.org/2000/svg">
<g id="Xnix/Line/Lock_3">
<g id="Vector">
<path id="Vector-6" d="M11.252 15.3C11.252 15.7142 11.5878 16.05 12.002 16.05C12.4162 16.05 12.752 15.7142 12.752 15.3H11.252ZM12.752 13.9C12.752 13.4858 12.4162 13.15 12.002 13.15C11.5878 13.15 11.252 13.4858 11.252 13.9H12.752ZM14.109 10.579C14.109 10.9932 14.4448 11.329 14.859 11.329C15.2732 11.329 15.609 10.9932 15.609 10.579H14.109ZM14.859 8.44L14.109 8.42957V8.44H14.859ZM12.002 5.5L12.013 4.75008C12.0056 4.74997 11.9983 4.74997 11.9909 4.75008L12.002 5.5ZM9.14497 8.44H9.89504L9.89489 8.42957L9.14497 8.44ZM8.39497 10.579C8.39497 10.9932 8.73075 11.329 9.14497 11.329C9.55918 11.329 9.89497 10.9932 9.89497 10.579H8.39497ZM14.437 11.199C14.7794 11.4321 15.246 11.3434 15.479 11.001C15.712 10.6585 15.6234 10.192 15.2809 9.95896L14.437 11.199ZM8.723 9.95896C8.38056 10.192 8.29188 10.6585 8.52493 11.001C8.75798 11.3434 9.2245 11.4321 9.56693 11.199L8.723 9.95896ZM15.2816 9.95943C14.9394 9.72601 14.4728 9.81417 14.2394 10.1564C14.006 10.4985 14.0941 10.9652 14.4363 11.1986L15.2816 9.95943ZM15.537 11.135L15.0121 11.6708L15.0122 11.6709L15.537 11.135ZM16.902 13.644L17.637 13.495L17.6369 13.4945L16.902 13.644ZM16.617 16.475L17.3074 16.768L17.3076 16.7675L16.617 16.475ZM14.775 18.675L14.3652 18.0468L14.365 18.047L14.775 18.675ZM8.46197 18.066L7.93915 18.6037L7.93952 18.6041L8.46197 18.066ZM7.84497 11.878L8.46367 12.3019L8.46459 12.3006L7.84497 11.878ZM9.56754 11.1976C9.90975 10.9642 9.99797 10.4976 9.76459 10.1554C9.53121 9.81322 9.0646 9.725 8.72239 9.95838L9.56754 11.1976ZM12.752 15.3V13.9H11.252V15.3H12.752ZM15.609 10.579V8.44H14.109V10.579H15.609ZM15.6089 8.45043C15.6369 6.43596 14.0275 4.77976 12.013 4.75008L11.9909 6.24992C13.1775 6.2674 14.1255 7.24297 14.109 8.42957L15.6089 8.45043ZM11.9909 4.75008C9.97648 4.77976 8.36703 6.43596 8.39504 8.45043L9.89489 8.42957C9.8784 7.24297 10.8264 6.2674 12.013 6.24992L11.9909 4.75008ZM8.39497 8.44V10.579H9.89497V8.44H8.39497ZM15.2809 9.95896C13.3023 8.61241 10.7016 8.61241 8.723 9.95896L9.56693 11.199C11.0363 10.1991 12.9676 10.1991 14.437 11.199L15.2809 9.95896ZM14.4363 11.1986C14.6418 11.3387 14.8345 11.4967 15.0121 11.6708L16.0618 10.5992C15.8211 10.3634 15.56 10.1493 15.2816 9.95943L14.4363 11.1986ZM15.0122 11.6709C15.6007 12.2471 16.0029 12.9864 16.167 13.7935L17.6369 13.4945C17.413 12.3937 16.8644 11.3851 16.0617 10.5991L15.0122 11.6709ZM16.1669 13.793C16.3296 14.5955 16.2457 15.4285 15.9264 16.1825L17.3076 16.7675C17.745 15.7349 17.8598 14.5941 17.637 13.495L16.1669 13.793ZM15.9266 16.182C15.6028 16.9449 15.0593 17.5941 14.3652 18.0468L15.1847 19.3032C16.1283 18.6876 16.8672 17.8051 17.3074 16.768L15.9266 16.182ZM14.365 18.047C12.6706 19.153 10.4361 18.9374 8.98441 17.5279L7.93952 18.6041C9.89434 20.5021 12.9033 20.7924 15.1849 19.303L14.365 18.047ZM8.98478 17.5283C7.5622 16.1452 7.34219 13.9387 8.46366 12.3019L7.22627 11.4541C5.69208 13.6932 5.99305 16.7117 7.93915 18.6037L8.98478 17.5283ZM8.46459 12.3006C8.76011 11.8672 9.13421 11.4931 9.56754 11.1976L8.72239 9.95838C8.13424 10.3595 7.62646 10.8673 7.22534 11.4554L8.46459 12.3006Z" fill="white"/>
</g>
</g>
</svg>
