<svg width="24" height="25" viewBox="0 0 24 25" fill="none" xmlns="http://www.w3.org/2000/svg">
<g id="Xnix/Line/Copy-3">
<g id="Vector">
<path id="Vector-32" fill-rule="evenodd" clip-rule="evenodd" d="M8.44614 5.50001L12.7541 5.50001C13.6731 5.50504 14.5525 5.87493 15.1987 6.52831C15.845 7.18169 16.2052 8.06503 16.2001 8.98401V13.216C16.2052 14.135 15.845 15.0183 15.1987 15.6717C14.5525 16.3251 13.6731 16.695 12.7541 16.7H8.44614C7.52716 16.695 6.64782 16.3251 6.00157 15.6717C5.35531 15.0183 4.99509 14.135 5.00014 13.216L5.00014 8.98501C4.99483 8.06586 5.35493 7.18226 6.00121 6.52866C6.6475 5.87506 7.52699 5.50504 8.44614 5.50001Z" stroke="black" stroke-width="1.5" stroke-linecap="round" stroke-linejoin="round"/>
<path id="Vector-33" d="M9.66695 19.5H14.437C16.9856 19.4709 19.0283 17.3816 19 14.833V10.166" stroke="black" stroke-width="1.5" stroke-linecap="round" stroke-linejoin="round"/>
</g>
</g>
</svg>
