<svg width="16" height="16" viewBox="0 0 16 16" fill="none" xmlns="http://www.w3.org/2000/svg">
<path fill-rule="evenodd" clip-rule="evenodd" d="M7.99998 3.333C7.99998 4.62148 6.95546 5.666 5.66698 5.666C4.3785 5.666 3.33398 4.62148 3.33398 3.333C3.33398 2.04452 4.3785 1 5.66698 1C6.95546 1 7.99998 2.04452 7.99998 3.333Z" stroke="#424242" stroke-linecap="round" stroke-linejoin="round"/>
<path fill-rule="evenodd" clip-rule="evenodd" d="M10.333 11.733C10.333 13.533 8.244 15 5.666 15C3.088 15 1 13.537 1 11.733C1 9.92898 3.089 8.46698 5.667 8.46698C8.245 8.46698 10.333 9.92898 10.333 11.733Z" stroke="#424242" stroke-linecap="round" stroke-linejoin="round"/>
<path fill-rule="evenodd" clip-rule="evenodd" d="M12.9389 5.51102C12.9389 6.28422 12.3121 6.91102 11.5389 6.91102C10.7657 6.91102 10.1389 6.28422 10.1389 5.51102C10.1389 4.73782 10.7657 4.11102 11.5389 4.11102C11.9102 4.11102 12.2663 4.25852 12.5289 4.52107C12.7914 4.78362 12.9389 5.13972 12.9389 5.51102Z" stroke="#424242" stroke-linecap="round" stroke-linejoin="round"/>
<path d="M12.2 14.067C13.6137 14.1831 14.8596 13.1445 15 11.733C14.8591 10.3218 13.6134 9.28387 12.2 9.39998" stroke="#424242" stroke-linecap="round" stroke-linejoin="round"/>
</svg>
