<svg width="24" height="24" viewBox="0 0 24 24" fill="none" xmlns="http://www.w3.org/2000/svg">
<g id="Xnix/Line/Send">
<g id="Vector">
<path id="Vector-27" d="M19.1357 6.03046C19.5365 5.92605 19.7768 5.51647 19.6724 5.11563C19.568 4.71479 19.1584 4.47448 18.7576 4.57889L19.1357 6.03046ZM4.8625 8.97314L5.04309 9.70113L5.05154 9.69893L4.8625 8.97314ZM4.15823 9.71028L3.42282 9.56308L3.42282 9.56308L4.15823 9.71028ZM4.5245 10.6617L4.07765 11.2641C4.11784 11.2939 4.16091 11.3196 4.20622 11.3408L4.5245 10.6617ZM10.3786 14.2336C10.7536 14.4094 11.2002 14.2478 11.376 13.8728C11.5517 13.4977 11.3902 13.0512 11.0151 12.8754L10.3786 14.2336ZM19.6724 5.49372C19.7768 5.09288 19.5365 4.68329 19.1357 4.57889C18.7349 4.47448 18.3253 4.71479 18.2209 5.11563L19.6724 5.49372ZM15.2782 19.3888L14.5523 19.1998L14.5502 19.2082L15.2782 19.3888ZM14.541 20.0931L14.6882 20.8285L14.6882 20.8285L14.541 20.0931ZM13.5896 19.7268L12.9105 20.0451C12.9317 20.0904 12.9575 20.1335 12.9873 20.1737L13.5896 19.7268ZM11.376 13.2362C11.2002 12.8611 10.7536 12.6996 10.3786 12.8754C10.0035 13.0512 9.84194 13.4977 10.0177 13.8728L11.376 13.2362ZM19.477 5.835C19.7699 5.54211 19.7699 5.06724 19.477 4.77434C19.1841 4.48145 18.7092 4.48145 18.4163 4.77434L19.477 5.835ZM10.1665 13.0242C9.87361 13.3171 9.87361 13.7919 10.1665 14.0848C10.4594 14.3777 10.9343 14.3777 11.2272 14.0848L10.1665 13.0242ZM18.7576 4.57889L4.67346 8.24736L5.05154 9.69893L19.1357 6.03046L18.7576 4.57889ZM4.68192 8.24521C4.04255 8.40381 3.55211 8.91714 3.42282 9.56308L4.89364 9.85749C4.90899 9.78083 4.96719 9.7199 5.04308 9.70108L4.68192 8.24521ZM3.42282 9.56308C3.29352 10.209 3.54858 10.8716 4.07765 11.2641L4.97136 10.0594C4.90857 10.0128 4.8783 9.93415 4.89364 9.85749L3.42282 9.56308ZM4.20622 11.3408L10.3786 14.2336L11.0151 12.8754L4.84278 9.9826L4.20622 11.3408ZM18.2209 5.11563L14.5524 19.1998L16.004 19.5779L19.6724 5.49372L18.2209 5.11563ZM14.5502 19.2082C14.5314 19.2841 14.4705 19.3423 14.3938 19.3577L14.6882 20.8285C15.3342 20.6992 15.8475 20.2088 16.0061 19.5694L14.5502 19.2082ZM14.3938 19.3577C14.3172 19.373 14.2385 19.3428 14.192 19.28L12.9873 20.1737C13.3798 20.7027 14.0423 20.9578 14.6882 20.8285L14.3938 19.3577ZM14.2687 19.4085L11.376 13.2362L10.0177 13.8728L12.9105 20.0451L14.2687 19.4085ZM18.4163 4.77434L10.1665 13.0242L11.2272 14.0848L19.477 5.835L18.4163 4.77434Z" fill="black"/>
</g>
</g>
</svg>
