<svg width="18" height="16" viewBox="0 0 18 16" fill="none" xmlns="http://www.w3.org/2000/svg">
<path fill-rule="evenodd" clip-rule="evenodd" d="M12.853 8.14731C13.2061 8.92521 13.9837 9.42269 14.838 9.41731C16.0162 9.43288 16.9841 8.49054 17 7.31231V3.10031C16.9814 1.92405 16.0143 0.98473 14.838 1.00031C13.9101 0.993002 13.0814 1.57969 12.78 2.45731M12.853 8.14731C12.736 7.88449 12.6757 7.59999 12.676 7.31231L12.676 3.10031C12.6745 2.88068 12.7082 2.66224 12.776 2.45331M12.853 8.14731C12.6845 8.48596 12.4426 8.78282 12.145 9.01631C11.9638 9.14886 11.831 9.33713 11.767 9.55231L10.686 13.7523C10.4218 14.66 9.47958 15.1892 8.567 14.9423C8.12923 14.835 7.75302 14.5561 7.523 14.1685C7.29298 13.7808 7.22848 13.317 7.344 12.8813L7.962 10.6383C8.02829 10.3821 7.97099 10.1096 7.80711 9.90175C7.64324 9.69391 7.39163 9.57463 7.127 9.57931L3.595 9.57931C2.91586 9.58866 2.26084 9.32773 1.77414 8.85397C1.28744 8.38021 1.00896 7.73246 1 7.05331V3.68631C1.00922 3.00734 1.28782 2.35984 1.77449 1.8863C2.26116 1.41276 2.91603 1.15197 3.595 1.16131L10.514 1.16131C11.4469 1.1566 12.3111 1.65087 12.78 2.45731" fill="#2F4858"/>
<path d="M13.3083 7.94063C13.1941 7.68918 12.8978 7.57788 12.6463 7.69203C12.3949 7.80618 12.2836 8.10256 12.3977 8.354L13.3083 7.94063ZM14.838 9.41731L14.8446 8.91726L14.8349 8.91732L14.838 9.41731ZM17 7.31231L17.5 7.31907V7.31231H17ZM17 3.10031L17.5001 3.10031L17.4999 3.09239L17 3.10031ZM14.838 1.00031L14.8341 1.50041L14.8446 1.50027L14.838 1.00031ZM12.3071 2.29491C12.2174 2.55608 12.3564 2.84051 12.6176 2.9302C12.8788 3.0199 13.1632 2.88089 13.2529 2.61972L12.3071 2.29491ZM12.3962 8.3506C12.5085 8.60289 12.804 8.7164 13.0563 8.60412C13.3086 8.49185 13.4221 8.19631 13.3098 7.94402L12.3962 8.3506ZM12.676 7.31231L13.176 7.31278V7.31231H12.676ZM12.676 3.10031L13.176 3.10031L13.176 3.09684L12.676 3.10031ZM13.2516 2.60757C13.3368 2.3449 13.1929 2.0629 12.9303 1.9777C12.6676 1.89251 12.3856 2.03638 12.3004 2.29906L13.2516 2.60757ZM13.3006 8.37009C13.4237 8.12288 13.323 7.82273 13.0758 7.69969C12.8286 7.57665 12.5284 7.67732 12.4054 7.92453L13.3006 8.37009ZM12.145 9.01631L12.4402 9.41987C12.4447 9.41655 12.4492 9.41315 12.4536 9.40969L12.145 9.01631ZM11.767 9.55231L11.2878 9.40971C11.286 9.41567 11.2843 9.42166 11.2828 9.42768L11.767 9.55231ZM10.686 13.7523L11.1661 13.892C11.1675 13.887 11.1689 13.882 11.1702 13.8769L10.686 13.7523ZM8.567 14.9423L8.69761 14.4595L8.68609 14.4567L8.567 14.9423ZM7.523 14.1685L7.95299 13.9133L7.95299 13.9133L7.523 14.1685ZM7.344 12.8813L6.86194 12.7485L6.8607 12.7532L7.344 12.8813ZM7.962 10.6383L8.4441 10.7711L8.44606 10.7635L7.962 10.6383ZM7.80711 9.90175L8.19974 9.59217L8.19974 9.59217L7.80711 9.90175ZM7.127 9.57931V10.0794L7.13585 10.0792L7.127 9.57931ZM3.595 9.57931L3.595 9.07927L3.58812 9.07936L3.595 9.57931ZM1.77414 8.85397L1.42538 9.21226L1.42538 9.21226L1.77414 8.85397ZM1 7.05331L0.499957 7.05331L0.500044 7.05991L1 7.05331ZM1 3.68631L0.5 3.67952V3.68631H1ZM1.77449 1.8863L2.12317 2.24465L2.12317 2.24465L1.77449 1.8863ZM3.595 1.16131L3.58812 1.66131H3.595V1.16131ZM10.514 1.16131L10.514 1.66132L10.5165 1.66131L10.514 1.16131ZM12.3478 2.70865C12.4866 2.94737 12.7926 3.02836 13.0313 2.88955C13.2701 2.75074 13.351 2.4447 13.2122 2.20598L12.3478 2.70865ZM12.3977 8.354C12.8324 9.31154 13.7896 9.92393 14.8411 9.9173L14.8349 8.91732C14.1779 8.92146 13.5799 8.53887 13.3083 7.94063L12.3977 8.354ZM14.8314 9.91727C16.2857 9.93649 17.4803 8.77335 17.5 7.31906L16.5 7.30556C16.4879 8.20773 15.7468 8.92928 14.8446 8.91736L14.8314 9.91727ZM17.5 7.31231V3.10031H16.5V7.31231H17.5ZM17.4999 3.09239C17.4769 1.64053 16.2833 0.481122 14.8314 0.500358L14.8446 1.50027C15.7453 1.48834 16.4858 2.20757 16.5001 3.10824L17.4999 3.09239ZM14.8419 0.500329C13.699 0.491323 12.6783 1.21395 12.3071 2.29491L13.2529 2.61972C13.4845 1.94544 14.1211 1.49468 14.8341 1.5003L14.8419 0.500329ZM13.3098 7.94402C13.2214 7.74534 13.1758 7.53026 13.176 7.31278L12.176 7.31184C12.1757 7.66972 12.2507 8.02365 12.3962 8.3506L13.3098 7.94402ZM13.176 7.31231L13.176 3.10031H12.176L12.176 7.31231H13.176ZM13.176 3.09684C13.1748 2.93076 13.2004 2.76556 13.2516 2.60757L12.3004 2.29906C12.2161 2.55891 12.1741 2.83061 12.176 3.10378L13.176 3.09684ZM12.4054 7.92453C12.2699 8.1967 12.0755 8.43528 11.8364 8.62294L12.4536 9.40969C12.8097 9.13035 13.099 8.77522 13.3006 8.37009L12.4054 7.92453ZM11.8498 8.61276C11.5804 8.80984 11.383 9.08977 11.2878 9.40971L12.2462 9.69491C12.2791 9.58449 12.3472 9.48788 12.4402 9.41987L11.8498 8.61276ZM11.2828 9.42768L10.2018 13.6277L11.1702 13.8769L12.2512 9.67694L11.2828 9.42768ZM10.2059 13.6126C10.0179 14.2587 9.34717 14.6354 8.69758 14.4597L8.43642 15.425C9.61199 15.743 10.8258 15.0613 11.1661 13.892L10.2059 13.6126ZM8.68609 14.4567C8.37869 14.3813 8.11451 14.1855 7.95299 13.9133L7.09301 14.4236C7.39153 14.9267 7.87978 15.2886 8.44791 15.4279L8.68609 14.4567ZM7.95299 13.9133C7.79147 13.6411 7.74618 13.3154 7.8273 13.0095L6.8607 12.7532C6.71078 13.3186 6.79449 13.9206 7.09301 14.4236L7.95299 13.9133ZM7.82604 13.0141L8.44404 10.7711L7.47996 10.5055L6.86196 12.7485L7.82604 13.0141ZM8.44606 10.7635C8.55148 10.356 8.46036 9.92269 8.19974 9.59217L7.41448 10.2113C7.48162 10.2965 7.50509 10.4081 7.47794 10.5131L8.44606 10.7635ZM8.19974 9.59217C7.93913 9.26164 7.53899 9.07194 7.11815 9.07939L7.13585 10.0792C7.24427 10.0773 7.34734 10.1262 7.41448 10.2113L8.19974 9.59217ZM7.127 9.07931L3.595 9.07931V10.0793L7.127 10.0793V9.07931ZM3.58812 9.07936C3.04162 9.08688 2.51454 8.87692 2.12289 8.49569L1.42538 9.21226C2.00714 9.77855 2.79009 10.0904 3.60188 10.0793L3.58812 9.07936ZM2.1229 8.49569C1.73125 8.11446 1.50716 7.59322 1.49996 7.04672L0.500044 7.05991C0.510749 7.8717 0.843621 8.64597 1.42538 9.21226L2.1229 8.49569ZM1.5 7.05331V3.68631H0.5V7.05331H1.5ZM1.49995 3.6931C1.50737 3.14674 1.73156 2.62571 2.12317 2.24465L1.4258 1.52795C0.844076 2.09398 0.511066 2.86794 0.500047 3.67952L1.49995 3.6931ZM2.12317 2.24465C2.51479 1.8636 3.04176 1.65375 3.58812 1.66127L3.60188 0.66136C2.7903 0.650189 2.00752 0.961915 1.4258 1.52795L2.12317 2.24465ZM3.595 1.66131L10.514 1.66131V0.661313L3.595 0.661313V1.66131ZM10.5165 1.66131C11.2704 1.6575 11.9688 2.05694 12.3478 2.70865L13.2122 2.20598C12.6533 1.24481 11.6233 0.655699 10.5115 0.661319L10.5165 1.66131Z" fill="#2F4858"/>
</svg>
