<svg width="24" height="25" viewBox="0 0 24 25" fill="none" xmlns="http://www.w3.org/2000/svg">
<path d="M16.3083 12.8303C16.1941 12.5788 15.8978 12.4675 15.6463 12.5817C15.3949 12.6958 15.2836 12.9922 15.3977 13.2436L16.3083 12.8303ZM17.838 14.307L17.8446 13.8069L17.8349 13.807L17.838 14.307ZM20 12.202L20.5 12.2087V12.202H20ZM20 7.98996H20.5001L20.4999 7.98204L20 7.98996ZM17.838 5.88996L17.8341 6.39006L17.8446 6.38992L17.838 5.88996ZM15.3071 7.18456C15.2174 7.44573 15.3564 7.73016 15.6176 7.81985C15.8788 7.90954 16.1632 7.77054 16.2529 7.50937L15.3071 7.18456ZM15.3962 13.2403C15.5085 13.4925 15.804 13.606 16.0563 13.4938C16.3086 13.3815 16.4221 13.086 16.3098 12.8337L15.3962 13.2403ZM15.676 12.202L16.176 12.2024V12.202H15.676ZM15.676 7.98996H16.176L16.176 7.98649L15.676 7.98996ZM16.2516 7.49722C16.3368 7.23455 16.1929 6.95255 15.9303 6.86735C15.6676 6.78216 15.3856 6.92603 15.3004 7.1887L16.2516 7.49722ZM16.3006 13.2597C16.4237 13.0125 16.323 12.7124 16.0758 12.5893C15.8286 12.4663 15.5284 12.567 15.4054 12.8142L16.3006 13.2597ZM15.145 13.906L15.4402 14.3095C15.4447 14.3062 15.4492 14.3028 15.4536 14.2993L15.145 13.906ZM14.767 14.442L14.2878 14.2994C14.286 14.3053 14.2843 14.3113 14.2828 14.3173L14.767 14.442ZM13.686 18.642L14.1661 18.7817C14.1675 18.7767 14.1689 18.7716 14.1702 18.7666L13.686 18.642ZM11.567 19.832L11.6976 19.3492L11.6861 19.3464L11.567 19.832ZM10.523 19.0581L10.953 18.8029V18.8029L10.523 19.0581ZM10.344 17.771L9.86194 17.6381L9.8607 17.6428L10.344 17.771ZM10.962 15.528L11.4441 15.6608L11.4461 15.6532L10.962 15.528ZM10.8071 14.7914L11.1997 14.4818L11.1997 14.4818L10.8071 14.7914ZM10.127 14.469V14.969L10.1359 14.9689L10.127 14.469ZM6.595 14.469V13.9689L6.58812 13.969L6.595 14.469ZM4.77414 13.7436L4.42538 14.1019L4.42538 14.1019L4.77414 13.7436ZM4 11.943H3.49996L3.50004 11.9496L4 11.943ZM4 8.57596L3.5 8.56917V8.57596H4ZM4.77449 6.77595L5.12317 7.1343H5.12317L4.77449 6.77595ZM6.595 6.05096L6.58812 6.55096H6.595V6.05096ZM13.514 6.05096L13.514 6.55097L13.5165 6.55095L13.514 6.05096ZM15.3478 7.5983C15.4866 7.83702 15.7926 7.91801 16.0313 7.7792C16.2701 7.64039 16.351 7.33434 16.2122 7.09562L15.3478 7.5983ZM15.3977 13.2436C15.8324 14.2012 16.7896 14.8136 17.8411 14.807L17.8349 13.807C17.1779 13.8111 16.5799 13.4285 16.3083 12.8303L15.3977 13.2436ZM17.8314 14.8069C19.2857 14.8261 20.4803 13.663 20.5 12.2087L19.5 12.1952C19.4879 13.0974 18.7468 13.8189 17.8446 13.807L17.8314 14.8069ZM20.5 12.202V7.98996H19.5V12.202H20.5ZM20.4999 7.98204C20.4769 6.53018 19.2833 5.37077 17.8314 5.39001L17.8446 6.38992C18.7453 6.37799 19.4858 7.09722 19.5001 7.99788L20.4999 7.98204ZM17.8419 5.38998C16.699 5.38097 15.6783 6.10359 15.3071 7.18456L16.2529 7.50937C16.4845 6.83508 17.1211 6.38433 17.8341 6.38995L17.8419 5.38998ZM16.3098 12.8337C16.2214 12.635 16.1758 12.4199 16.176 12.2024L15.176 12.2015C15.1757 12.5594 15.2507 12.9133 15.3962 13.2403L16.3098 12.8337ZM16.176 12.202V7.98996H15.176L15.176 12.202H16.176ZM16.176 7.98649C16.1748 7.8204 16.2004 7.65521 16.2516 7.49722L15.3004 7.1887C15.2161 7.44856 15.1741 7.72026 15.176 7.99343L16.176 7.98649ZM15.4054 12.8142C15.2699 13.0863 15.0755 13.3249 14.8364 13.5126L15.4536 14.2993C15.8097 14.02 16.099 13.6649 16.3006 13.2597L15.4054 12.8142ZM14.8498 13.5024C14.5804 13.6995 14.383 13.9794 14.2878 14.2994L15.2462 14.5846C15.2791 14.4741 15.3472 14.3775 15.4402 14.3095L14.8498 13.5024ZM14.2828 14.3173L13.2018 18.5173L14.1702 18.7666L15.2512 14.5666L14.2828 14.3173ZM13.2059 18.5023C13.0179 19.1484 12.3472 19.5251 11.6976 19.3493L11.4364 20.3146C12.612 20.6327 13.8258 19.951 14.1661 18.7817L13.2059 18.5023ZM11.6861 19.3464C11.3787 19.271 11.1145 19.0751 10.953 18.8029L10.093 19.3133C10.3915 19.8163 10.8798 20.1782 11.4479 20.3176L11.6861 19.3464ZM10.953 18.8029C10.7915 18.5308 10.7462 18.205 10.8273 17.8991L9.8607 17.6428C9.71078 18.2082 9.79449 18.8102 10.093 19.3133L10.953 18.8029ZM10.826 17.9038L11.444 15.6608L10.48 15.3951L9.86196 17.6381L10.826 17.9038ZM11.4461 15.6532C11.5515 15.2457 11.4604 14.8123 11.1997 14.4818L10.4145 15.101C10.4816 15.1861 10.5051 15.2978 10.4779 15.4027L11.4461 15.6532ZM11.1997 14.4818C10.9391 14.1513 10.539 13.9616 10.1181 13.969L10.1359 14.9689C10.2443 14.967 10.3473 15.0158 10.4145 15.101L11.1997 14.4818ZM10.127 13.969L6.595 13.969V14.969L10.127 14.969V13.969ZM6.58812 13.969C6.04162 13.9765 5.51454 13.7666 5.12289 13.3853L4.42538 14.1019C5.00714 14.6682 5.79009 14.9801 6.60188 14.9689L6.58812 13.969ZM5.1229 13.3853C4.73125 13.0041 4.50716 12.4829 4.49996 11.9364L3.50004 11.9496C3.51075 12.7614 3.84362 13.5356 4.42538 14.1019L5.1229 13.3853ZM4.5 11.943V8.57596H3.5V11.943H4.5ZM4.49995 8.58275C4.50737 8.03639 4.73156 7.51536 5.12317 7.1343L4.4258 6.4176C3.84408 6.98363 3.51107 7.75759 3.50005 8.56917L4.49995 8.58275ZM5.12317 7.1343C5.51479 6.75325 6.04176 6.54339 6.58812 6.55091L6.60188 5.55101C5.7903 5.53984 5.00752 5.85156 4.4258 6.4176L5.12317 7.1343ZM6.595 6.55096L13.514 6.55096V5.55096L6.595 5.55096V6.55096ZM13.5165 6.55095C14.2704 6.54714 14.9688 6.94659 15.3478 7.5983L16.2122 7.09562C15.6533 6.13446 14.6233 5.54535 13.5115 5.55097L13.5165 6.55095Z" fill="#2F4858"/>
</svg>
