<svg width="120" height="120" viewBox="0 0 120 120" fill="none" xmlns="http://www.w3.org/2000/svg">
<path d="M54.586 26.875C56.9916 22.7083 63.0057 22.7083 65.4113 26.875L100.052 86.875C102.458 91.0417 99.4509 96.25 94.6396 96.25H25.3576C20.5464 96.25 17.5393 91.0417 19.945 86.875L54.586 26.875Z" fill="#EF5350" stroke="#EF5350" stroke-width="7.5"/>
<path fill-rule="evenodd" clip-rule="evenodd" d="M60 65V45V65Z" fill="white"/>
<path d="M60 65V45" stroke="white" stroke-width="7.5" stroke-linecap="round"/>
<path d="M60 77.5C61.3785 77.5 62.5 78.6215 62.5 80C62.5 81.3785 61.3785 82.5 60 82.5C58.6215 82.5 57.5 81.3785 57.5 80C57.5 78.6215 58.6215 77.5 60 77.5Z" fill="white"/>
<path d="M60 85C57.2386 85 55 82.7614 55 80C55 77.2386 57.2386 75 60 75C62.7614 75 65 77.2386 65 80C65 82.7614 62.7614 85 60 85Z" fill="white"/>
</svg>
