<svg width="18" height="18" viewBox="0 0 18 18" fill="none" xmlns="http://www.w3.org/2000/svg">
<path d="M8.18839 4.03125C8.54923 3.40625 9.45134 3.40625 9.81218 4.03125L15.0083 13.0313C15.3692 13.6563 14.9181 14.4375 14.1964 14.4375H3.80413C3.08244 14.4375 2.63139 13.6562 2.99223 13.0312L8.18839 4.03125Z" fill="#EF5350" stroke="#EF5350" stroke-width="1.125"/>
<path fill-rule="evenodd" clip-rule="evenodd" d="M9 9.75V6.75V9.75Z" fill="white"/>
<path d="M9 9.75V6.75" stroke="white" stroke-width="1.125" stroke-linecap="round"/>
<path d="M9 11.625C9.20677 11.625 9.375 11.7932 9.375 12C9.375 12.2068 9.20677 12.375 9 12.375C8.79322 12.375 8.625 12.2068 8.625 12C8.625 11.7932 8.79322 11.625 9 11.625Z" fill="white"/>
<path d="M9 12.75C8.58579 12.75 8.25 12.4142 8.25 12C8.25 11.5858 8.58579 11.25 9 11.25C9.41421 11.25 9.75 11.5858 9.75 12C9.75 12.4142 9.41421 12.75 9 12.75Z" fill="white"/>
</svg>
